<svg width="24" height="24" viewBox="0 0 24 24" fill="none" xmlns="http://www.w3.org/2000/svg">
<g clip-path="url(#clip0_576_10973)">
<path d="M9 16C9.85038 16.6303 10.8846 17 12 17C13.1154 17 14.1496 16.6303 15 16" stroke="black" stroke-width="1.5" stroke-linecap="round"/>
<ellipse cx="15" cy="10.5" rx="1" ry="1.5" fill="black"/>
<ellipse cx="9" cy="10.5" rx="1" ry="1.5" fill="black"/>
<path d="M15 22H12C7.28595 22 4.92893 22 3.46447 20.5355C2 19.0711 2 16.714 2 12C2 7.28595 2 4.92893 3.46447 3.46447C4.92893 2 7.28595 2 12 2C16.714 2 19.0711 2 20.5355 3.46447C22 4.92893 22 7.28595 22 12V15M15 22C18.866 22 22 18.866 22 15M15 22C15 20.1387 15 19.2081 15.2447 18.4549C15.7393 16.9327 16.9327 15.7393 18.4549 15.2447C19.2081 15 20.1387 15 22 15" stroke="black" stroke-width="1.5"/>
<path d="M9 16C9.85038 16.6303 10.8846 17 12 17C13.1154 17 14.1496 16.6303 15 16" stroke="black" stroke-width="1.5" stroke-linecap="round"/>
<path d="M15 12C15.5523 12 16 11.3284 16 10.5C16 9.67157 15.5523 9 15 9C14.4477 9 14 9.67157 14 10.5C14 11.3284 14.4477 12 15 12Z" fill="black"/>
<path d="M9 12C9.55228 12 10 11.3284 10 10.5C10 9.67157 9.55228 9 9 9C8.44772 9 8 9.67157 8 10.5C8 11.3284 8.44772 12 9 12Z" fill="black"/>
<path d="M15 22H12C7.28595 22 4.92893 22 3.46447 20.5355C2 19.0711 2 16.714 2 12C2 7.28595 2 4.92893 3.46447 3.46447C4.92893 2 7.28595 2 12 2C16.714 2 19.0711 2 20.5355 3.46447C22 4.92893 22 7.28595 22 12V15M15 22C18.866 22 22 18.866 22 15M15 22C15 20.1387 15 19.2081 15.2447 18.4549C15.7393 16.9327 16.9327 15.7393 18.4549 15.2447C19.2081 15 20.1387 15 22 15" stroke="black" stroke-width="1.5"/>
</g>
<defs>
<clipPath id="clip0_576_10973">
<rect width="24" height="24" fill="white"/>
</clipPath>
</defs>
</svg>
