<svg width="24" height="24" viewBox="0 0 24 24" fill="none" xmlns="http://www.w3.org/2000/svg">
<path d="M4 18H20C21.1046 18 22 17.1046 22 16C22 14.8954 21.1046 14 20 14H4C2.89543 14 2 14.8954 2 16C2 17.1046 2.89543 18 4 18Z" stroke="black" stroke-width="1.5"/>
<path opacity="0.5" d="M4.50005 14L4.42541 13.7014C3.33857 9.35409 2.79516 7.18043 3.86596 5.67821C3.93351 5.58345 4.00516 5.49169 4.08071 5.40317C5.27836 4 7.51892 4 12.0001 4C16.4812 4 18.7217 4 19.9194 5.40317C19.9949 5.49169 20.0666 5.58345 20.1341 5.67821C21.2049 7.18043 20.6615 9.35409 19.5747 13.7014L19.5 14" stroke="black" stroke-width="1.5"/>
<path opacity="0.5" d="M20 20V18M4 20V18" stroke="black" stroke-width="1.5" stroke-linecap="round"/>
</svg>
