<svg width="24" height="24" viewBox="0 0 24 24" fill="none" xmlns="http://www.w3.org/2000/svg">
<circle cx="10" cy="14" r="8" stroke="black" stroke-width="1.5"/>
<path d="M22 2H22.75C22.75 1.58579 22.4142 1.25 22 1.25V2ZM21.25 7C21.25 7.41421 21.5858 7.75 22 7.75C22.4142 7.75 22.75 7.41421 22.75 7H21.25ZM17 1.25C16.5858 1.25 16.25 1.58579 16.25 2C16.25 2.41421 16.5858 2.75 17 2.75V1.25ZM15.5 8.5L16.0303 9.03033L22.5303 2.53033L22 2L21.4697 1.46967L14.9697 7.96967L15.5 8.5ZM22 2H21.25V7H22H22.75V2H22ZM17 2V2.75H22V2V1.25H17V2Z" fill="black"/>
</svg>
