<svg width="24" height="24" viewBox="0 0 24 24" fill="none" xmlns="http://www.w3.org/2000/svg">
<path d="M17.5303 1.46965C17.2374 1.17676 16.7626 1.17676 16.4697 1.46965C16.1768 1.76255 16.1768 2.23742 16.4697 2.53031L18.4394 4.5L16.4697 6.46966C16.1768 6.76255 16.1768 7.23742 16.4697 7.53032C16.7626 7.82321 17.2375 7.82321 17.5304 7.53032L19.5 5.56066L21.4696 7.5303C21.7625 7.82319 22.2374 7.82319 22.5303 7.5303C22.8232 7.2374 22.8232 6.76253 22.5303 6.46964L20.5607 4.5L22.5303 2.53034C22.8232 2.23744 22.8232 1.76257 22.5303 1.46967C22.2374 1.17678 21.7626 1.17678 21.4697 1.46967L19.5 3.43934L17.5303 1.46965Z" fill="black"/>
<path d="M11.9426 1.25C9.63423 1.24999 7.82519 1.24998 6.41371 1.43975C4.96897 1.63399 3.82895 2.03933 2.93414 2.93414C2.03933 3.82895 1.63399 4.96897 1.43975 6.41371C1.24998 7.8252 1.24999 9.63423 1.25 11.9426V12.0574C1.24999 14.3658 1.24998 16.1748 1.43975 17.5863C1.63399 19.031 2.03933 20.1711 2.93414 21.0659C3.82895 21.9607 4.96897 22.366 6.41371 22.5603C7.82519 22.75 9.63423 22.75 11.9426 22.75H12.0574C14.3658 22.75 16.1748 22.75 17.5863 22.5603C19.031 22.366 20.1711 21.9607 21.0659 21.0659C21.9607 20.1711 22.366 19.031 22.5603 17.5863C22.75 16.1748 22.75 14.3658 22.75 12.0574V10.5C22.75 10.0858 22.4142 9.75 22 9.75C21.5858 9.75 21.25 10.0858 21.25 10.5V12C21.25 14.3782 21.2484 16.0864 21.0736 17.3864C20.9018 18.6648 20.5749 19.4356 20.0052 20.0052C19.4355 20.5749 18.6648 20.9018 17.3864 21.0736C16.0864 21.2484 14.3782 21.25 12 21.25C9.62178 21.25 7.91356 21.2484 6.61358 21.0736C5.33517 20.9018 4.56445 20.5749 3.9948 20.0052C3.42514 19.4356 3.09825 18.6648 2.92637 17.3864C2.75159 16.0864 2.75 14.3782 2.75 12C2.75 9.62178 2.75159 7.91356 2.92637 6.61358C3.09825 5.33518 3.42514 4.56446 3.9948 3.9948C4.56445 3.42514 5.33517 3.09825 6.61358 2.92638C7.91356 2.7516 9.62178 2.75001 12 2.75001H13.5C13.9142 2.75001 14.25 2.41422 14.25 2C14.25 1.58579 13.9142 1.25 13.5 1.25L11.9426 1.25Z" fill="black"/>
</svg>
