<svg width="24" height="24" viewBox="0 0 24 24" fill="none" xmlns="http://www.w3.org/2000/svg">
<g clip-path="url(#clip0_757_31)">
<path opacity="0.5" d="M1 12C1 6.81455 1 4.22183 2.61091 2.61091C4.22183 1 6.81455 1 12 1C17.1854 1 19.7782 1 21.3891 2.61091C23 4.22183 23 6.81455 23 12C23 17.1854 23 19.7782 21.3891 21.3891C19.7782 23 17.1854 23 12 23C6.81455 23 4.22183 23 2.61091 21.3891C1 19.7782 1 17.1854 1 12Z" fill="black"/>
<path d="M2.61091 2.61091C1 4.22183 1 6.81455 1 12C1 17.1854 1 19.7782 2.61091 21.3891C3.00671 21.7849 3.46177 22.0834 4 22.3086V1.69137C3.46177 1.91657 3.00671 2.21512 2.61091 2.61091Z" fill="black"/>
</g>
<defs>
<clipPath id="clip0_757_31">
<rect width="24" height="24" fill="white"/>
</clipPath>
</defs>
</svg>
