<svg width="24" height="24" viewBox="0 0 24 24" fill="none" xmlns="http://www.w3.org/2000/svg">
<path opacity="0.5" d="M14.8798 4.51641C14.8565 4.55134 14.6086 4.74073 14.2944 4.96187C13.6344 5.42646 12.8369 5.62641 12.0298 5.62641V5.10785C12.0298 4.50006 12.1548 3.89876 12.3972 3.34137C12.5516 2.98626 12.7519 2.65292 12.9929 2.34988L13.089 2.2291C13.4794 1.73836 13.9586 1.32552 14.5018 1.01217C14.9903 0.730362 15.5229 0.533318 16.0772 0.429394L16.6798 0.316406V0.619775C16.6798 1.34975 16.5298 2.07193 16.2392 2.74157C16.0735 3.12348 15.8639 3.48564 15.5792 3.78941C15.261 4.12893 14.9118 4.46841 14.8798 4.51641Z" fill="black"/>
<path d="M20.453 8.5045L20.8799 8.14547L20.8601 8.10413C20.6354 7.63614 20.3222 7.21616 19.9376 6.86747C18.9017 5.92828 17.4517 5.59585 16.1102 5.98998L14.7192 6.39863C13.5681 6.73678 12.3467 6.75477 11.1862 6.45064L9.44797 5.99509C8.89515 5.85022 8.31849 5.8203 7.75365 5.9072C7.03686 6.01748 6.36112 6.31245 5.79291 6.7631L5.27661 7.17258C4.4698 7.81247 3.82221 8.63058 3.38467 9.56275L3.34204 9.65357C2.8994 10.5966 2.66992 11.6255 2.66992 12.6673V13.4827C2.66992 14.1427 2.74062 14.8007 2.88081 15.4456L3.06785 16.3059C3.20221 16.924 3.39967 17.5266 3.65713 18.1043L4.04721 18.9796C4.34793 19.6544 4.7285 20.2907 5.18075 20.8749L6.31228 22.3364C6.54193 22.6331 6.82605 22.8832 7.14939 23.0734C7.81625 23.4657 8.6105 23.5803 9.36108 23.3927L9.74992 23.2955L11.1401 22.8161C11.9322 22.543 12.7912 22.5322 13.5899 22.7855L14.8655 23.3245C15.4218 23.5595 16.0367 23.6191 16.6277 23.4951C17.2463 23.3654 17.8072 23.0414 18.2286 22.5704L19.2004 21.4844C19.8147 20.7978 20.2955 20.0026 20.6181 19.1397L21.3299 17.2355L20.2804 16.3803C19.3889 15.6539 18.7827 14.6358 18.5689 13.5058C18.3747 12.4794 18.5152 11.4178 18.9696 10.4773L19.0523 10.3061C19.3869 9.61352 19.8643 8.99954 20.453 8.5045Z" fill="black"/>
</svg>
