<svg width="24" height="24" viewBox="0 0 24 24" fill="none" xmlns="http://www.w3.org/2000/svg">
<path opacity="0.5" d="M12 22C17.5228 22 22 17.5228 22 12C22 6.47715 17.5228 2 12 2C6.47715 2 2 6.47715 2 12C2 17.5228 6.47715 22 12 22Z" fill="black"/>
<path d="M11.4142 17.257C11.4113 17.2581 11.41 17.2584 11.41 17.2584L11.4142 17.257Z" fill="black"/>
<path d="M11.7969 17.4476C11.798 17.4503 11.7984 17.4519 11.7984 17.4519L11.7969 17.4476Z" fill="black"/>
<path d="M11.7969 6.55381C11.798 6.55113 11.7984 6.54957 11.7984 6.54957L11.7978 6.55122L11.7969 6.55381Z" fill="black"/>
<path fill-rule="evenodd" clip-rule="evenodd" d="M12.2099 5.46472C12.487 5.61575 12.8101 5.85889 13.155 6.11838L14.6854 7.26962C14.9218 7.44732 15.1601 7.6265 15.3326 7.80048C15.5269 7.99643 15.75 8.29501 15.75 8.71831C15.75 9.14161 15.5269 9.44018 15.3326 9.63614C15.1601 9.81012 14.9218 9.98931 14.6854 10.167L12.2477 12.0007L14.6854 13.8345C14.9218 14.0122 15.1601 14.1913 15.3326 14.3653C15.5269 14.5613 15.75 14.8598 15.75 15.2831C15.75 15.7064 15.5269 16.005 15.3326 16.201C15.1601 16.375 14.9218 16.5541 14.6854 16.7318L13.155 17.8831C12.8101 18.1426 12.487 18.3857 12.2099 18.5367C11.9267 18.6911 11.4599 18.8792 10.9653 18.6311C10.4717 18.3836 10.3423 17.8979 10.2956 17.5789C10.2499 17.2663 10.2499 16.8615 10.25 16.4289L10.25 13.602L8.48016 15.0769C8.16195 15.3421 7.68903 15.2991 7.42385 14.9809C7.15868 14.6627 7.20167 14.1897 7.51988 13.9246L9.82848 12.0007L7.51988 10.0769C7.20167 9.81172 7.15868 9.33879 7.42385 9.02059C7.68903 8.70238 8.16195 8.65938 8.48016 8.92456L10.25 10.3994L10.25 7.57255C10.2499 7.13993 10.2499 6.73511 10.2956 6.42251C10.3423 6.10354 10.4717 5.61784 10.9653 5.3703C11.4599 5.12228 11.9267 5.31036 12.2099 5.46472ZM11.75 16.3773V13.5034L13.7492 15.0072C13.8849 15.1093 13.9928 15.1905 14.0833 15.2625L14.1091 15.2831L14.0833 15.3038C13.9928 15.3758 13.8849 15.457 13.7492 15.5591L12.2946 16.6532C12.0676 16.824 11.8944 16.9535 11.7563 17.0504C11.7507 16.8809 11.75 16.6633 11.75 16.3773ZM11.4142 17.257C11.4113 17.2581 11.41 17.2584 11.41 17.2584L11.4142 17.257ZM11.7969 17.4476C11.798 17.4503 11.7984 17.4519 11.7984 17.4519L11.7969 17.4476ZM11.75 7.62417V10.4981L13.7492 8.99426C13.8849 8.89216 13.9928 8.81094 14.0833 8.73898L14.1091 8.71831L14.0833 8.69764C13.9928 8.62568 13.8849 8.54445 13.7492 8.44236L12.2946 7.34822C12.0676 7.17748 11.8944 7.04796 11.7563 6.95108C11.7507 7.12057 11.75 7.33818 11.75 7.62417ZM11.7969 6.55381C11.798 6.55113 11.7984 6.54957 11.7984 6.54957L11.7978 6.55122L11.7969 6.55381Z" fill="black"/>
</svg>
