<svg width="24" height="24" viewBox="0 0 24 24" fill="none" xmlns="http://www.w3.org/2000/svg">
<path fill-rule="evenodd" clip-rule="evenodd" d="M12.3019 12.0052L16.7426 15.1587C17.2829 15.5423 17.7547 15.8773 18.0842 16.1925C18.435 16.5279 18.75 16.957 18.75 17.5418C18.75 18.1267 18.435 18.5557 18.0842 18.8912C17.7547 19.2063 17.2828 19.5414 16.7425 19.925L14.9098 21.2265C14.1803 21.7446 13.5644 22.182 13.0535 22.4426C12.5333 22.7079 11.8982 22.9076 11.2631 22.5827C10.6261 22.2568 10.4191 21.6237 10.3337 21.0468C10.2499 20.4813 10.25 19.7282 10.25 18.8375L10.25 13.4416V10.5605L10.25 5.16363C10.25 4.27295 10.2499 3.51985 10.3337 2.95438C10.4191 2.37748 10.6261 1.74439 11.263 1.41849C11.8982 1.09352 12.5333 1.29321 13.0535 1.55856C13.5644 1.81914 14.1803 2.25657 14.9098 2.77464L16.7426 4.07618C17.2829 4.45979 17.7547 4.79483 18.0842 5.10994C18.435 5.44542 18.75 5.87447 18.75 6.45932C18.75 7.04417 18.435 7.47321 18.0842 7.80869C17.7547 8.12381 17.2829 8.45885 16.7426 8.84247L12.3013 11.9964L12.3079 12.001L12.3019 12.0052Z" fill="black"/>
<path opacity="0.5" d="M10.25 10.5595L6.43016 7.88564C6.09082 7.6481 5.62318 7.73063 5.38564 8.06997C5.1481 8.4093 5.23063 8.87695 5.56997 9.11449L9.69222 12.0001L5.56997 14.8856C5.23063 15.1232 5.1481 15.5908 5.38564 15.9302C5.62318 16.2695 6.09082 16.352 6.43016 16.1145L10.25 13.4406V10.5595Z" fill="black"/>
</svg>
