<svg width="24" height="24" viewBox="0 0 24 24" fill="none" xmlns="http://www.w3.org/2000/svg">
<path opacity="0.4" fill-rule="evenodd" clip-rule="evenodd" d="M12 4V8H10.772C9.43116 8 8.76073 8 8.24681 7.64385C7.73289 7.2877 7.49749 6.65997 7.02669 5.40449L6.5 4H12Z" fill="black"/>
<path opacity="0.6" d="M16.9733 5.40449L17.5 4H12V8H13.228C14.5688 8 15.2393 8 15.7532 7.64385C16.2671 7.2877 16.5025 6.65997 16.9733 5.40449Z" fill="black"/>
<path fill-rule="evenodd" clip-rule="evenodd" d="M3.17157 5.1704C2 6.34198 2 8.2276 2 11.9988C2 15.7701 2 17.6557 3.17157 18.8273C4.34315 19.9988 6.22876 19.9988 10 19.9988H14C17.7712 19.9988 19.6569 19.9988 20.8284 18.8273C22 17.6557 22 15.7701 22 11.9988C22 8.2276 22 6.34198 20.8284 5.1704C20.0914 4.43333 19.0717 4.15997 17.4776 4.05859L16.9733 5.40333C16.5025 6.6588 16.2671 7.28653 15.7532 7.64268C15.2393 7.99883 14.5688 7.99883 13.228 7.99883H10.772C9.43116 7.99883 8.76073 7.99883 8.24681 7.64268C7.73289 7.28653 7.49749 6.6588 7.02669 5.40333L6.52241 4.05859C4.92835 4.15997 3.90865 4.43333 3.17157 5.1704ZM8.25 11.499C7.00736 11.499 6 12.5064 6 13.749C6 14.9917 7.00736 15.999 8.25 15.999C9.49264 15.999 10.5 14.9917 10.5 13.749C10.5 12.5064 9.49264 11.499 8.25 11.499ZM15.75 11.499C14.5074 11.499 13.5 12.5064 13.5 13.749C13.5 14.9917 14.5074 15.999 15.75 15.999C16.9926 15.999 18 14.9917 18 13.749C18 12.5064 16.9926 11.499 15.75 11.499Z" fill="black"/>
</svg>
