<svg width="24" height="24" viewBox="0 0 24 24" fill="none" xmlns="http://www.w3.org/2000/svg">
<path opacity="0.5" d="M13.228 8H10.772C9.43116 8 8.76073 8 8.24681 7.64385C7.73289 7.2877 7.49749 6.65997 7.02669 5.40449L6.5 4H17.5L16.9733 5.40449C16.5025 6.65997 16.2671 7.2877 15.7532 7.64385C15.2393 8 14.5688 8 13.228 8Z" fill="black"/>
<g opacity="0.5">
<path d="M13.5 13.75C13.5 14.9926 14.5074 16 15.75 16C16.9926 16 18 14.9926 18 13.75C18 12.5074 16.9926 11.5 15.75 11.5C14.5074 11.5 13.5 12.5074 13.5 13.75Z" fill="black"/>
<path d="M6 13.75C6 14.9926 7.00736 16 8.25 16C9.49264 16 10.5 14.9926 10.5 13.75C10.5 12.5074 9.49264 11.5 8.25 11.5C7.00736 11.5 6 12.5074 6 13.75Z" fill="black"/>
</g>
<path fill-rule="evenodd" clip-rule="evenodd" d="M3.17157 5.1706C2 6.34217 2 8.22779 2 11.999C2 15.7703 2 17.6559 3.17157 18.8275C4.34315 19.999 6.22876 19.999 10 19.999H14C17.7712 19.999 19.6569 19.999 20.8284 18.8275C22 17.6559 22 15.7703 22 11.999C22 8.22779 22 6.34217 20.8284 5.1706C20.0914 4.43352 19.0717 4.16016 17.4776 4.05879L16.9733 5.40352C16.5025 6.65899 16.2671 7.28673 15.7532 7.64287C15.2393 7.99902 14.5688 7.99902 13.228 7.99902H10.772C9.43116 7.99902 8.76073 7.99902 8.24681 7.64287C7.73289 7.28673 7.49749 6.65899 7.02669 5.40352L6.52241 4.05879C4.92835 4.16016 3.90865 4.43352 3.17157 5.1706ZM15.75 15.9992C15.7401 15.9992 15.7599 15.9993 15.75 15.9992C16.9926 15.9992 18 14.9919 18 13.7492C18 12.5066 16.9926 11.4992 15.75 11.4992L8.25 11.499C7.00736 11.499 6 12.5066 6 13.7492C6 14.9919 7.00736 15.9992 8.25 15.9992C8.24012 15.9993 8.25991 15.9992 8.25 15.9992H15.75Z" fill="black"/>
</svg>
