<svg width="24" height="24" viewBox="0 0 24 24" fill="none" xmlns="http://www.w3.org/2000/svg">
<path opacity="0.5" d="M19.83 10.441L18.2957 12L18.1851 12.1106L18.0965 12.022C17.6068 11.1519 16.6504 10.1954 15.2272 8.77225C13.8195 7.36455 12.8684 6.41349 12.0059 5.91907L13.6929 4.20481C15.1394 2.73494 15.8627 2 16.7614 2C17.6602 2 18.3835 2.73494 19.83 4.20481C21.2765 5.67469 21.9998 6.40962 21.9998 7.32289C21.9998 8.23615 21.2765 8.97109 19.83 10.441Z" fill="black"/>
<path fill-rule="evenodd" clip-rule="evenodd" d="M2 14.1422C2 15.4903 3.08489 16.5752 5.25467 18.745C7.42446 20.9148 8.50935 21.9997 9.85748 21.9997C11.2056 21.9997 12.2905 20.9148 14.4603 18.745L15.2274 17.9779C17.3972 15.8081 18.4821 14.7232 18.4821 13.3751C18.4821 12.0269 17.3972 10.942 15.2274 8.77226C13.0576 6.60248 11.9727 5.51758 10.6246 5.51758C9.27648 5.51758 8.19159 6.60247 6.02181 8.77225L5.25467 9.53939C3.08489 11.7092 2 12.7941 2 14.1422ZM5.78521 13.6122C5.49232 13.3194 5.01745 13.3194 4.72455 13.6122C4.43166 13.9051 4.43166 14.38 4.72455 14.6729L9.32736 19.2757C9.62025 19.5686 10.0951 19.5686 10.388 19.2757C10.6809 18.9828 10.6809 18.5079 10.388 18.2151L5.78521 13.6122Z" fill="black"/>
<path fill-rule="evenodd" clip-rule="evenodd" d="M19.2476 6.87213C19.5405 7.16502 19.5405 7.63989 19.2476 7.93279L18.5405 8.63989C18.2476 8.93279 17.7727 8.93279 17.4798 8.63989C17.187 8.347 17.187 7.87213 17.4798 7.57923L18.187 6.87213C18.4798 6.57923 18.9547 6.57923 19.2476 6.87213Z" fill="black"/>
<path fill-rule="evenodd" clip-rule="evenodd" d="M17.1265 4.75103C17.4194 5.04393 17.4194 5.5188 17.1265 5.81169L16.4194 6.5188C16.1265 6.81169 15.6516 6.81169 15.3588 6.5188C15.0659 6.22591 15.0659 5.75103 15.3588 5.45814L16.0659 4.75103C16.3588 4.45814 16.8336 4.45814 17.1265 4.75103Z" fill="black"/>
</svg>
