<svg width="24" height="24" viewBox="0 0 24 24" fill="none" xmlns="http://www.w3.org/2000/svg">
<path opacity="0.5" d="M9.26953 7.04802V7.134C9.26953 7.22639 9.30098 7.31604 9.35869 7.38818C9.37821 7.41258 9.40047 7.43464 9.42504 7.45395L10.2178 8.07683L10.6961 8.43552C10.7722 8.49261 10.8533 8.54274 10.9384 8.5853C11.3468 8.7895 11.8253 8.81172 12.2435 8.62852C12.3572 8.57871 12.4444 8.53834 12.4699 8.52134C12.5411 8.47392 13.0725 8.12622 13.3293 7.9583L13.7357 7.74697C13.9482 7.63649 14.1024 7.43943 14.1586 7.20663L14.1683 7.16646C14.2354 6.8886 14.141 6.5966 13.924 6.41057C13.8832 6.37568 13.839 6.3452 13.7919 6.31971C13.4278 6.12294 12.7958 5.78761 12.707 5.76542C12.6575 5.75304 12.5197 5.69166 12.3711 5.62175C12.1229 5.50493 11.853 5.43945 11.5786 5.43945C11.1773 5.43945 10.7879 5.57604 10.4745 5.82674L10.2178 6.03212L9.54101 6.51857C9.37057 6.64107 9.26953 6.83813 9.26953 7.04802Z" fill="black"/>
<g opacity="0.5">
<path d="M3.76188 17.7916C3.85826 17.7778 4.03259 17.6835 4.19666 17.5816C4.40451 17.4525 4.58262 17.2823 4.74065 17.0956L4.98749 16.8038C5.0977 16.6736 5.23406 16.5679 5.38771 16.4938L5.53504 16.4226C5.83187 16.2793 6.18233 16.3036 6.45658 16.4864C6.57484 16.5653 6.67349 16.6701 6.74497 16.793L7.5846 18.2361C7.78216 18.6609 8.19505 19.5281 8.26617 19.5993C8.35507 19.6882 9.21444 20.5179 9.30334 20.5772C9.39224 20.6364 9.80711 21.8218 9.83675 21.9996C9.84906 22.0735 9.75523 22.3106 9.6359 22.5713C9.43824 23.0031 9.03302 23.2982 8.56734 23.3914C8.36843 23.4312 8.16371 23.4322 7.96439 23.3945L7.46558 23.3001C7.26871 23.2629 7.07541 23.2088 6.88781 23.1385L5.99016 22.8018C5.67193 22.6825 5.33799 22.6102 4.99889 22.5872L4.21597 22.5341C3.91642 22.5138 3.62419 22.4324 3.35728 22.2949L3.01812 22.1202C2.86524 22.0414 2.73817 21.9205 2.65201 21.7716C2.52818 21.5577 2.49792 21.3023 2.56835 21.0654L2.66927 20.7259C2.74472 20.4721 2.76057 20.2043 2.71558 19.9434L2.66153 19.6299C2.64441 19.5306 2.63581 19.4301 2.63581 19.3293V18.8091C2.63581 18.458 2.83422 18.1369 3.14833 17.9799C3.20164 17.9532 3.25739 17.9318 3.31482 17.9158L3.76188 17.7916Z" fill="black"/>
<path d="M16.8787 16.4862C16.5999 16.3088 16.2404 16.3226 15.976 16.5209C15.8024 16.6511 15.6897 16.8467 15.664 17.0622L15.556 17.9694V18.66C15.556 18.9297 15.5248 19.1984 15.4631 19.4609L15.2004 20.5772L14.9506 21.6674C14.9003 21.8869 14.8918 22.1139 14.9255 22.3365L14.9626 22.5814C15.0014 22.8373 15.1285 23.0716 15.322 23.2436C15.475 23.3796 15.6627 23.4706 15.8643 23.5064L16.4705 23.6142C16.7467 23.6633 17.0302 23.6535 17.3024 23.5855C17.6527 23.4979 17.9727 23.3167 18.228 23.0614L18.6675 22.6219L19.2885 22.0573C19.5253 21.842 19.7906 21.6603 20.0769 21.5171L20.6879 21.2116C20.7829 21.1641 20.8727 21.107 20.956 21.0411L21.2138 20.837C21.4211 20.6729 21.542 20.423 21.542 20.1586C21.542 20.0437 21.5191 19.9299 21.4747 19.824L21.2523 19.2937C21.1898 19.1446 21.088 19.0152 20.9578 18.9193C20.7289 18.7506 20.5937 18.4831 20.5937 18.1987V17.9889C20.5937 17.8387 20.5679 17.6897 20.5174 17.5483L20.4726 17.4228C20.3622 17.1137 20.1138 16.8738 19.801 16.7743C19.6979 16.7415 19.5904 16.7248 19.4822 16.7248H18.8672C18.7343 16.7248 18.6017 16.7358 18.4706 16.7576C18.1317 16.8141 17.7846 16.7975 17.4525 16.709L17.2035 16.6426C17.1132 16.6185 17.0272 16.5808 16.9484 16.5306L16.8787 16.4862Z" fill="black"/>
</g>
<path fill-rule="evenodd" clip-rule="evenodd" d="M10.3251 22.6539C10.4436 22.5353 11.7771 22.2983 11.866 22.2983C11.9196 22.2983 12.605 22.4329 13.189 22.55C13.5301 22.6184 13.8793 22.6367 14.2255 22.6029L14.9009 22.537C14.9124 22.5359 14.9236 22.533 14.9342 22.5283L14.91 22.3685C14.8763 22.1459 14.8848 21.9189 14.9351 21.6994L15.1724 20.6639C14.9561 20.7599 14.746 20.8204 14.6219 20.8462L13.3442 21.2485C13.1297 21.316 12.9092 21.3627 12.6857 21.3878L12.1289 21.4506C11.3446 21.539 10.5534 21.3594 9.88413 20.9411L9.83302 20.9091C9.60861 20.7689 9.40084 20.6036 9.21372 20.4165L9.01439 20.2171C8.78299 19.9857 8.58522 19.723 8.42687 19.4366L7.47234 17.7103C7.33979 17.4706 7.23638 17.2159 7.1643 16.9516L7.13704 16.8517C6.93786 16.1214 7.00766 15.3438 7.33371 14.6607C7.4115 14.4977 7.47516 14.3283 7.52399 14.1545L8.09489 12.1221C8.15909 11.8935 8.2464 11.6721 8.35547 11.4612L9.08044 10.0596L9.16276 9.90087C9.38126 9.47948 9.49531 9.01176 9.49531 8.53708V8.35384C9.49531 8.31889 9.49809 8.28399 9.50362 8.24947L9.56182 7.88607C9.57744 7.78855 9.65943 7.71542 9.7581 7.711L9.42757 7.4513C9.403 7.43199 9.38074 7.40993 9.36122 7.38553C9.3035 7.31339 9.27206 7.22374 9.27206 7.13135V7.04537C9.27206 6.83548 9.3731 6.63842 9.54354 6.51592L9.76347 6.35784C9.64605 6.28092 9.54956 6.17611 9.4801 6.05413C9.40511 5.92245 9.33133 5.77978 9.33133 5.73314C9.33133 5.69589 9.30744 5.57572 9.27843 5.44416C9.22972 5.22322 9.21527 4.99575 9.24259 4.77116C9.25443 4.67383 9.26623 4.57614 9.27614 4.49387C9.29295 4.35438 9.34586 4.22181 9.42979 4.10913L9.45814 4.07106C9.54289 3.95729 9.66201 3.87383 9.79787 3.83301C9.91892 3.79665 10.0479 3.79578 10.1694 3.83051L10.1864 3.83538C10.3244 3.8748 10.4475 3.9545 10.5399 4.06426L10.6381 4.18077C10.7909 4.36225 10.8875 4.58434 10.916 4.81986L10.9768 5.32129C10.986 5.39759 10.9806 5.47497 10.9608 5.54924C11.1578 5.47541 11.3678 5.4368 11.5811 5.4368C11.6118 5.4368 11.6424 5.43762 11.6729 5.43923C11.6725 5.43763 11.6725 5.43597 11.6728 5.43435L11.7789 4.77641C11.8064 4.60569 11.865 4.44144 11.9516 4.29178L11.9768 4.24825C12.0879 4.05638 12.2486 3.89797 12.442 3.78965L12.461 3.77901C12.5473 3.73071 12.6398 3.69452 12.7359 3.67145L12.7614 3.66533C12.9405 3.62232 13.1282 3.63041 13.303 3.68868C13.4768 3.74663 13.6311 3.8519 13.7484 3.99268L13.8427 4.10589C13.9556 4.24139 14.0438 4.39571 14.1033 4.56178L14.1148 4.5939C14.1878 4.79807 14.2183 5.01504 14.2044 5.23145C14.1957 5.36778 14.1693 5.50242 14.1261 5.63202L14.0268 5.9301C13.9788 6.07405 13.9038 6.20752 13.8058 6.32335C13.8487 6.34752 13.8891 6.37586 13.9265 6.40792C14.1435 6.59395 14.2379 6.88595 14.1708 7.16381L14.1611 7.20398C14.1329 7.32075 14.0801 7.42853 14.0076 7.5209C14.1373 7.51509 14.2558 7.59373 14.3 7.71582C14.5226 8.33071 14.8673 9.30619 14.9009 9.49659C14.9385 9.70995 15.9102 11.9957 16.3914 13.1119L16.9262 14.4921C17.1257 15.0068 17.2004 15.5614 17.1444 16.1105L17.0901 16.6425C17.1221 16.655 17.1548 16.6657 17.188 16.6746L17.4371 16.741C17.7691 16.8295 18.1162 16.8461 18.4551 16.7896C18.5862 16.7678 18.7188 16.7568 18.8517 16.7568H19.4667C19.5749 16.7568 19.6824 16.7735 19.7856 16.8063C19.8442 16.825 19.9007 16.8486 19.9543 16.8767L20.0448 16.1345L20.1169 15.1795C20.1476 14.7723 20.1068 14.3628 19.9962 13.9696L19.8967 13.6156L19.3633 12.3118L18.8414 11.2681C18.6961 10.9775 18.511 10.7086 18.2915 10.4691L17.6445 9.76329L16.8942 8.86291C16.7037 8.63436 16.5432 8.38244 16.4166 8.11325L16.3914 8.05974C16.2205 7.69672 16.1135 7.30701 16.0748 6.90766L16.0443 6.59251L16.1161 4.63092C16.1275 4.32007 16.0973 4.0091 16.0264 3.70622L15.9158 3.23357C15.8438 2.9258 15.7303 2.62923 15.5786 2.35194L15.2595 1.76876C15.0553 1.39547 14.7575 1.08165 14.3955 0.85805C14.0956 0.672796 13.7593 0.55428 13.4095 0.510553L12.5962 0.408892C12.2302 0.36315 11.8594 0.375829 11.4974 0.446455L11.3355 0.478046C11.0009 0.543337 10.6821 0.672851 10.3967 0.859426C10.1725 1.00607 9.97181 1.18603 9.80172 1.3931L9.76212 1.44131C9.50773 1.751 9.31695 2.10786 9.20072 2.49141L9.19082 2.52409C9.11749 2.76607 9.07294 3.01585 9.0581 3.26825L8.96191 4.9034C9.00142 5.50595 9.08044 6.73475 9.08044 6.82958C9.08044 6.88488 9.02668 7.12431 8.9662 7.37503C8.88737 7.70177 8.75556 8.01311 8.58263 8.30133L7.86547 9.49659L6.08746 12.4303L5.33546 14.0805C5.12801 14.5358 5.02066 15.0302 5.02066 15.5305V16.5494L5.04894 16.753C5.14344 16.6604 5.2526 16.5835 5.37225 16.5258L5.51958 16.4546C5.8164 16.3113 6.16686 16.3356 6.44111 16.5184C6.55938 16.5973 6.65803 16.7021 6.72951 16.825L7.56914 18.2681C7.76669 18.6929 8.17959 19.5601 8.25071 19.6312C8.33961 19.7201 9.19898 20.5499 9.28788 20.6091C9.37678 20.6684 9.79165 21.8538 9.82128 22.0316C9.8336 22.1055 9.73977 22.3426 9.62044 22.6033C9.61037 22.6253 9.59977 22.6469 9.58865 22.6682C9.84386 22.7043 10.2414 22.7375 10.3251 22.6539ZM13.1845 5.99303L13.2363 5.93602C13.3565 5.80381 13.4343 5.63858 13.4595 5.4617C13.4731 5.3667 13.4713 5.27013 13.4541 5.17572L13.4479 5.14154C13.4299 5.04272 13.3959 4.94751 13.3471 4.8597L13.3166 4.8049C13.2875 4.7524 13.2498 4.70509 13.2052 4.66491L13.1506 4.61585C13.0425 4.51849 12.8911 4.4851 12.752 4.5279C12.6488 4.55966 12.5621 4.6305 12.5104 4.72531L12.46 4.81771C12.429 4.87454 12.4063 4.93555 12.3928 4.99885L12.379 5.06302C12.343 5.23096 12.346 5.4049 12.3876 5.57151L12.403 5.63285C12.54 5.69691 12.6633 5.75121 12.7095 5.76277C12.7564 5.77448 12.9544 5.87334 13.1845 5.99303ZM10.1281 6.09577C10.0717 6.07163 10.0214 6.03535 9.98069 5.98954L9.92525 5.92717C9.8464 5.83846 9.78853 5.73315 9.75593 5.61904L9.72055 5.49522C9.6983 5.41734 9.68951 5.33622 9.69456 5.25538L9.70686 5.05861C9.71297 4.96081 9.76443 4.87149 9.84595 4.81714C9.93191 4.75984 10.0406 4.74852 10.1365 4.78689L10.1696 4.80013C10.2412 4.82879 10.3025 4.87851 10.3453 4.94272L10.3857 5.00336C10.433 5.07424 10.465 5.15415 10.4798 5.23804L10.5102 5.40979C10.5341 5.54564 10.5386 5.68421 10.5233 5.82131L10.5167 5.88131L10.3219 5.97867C10.2543 6.01249 10.1895 6.05164 10.1281 6.09577Z" fill="black"/>
</svg>
