<svg width="24" height="24" viewBox="0 0 24 24" fill="none" xmlns="http://www.w3.org/2000/svg">
<path opacity="0.5" d="M2.53488 11.9161C2.53488 17.1834 6.77256 21.4534 12 21.4534C17.2274 21.4534 21.4651 17.1834 21.4651 11.9161C21.4651 8.14213 19.2898 4.87867 16.1303 3.33204C15.749 3.14542 15.5901 2.68271 15.7753 2.29856C15.9605 1.91442 16.4197 1.75429 16.801 1.94091C20.4689 3.73641 23 7.52765 23 11.9161C23 18.0375 18.0751 23 12 23C5.92487 23 1 18.0375 1 11.9161C1 6.54784 4.78661 2.07251 9.81487 1.05095C11.5037 0.707845 12.7674 2.15503 12.7674 3.66754V5.80249C14.6612 6.16648 16.0933 7.85287 16.0933 9.87826V13.9999C16.0933 16.2911 14.2608 18.1484 12.0002 18.1484C9.73974 18.1484 7.90723 16.2911 7.90723 13.9999V9.87826C7.90723 7.85305 9.339 6.16678 11.2326 5.80259V3.66754C11.2326 2.90228 10.6454 2.45995 10.1182 2.56704C5.79222 3.44593 2.53488 7.29856 2.53488 11.9161Z" fill="black"/>
<path d="M7.90723 13.9547C7.90723 16.2459 9.73974 18.1032 12.0002 18.1032C14.2608 18.1032 16.0933 16.2459 16.0933 13.9547V10.584H7.90723V13.9547Z" fill="black"/>
<path d="M12.7677 9.33919H16.0214C15.7094 7.67179 14.4128 6.04676 12.7677 5.73047V9.33919Z" fill="black"/>
<path d="M11.2328 9.33919V5.73047C9.58771 6.04676 8.29112 7.67179 7.97906 9.33919H11.2328Z" fill="black"/>
</svg>
