<svg width="24" height="24" viewBox="0 0 24 24" fill="none" xmlns="http://www.w3.org/2000/svg">
<g opacity="0.5">
<path fill-rule="evenodd" clip-rule="evenodd" d="M12.7497 22C17.9224 21.6161 22 17.2918 22 12.0139L22 12.0069L22 12C22 6.47715 17.5228 2 12 2C6.47715 2 2 6.47715 2 12L2 12.0069L2 12.0139C2 17.2918 6.07759 21.6161 11.2503 22L11.2503 21.9723C6.07986 21.5891 2.00357 17.2744 2 12.0069C2.00374 6.47961 6.47946 2 12 2C17.5205 2 21.9963 6.47961 22 12.0069C21.9964 17.2744 17.9201 21.5891 12.7497 21.9723L12.7497 22Z" fill="black"/>
<path d="M11.2503 21.9723C11.4978 21.9907 11.7478 22 12 22C12.2522 22 12.5022 21.9907 12.7497 21.9723C17.9201 21.5891 21.9964 17.2744 22 12.0069C21.9963 6.47961 17.5205 2 12 2C6.47946 2 2.00374 6.47961 2 12.0069C2.00357 17.2744 6.07986 21.5891 11.2503 21.9723Z" fill="black"/>
</g>
<path d="M8.5 12.5137C8.5 14.1916 9.67737 15.594 11.2499 15.9379L11.2503 21.9715C11.4978 21.9898 11.7478 21.9992 12 21.9992C12.2522 21.9992 12.5022 21.9898 12.7497 21.9715L12.7499 15.9379C14.3226 15.5941 15.5 14.1916 15.5 12.5137V12.013C15.5 11.46 15.0523 11.0116 14.5 11.0116H14.25V9.00885C14.25 8.59406 13.9142 8.25781 13.5 8.25781C13.0858 8.25781 12.75 8.59406 12.75 9.00885V11.0116H11.25V9.00885C11.25 8.59406 10.9142 8.25781 10.5 8.25781C10.0858 8.25781 9.75 8.59406 9.75 9.00885V11.0116H9.5C8.94772 11.0116 8.5 11.46 8.5 12.013V12.5137Z" fill="black"/>
</svg>
