<svg width="24" height="24" viewBox="0 0 24 24" fill="none" xmlns="http://www.w3.org/2000/svg">
<g opacity="0.5">
<path d="M9.89846 11.2995V3.62141C9.89846 3.48253 9.77796 3.37435 9.63989 3.38928L1.46815 4.27267C1.34961 4.28548 1.25977 4.38556 1.25977 4.50479V11.2995C1.25977 11.4285 1.3643 11.533 1.49324 11.533H9.66498C9.79393 11.533 9.89846 11.4285 9.89846 11.2995Z" fill="black"/>
<path d="M10.8324 21.1315V12.7004C10.8324 12.5715 10.9369 12.4669 11.0659 12.4669H22.5063C22.6352 12.4669 22.7398 12.5715 22.7398 12.7004V22.4774C22.7398 22.6172 22.6178 22.7256 22.479 22.7093L11.0386 21.3634C10.921 21.3495 10.8324 21.2499 10.8324 21.1315Z" fill="black"/>
</g>
<path d="M1.25977 19.7362V12.7001C1.25977 12.5711 1.3643 12.4666 1.49324 12.4666H9.66498C9.79393 12.4666 9.89846 12.5711 9.89846 12.7001V20.8397C9.89846 20.9805 9.7758 21.0894 9.63614 21.0713C8.51191 20.9253 4.04074 20.342 1.45779 19.9668C1.34313 19.9502 1.25977 19.852 1.25977 19.7362Z" fill="black"/>
<path d="M10.8324 11.416V3.32719C10.8324 3.21221 10.9161 3.11435 11.0297 3.09654L22.4701 1.30206C22.6117 1.27985 22.7398 1.38935 22.7398 1.53272V11.416C22.7398 11.5449 22.6352 11.6494 22.5063 11.6494H11.0659C10.9369 11.6494 10.8324 11.5449 10.8324 11.416Z" fill="black"/>
</svg>
