<svg width="24" height="24" viewBox="0 0 24 24" fill="none" xmlns="http://www.w3.org/2000/svg">
<path fill-rule="evenodd" clip-rule="evenodd" d="M13.1056 2.81542C11.1862 2.58276 9.17922 2.94735 7.37509 3.98897C2.95088 6.54329 1.43503 12.2005 3.98935 16.6247C6.54367 21.0489 12.2009 22.5648 16.6251 20.0104C18.4292 18.9688 19.7485 17.413 20.5067 15.6344C21.6094 13.0476 21.5237 9.99511 20.0108 7.37471C18.4979 4.7543 15.8972 3.1538 13.1056 2.81542ZM6.62509 2.68993C8.72017 1.48034 11.0553 1.05591 13.2861 1.32632C16.5259 1.71902 19.5511 3.57847 21.3099 6.62471C23.0686 9.67094 23.1663 13.2206 21.8865 16.2227C21.0053 18.2898 19.4702 20.0999 17.3751 21.3095C12.2334 24.278 5.65884 22.5164 2.69031 17.3747C-0.278218 12.2331 1.48344 5.65846 6.62509 2.68993Z" fill="black"/>
<path fill-rule="evenodd" clip-rule="evenodd" d="M9.74988 8.99999C9.33567 8.99999 8.99988 9.33578 8.99988 9.74999C8.99988 10.1642 9.33567 10.5 9.74988 10.5C10.1641 10.5 10.4999 10.1642 10.4999 9.74999C10.4999 9.33578 10.1641 8.99999 9.74988 8.99999ZM7.99988 9.74999C7.99988 8.78349 8.78338 7.99999 9.74988 7.99999C10.7164 7.99999 11.4999 8.78349 11.4999 9.74999C11.4999 10.7165 10.7164 11.5 9.74988 11.5C8.78338 11.5 7.99988 10.7165 7.99988 9.74999ZM14.2499 8.99999C13.8357 8.99999 13.4999 9.33578 13.4999 9.74999C13.4999 10.1642 13.8357 10.5 14.2499 10.5C14.6641 10.5 14.9999 10.1642 14.9999 9.74999C14.9999 9.33578 14.6641 8.99999 14.2499 8.99999ZM12.4999 9.74999C12.4999 8.78349 13.2834 7.99999 14.2499 7.99999C15.2164 7.99999 15.9999 8.78349 15.9999 9.74999C15.9999 10.7165 15.2164 11.5 14.2499 11.5C13.2834 11.5 12.4999 10.7165 12.4999 9.74999ZM9.74988 13.5C9.33567 13.5 8.99988 13.8358 8.99988 14.25C8.99988 14.6642 9.33567 15 9.74988 15C10.1641 15 10.4999 14.6642 10.4999 14.25C10.4999 13.8358 10.1641 13.5 9.74988 13.5ZM7.99988 14.25C7.99988 13.2835 8.78338 12.5 9.74988 12.5C10.7164 12.5 11.4999 13.2835 11.4999 14.25C11.4999 15.2165 10.7164 16 9.74988 16C8.78338 16 7.99988 15.2165 7.99988 14.25ZM14.2499 13.5C13.8357 13.5 13.4999 13.8358 13.4999 14.25C13.4999 14.6642 13.8357 15 14.2499 15C14.6641 15 14.9999 14.6642 14.9999 14.25C14.9999 13.8358 14.6641 13.5 14.2499 13.5ZM12.4999 14.25C12.4999 13.2835 13.2834 12.5 14.2499 12.5C15.2164 12.5 15.9999 13.2835 15.9999 14.25C15.9999 15.2165 15.2164 16 14.2499 16C13.2834 16 12.4999 15.2165 12.4999 14.25Z" fill="black"/>
<path d="M14.9999 5.74999C14.9999 6.1642 14.6641 6.49999 14.2499 6.49999C13.8357 6.49999 13.4999 6.1642 13.4999 5.74999C13.4999 5.33578 13.8357 4.99999 14.2499 4.99999C14.6641 4.99999 14.9999 5.33578 14.9999 5.74999Z" fill="black"/>
<path d="M10.4999 5.74999C10.4999 6.1642 10.1641 6.49999 9.74988 6.49999C9.33567 6.49999 8.99988 6.1642 8.99988 5.74999C8.99988 5.33578 9.33567 4.99999 9.74988 4.99999C10.1641 4.99999 10.4999 5.33578 10.4999 5.74999Z" fill="black"/>
<path d="M18.2499 8.99999C18.6641 8.99999 18.9999 9.33578 18.9999 9.74999C18.9999 10.1642 18.6641 10.5 18.2499 10.5C17.8357 10.5 17.4999 10.1642 17.4999 9.74999C17.4999 9.33578 17.8357 8.99999 18.2499 8.99999Z" fill="black"/>
<path d="M5.74988 8.99999C6.16409 8.99999 6.49988 9.33578 6.49988 9.74999C6.49988 10.1642 6.16409 10.5 5.74988 10.5C5.33567 10.5 4.99988 10.1642 4.99988 9.74999C4.99988 9.33578 5.33567 8.99999 5.74988 8.99999Z" fill="black"/>
<path d="M18.2499 13.5C18.6641 13.5 18.9999 13.8358 18.9999 14.25C18.9999 14.6642 18.6641 15 18.2499 15C17.8357 15 17.4999 14.6642 17.4999 14.25C17.4999 13.8358 17.8357 13.5 18.2499 13.5Z" fill="black"/>
<path d="M5.74988 13.5C6.16409 13.5 6.49988 13.8358 6.49988 14.25C6.49988 14.6642 6.16409 15 5.74988 15C5.33567 15 4.99988 14.6642 4.99988 14.25C4.99988 13.8358 5.33567 13.5 5.74988 13.5Z" fill="black"/>
<path d="M14.9999 18.25C14.9999 18.6642 14.6641 19 14.2499 19C13.8357 19 13.4999 18.6642 13.4999 18.25C13.4999 17.8358 13.8357 17.5 14.2499 17.5C14.6641 17.5 14.9999 17.8358 14.9999 18.25Z" fill="black"/>
<path d="M10.4999 18.25C10.4999 18.6642 10.1641 19 9.74988 19C9.33567 19 8.99988 18.6642 8.99988 18.25C8.99988 17.8358 9.33567 17.5 9.74988 17.5C10.1641 17.5 10.4999 17.8358 10.4999 18.25Z" fill="black"/>
</svg>
