<svg width="24" height="24" viewBox="0 0 24 24" fill="none" xmlns="http://www.w3.org/2000/svg">
<path d="M20.9751 11.8148L20.2361 11.9426L20.9751 11.8148ZM20.2696 7.73505L19.5306 7.86285L20.2696 7.73505ZM6.93776 3.52293L6.19055 3.45832H6.19055L6.93776 3.52293ZM6.1256 12.9156L6.87281 12.9802L6.1256 12.9156ZM13.9949 18.7786L14.7351 18.6573V18.6573L13.9949 18.7786ZM13.3323 14.734L14.0724 14.6128V14.6128L13.3323 14.734ZM6.69813 14.3225L6.20854 14.8907H6.20854L6.69813 14.3225ZM8.13687 15.5623L8.62646 14.9942H8.62646L8.13687 15.5623ZM10.518 19.2163L9.79207 19.4046L10.518 19.2163ZM10.9938 21.0501L11.7197 20.8618L11.7197 20.8618L10.9938 21.0501ZM12.6676 21.9356L12.4382 21.2216L12.4382 21.2216L12.6676 21.9356ZM12.8126 21.8891L13.0419 22.6031L13.0419 22.6031L12.8126 21.8891ZM9.86194 17.5374L10.5235 17.184V17.184L9.86194 17.5374ZM13.9047 20.7525L13.1787 20.5642V20.5642L13.9047 20.7525ZM11.6742 21.8676L11.3486 22.5433L11.3486 22.5433L11.6742 21.8676ZM20.9751 11.8148L20.2361 11.9426L19.5306 7.86285L20.2696 7.73505L21.0086 7.60724L21.7142 11.687L20.9751 11.8148ZM13.245 2V2.75H8.59634V2V1.25H13.245V2ZM6.93776 3.52293L7.68497 3.58754L6.87281 12.9802L6.1256 12.9156L5.37839 12.851L6.19055 3.45832L6.93776 3.52293ZM20.2696 7.73505L19.5306 7.86285C19.0238 4.93226 16.3813 2.75 13.245 2.75V2V1.25C17.0712 1.25 20.3708 3.91895 21.0086 7.60724L20.2696 7.73505ZM13.9949 18.7786L13.2548 18.8998L12.5921 14.8553L13.3323 14.734L14.0724 14.6128L14.7351 18.6573L13.9949 18.7786ZM6.69813 14.3225L7.18772 13.7544L8.62646 14.9942L8.13687 15.5623L7.64728 16.1305L6.20854 14.8907L6.69813 14.3225ZM10.518 19.2163L11.244 19.0279L11.7197 20.8618L10.9938 21.0501L10.2678 21.2384L9.79207 19.4046L10.518 19.2163ZM12.6676 21.9356L12.4382 21.2216L12.5832 21.175L12.8126 21.8891L13.0419 22.6031L12.897 22.6497L12.6676 21.9356ZM9.86194 17.5374L10.5235 17.184C10.8354 17.768 11.0777 18.3866 11.244 19.0279L10.518 19.2163L9.79207 19.4046C9.65572 18.8789 9.45698 18.3711 9.20041 17.8908L9.86194 17.5374ZM12.8126 21.8891L12.5832 21.175C12.8896 21.0766 13.1072 20.8399 13.1787 20.5642L13.9047 20.7525L14.6306 20.9408C14.4252 21.7328 13.819 22.3535 13.0419 22.6031L12.8126 21.8891ZM10.9938 21.0501L11.7197 20.8618C11.7547 20.9968 11.8522 21.1209 11.9998 21.192L11.6742 21.8676L11.3486 22.5433C10.8166 22.2869 10.417 21.8137 10.2678 21.2384L10.9938 21.0501ZM11.6742 21.8676L11.9998 21.192C12.1345 21.2569 12.2931 21.2682 12.4382 21.2216L12.6676 21.9356L12.897 22.6497C12.3872 22.8135 11.8312 22.7758 11.3486 22.5433L11.6742 21.8676ZM14.1537 13.7658V13.0158H19.3348V13.7658V14.5158H14.1537V13.7658ZM13.9949 18.7786L14.7351 18.6573C14.8596 19.4174 14.824 20.1952 14.6306 20.9408L13.9047 20.7525L13.1787 20.5642C13.3197 20.0208 13.3456 19.4539 13.2548 18.8998L13.9949 18.7786ZM8.59634 2V2.75C8.12243 2.75 7.726 3.11302 7.68497 3.58754L6.93776 3.52293L6.19055 3.45832C6.29851 2.20975 7.34269 1.25 8.59634 1.25V2ZM8.13687 15.5623L8.62646 14.9942C9.30632 15.58 10.0391 16.2773 10.5235 17.184L9.86194 17.5374L9.20041 17.8908C8.85403 17.2423 8.30249 16.6951 7.64728 16.1305L8.13687 15.5623ZM20.9751 11.8148L21.7142 11.687C21.9695 13.1635 20.8341 14.5158 19.3348 14.5158V13.7658V13.0158C19.9014 13.0158 20.3332 12.5041 20.2361 11.9426L20.9751 11.8148ZM13.3323 14.734L12.5921 14.8553C12.4344 13.8924 13.1766 13.0158 14.1537 13.0158V13.7658V14.5158C14.1038 14.5158 14.0639 14.561 14.0724 14.6128L13.3323 14.734ZM6.1256 12.9156L6.87281 12.9802C6.84739 13.2742 6.96474 13.5622 7.18772 13.7544L6.69813 14.3225L6.20854 14.8907C5.62021 14.3837 5.31148 13.6247 5.37839 12.851L6.1256 12.9156Z" fill="black"/>
<path opacity="0.5" d="M3.9716 2.52911L3.22439 2.4645L3.9716 2.52911ZM3 13.7656L3.74721 13.8302C3.71261 14.2304 3.36893 14.5322 2.96767 14.5149C2.5664 14.4976 2.25 14.1673 2.25 13.7656L3 13.7656ZM3.9716 2.52911L4.71881 2.59372L3.74721 13.8302L3 13.7656L2.25279 13.701L3.22439 2.4645L3.9716 2.52911ZM3 2.48709H3.75V13.7656H3H2.25V2.48709H3ZM3.9716 2.52911L3.22439 2.4645C3.2112 2.61704 3.33146 2.74983 3.48671 2.74983V1.99983V1.24983C4.21268 1.24983 4.78122 1.87192 4.71881 2.59372L3.9716 2.52911ZM3.48671 1.99983V2.74983C3.63292 2.74983 3.75 2.63139 3.75 2.48709H3H2.25C2.25 1.80457 2.80289 1.24983 3.48671 1.24983V1.99983Z" fill="black"/>
</svg>
