<svg width="24" height="24" viewBox="0 0 24 24" fill="none" xmlns="http://www.w3.org/2000/svg">
<path fill-rule="evenodd" clip-rule="evenodd" d="M8 12.8615L8 13.478C8 14.3303 7.42329 15.0821 6.57997 15.3293L4.57997 15.9154C3.29561 16.2918 2 15.3621 2 14.0641L2 12.1412C2 11.6523 2.1247 11.1702 2.44083 10.7887C3.17325 9.90474 4.87862 8.28156 8 7.47733V12.8615ZM16 12.8615V13.2497C16 14.2062 16.7227 15.019 17.7004 15.1623L19.7004 15.4554C20.9105 15.6327 22 14.7265 22 13.5427V11.4181C22 10.8311 21.8162 10.254 21.3703 9.85579C20.5528 9.12572 18.8785 7.97518 16 7.38184V12.8615Z" fill="black"/>
<path opacity="0.5" d="M12 11.3963C16 11.3963 16 12.8617 16 12.8617V7.38205C14.862 7.14749 13.5359 7 12 7C10.4641 7 9.13797 7.18435 8 7.47755V12.8617C8 12.8617 8 11.3963 12 11.3963Z" fill="black"/>
</svg>
