<svg width="24" height="24" viewBox="0 0 24 24" fill="none" xmlns="http://www.w3.org/2000/svg">
<path d="M6.07821 13.4174C6.37128 13.1247 6.37157 12.6498 6.07886 12.3567C5.78614 12.0636 5.31127 12.0634 5.0182 12.3561L6.07821 13.4174ZM3.85646 14.5764L3.32646 14.0457V14.0457L3.85646 14.5764ZM2.31852 13.0403L1.78851 12.5097L1.78851 12.5097L2.31852 13.0403ZM3.00232 13.4174C3.29539 13.1247 3.29568 12.6498 3.00297 12.3567C2.71025 12.0636 2.23538 12.0634 1.94231 12.3561L3.00232 13.4174ZM11.6057 18.987C11.8988 18.6943 11.8991 18.2194 11.6063 17.9263C11.3136 17.6332 10.8388 17.633 10.5457 17.9257L11.6057 18.987ZM9.38395 20.146L9.91396 20.6767L9.38395 20.146ZM10.9219 21.6821L11.4519 22.2127V22.2127L10.9219 21.6821ZM11.6057 22.0591C11.8988 21.7664 11.8991 21.2915 11.6063 20.9985C11.3136 20.7054 10.8388 20.7051 10.5457 20.9978L11.6057 22.0591ZM10.6328 17.186C10.9257 16.8931 10.9257 16.4182 10.6328 16.1253C10.3399 15.8324 9.86499 15.8324 9.5721 16.1253L10.6328 17.186ZM7.46967 18.2277C7.17678 18.5206 7.17678 18.9955 7.46967 19.2884C7.76256 19.5813 8.23744 19.5813 8.53033 19.2884L7.46967 18.2277ZM7.85705 14.4136C8.14994 14.1207 8.14994 13.6459 7.85705 13.353C7.56415 13.0601 7.08928 13.0601 6.79639 13.353L7.85705 14.4136ZM4.67948 15.4699C4.38659 15.7628 4.38659 16.2376 4.67948 16.5305C4.97238 16.8234 5.44725 16.8234 5.74014 16.5305L4.67948 15.4699ZM7.46042 17.5818C7.75656 17.2921 7.76184 16.8173 7.47223 16.5212C7.18261 16.225 6.70777 16.2197 6.41163 16.5094L7.46042 17.5818ZM4.70206 18.1813C4.40592 18.4709 4.40064 18.9458 4.69026 19.2419C4.97987 19.538 5.45472 19.5433 5.75085 19.2537L4.70206 18.1813ZM5.5482 12.8867L5.0182 12.3561L3.32646 14.0457L3.85646 14.5764L4.38647 15.1071L6.07821 13.4174L5.5482 12.8867ZM2.31852 13.0403L2.84853 13.571L3.00232 13.4174L2.47231 12.8867L1.94231 12.3561L1.78851 12.5097L2.31852 13.0403ZM2.31852 14.5764L2.84853 14.0457C2.71716 13.9145 2.71716 13.7022 2.84853 13.571L2.31852 13.0403L1.78851 12.5097C1.0705 13.2268 1.0705 14.3899 1.78851 15.1071L2.31852 14.5764ZM3.85646 14.5764L3.32646 14.0457C3.19458 14.1775 2.9804 14.1775 2.84853 14.0457L2.31852 14.5764L1.78851 15.1071C2.50602 15.8237 3.66896 15.8237 4.38647 15.1071L3.85646 14.5764ZM11.0757 18.4563L10.5457 17.9257L8.85394 19.6154L9.38395 20.146L9.91396 20.6767L11.6057 18.987L11.0757 18.4563ZM10.9219 21.6821L11.4519 22.2127L11.6057 22.0591L11.0757 21.5285L10.5457 20.9978L10.3919 21.1514L10.9219 21.6821ZM9.38395 21.6821L8.85394 22.2127C9.57145 22.9294 10.7344 22.9294 11.4519 22.2127L10.9219 21.6821L10.3919 21.1514C10.26 21.2831 10.0458 21.2831 9.91396 21.1514L9.38395 21.6821ZM9.38395 20.146L8.85394 19.6154C8.13593 20.3325 8.13593 21.4956 8.85394 22.2127L9.38395 21.6821L9.91396 21.1514C9.78259 21.0202 9.78259 20.8079 9.91396 20.6767L9.38395 20.146ZM10.1024 16.6556L9.5721 16.1253L7.46967 18.2277L8 18.7581L8.53033 19.2884L10.6328 17.186L10.1024 16.6556ZM7.32672 13.8833L6.79639 13.353L4.67948 15.4699L5.20981 16.0002L5.74014 16.5305L7.85705 14.4136L7.32672 13.8833ZM6.93603 17.0456L6.41163 16.5094L4.70206 18.1813L5.22645 18.7175L5.75085 19.2537L7.46042 17.5818L6.93603 17.0456Z" fill="black"/>
<path d="M9.74292 13.0566L10.2725 12.5254L9.74292 13.0566ZM9.74292 8.40116L9.21339 7.87003H9.21339L9.74292 8.40116ZM15.5797 14.2204L16.1092 14.7515V14.7515L15.5797 14.2204ZM10.9103 14.2204L10.3807 14.7515L10.9103 14.2204ZM20.5495 9.26548L20.02 8.73435L20.5495 9.26548ZM15.9551 1.49472C15.5723 1.65283 15.3901 2.09136 15.5482 2.47421C15.7063 2.85706 16.1448 3.03925 16.5277 2.88115L15.9551 1.49472ZM9.79706 13.1073C9.50373 13.3998 9.50302 13.8747 9.79547 14.168C10.0879 14.4613 10.5628 14.4621 10.8561 14.1696L9.79706 13.1073ZM12.6072 12.4238C12.9005 12.1314 12.9012 11.6565 12.6087 11.3632C12.3163 11.0698 11.8414 11.0691 11.5481 11.3616L12.6072 12.4238ZM13.6861 15.786L13.9453 16.4897L13.6861 15.786ZM8.18721 10.2514L7.49137 9.97154L8.18721 10.2514ZM14.4546 4.76267C14.748 4.47021 14.7487 3.99534 14.4562 3.70201C14.1638 3.40868 13.6889 3.40796 13.3956 3.70041L14.4546 4.76267ZM20.5495 9.26548L20.02 8.73435L15.0501 13.6893L15.5797 14.2204L16.1092 14.7515L21.079 9.79661L20.5495 9.26548ZM10.9103 14.2204L11.4398 13.6893L10.2725 12.5254L9.74292 13.0566L9.21339 13.5877L10.3807 14.7515L10.9103 14.2204ZM18.2148 2V2.75H18.6983V2V1.25H18.2148V2ZM22.0001 5.29186H21.2501V5.77394H22.0001H22.7501V5.29186H22.0001ZM18.6983 2V2.75C19.4977 2.75 20.022 2.75158 20.4101 2.80361C20.7769 2.85278 20.9079 2.93434 20.987 3.01321L21.5166 2.48208L22.0461 1.95096C21.6417 1.54774 21.1417 1.38826 20.6094 1.31691C20.0985 1.24842 19.4554 1.25 18.6983 1.25V2ZM22.0001 5.29186H22.7501C22.7501 4.53722 22.7517 3.89558 22.6829 3.38559C22.6112 2.85381 22.4508 2.35448 22.0461 1.95096L21.5166 2.48208L20.987 3.01321C21.0658 3.09176 21.1472 3.22143 21.1964 3.58606C21.2485 3.9725 21.2501 4.49469 21.2501 5.29186H22.0001ZM9.74292 13.0566L10.2725 12.5254C9.70713 11.9618 9.33773 11.5913 9.10037 11.2811C8.87618 10.9881 8.84204 10.8391 8.84204 10.7289H8.09204H7.34204C7.34204 11.3004 7.58305 11.7666 7.90915 12.1927C8.22209 12.6016 8.67813 13.054 9.21339 13.5877L9.74292 13.0566ZM10.9103 14.2204L10.3807 14.7515C10.916 15.2852 11.3698 15.7398 11.7798 16.0518C12.2073 16.3769 12.6738 16.6163 13.245 16.6163V15.8663V15.1163C13.1323 15.1163 12.9818 15.0814 12.688 14.8579C12.3768 14.6212 12.0051 14.2529 11.4398 13.6893L10.9103 14.2204ZM20.5495 9.26548L21.079 9.79661C21.7513 9.12636 22.2451 8.65287 22.5042 8.02914L21.8116 7.74139L21.119 7.45364C21.0011 7.73733 20.7792 7.97743 20.02 8.73435L20.5495 9.26548ZM22.0001 5.77394H21.2501C21.2501 6.84444 21.2367 7.1702 21.119 7.45364L21.8116 7.74139L22.5042 8.02914C22.7634 7.40516 22.7501 6.72176 22.7501 5.77394H22.0001ZM18.2148 2V1.25C17.2636 1.25 16.5797 1.23679 15.9551 1.49472L16.2414 2.18793L16.5277 2.88115C16.8133 2.76321 17.1415 2.75 18.2148 2.75V2ZM10.3266 13.6385L10.8561 14.1696L12.6072 12.4238L12.0776 11.8927L11.5481 11.3616L9.79706 13.1073L10.3266 13.6385ZM15.5797 14.2204L15.0501 13.6893C14.6145 14.1236 14.2907 14.4459 14.0134 14.6853C13.7349 14.9258 13.557 15.0343 13.4268 15.0822L13.6861 15.786L13.9453 16.4897C14.3279 16.3488 14.6681 16.1019 14.9938 15.8205C15.3208 15.5381 15.6875 15.172 16.1092 14.7515L15.5797 14.2204ZM13.6861 15.786L13.4268 15.0822C13.3601 15.1068 13.3031 15.1163 13.245 15.1163V15.8663V16.6163C13.489 16.6163 13.7212 16.5723 13.9453 16.4897L13.6861 15.786ZM9.74292 8.40116L9.21339 7.87003C8.8017 8.28048 8.44233 8.63824 8.16266 8.9574C7.88434 9.27503 7.63891 9.60463 7.49137 9.97154L8.18721 10.2514L8.88306 10.5312C8.93632 10.3987 9.05058 10.2201 9.29083 9.94596C9.52973 9.67332 9.84781 9.35566 10.2725 8.93229L9.74292 8.40116ZM8.18721 10.2514L7.49137 9.97154C7.39467 10.212 7.34204 10.4628 7.34204 10.7289H8.09204H8.84204C8.84204 10.6676 8.85286 10.6063 8.88306 10.5312L8.18721 10.2514ZM9.74292 8.40116L10.2725 8.93229L14.4546 4.76267L13.9251 4.23154L13.3956 3.70041L9.21339 7.87003L9.74292 8.40116Z" fill="black"/>
<path d="M8.03732 10.1018L8.56765 9.57148L8.56686 9.57068L8.03732 10.1018ZM11.6708 6.70352C12.0191 6.92769 12.4831 6.82707 12.7073 6.47876C12.9315 6.13045 12.8309 5.66636 12.4826 5.44219L11.6708 6.70352ZM11.5418 5.72863L11.9477 5.09796L11.9477 5.09796L11.5418 5.72863ZM9.35765 4.60789L9.46729 3.86595L9.35765 4.60789ZM5.19137 7.12001L5.7209 7.65114V7.65114L5.19137 7.12001ZM7.8385 4.80203L8.12592 5.49477L7.8385 4.80203ZM5.73367 8.31238L5.45738 9.00964L5.45738 9.00964L5.73367 8.31238ZM5.5527 9.04774C5.93568 9.20553 6.37406 9.02298 6.53185 8.64C6.68964 8.25702 6.50709 7.81863 6.12411 7.66084L5.5527 9.04774ZM5.41182 8.18485L5.68811 7.4876L5.6881 7.4876L5.41182 8.18485ZM7.6568 10.7819C7.94969 11.0748 8.42456 11.0748 8.71746 10.7819C9.01035 10.489 9.01035 10.0142 8.71746 9.72128L7.6568 10.7819ZM8.15854 9.1636C7.86521 8.87114 7.39034 8.87186 7.09789 9.16519C6.80543 9.45852 6.80615 9.93339 7.09948 10.2258L8.15854 9.1636ZM12.0767 6.07285L12.4826 5.44219L11.9477 5.09796L11.5418 5.72863L11.1359 6.35929L11.6708 6.70352L12.0767 6.07285ZM11.5418 5.72863L11.9477 5.09796C11.421 4.75893 10.9904 4.48119 10.6187 4.28092C10.2377 4.07557 9.87347 3.92597 9.46729 3.86595L9.35765 4.60789L9.248 5.34983C9.41668 5.37476 9.60814 5.44027 9.9072 5.60142C10.2157 5.76764 10.5898 6.0078 11.1359 6.35929L11.5418 5.72863ZM5.19137 7.12001L5.7209 7.65114C6.19994 7.17354 6.71143 6.6638 7.17057 6.24495C7.39993 6.03572 7.60728 5.85743 7.78387 5.72132C7.97207 5.57626 8.08295 5.5126 8.12592 5.49477L7.8385 4.80203L7.55107 4.10929C7.31817 4.20593 7.07924 4.37058 6.86816 4.53327C6.64547 4.70491 6.40406 4.91382 6.15964 5.13679C5.6712 5.58237 5.13501 6.11714 4.66185 6.58887L5.19137 7.12001ZM9.35765 4.60789L9.46729 3.86595C8.82208 3.77059 8.15942 3.85688 7.55107 4.10929L7.8385 4.80203L8.12592 5.49477C8.49073 5.34341 8.87932 5.29534 9.248 5.34983L9.35765 4.60789ZM5.41182 8.18485L5.13554 8.88211L5.45738 9.00964L5.73367 8.31238L6.00995 7.61513L5.68811 7.4876L5.41182 8.18485ZM5.73367 8.31238L5.45738 9.00964C5.51174 9.03118 5.53257 9.03945 5.5527 9.04774L5.8384 8.35429L6.12411 7.66084C6.09245 7.6478 6.06072 7.63524 6.00995 7.61513L5.73367 8.31238ZM5.19137 7.12001L4.66185 6.58887C3.9466 7.30195 4.19893 8.51098 5.13554 8.88211L5.41182 8.18485L5.6881 7.4876C5.75268 7.51318 5.77259 7.5996 5.7209 7.65114L5.19137 7.12001ZM8.03732 10.1018L7.50699 10.6321L7.6568 10.7819L8.18713 10.2516L8.71746 9.72128L8.56765 9.57148L8.03732 10.1018ZM7.62901 9.69472L7.09948 10.2258L7.50779 10.6329L8.03732 10.1018L8.56686 9.57068L8.15854 9.1636L7.62901 9.69472Z" fill="black"/>
<path d="M13.9245 16.025L13.3942 16.5553C13.4058 16.5669 13.4178 16.5781 13.4301 16.5889L13.9245 16.025ZM18.5442 11.4859C18.3191 11.1382 17.8548 11.0389 17.5071 11.264C17.1594 11.4891 17.06 11.9535 17.2851 12.3012L18.5442 11.4859ZM18.26 12.4268L17.6304 12.8344L17.6304 12.8344L18.26 12.4268ZM19.3841 14.6044L20.1259 14.4941L19.3841 14.6044ZM16.8644 18.7582L16.3348 18.2271L16.3348 18.2271L16.8644 18.7582ZM19.1893 16.119L18.4972 15.8301L19.1893 16.119ZM16.5329 18.3607C16.3795 17.976 15.9433 17.7884 15.5585 17.9418C15.1737 18.0951 14.9862 18.5314 15.1395 18.9162L16.5329 18.3607ZM13.8745 16.9786C14.186 17.2517 14.6599 17.2206 14.9329 16.9091C15.206 16.5977 15.1749 16.1238 14.8634 15.8507L13.8745 16.9786ZM16.793 18.8294L17.3225 19.3605L17.3225 19.3605L16.793 18.8294ZM14.2158 15.2556C13.923 14.9627 13.4481 14.9627 13.1552 15.2556C12.8623 15.5485 12.8623 16.0234 13.1552 16.3163L14.2158 15.2556ZM17.9147 11.8936L17.2851 12.3012L17.6304 12.8344L18.26 12.4268L18.8895 12.0192L18.5442 11.4859L17.9147 11.8936ZM16.8644 18.7582L16.3348 18.2271L16.2634 18.2983L16.793 18.8294L17.3225 19.3605L17.3939 19.2893L16.8644 18.7582ZM18.26 12.4268L17.6304 12.8344C17.983 13.379 18.2238 13.7518 18.3904 14.0592C18.552 14.3573 18.6174 14.5475 18.6422 14.7147L19.3841 14.6044L20.1259 14.4941C20.0656 14.0882 19.9152 13.7245 19.7091 13.3444C19.5082 12.9737 19.2295 12.5443 18.8895 12.0192L18.26 12.4268ZM16.8644 18.7582L17.3939 19.2893C17.8671 18.8176 18.4035 18.283 18.8504 17.796C19.074 17.5523 19.2836 17.3116 19.4558 17.0895C19.6189 16.8791 19.7843 16.6406 19.8815 16.4079L19.1893 16.119L18.4972 15.8301C18.4796 15.8724 18.4159 15.9827 18.2704 16.1704C18.1339 16.3464 17.9551 16.5531 17.7453 16.7818C17.3252 17.2395 16.8139 17.7495 16.3348 18.2271L16.8644 18.7582ZM19.3841 14.6044L18.6422 14.7147C18.6967 15.081 18.6487 15.4672 18.4972 15.8301L19.1893 16.119L19.8815 16.4079C20.135 15.8005 20.2217 15.1387 20.1259 14.4941L19.3841 14.6044ZM14.369 16.4147L14.8634 15.8507L14.419 15.461L13.9245 16.025L13.4301 16.5889L13.8745 16.9786L14.369 16.4147ZM16.793 18.8294L16.2634 18.2983C16.3071 18.2547 16.366 18.2444 16.408 18.2528C16.4504 18.2613 16.5069 18.2955 16.5329 18.3607L15.8362 18.6384L15.1395 18.9162C15.4965 19.8115 16.6547 20.0263 17.3225 19.3605L16.793 18.8294ZM13.9245 16.025L14.4549 15.4946L14.2158 15.2556L13.6855 15.786L13.1552 16.3163L13.3942 16.5553L13.9245 16.025Z" fill="black"/>
<path d="M15.05 9.41414C15.3434 9.7066 15.8182 9.70588 16.1107 9.41255C16.4031 9.11922 16.4024 8.64434 16.1091 8.35189L15.05 9.41414ZM17.3847 8.35189C17.0914 8.64434 17.0907 9.11922 17.3831 9.41255C17.6756 9.70588 18.1505 9.7066 18.4438 9.41414L17.3847 8.35189ZM17.9143 6.55532L18.4438 6.0242C17.5064 5.08959 15.9875 5.08959 15.05 6.0242L15.5796 6.55532L16.1091 7.08645C16.4611 6.73551 17.0327 6.73551 17.3847 7.08645L17.9143 6.55532ZM15.5796 6.55532L15.05 6.0242C14.1114 6.96005 14.1114 8.47829 15.05 9.41414L15.5796 8.88302L16.1091 8.35189C15.7584 8.00219 15.7584 7.43615 16.1091 7.08645L15.5796 6.55532ZM17.9143 8.88302L18.4438 9.41414C19.3825 8.47829 19.3825 6.96005 18.4438 6.0242L17.9143 6.55532L17.3847 7.08645C17.7355 7.43615 17.7355 8.00219 17.3847 8.35189L17.9143 8.88302Z" fill="black"/>
</svg>
