<svg width="24" height="24" viewBox="0 0 24 24" fill="none" xmlns="http://www.w3.org/2000/svg">
<path d="M8.32189 14.4933C7.37987 15.9862 6.90887 16.7327 7.22977 17.3433C7.55067 17.9538 8.45095 18.0241 10.2515 18.1647L10.7174 18.201C11.229 18.241 11.4849 18.261 11.7085 18.3785C11.9322 18.4961 12.0983 18.6979 12.4307 19.1015L12.7332 19.469C13.9027 20.8895 14.4874 21.5997 15.1544 21.5084C15.8214 21.417 16.129 20.5846 16.744 18.9198L16.9031 18.4891C17.0779 18.0161 17.1653 17.7795 17.337 17.6078C17.5087 17.4362 17.7452 17.3488 18.2183 17.174L18.649 17.0149C20.3138 16.3998 21.1462 16.0923 21.2375 15.4253C21.3288 14.7583 20.6186 14.1735 19.1982 13.0041M17.8938 10.5224C17.7533 8.72179 17.683 7.8215 17.0724 7.5006C16.4619 7.1797 15.7154 7.65071 14.2224 8.59272L13.8362 8.83643C13.412 9.10412 13.1998 9.23797 12.9555 9.27143C12.7112 9.30488 12.4623 9.23416 11.9645 9.09271L11.5113 8.96394C9.75966 8.46619 8.88383 8.21732 8.41516 8.68599C7.94648 9.15467 8.19536 10.0305 8.6931 11.7822" stroke="black" stroke-width="1.5" stroke-linecap="round"/>
<path d="M13.5 6.5L13 6M9.5 2.5L11.5 4.5" stroke="black" stroke-width="1.5" stroke-linecap="round"/>
<path d="M6.5 6.5L4 4" stroke="black" stroke-width="1.5" stroke-linecap="round"/>
<path d="M6 12L4.5 10.5M2 8L2.5 8.5" stroke="black" stroke-width="1.5" stroke-linecap="round"/>
</svg>
