<svg width="24" height="24" viewBox="0 0 24 24" fill="none" xmlns="http://www.w3.org/2000/svg">
<path d="M2.73137 9C3.60691 8.25047 5.00461 7.62664 6.72696 7.21094M2.73137 12.6524C4.35483 14.0423 7.77361 14.9999 11.7284 14.9999C17.2529 14.9999 21.7314 13.1313 21.7314 10.8262C21.7314 9.65873 20.5825 8.60321 18.7307 7.84573C18.1322 7.6009 17.4602 7.38721 16.7299 7.21094M11.7286 9C8.53786 9 7.34116 8.4684 6.92695 8.18039C6.78139 8.07918 6.72717 7.90601 6.72717 7.72876C6.72717 5.11714 8.84493 3 11.4573 3H12C14.6124 3 16.7301 5.11714 16.7301 7.72876C16.7301 7.90601 16.6756 8.07943 16.53 8.18061C16.2489 8.37597 15.6079 8.68323 14.2294 8.86075" stroke="black" stroke-width="1.5" stroke-linecap="round"/>
<path d="M11.7286 21V18M17.7303 20V17M5.72681 20V17" stroke="black" stroke-width="1.5" stroke-linecap="round"/>
<path d="M12.5 12C12.5 12.5523 12.0523 13 11.5 13C10.9477 13 10.5 12.5523 10.5 12C10.5 11.4477 10.9477 11 11.5 11C12.0523 11 12.5 11.4477 12.5 12Z" fill="black"/>
<path d="M7.5 11C7.5 11.5523 7.05228 12 6.5 12C5.94772 12 5.5 11.5523 5.5 11C5.5 10.4477 5.94772 10 6.5 10C7.05228 10 7.5 10.4477 7.5 11Z" fill="black"/>
<path d="M17.5 11C17.5 11.5523 17.0523 12 16.5 12C15.9477 12 15.5 11.5523 15.5 11C15.5 10.4477 15.9477 10 16.5 10C17.0523 10 17.5 10.4477 17.5 11Z" fill="black"/>
</svg>
