<svg width="24" height="24" viewBox="0 0 24 24" fill="none" xmlns="http://www.w3.org/2000/svg">
<g opacity="0.5">
<path fill-rule="evenodd" clip-rule="evenodd" d="M3.27489 15.2957C2.42496 14.1915 2 13.6394 2 12C2 10.3606 2.42496 9.80853 3.27489 8.70433C4.97196 6.49956 7.81811 4 12 4C16.1819 4 19.028 6.49956 20.7251 8.70433C21.575 9.80853 22 10.3606 22 12C22 13.6394 21.575 14.1915 20.7251 15.2957C19.028 17.5004 16.1819 20 12 20C7.81811 20 4.97196 17.5004 3.27489 15.2957ZM12 8.25C9.92893 8.25 8.25 9.92893 8.25 12C8.25 14.0711 9.92893 15.75 12 15.75C14.0711 15.75 15.75 14.0711 15.75 12C15.75 9.92893 14.0711 8.25 12 8.25Z" fill="black"/>
<path d="M12 9.75C10.7574 9.75 9.75 10.7574 9.75 12C9.75 13.2426 10.7574 14.25 12 14.25C13.2426 14.25 14.25 13.2426 14.25 12C14.25 10.7574 13.2426 9.75 12 9.75Z" fill="black"/>
</g>
<path d="M4 20.5L20.5 4.5" stroke="black" stroke-width="2" stroke-linecap="round"/>
</svg>
