<svg width="24" height="24" viewBox="0 0 24 24" fill="none" xmlns="http://www.w3.org/2000/svg">
<path d="M21 16.5C21 18.433 19.433 20 17.5 20C15.567 20 14 18.433 14 16.5C14 14.567 15.567 13 17.5 13C19.433 13 21 14.567 21 16.5Z" fill="black"/>
<path fill-rule="evenodd" clip-rule="evenodd" d="M1.25 10C1.25 9.58579 1.58579 9.25 2 9.25H22C22.4142 9.25 22.75 9.58579 22.75 10C22.75 10.4142 22.4142 10.75 22 10.75H2C1.58579 10.75 1.25 10.4142 1.25 10Z" fill="black"/>
<path opacity="0.5" d="M4.1875 9.25L4.6138 7.54479C5.15947 5.36211 5.43231 4.27077 6.24609 3.63538C7.05988 3 8.1848 3 10.4347 3H13.5653C15.8152 3 16.9401 3 17.7539 3.63538C18.5677 4.27077 18.8405 5.36211 19.3862 7.54479L19.8125 9.25H4.1875Z" fill="black"/>
<path d="M10 16.5C10 18.433 8.433 20 6.5 20C4.567 20 3 18.433 3 16.5C3 14.567 4.567 13 6.5 13C8.433 13 10 14.567 10 16.5Z" fill="black"/>
<path opacity="0.5" d="M9.88428 17.3961C9.95989 17.1099 10.0002 16.8094 10.0002 16.4995C10.0002 16.2267 9.96894 15.9611 9.90988 15.7062L10.3235 15.4994C11.3792 14.9715 12.6219 14.9715 13.6776 15.4994L14.0905 15.7059C14.0314 15.9609 14.0002 16.2265 14.0002 16.4995C14.0002 16.8093 14.0404 17.1096 14.1159 17.3956L13.0068 16.8411C12.3733 16.5243 11.6277 16.5243 10.9943 16.8411L9.88428 17.3961Z" fill="black"/>
</svg>
