<svg width="24" height="24" viewBox="0 0 24 24" fill="none" xmlns="http://www.w3.org/2000/svg">
<path opacity="0.5" d="M2 12C2 7.28595 2 4.92893 3.46447 3.46447C4.92893 2 7.28595 2 12 2C16.714 2 19.0711 2 20.5355 3.46447C22 4.92893 22 7.28595 22 12C22 16.714 22 19.0711 20.5355 20.5355C19.0711 22 16.714 22 12 22C7.28595 22 4.92893 22 3.46447 20.5355C2 19.0711 2 16.714 2 12Z" fill="black"/>
<path fill-rule="evenodd" clip-rule="evenodd" d="M21.9626 8.41207C21.8202 9.65915 21.2708 10.8686 20.3142 11.8251C18.8218 13.3175 16.7136 13.819 14.8074 13.3295C14.5 13.2505 14.1677 13.3204 13.9433 13.5449L12.4136 15.0745L12.4107 15.0717L10.9532 13.6301C10.6587 13.3388 10.1838 13.3414 9.89254 13.6359C9.60127 13.9304 9.60388 14.4053 9.89838 14.6966L11.3529 16.1352L10.8496 16.6385C10.5847 16.9034 10.2137 17.0336 9.84133 16.9922L8.10084 16.7988C7.91528 16.7782 7.74226 16.695 7.61024 16.563L7.43673 16.3895C7.30472 16.2575 7.22156 16.0845 7.20094 15.8989L7.00755 14.1584C6.96618 13.786 7.09632 13.415 7.36124 13.1501L10.4547 10.0567C10.6791 9.83226 10.7492 9.49978 10.6703 9.19235C10.1808 7.28613 10.6822 5.17796 12.1747 3.68551C13.1312 2.72898 14.3407 2.17951 15.5878 2.03711C16.4945 2.07043 17.2684 2.13348 17.9361 2.25276C18.8063 2.51947 19.6258 2.99706 20.3142 3.68551C21.0027 4.37394 21.4802 5.19338 21.747 6.06358C21.8663 6.73128 21.9293 7.50528 21.9626 8.41207ZM14.9882 6.65465C15.639 6.00378 16.6943 6.00378 17.3452 6.65465C17.9961 7.30553 17.9961 8.3608 17.3452 9.01167C16.6943 9.66255 15.639 9.66255 14.9882 9.01167C14.3373 8.3608 14.3373 7.30553 14.9882 6.65465Z" fill="black"/>
</svg>
