<svg width="24" height="24" viewBox="0 0 24 24" fill="none" xmlns="http://www.w3.org/2000/svg">
<path fill-rule="evenodd" clip-rule="evenodd" d="M15 16C18.866 16 22 12.866 22 9C22 5.13401 18.866 2 15 2C11.134 2 8 5.13401 8 9C8 12.866 11.134 16 15 16ZM15 11C16.1046 11 17 10.1046 17 9C17 7.89543 16.1046 7 15 7C13.8954 7 13 7.89543 13 9C13 10.1046 13.8954 11 15 11Z" fill="black"/>
<path opacity="0.5" d="M10.6089 14.4513C10.2187 14.1366 9.86294 13.7808 9.54824 13.3906L2.96967 19.9692C2.67678 20.2621 2.67678 20.737 2.96967 21.0299C3.26256 21.3228 3.73744 21.3228 4.03033 21.0299L4.5 20.5602L5.46967 21.5299C5.76256 21.8228 6.23744 21.8228 6.53033 21.5299C6.82322 21.237 6.82322 20.7621 6.53033 20.4692L5.56066 19.4995L6.5 18.5602L7.46967 19.5299C7.76256 19.8228 8.23744 19.8228 8.53033 19.5299C8.82322 19.237 8.82322 18.7621 8.53033 18.4692L7.56066 17.4995L10.6089 14.4513Z" fill="black"/>
</svg>
