<svg width="24" height="24" viewBox="0 0 24 24" fill="none" xmlns="http://www.w3.org/2000/svg">
<path opacity="0.5" d="M3 10.4167C3 7.21907 3 5.62028 3.37752 5.08241C3.75503 4.54454 5.25832 4.02996 8.26491 3.00079L8.83772 2.80472C10.405 2.26824 11.1886 2 12 2C12.8114 2 13.595 2.26824 15.1623 2.80472L15.7351 3.00079C18.7417 4.02996 20.245 4.54454 20.6225 5.08241C21 5.62028 21 7.21907 21 10.4167C21 10.8996 21 11.4234 21 11.9914C21 17.6294 16.761 20.3655 14.1014 21.5273C13.38 21.8424 13.0193 22 12 22C10.9807 22 10.62 21.8424 9.89856 21.5273C7.23896 20.3655 3 17.6294 3 11.9914C3 11.4234 3 10.8996 3 10.4167Z" fill="black"/>
<path fill-rule="evenodd" clip-rule="evenodd" d="M10.95 8.3998C11.5723 7.93314 12.4278 7.93314 13.05 8.3998L16.45 10.9498C16.7814 11.1983 16.8486 11.6684 16.6 11.9998C16.3515 12.3312 15.8814 12.3983 15.55 12.1498L12.15 9.5998C12.0612 9.53314 11.9389 9.53314 11.85 9.5998L8.45004 12.1498C8.11867 12.3983 7.64857 12.3312 7.40004 11.9998C7.15152 11.6684 7.21867 11.1983 7.55004 10.9498L10.95 8.3998ZM11.55 11.9498C11.8167 11.7498 12.1834 11.7498 12.45 11.9498L14.45 13.4498C14.7814 13.6983 14.8486 14.1684 14.6 14.4998C14.3515 14.8312 13.8814 14.8983 13.55 14.6498L12 13.4873L10.45 14.6498C10.1187 14.8983 9.64857 14.8312 9.40004 14.4998C9.15152 14.1684 9.21867 13.6983 9.55004 13.4498L11.55 11.9498Z" fill="black"/>
</svg>
