<svg width="24" height="24" viewBox="0 0 24 24" fill="none" xmlns="http://www.w3.org/2000/svg">
<path d="M6.5 14.6335V14.334C6.5 14.1606 6.34192 14.0312 6.1696 14.0509C5.48307 14.1292 4.97655 13.9981 4.27082 13.7043C3.45672 13.3655 2.76011 12.7949 2.26754 12.0635C1.77496 11.3321 1.50813 10.4721 1.50018 9.59034C1.49224 8.70857 1.74354 7.8439 2.22286 7.10375C2.70218 6.36359 3.3884 5.78057 4.19626 5.42712C5.00413 5.07367 5.89804 4.96536 6.76694 5.11564C7.63584 5.26593 8.44144 5.66819 9.08366 6.27246C9.62145 6.77846 9.90112 6.94702 10.2715 7.57566C10.4342 7.85192 10.5509 8.15242 10.6523 8.4566C10.8826 9.14752 11 9.87105 11 10.5993V10.637C11 11.21 10.9297 11.7808 10.7908 12.3367L10.7357 12.557C10.579 13.1836 10.3543 13.7912 10.0654 14.3689L9.5 15.4998C8.8469 16.806 7.83486 17.8988 6.58259 18.6502L6 18.9998L5.56187 19.2918C5.21497 19.5231 4.77173 19.1846 4.90357 18.789C4.96757 18.597 5.05688 18.4144 5.16914 18.246L5.60346 17.5946C5.86664 17.1998 6.07602 16.7717 6.22606 16.3216C6.4075 15.7773 6.5 15.2072 6.5 14.6335Z" stroke="black" stroke-width="1.3"/>
<path d="M18 14.6335V14.334C18 14.1606 17.8419 14.0312 17.6696 14.0509C16.9831 14.1292 16.4765 13.9981 15.7708 13.7043C14.9567 13.3655 14.2601 12.7949 13.7675 12.0635C13.275 11.3321 13.0081 10.4721 13.0002 9.59034C12.9922 8.70857 13.2435 7.8439 13.7229 7.10375C14.2022 6.36359 14.8884 5.78057 15.6963 5.42712C16.5041 5.07367 17.398 4.96536 18.2669 5.11564C19.1358 5.26593 19.9414 5.66819 20.5837 6.27246C21.1215 6.77846 21.4011 6.94702 21.7715 7.57566C21.9342 7.85192 22.0509 8.15242 22.1523 8.4566C22.3826 9.14752 22.5 9.87105 22.5 10.5993V10.637C22.5 11.21 22.4297 11.7808 22.2908 12.3367L22.2357 12.557C22.079 13.1836 21.8543 13.7912 21.5654 14.3689L21 15.4998C20.3469 16.806 19.3349 17.8988 18.0826 18.6502L17.5 18.9998L17.0619 19.2918C16.715 19.5231 16.2717 19.1846 16.4036 18.789C16.4676 18.597 16.5569 18.4144 16.6691 18.246L17.1035 17.5946C17.3666 17.1998 17.576 16.7717 17.7261 16.3216C17.9075 15.7773 18 15.2072 18 14.6335Z" stroke="black" stroke-width="1.3"/>
</svg>
