<svg width="24" height="24" viewBox="0 0 24 24" fill="none" xmlns="http://www.w3.org/2000/svg">
<path d="M2 3L12 15.5M2 15.5L12 3" stroke="black" stroke-width="1.5" stroke-linecap="round" stroke-linejoin="round"/>
<path d="M22 19.2499H17L21.375 14.2499C21.5392 13.9627 21.6451 13.6459 21.6868 13.3177C21.7286 12.9894 21.7052 12.6562 21.6182 12.337C21.5311 12.0178 21.3821 11.7189 21.1795 11.4573C20.9769 11.1957 20.7248 10.9766 20.4375 10.8124C20.1502 10.6483 19.8334 10.5423 19.5052 10.5006C19.177 10.4589 18.8438 10.4822 18.5246 10.5692C18.2054 10.6563 17.9065 10.8054 17.6449 11.008C17.3833 11.2105 17.1642 11.4627 17 11.7499" stroke="black" stroke-width="1.5" stroke-linecap="round" stroke-linejoin="round"/>
</svg>
