<svg width="24" height="24" viewBox="0 0 24 24" fill="none" xmlns="http://www.w3.org/2000/svg">
<path d="M1.97949 6.05273L12.2803 18.9287M1.97949 18.9287L12.2803 6.05273" stroke="black" stroke-width="1.5" stroke-linecap="round" stroke-linejoin="round"/>
<path d="M22.5811 11.2027H17.4307L21.9373 6.05227C22.1064 5.75637 22.2155 5.43005 22.2585 5.09196C22.3015 4.75387 22.2774 4.41063 22.1878 4.08182C22.0981 3.75302 21.9445 3.4451 21.7359 3.17564C21.5272 2.90618 21.2675 2.68046 20.9716 2.51137C20.6757 2.34228 20.3493 2.23313 20.0112 2.19015C19.6732 2.14717 19.3299 2.17121 19.0011 2.26088C18.6723 2.35055 18.3644 2.50411 18.0949 2.71279C17.8255 2.92146 17.5998 3.18117 17.4307 3.47707" stroke="black" stroke-width="1.5" stroke-linecap="round" stroke-linejoin="round"/>
</svg>
