<svg width="24" height="24" viewBox="0 0 24 24" fill="none" xmlns="http://www.w3.org/2000/svg">
<g opacity="0.5">
<path d="M11.1566 20.3133C16.2137 20.3133 20.3133 16.2137 20.3133 11.1566C20.3133 6.09956 16.2137 2 11.1566 2C6.09956 2 2 6.09956 2 11.1566C2 16.2137 6.09956 20.3133 11.1566 20.3133Z" fill="black"/>
</g>
<path d="M17.1001 18.1219C17.4671 17.8085 17.809 17.4666 18.1224 17.0996L21.7887 20.7659C22.071 21.0482 22.071 21.5059 21.7887 21.7882C21.5064 22.0705 21.0487 22.0705 20.7664 21.7882L17.1001 18.1219Z" fill="black"/>
<path fill-rule="evenodd" clip-rule="evenodd" d="M8.02393 11.1565C8.02393 10.7572 8.34758 10.4336 8.74682 10.4336H13.5661C13.9653 10.4336 14.289 10.7572 14.289 11.1565C14.289 11.5557 13.9653 11.8794 13.5661 11.8794H8.74682C8.34758 11.8794 8.02393 11.5557 8.02393 11.1565Z" fill="black"/>
</svg>
