<svg width="24" height="24" viewBox="0 0 24 24" fill="none" xmlns="http://www.w3.org/2000/svg">
<path d="M5 8C5 5.17157 5 3.75736 5.87868 2.87868C6.75736 2 8.17157 2 11 2H13C15.8284 2 17.2426 2 18.1213 2.87868C19 3.75736 19 5.17157 19 8V16C19 18.8284 19 20.2426 18.1213 21.1213C17.2426 22 15.8284 22 13 22H11C8.17157 22 6.75736 22 5.87868 21.1213C5 20.2426 5 18.8284 5 16V8Z" stroke="black" stroke-width="1.5"/>
<path opacity="0.5" d="M19 19.5C19.4645 19.5 19.6968 19.5 19.8911 19.4692C20.9608 19.2998 21.7998 18.4608 21.9692 17.3911C22 17.1968 22 16.9645 22 16.5V7.5C22 7.0355 22 6.80325 21.9692 6.60891C21.7998 5.53918 20.9608 4.70021 19.8911 4.53078C19.6968 4.5 19.4645 4.5 19 4.5" stroke="black" stroke-width="1.5"/>
<path opacity="0.5" d="M5 19.5C4.5355 19.5 4.30325 19.5 4.10891 19.4692C3.03918 19.2998 2.20021 18.4608 2.03078 17.3911C2 17.1968 2 16.9645 2 16.5V7.5C2 7.0355 2 6.80325 2.03078 6.60891C2.20021 5.53918 3.03918 4.70021 4.10891 4.53078C4.30325 4.5 4.5355 4.5 5 4.5" stroke="black" stroke-width="1.5"/>
<path opacity="0.5" d="M12.7416 8.62838L12.4062 7.95756L12.4062 7.95756L12.7416 8.62838ZM14.0584 7.97002L13.7229 7.2992V7.2992L14.0584 7.97002ZM13.9416 11.0284L13.6062 10.3576L13.6062 10.3576L13.9416 11.0284ZM12.0598 10.7217L12.7649 10.4663V10.4663L12.0598 10.7217ZM13.1159 11.3744L13.029 10.6295H13.029L13.1159 11.3744ZM15.9822 9.56916L16.7188 9.71016V9.71016L15.9822 9.56916ZM15.6074 10.1756L16.0629 10.7714L16.0629 10.7714L15.6074 10.1756ZM14.8841 7.62397L14.971 8.36892L14.8841 7.62397ZM15.9402 8.27666L15.2351 8.53209V8.53209L15.9402 8.27666ZM12.3926 8.82283L12.8482 9.41863L12.8482 9.41863L12.3926 8.82283ZM12.0178 9.42924L11.2812 9.28824V9.28824L12.0178 9.42924ZM12 14.9992H11.25C11.25 15.6896 10.6904 16.2492 10 16.2492V16.9992V17.7492C11.5188 17.7492 12.75 16.518 12.75 14.9992H12ZM10 16.9992V16.2492C9.30964 16.2492 8.75 15.6896 8.75 14.9992H8H7.25C7.25 16.518 8.48122 17.7492 10 17.7492V16.9992ZM8 14.9992H8.75C8.75 14.3088 9.30964 13.7492 10 13.7492V12.9992V12.2492C8.48122 12.2492 7.25 13.4804 7.25 14.9992H8ZM10 12.9992V13.7492C10.6904 13.7492 11.25 14.3088 11.25 14.9992H12H12.75C12.75 13.4804 11.5188 12.2492 10 12.2492V12.9992ZM12 14.9992H12.75V9.9992H12H11.25V14.9992H12ZM12.7416 8.62838L13.0771 9.2992L14.3938 8.64084L14.0584 7.97002L13.7229 7.2992L12.4062 7.95756L12.7416 8.62838ZM15.2584 10.37L14.9229 9.6992L13.6062 10.3576L13.9416 11.0284L14.2771 11.6992L15.5938 11.0408L15.2584 10.37ZM12 9.82838H11.25C11.25 10.0629 11.2498 10.2683 11.2585 10.4347C11.2672 10.599 11.2866 10.7893 11.3546 10.9772L12.0598 10.7217L12.7649 10.4663C12.7732 10.4891 12.7627 10.4755 12.7564 10.3558C12.7502 10.2382 12.75 10.0794 12.75 9.82838H12ZM13.9416 11.0284L13.6062 10.3576C13.3817 10.4698 13.2396 10.5406 13.1316 10.5877C13.0217 10.6356 13.0049 10.6323 13.029 10.6295L13.1159 11.3744L13.2028 12.1194C13.4012 12.0962 13.5801 12.0285 13.731 11.9627C13.8837 11.8961 14.0673 11.8041 14.2771 11.6992L13.9416 11.0284ZM12.0598 10.7217L11.3546 10.9772C11.6311 11.7405 12.3963 12.2134 13.2028 12.1194L13.1159 11.3744L13.029 10.6295C12.9138 10.6429 12.8044 10.5754 12.7649 10.4663L12.0598 10.7217ZM16 9.17002H15.25C15.25 9.27715 15.2499 9.33824 15.2482 9.38449C15.2468 9.42602 15.2446 9.43316 15.2455 9.42817L15.9822 9.56916L16.7188 9.71016C16.7532 9.53046 16.75 9.34368 16.75 9.17002H16ZM15.2584 10.37L15.5938 11.0408C15.7491 10.9632 15.9176 10.8825 16.0629 10.7714L15.6074 10.1756L15.1518 9.57977C15.1559 9.57668 15.1505 9.58182 15.114 9.60172C15.0734 9.62387 15.0188 9.65129 14.9229 9.6992L15.2584 10.37ZM15.9822 9.56916L15.2455 9.42817C15.234 9.48849 15.2006 9.54246 15.1518 9.57977L15.6074 10.1756L16.0629 10.7714C16.4045 10.5102 16.638 10.1325 16.7188 9.71016L15.9822 9.56916ZM14.0584 7.97002L14.3938 8.64084C14.6183 8.52859 14.7604 8.45779 14.8684 8.41071C14.9783 8.36282 14.9951 8.36611 14.971 8.36892L14.8841 7.62397L14.7972 6.87902C14.5988 6.90217 14.4199 6.96991 14.269 7.03567C14.1163 7.10225 13.9327 7.19431 13.7229 7.2992L14.0584 7.97002ZM16 9.17002H16.75C16.75 8.93548 16.7502 8.73012 16.7415 8.56374C16.7328 8.39939 16.7134 8.20906 16.6454 8.02123L15.9402 8.27666L15.2351 8.53209C15.2268 8.50931 15.2373 8.52288 15.2436 8.64256C15.2498 8.76021 15.25 8.91902 15.25 9.17002H16ZM14.8841 7.62397L14.971 8.36892C15.0862 8.35548 15.1956 8.42304 15.2351 8.53209L15.9402 8.27666L16.6454 8.02123C16.3689 7.25788 15.6037 6.78495 14.7972 6.87902L14.8841 7.62397ZM12.7416 8.62838L12.4062 7.95756C12.2509 8.03522 12.0824 8.1159 11.9371 8.22703L12.3926 8.82283L12.8482 9.41863C12.8441 9.42172 12.8495 9.41658 12.886 9.39668C12.9266 9.37453 12.9812 9.34711 13.0771 9.2992L12.7416 8.62838ZM12 9.82838H12.75C12.75 9.72125 12.7501 9.66016 12.7518 9.61391C12.7532 9.57238 12.7554 9.56524 12.7545 9.57023L12.0178 9.42924L11.2812 9.28824C11.2468 9.46794 11.25 9.65472 11.25 9.82838H12ZM12.3926 8.82283L11.9371 8.22703C11.5955 8.48818 11.362 8.86594 11.2812 9.28824L12.0178 9.42924L12.7545 9.57023C12.766 9.50991 12.7994 9.45594 12.8482 9.41863L12.3926 8.82283Z" fill="black"/>
</svg>
