<svg width="24" height="24" viewBox="0 0 24 24" fill="none" xmlns="http://www.w3.org/2000/svg">
<path d="M12 15C12 16.1046 11.1046 17 10 17C8.89543 17 8 16.1046 8 15C8 13.8954 8.89543 13 10 13C11.1046 13 12 13.8954 12 15Z" stroke="black" stroke-width="1.5"/>
<path d="M12 15V9" stroke="black" stroke-width="1.5"/>
<path d="M14.0584 11.0284L12.7416 10.37C12.5592 10.2788 12.468 10.2332 12.3926 10.1756C12.1974 10.0263 12.064 9.81048 12.0178 9.56916C12 9.47601 12 9.37401 12 9.17002C12 8.68447 12 8.4417 12.0598 8.27666C12.2178 7.84046 12.6551 7.57022 13.1159 7.62397C13.2902 7.64431 13.5074 7.75288 13.9416 7.97002L15.2584 8.62838C15.4408 8.71961 15.532 8.76522 15.6074 8.82283C15.8026 8.97206 15.936 9.18792 15.9822 9.42924C16 9.52239 16 9.62439 16 9.82838C16 10.3139 16 10.5567 15.9402 10.7217C15.7822 11.1579 15.3449 11.4282 14.8841 11.3744C14.7098 11.3541 14.4926 11.2455 14.0584 11.0284Z" stroke="black" stroke-width="1.5" stroke-linecap="round"/>
<path d="M18 22V15M18 15L20.5 17.5M18 15L15.5 17.5" stroke="black" stroke-width="1.5" stroke-linecap="round" stroke-linejoin="round"/>
<circle opacity="0.5" cx="12" cy="12" r="10" stroke="black" stroke-width="1.5"/>
</svg>
