<svg width="24" height="24" viewBox="0 0 24 24" fill="none" xmlns="http://www.w3.org/2000/svg">
<path d="M2.97631 2.87868L3.47803 3.43615L3.47803 3.43615L2.97631 2.87868ZM2.97631 19.1213L3.47803 18.5639L2.97631 19.1213ZM6.25 20C6.25 20.4142 6.58579 20.75 7 20.75C7.41421 20.75 7.75 20.4142 7.75 20H6.25ZM7.75 2C7.75 1.58579 7.41422 1.25 7 1.25C6.58579 1.25 6.25 1.58579 6.25 2H7.75ZM2 6.25C1.58579 6.25 1.25 6.58579 1.25 7C1.25 7.41421 1.58579 7.75 2 7.75V6.25ZM2 15.25C1.58579 15.25 1.25 15.5858 1.25 16C1.25 16.4142 1.58579 16.75 2 16.75V15.25ZM21.0237 4.87868L20.522 5.43615L21.0237 4.87868ZM21.0237 21.1213L20.522 20.5639L21.0237 21.1213ZM16.25 22C16.25 22.4142 16.5858 22.75 17 22.75C17.4142 22.75 17.75 22.4142 17.75 22H16.25ZM17.75 4C17.75 3.58579 17.4142 3.25 17 3.25C16.5858 3.25 16.25 3.58579 16.25 4H17.75ZM22 9.75C22.4142 9.75 22.75 9.41421 22.75 9C22.75 8.58579 22.4142 8.25 22 8.25V9.75ZM22 18.75C22.4142 18.75 22.75 18.4142 22.75 18C22.75 17.5858 22.4142 17.25 22 17.25V18.75ZM2 14H2.75V8H2H1.25V14H2ZM2 8H2.75C2.75 7.64443 2.75 7.31409 2.75192 7.00464L2.00193 7L1.25195 6.99536C1.25 7.31032 1.25 7.6455 1.25 8H2ZM2.00193 7L2.75192 7.00464C2.75868 5.91065 2.79037 5.14239 2.90886 4.56183C3.02163 4.00928 3.20202 3.68456 3.47803 3.43615L2.97631 2.87868L2.47459 2.32121C1.89684 2.84118 1.59677 3.48961 1.43915 4.26187C1.28726 5.00611 1.25863 5.91433 1.25195 6.99536L2.00193 7ZM8.66667 2V1.25C8.05506 1.25 7.4967 1.24999 6.99024 1.25658L7 2.00652L7.00977 2.75645C7.50454 2.75001 8.05246 2.75 8.66667 2.75V2ZM7 2.00652L6.99024 1.25658C5.95477 1.27006 5.08619 1.31098 4.36486 1.45123C3.62845 1.59441 2.99885 1.84937 2.47459 2.32121L2.97631 2.87868L3.47803 3.43615C3.73967 3.20068 4.08877 3.033 4.65115 2.92366C5.22862 2.81138 5.97893 2.76988 7.00977 2.75645L7 2.00652ZM8.66667 20V19.25C8.05246 19.25 7.50453 19.25 7.00976 19.2435L7 19.9935L6.99024 20.7434C7.4967 20.75 8.05506 20.75 8.66667 20.75V20ZM7 19.9935L7.00977 19.2435C5.97893 19.2301 5.22862 19.1886 4.65115 19.0763C4.08877 18.967 3.73967 18.7993 3.47803 18.5639L2.97631 19.1213L2.47459 19.6788C2.99885 20.1506 3.62845 20.4056 4.36486 20.5488C5.08619 20.689 5.95476 20.7299 6.99024 20.7434L7 19.9935ZM2 14H1.25C1.25 14.7603 1.24991 15.4349 1.26967 16.0251L2.01925 16L2.76883 15.9749C2.75009 15.4151 2.75 14.7679 2.75 14H2ZM2.01925 16L1.26967 16.0251C1.32166 17.5781 1.50653 18.8075 2.47459 19.6788L2.97631 19.1213L3.47803 18.5639C3.02098 18.1525 2.82085 17.5288 2.76883 15.9749L2.01925 16ZM7 19.9935H6.25V20H7H7.75V19.9935H7ZM7 2H6.25V2.00652H7H7.75V2H7ZM2.00193 7V6.25H2V7V7.75H2.00193V7ZM2.01925 16V15.25H2V16V16.75H2.01925V16ZM11 20V19.25H8.66667V20V20.75H11V20ZM8.66667 2V2.75H11V2V1.25H8.66667V2ZM22 16H22.75V10H22H21.25V16H22ZM22 10H22.75C22.75 9.6455 22.75 9.31032 22.7481 8.99536L21.9981 9L21.2481 9.00464C21.25 9.31409 21.25 9.64443 21.25 10H22ZM21.9981 9L22.7481 8.99536C22.7414 7.91433 22.7127 7.00611 22.5608 6.26187C22.4032 5.48961 22.1032 4.84118 21.5254 4.32121L21.0237 4.87868L20.522 5.43615C20.798 5.68456 20.9784 6.00928 21.0911 6.56183C21.2096 7.14239 21.2413 7.91065 21.2481 9.00464L21.9981 9ZM15.3333 4V4.75C15.9475 4.75 16.4955 4.75001 16.9902 4.75645L17 4.00652L17.0098 3.25658C16.5033 3.24999 15.9449 3.25 15.3333 3.25V4ZM17 4.00652L16.9902 4.75645C18.0211 4.76988 18.7714 4.81138 19.3489 4.92366C19.9112 5.033 20.2603 5.20068 20.522 5.43615L21.0237 4.87868L21.5254 4.32121C21.0011 3.84937 20.3716 3.59441 19.6351 3.45123C18.9138 3.31098 18.0452 3.27006 17.0098 3.25658L17 4.00652ZM15.3333 22V22.75C15.9449 22.75 16.5033 22.75 17.0098 22.7434L17 21.9935L16.9902 21.2435C16.4955 21.25 15.9475 21.25 15.3333 21.25V22ZM17 21.9935L17.0098 22.7434C18.0452 22.7299 18.9138 22.689 19.6351 22.5488C20.3716 22.4056 21.0011 22.1506 21.5254 21.6788L21.0237 21.1213L20.522 20.5639C20.2603 20.7993 19.9112 20.967 19.3489 21.0763C18.7714 21.1886 18.0211 21.2301 16.9902 21.2435L17 21.9935ZM22 16H21.25C21.25 16.7679 21.2499 17.4151 21.2312 17.9749L21.9808 18L22.7303 18.0251C22.7501 17.4349 22.75 16.7603 22.75 16H22ZM21.9808 18L21.2312 17.9749C21.1792 19.5288 20.979 20.1525 20.522 20.5639L21.0237 21.1213L21.5254 21.6788C22.4935 20.8075 22.6783 19.5781 22.7303 18.0251L21.9808 18ZM17 21.9935H16.25V22H17H17.75V21.9935H17ZM17 4H16.25V4.00652H17H17.75V4H17ZM21.9981 9V9.75H22V9V8.25H21.9981V9ZM21.9808 18V18.75H22V18V17.25H21.9808V18ZM13 22V22.75H15.3333V22V21.25H13V22ZM15.3333 4V3.25H13V4V4.75H15.3333V4ZM12 21H11.25C11.25 21.9665 12.0335 22.75 13 22.75V22V21.25C12.8619 21.25 12.75 21.1381 12.75 21H12ZM12 3L12.75 3C12.75 2.0335 11.9665 1.25 11 1.25V2V2.75C11.1381 2.75 11.25 2.86193 11.25 3L12 3ZM13 4V3.25C12.8619 3.25 12.75 3.13807 12.75 3L12 3L11.25 3C11.25 3.9665 12.0335 4.75 13 4.75V4ZM11 20V20.75C11.1381 20.75 11.25 20.8619 11.25 21H12H12.75C12.75 20.0335 11.9665 19.25 11 19.25V20Z" fill="black"/>
<path opacity="0.5" d="M2.00195 6.25129C1.58774 6.25129 1.25195 6.58708 1.25195 7.00129C1.25195 7.41551 1.58774 7.75129 2.00195 7.75129L2.00195 6.25129ZM7.75002 2.00781C7.75002 1.5936 7.41424 1.25781 7.00002 1.25781C6.58581 1.25781 6.25002 1.5936 6.25002 2.00781H7.75002ZM6.25002 19.9948C6.25002 20.409 6.58581 20.7448 7.00002 20.7448C7.41424 20.7448 7.75002 20.409 7.75002 19.9948H6.25002ZM2.01927 15.2513C1.60506 15.2513 1.26927 15.5871 1.26927 16.0013C1.26927 16.4155 1.60506 16.7513 2.01927 16.7513L2.01927 15.2513ZM7.00002 7.0013V7.7513V7.0013ZM11.25 20.0013C11.25 20.4155 11.5858 20.7513 12 20.7513C12.4142 20.7513 12.75 20.4155 12.75 20.0013H11.25ZM21.9981 9.75129C22.4123 9.75129 22.7481 9.41551 22.7481 9.00129C22.7481 8.58708 22.4123 8.25129 21.9981 8.25129V9.75129ZM17.75 4.00781C17.75 3.5936 17.4142 3.25781 17 3.25781C16.5858 3.25781 16.25 3.5936 16.25 4.00781H17.75ZM16.25 21.9948C16.25 22.409 16.5858 22.7448 17 22.7448C17.4142 22.7448 17.75 22.409 17.75 21.9948H16.25ZM21.9808 18.7513C22.395 18.7513 22.7308 18.4155 22.7308 18.0013C22.7308 17.5871 22.395 17.2513 21.9808 17.2513V18.7513ZM17 9.0013V9.7513V9.0013ZM12 9.00129V8.25129H11.25V9.00129H12ZM12 18.0013H11.25V18.7513H12V18.0013ZM12.75 3.0013C12.75 2.58708 12.4142 2.2513 12 2.25129C11.5858 2.25129 11.25 2.58708 11.25 3.00129L12.75 3.0013ZM7.00002 16.0013H6.25002L6.25002 19.9948H7.00002H7.75002L7.75002 16.0013H7.00002ZM7.00002 2.00781H6.25002V7.0013H7.00002H7.75002V2.00781H7.00002ZM12 3.00129L11.25 3.00129L11.25 7.00129L12 7.00129L12.75 7.0013L12.75 3.0013L12 3.00129ZM12 7.00129V6.25129L7.00002 6.2513V7.0013V7.7513L12 7.75129V7.00129ZM7.00002 7.0013V6.2513L2.00195 6.25129L2.00195 7.00129L2.00195 7.75129L7.00002 7.7513V7.0013ZM12 7.00129H11.25V16.0013H12H12.75V7.00129H12ZM12 16.0013H11.25V20.0013H12H12.75V16.0013H12ZM12 16.0013V15.2513L7.00002 15.2513V16.0013V16.7513L12 16.7513V16.0013ZM7.00002 16.0013V15.2513L2.01927 15.2513L2.01927 16.0013L2.01927 16.7513L7.00002 16.7513V16.0013ZM17 18.0013H16.25L16.25 21.9948H17H17.75L17.75 18.0013H17ZM17 4.00781H16.25V9.0013H17H17.75V4.00781H17ZM12 9.00129V9.75129L17 9.7513V9.0013V8.2513L12 8.25129V9.00129ZM17 9.0013V9.7513L21.9981 9.75129V9.00129V8.25129L17 8.2513V9.0013ZM12 9.00129H11.25V18.0013H12H12.75V9.00129H12ZM12 18.0013V18.7513H17V18.0013V17.2513H12V18.0013ZM17 18.0013V18.7513H21.9808V18.0013V17.2513H17V18.0013Z" fill="black"/>
</svg>
