<svg width="24" height="24" viewBox="0 0 24 24" fill="none" xmlns="http://www.w3.org/2000/svg">
<path d="M7.0162 17.0426C6.76819 17.0008 6.51215 17.0008 6.00008 17.0008C4.62617 17.0008 3.93921 17.0008 3.33988 16.7235C2.7923 16.4701 2.24473 15.9549 1.95854 15.4238C1.64531 14.8424 1.60847 14.238 1.53479 13.0292C1.51299 12.6716 1.5 12.3232 1.5 12.0008C1.5 11.6784 1.51299 11.33 1.53479 10.9724C1.60847 9.76353 1.64531 9.15911 1.95854 8.57776C2.24473 8.04661 2.7923 7.5314 3.33988 7.27805C3.93921 7.00076 4.62617 7.00076 6.00008 7.00076C6.51215 7.00076 6.76819 7.00076 7.0162 6.95888C7.26138 6.91748 7.50046 6.84576 7.72795 6.74536C7.95806 6.6438 8.17181 6.50287 8.59932 6.22099L8.81825 6.07664C11.3612 4.39995 12.6327 3.56161 13.7001 3.92585C13.9047 3.99568 14.1028 4.09648 14.2797 4.22081C15.115 4.80783 15.2516 6.09979 15.374 8.57776" stroke="black" stroke-width="1.5"/>
<path opacity="0.5" d="M15.5 8.5V12C15.5 12.5319 15.4646 13.4881 15.4127 14.6054C15.2725 17.6228 15.2024 19.1315 14.2797 19.78C14.1028 19.9043 13.9047 20.0051 13.7001 20.0749C12.7327 20.405 11.5975 19.7473 9.5 18.3727C8.83333 17.9152 7.4 17 7 17" stroke="black" stroke-width="1.5"/>
<path opacity="0.5" d="M20 18C20 18 21.5 16.2 21.5 12C21.5 9.56658 20.9965 7.93882 20.5729 7" stroke="black" stroke-width="1.5" stroke-linecap="round"/>
<path opacity="0.5" d="M18 15C18 15 18.5 14.1 18.5 12C18.5 11.1381 18.4158 10.4784 18.3165 10" stroke="black" stroke-width="1.5" stroke-linecap="round"/>
<path d="M22 2L2 22" stroke="black" stroke-width="1.5" stroke-linecap="round"/>
</svg>
