<svg width="24" height="24" viewBox="0 0 24 24" fill="none" xmlns="http://www.w3.org/2000/svg">
<path d="M15.7285 3.88409C17.1629 2.4442 19.2609 2.41396 20.4224 3.57993C21.586 4.7481 21.5547 6.85934 20.1194 8.30021L17.6956 10.7335C17.4033 11.0269 17.4042 11.5018 17.6976 11.7941C17.9911 12.0864 18.466 12.0855 18.7583 11.7921L21.1821 9.35882C23.0934 7.4401 23.3334 4.37677 21.4851 2.52133C19.6346 0.663673 16.5781 0.905786 14.6658 2.82548L9.81817 7.69194C7.90688 9.61066 7.66692 12.674 9.51519 14.5295C9.80751 14.8229 10.2824 14.8238 10.5758 14.5315C10.8693 14.2392 10.8702 13.7643 10.5779 13.4709C9.41425 12.3027 9.44559 10.1914 10.8809 8.75054L15.7285 3.88409Z" fill="black"/>
<path d="M14.4851 9.47086C14.1928 9.1774 13.7179 9.17648 13.4244 9.46881C13.131 9.76113 13.1301 10.236 13.4224 10.5295C14.586 11.6976 14.5547 13.8089 13.1194 15.2497L8.27178 20.1162C6.83745 21.5561 4.73937 21.5864 3.57791 20.4204C2.41424 19.2522 2.44559 17.1409 3.88089 15.7001L6.30473 13.2668C6.59706 12.9733 6.59614 12.4985 6.30268 12.2062C6.00922 11.9138 5.53434 11.9147 5.24202 12.2082L2.81818 14.6415C0.906876 16.5602 0.666916 19.6235 2.51519 21.479C4.36567 23.3367 7.42221 23.0945 9.33449 21.1748L14.1821 16.3083C16.0934 14.3896 16.3334 11.3263 14.4851 9.47086Z" fill="black"/>
</svg>
