<svg width="24" height="24" viewBox="0 0 24 24" fill="none" xmlns="http://www.w3.org/2000/svg">
<path fill-rule="evenodd" clip-rule="evenodd" d="M21.0472 1.98842C21.7008 2.67298 21.9874 3.75611 21.5201 4.8038L14.1576 21.3135C13.303 23.23 10.6973 23.23 9.8426 21.3135L2.4801 4.8038C2.01289 3.75611 2.29947 2.67298 2.95301 1.98842C3.61206 1.29808 4.68829 0.979282 5.72025 1.53025L5.36701 2.19186L5.72025 1.53025L11.624 4.68228L11.2707 5.34389L11.624 4.68229C11.8624 4.80958 12.1379 4.80958 12.3763 4.68228L18.28 1.53025L18.6332 2.19186L18.28 1.53025C19.312 0.979281 20.3882 1.29808 21.0472 1.98842ZM18.9865 2.85347L18.6358 2.19669L18.9865 2.85347L13.0827 6.0055C12.4028 6.3685 11.5974 6.36851 10.9175 6.0055L5.01378 2.85347C4.65799 2.66351 4.29972 2.75003 4.03797 3.0242C3.77072 3.30415 3.6502 3.74472 3.85005 4.19287L11.2126 20.7026C11.5386 21.4336 12.4617 21.4336 12.7877 20.7026L20.1502 4.19287C20.35 3.74472 20.2295 3.30414 19.9623 3.0242C19.7005 2.75003 19.3423 2.66351 18.9865 2.85347Z" fill="black"/>
</svg>
