<svg width="24" height="24" viewBox="0 0 24 24" fill="none" xmlns="http://www.w3.org/2000/svg">
<path fill-rule="evenodd" clip-rule="evenodd" d="M21.0472 22.0116C21.7008 21.327 21.9874 20.2439 21.5201 19.1962L14.1576 2.68648C13.303 0.770016 10.6973 0.770016 9.8426 2.68648L2.4801 19.1962C2.01289 20.2439 2.29947 21.327 2.95301 22.0116C3.61206 22.7019 4.68829 23.0207 5.72025 22.4697L5.36701 21.8081L5.72025 22.4697L11.624 19.3177L11.2707 18.6561L11.624 19.3177C11.8624 19.1904 12.1379 19.1904 12.3763 19.3177L18.28 22.4697L18.6332 21.8081L18.28 22.4697C19.312 23.0207 20.3882 22.7019 21.0472 22.0116ZM18.9865 21.1465L18.6358 21.8033L18.9865 21.1465L13.0827 17.9945C12.4028 17.6315 11.5974 17.6315 10.9175 17.9945L5.01378 21.1465C4.65799 21.3365 4.29972 21.25 4.03797 20.9758C3.77072 20.6959 3.6502 20.2553 3.85005 19.8071L11.2126 3.29741C11.5386 2.56637 12.4617 2.56637 12.7877 3.29741L20.1502 19.8071C20.35 20.2553 20.2295 20.6959 19.9623 20.9758C19.7005 21.25 19.3423 21.3365 18.9865 21.1465Z" fill="black"/>
</svg>
