<svg width="24" height="24" viewBox="0 0 24 24" fill="none" xmlns="http://www.w3.org/2000/svg">
<path fill-rule="evenodd" clip-rule="evenodd" d="M16.9999 3.75C16.0334 3.75 15.2499 4.5335 15.2499 5.5C15.2499 6.4665 16.0334 7.25 16.9999 7.25C17.9664 7.25 18.7499 6.4665 18.7499 5.5C18.7499 4.5335 17.9664 3.75 16.9999 3.75ZM13.7499 5.5C13.7499 3.70507 15.205 2.25 16.9999 2.25C18.7948 2.25 20.2499 3.70507 20.2499 5.5C20.2499 7.29493 18.7948 8.75 16.9999 8.75C15.205 8.75 13.7499 7.29493 13.7499 5.5ZM8.43829 4.63039C8.18222 4.34018 7.73439 4.3262 7.46071 4.59987C7.2128 4.84779 7.19755 5.24479 7.42572 5.51099L8.41344 6.66332C9.32009 7.72108 9.05734 9.34019 7.86273 10.057L4.3858 12.1431C4.03061 12.3562 3.56992 12.2411 3.35681 11.8859C3.14369 11.5307 3.25887 11.07 3.61405 10.8569L7.09098 8.77072C7.48919 8.5318 7.57677 7.99209 7.27455 7.63951L6.28684 6.48717C5.54857 5.62586 5.5979 4.34136 6.40005 3.53921C7.28554 2.65373 8.73452 2.69896 9.56305 3.63796L16.0623 11.0038C16.3364 11.3144 16.3067 11.7883 15.9961 12.0624C15.6855 12.3364 15.2116 12.3068 14.9375 11.9962L8.43829 4.63039ZM4.56979 12.8657C5.25664 11.7919 6.72725 11.8271 7.45746 12.7618C8.44746 14.0291 9.82941 15.25 11.9999 15.25C14.2085 15.25 15.5696 14.2712 16.5049 13.0209C17.2249 12.0585 18.7906 11.9013 19.5455 13.0435C20.1706 13.9891 20.8486 14.7306 22.1719 15.0424C22.5751 15.1374 22.8249 15.5412 22.7299 15.9444C22.6349 16.3476 22.2311 16.5974 21.8279 16.5024C19.9759 16.066 19.0203 14.9692 18.2942 13.8705C18.2372 13.7844 18.1516 13.7406 18.0406 13.7427C17.922 13.7449 17.7934 13.8027 17.706 13.9195C16.5383 15.4804 14.7602 16.75 11.9999 16.75C9.15735 16.75 7.38852 15.1101 6.2754 13.6853C6.20368 13.5934 6.11008 13.5585 6.02957 13.5602C5.95364 13.5619 5.88418 13.5946 5.83341 13.674C5.09392 14.8301 4.13904 16.0389 2.17194 16.5024C1.76877 16.5974 1.36492 16.3476 1.26992 15.9444C1.17492 15.5412 1.42474 15.1374 1.82791 15.0424C3.22886 14.7123 3.9075 13.9011 4.56979 12.8657ZM4.56979 17.8657C5.25664 16.7919 6.72725 16.8271 7.45746 17.7618C8.44746 19.0291 9.82941 20.25 11.9999 20.25C14.2085 20.25 15.5696 19.2712 16.5049 18.0209C17.2249 17.0585 18.7906 16.9013 19.5455 18.0435C20.1706 18.9891 20.8486 19.7306 22.1719 20.0424C22.5751 20.1374 22.8249 20.5412 22.7299 20.9444C22.6349 21.3476 22.2311 21.5974 21.8279 21.5024C19.9759 21.066 19.0203 19.9692 18.2942 18.8705C18.2372 18.7844 18.1516 18.7406 18.0406 18.7427C17.922 18.7449 17.7934 18.8027 17.706 18.9195C16.5383 20.4804 14.7602 21.75 11.9999 21.75C9.15735 21.75 7.38852 20.1101 6.2754 18.6853C6.20368 18.5934 6.11008 18.5585 6.02957 18.5602C5.95364 18.5619 5.88418 18.5946 5.83341 18.674C5.09392 19.8301 4.13904 21.0389 2.17194 21.5024C1.76877 21.5974 1.36492 21.3476 1.26992 20.9444C1.17492 20.5412 1.42474 20.1374 1.82791 20.0424C3.22886 19.7123 3.9075 18.9011 4.56979 17.8657Z" fill="black"/>
</svg>
