<svg width="24" height="24" viewBox="0 0 24 24" fill="none" xmlns="http://www.w3.org/2000/svg">
<path fill-rule="evenodd" clip-rule="evenodd" d="M12.9388 4.73542C13.3513 4.69785 13.7162 5.0018 13.7538 5.4143C13.8026 5.95058 13.8932 6.53361 14.0453 7.14711C14.1449 7.54916 13.8997 7.95586 13.4977 8.05549C13.0956 8.15512 12.6889 7.90997 12.5893 7.50791C12.4174 6.81421 12.3151 6.15558 12.2599 5.55036C12.2224 5.13785 12.5263 4.77299 12.9388 4.73542ZM5.23966 9.18054C5.47845 8.84208 5.9464 8.76129 6.28486 9.00008C6.78144 9.35043 7.30065 9.76836 7.81547 10.2641C8.11384 10.5514 8.1228 11.0262 7.83549 11.3246C7.54818 11.6229 7.07339 11.6319 6.77502 11.3446C6.31973 10.9062 5.86013 10.5362 5.42012 10.2257C5.08167 9.98694 5.00087 9.51899 5.23966 9.18054ZM13.8363 8.99599C14.2096 8.81661 14.6577 8.97385 14.8371 9.3472C14.9608 9.60468 15.0973 9.86417 15.2477 10.1247C15.3981 10.3852 15.5546 10.6332 15.7157 10.869C15.9494 11.2111 15.8615 11.6778 15.5195 11.9114C15.1774 12.145 14.7108 12.0572 14.4771 11.7151C14.295 11.4485 14.1183 11.1685 13.9486 10.8747C13.779 10.5809 13.6249 10.2879 13.485 9.99681C13.3057 9.62346 13.4629 9.17538 13.8363 8.99599ZM8.48071 12.088C8.82274 11.8544 9.28941 11.9422 9.52305 12.2843C9.7052 12.5509 9.88189 12.8309 10.0515 13.1247C10.2212 13.4185 10.3753 13.7115 10.5151 14.0026C10.6945 14.3759 10.5373 14.824 10.1639 15.0034C9.79056 15.1828 9.34248 15.0256 9.16309 14.6522C9.03938 14.3947 8.90291 14.1352 8.75249 13.8747C8.60207 13.6142 8.44559 13.3662 8.28446 13.1304C8.05081 12.7883 8.13868 12.3217 8.48071 12.088ZM16.1647 12.6748C16.452 12.3765 16.9268 12.3675 17.2252 12.6548C17.6804 13.0932 18.14 13.4632 18.5801 13.7737C18.9185 14.0125 18.9993 14.4804 18.7605 14.8189C18.5217 15.1573 18.0538 15.2381 17.7153 14.9993C17.2187 14.649 16.6995 14.2311 16.1847 13.7353C15.8863 13.448 15.8774 12.9732 16.1647 12.6748ZM10.5025 15.9439C10.9045 15.8443 11.3112 16.0894 11.4109 16.4915C11.5828 17.1852 11.6851 17.8438 11.7402 18.4491C11.7778 18.8616 11.4739 19.2264 11.0613 19.264C10.6488 19.3016 10.284 18.9976 10.2464 18.5851C10.1976 18.0488 10.1069 17.4658 9.9549 16.8523C9.85527 16.4502 10.1004 16.0436 10.5025 15.9439Z" fill="black"/>
<path fill-rule="evenodd" clip-rule="evenodd" d="M13.2861 1.32632C11.0553 1.05591 8.72017 1.48034 6.62509 2.68993C1.48344 5.65846 -0.278218 12.2331 2.69031 17.3747C5.65884 22.5164 12.2334 24.278 17.3751 21.3095C19.4702 20.0999 21.0053 18.2898 21.8865 16.2227C23.1663 13.2206 23.0686 9.67094 21.3099 6.62471C19.5511 3.57847 16.5259 1.71902 13.2861 1.32632ZM13.7804 3.08033C13.7312 3.49161 13.3579 3.7851 12.9466 3.73585C12.5353 3.68661 12.2418 3.31329 12.2911 2.90201C12.2972 2.85081 12.3035 2.8013 12.3099 2.75354C10.6383 2.6958 8.93121 3.09054 7.37509 3.98897C5.81975 4.88694 4.62386 6.16839 3.83788 7.64494C3.8824 7.66328 3.92839 7.68258 3.97576 7.70286C4.35656 7.86585 4.53312 8.30668 4.37013 8.68748C4.20714 9.06827 3.76631 9.24484 3.38551 9.08184C3.3358 9.06057 3.28804 9.04062 3.24236 9.02195C2.41548 11.457 2.6025 14.2226 3.98935 16.6247C5.37621 19.0268 7.67776 20.5716 10.2 21.073C10.2067 21.0241 10.2133 20.9728 10.2197 20.9191C10.269 20.5078 10.6423 20.2143 11.0536 20.2636C11.4649 20.3128 11.7583 20.6861 11.7091 21.0974C11.703 21.1486 11.6967 21.198 11.6903 21.2458C13.362 21.3034 15.0698 20.9084 16.6251 20.0104C18.1812 19.112 19.3766 17.831 20.1624 16.3545C20.1178 16.3362 20.0718 16.3168 20.0244 16.2966C19.6436 16.1336 19.4671 15.6927 19.63 15.3119C19.793 14.9311 20.2339 14.7546 20.6147 14.9176C20.6644 14.9388 20.7121 14.9588 20.7578 14.9775C21.5852 12.5411 21.3974 9.77639 20.0108 7.37471C18.6242 4.97302 16.3238 3.42808 13.8001 2.92639C13.7935 2.97529 13.7869 3.02664 13.7804 3.08033Z" fill="black"/>
</svg>
