<svg width="24" height="24" viewBox="0 0 24 24" fill="none" xmlns="http://www.w3.org/2000/svg">
<path fill-rule="evenodd" clip-rule="evenodd" d="M12.4506 2.75947C10.7343 2.67403 8.9749 3.06532 7.37509 3.98897C5.77603 4.91218 4.55691 6.24074 3.77257 7.76992C4.13777 8.00339 4.63822 8.35339 5.21436 8.83716C6.39071 9.82491 7.88484 11.3723 9.1853 13.6247C10.4858 15.8772 11.0788 17.9448 11.346 19.4575C11.4769 20.1984 11.5298 20.8068 11.5494 21.2398C13.2659 21.3252 15.026 20.9337 16.6251 20.0104C18.2249 19.0868 19.4434 17.7588 20.2276 16.2297C19.8624 15.9962 19.3618 15.6462 18.7855 15.1623C17.6091 14.1746 16.1149 12.6272 14.8145 10.3747C13.514 8.12228 12.9211 6.05461 12.6539 4.54197C12.523 3.80099 12.4701 3.1925 12.4506 2.75947ZM13.9648 2.96066C13.9897 3.30979 14.0383 3.7565 14.131 4.28105C14.3729 5.65031 14.914 7.54708 16.1135 9.62474C17.313 11.7024 18.6852 13.1194 19.7501 14.0136C20.158 14.3561 20.5206 14.6216 20.8105 14.8177C21.5764 12.4208 21.3672 9.72406 20.0108 7.37471C18.6544 5.02535 16.4236 3.49581 13.9648 2.96066ZM10.0351 21.0387C10.0102 20.6896 9.96154 20.2429 9.86888 19.7184C9.62696 18.3492 9.08581 16.4524 7.88626 14.3747C6.68671 12.2971 5.31464 10.88 4.24979 9.9859C3.84196 9.64345 3.47951 9.378 3.18967 9.18186C2.42422 11.5776 2.63277 14.275 3.98935 16.6247C5.34592 18.9744 7.57769 20.5037 10.0351 21.0387ZM6.62509 2.68993C8.72017 1.48034 11.0553 1.05591 13.2861 1.32632C16.5259 1.71902 19.5511 3.57847 21.3099 6.62471C23.0686 9.67094 23.1663 13.2206 21.8865 16.2227C21.0053 18.2898 19.4702 20.0999 17.3751 21.3095C12.2334 24.278 5.65884 22.5164 2.69031 17.3747C-0.278218 12.2331 1.48344 5.65846 6.62509 2.68993Z" fill="black"/>
</svg>
