<svg width="24" height="24" viewBox="0 0 24 24" fill="none" xmlns="http://www.w3.org/2000/svg">
<path d="M21 17.5H11" stroke="black" stroke-width="1.5" stroke-linecap="round"/>
<path d="M21 6.5H11" stroke="black" stroke-width="1.5" stroke-linecap="round"/>
<path d="M7 6.5C7 7.32843 6.32843 8 5.5 8C4.67157 8 4 7.32843 4 6.5C4 5.67157 4.67157 5 5.5 5C6.32843 5 7 5.67157 7 6.5Z" stroke="black" stroke-width="1.5"/>
<path d="M7 17.5C7 18.3284 6.32843 19 5.5 19C4.67157 19 4 18.3284 4 17.5C4 16.6716 4.67157 16 5.5 16C6.32843 16 7 16.6716 7 17.5Z" stroke="black" stroke-width="1.5"/>
</svg>
