<svg width="24" height="24" viewBox="0 0 24 24" fill="none" xmlns="http://www.w3.org/2000/svg">
<path d="M21 17.5H11" stroke="black" stroke-width="1.5" stroke-linecap="round"/>
<path d="M21 6.5H11" stroke="black" stroke-width="1.5" stroke-linecap="round"/>
<path d="M4 5.695L5.695 4V8.52" stroke="black" stroke-width="1.5" stroke-linecap="round" stroke-linejoin="round"/>
<path d="M6.56555 19.4997H4L6.24486 16.9341C6.32909 16.7867 6.38346 16.6242 6.40487 16.4558C6.42628 16.2874 6.4143 16.1164 6.36964 15.9526C6.32497 15.7888 6.24848 15.6354 6.14453 15.5012C6.04058 15.367 5.91122 15.2546 5.76382 15.1703C5.61642 15.0861 5.45387 15.0317 5.28546 15.0103C5.11705 14.9889 4.94607 15.0009 4.78228 15.0456C4.6185 15.0902 4.46511 15.1667 4.33089 15.2707C4.19666 15.3746 4.08423 15.504 4 15.6514" stroke="black" stroke-width="1.5" stroke-linecap="round" stroke-linejoin="round"/>
</svg>
