<svg width="24" height="24" viewBox="0 0 24 24" fill="none" xmlns="http://www.w3.org/2000/svg">
<path opacity="0.5" fill-rule="evenodd" clip-rule="evenodd" d="M11.1504 6.78288C11.1504 6.21891 11.6076 5.76172 12.1715 5.76172H21.5101C22.074 5.76172 22.5312 6.21891 22.5312 6.78288C22.5312 7.34685 22.074 7.80403 21.5101 7.80403H12.1715C11.6076 7.80403 11.1504 7.34685 11.1504 6.78288Z" fill="black"/>
<path opacity="0.5" d="M11.1504 17.3141C11.1504 16.7502 11.6076 16.293 12.1715 16.293H21.5101C22.074 16.293 22.5312 16.7502 22.5312 17.3141C22.5312 17.8781 22.074 18.3353 21.5101 18.3353H12.1715C11.6076 18.3353 11.1504 17.8781 11.1504 17.3141Z" fill="black"/>
<path d="M9.79832 4.23826C10.0809 4.54108 10.0646 5.01567 9.76176 5.29829L5.47605 9.29829C5.32393 9.44027 5.11967 9.51267 4.9121 9.49818C4.70453 9.4837 4.5123 9.38363 4.38138 9.2219L3.16709 7.7219C2.90647 7.39996 2.95618 6.92769 3.27813 6.66707C3.60007 6.40645 4.07234 6.45616 4.33296 6.7781L5.04089 7.65261L8.73829 4.20171C9.0411 3.91909 9.51569 3.93545 9.79832 4.23826Z" fill="black"/>
<path d="M9.79832 14.2383C10.0809 14.5411 10.0646 15.0157 9.76176 15.2983L5.47605 19.2983C5.32393 19.4403 5.11967 19.5127 4.9121 19.4982C4.70453 19.4837 4.5123 19.3836 4.38138 19.2219L3.16709 17.7219C2.90647 17.4 2.95618 16.9277 3.27813 16.6671C3.60007 16.4064 4.07234 16.4562 4.33296 16.7781L5.04089 17.6526L8.73829 14.2017C9.0411 13.9191 9.51569 13.9355 9.79832 14.2383Z" fill="black"/>
</svg>
