<svg width="24" height="24" viewBox="0 0 24 24" fill="none" xmlns="http://www.w3.org/2000/svg">
<path fill-rule="evenodd" clip-rule="evenodd" d="M9.25 5C9.25 4.58579 9.58579 4.25 10 4.25H22C22.4142 4.25 22.75 4.58579 22.75 5C22.75 5.41421 22.4142 5.75 22 5.75H10C9.58579 5.75 9.25 5.41421 9.25 5ZM9.25 19C9.25 18.5858 9.58579 18.25 10 18.25H22C22.4142 18.25 22.75 18.5858 22.75 19C22.75 19.4142 22.4142 19.75 22 19.75H10C9.58579 19.75 9.25 19.4142 9.25 19Z" fill="black"/>
<path opacity="0.5" d="M9.25 12C9.25 11.5858 9.58579 11.25 10 11.25H22C22.4142 11.25 22.75 11.5858 22.75 12C22.75 12.4142 22.4142 12.75 22 12.75H10C9.58579 12.75 9.25 12.4142 9.25 12Z" fill="black"/>
<rect x="3" y="3" width="3.33" height="3.33" rx="1.665" fill="black"/>
<rect x="3" y="10" width="3.33" height="3.33" rx="1.665" fill="black" fill-opacity="0.5"/>
<rect x="3" y="17" width="3.33" height="3.33" rx="1.665" fill="black"/>
</svg>
