<svg width="24" height="24" viewBox="0 0 24 24" fill="none" xmlns="http://www.w3.org/2000/svg">
<path opacity="0.5" fill-rule="evenodd" clip-rule="evenodd" d="M10.1504 6.78288C10.1504 6.21891 10.6076 5.76172 11.1715 5.76172H21.5101C22.074 5.76172 22.5312 6.21891 22.5312 6.78288C22.5312 7.34685 22.074 7.80403 21.5101 7.80403H11.1715C10.6076 7.80403 10.1504 7.34685 10.1504 6.78288Z" fill="black"/>
<path opacity="0.5" d="M10.1504 17.3141C10.1504 16.7502 10.6076 16.293 11.1715 16.293H21.5101C22.074 16.293 22.5312 16.7502 22.5312 17.3141C22.5312 17.8781 22.074 18.3353 21.5101 18.3353H11.1715C10.6076 18.3353 10.1504 17.8781 10.1504 17.3141Z" fill="black"/>
<rect x="2" y="4.5" width="5" height="5" rx="2.5" fill="black"/>
<rect x="2" y="14.5107" width="5" height="5" rx="2.5" fill="black"/>
</svg>
