<svg width="24" height="24" viewBox="0 0 24 24" fill="none" xmlns="http://www.w3.org/2000/svg">
<path opacity="0.5" fill-rule="evenodd" clip-rule="evenodd" d="M10.1504 6.78288C10.1504 6.21891 10.6076 5.76172 11.1715 5.76172H21.5101C22.074 5.76172 22.5312 6.21891 22.5312 6.78288C22.5312 7.34685 22.074 7.80403 21.5101 7.80403H11.1715C10.6076 7.80403 10.1504 7.34685 10.1504 6.78288Z" fill="black"/>
<path opacity="0.5" d="M10.1504 17.3141C10.1504 16.7502 10.6076 16.293 11.1715 16.293H21.5101C22.074 16.293 22.5312 16.7502 22.5312 17.3141C22.5312 17.8781 22.074 18.3353 21.5101 18.3353H11.1715C10.6076 18.3353 10.1504 17.8781 10.1504 17.3141Z" fill="black"/>
<path fill-rule="evenodd" clip-rule="evenodd" d="M4.43072 6.21731V9.34925C4.43072 9.80043 4.79647 10.1662 5.24765 10.1662C5.69882 10.1662 6.06457 9.80043 6.06457 9.34925V4.87546C6.06457 4.19602 5.32335 3.77635 4.74074 4.12592L3.39772 4.93173C3.01084 5.16385 2.88539 5.66566 3.11752 6.05254C3.34965 6.43942 3.85145 6.56487 4.23833 6.33274L4.43072 6.21731Z" fill="black"/>
<path fill-rule="evenodd" clip-rule="evenodd" d="M5.0495 16.0411C4.84311 16.0411 4.64517 16.1231 4.49922 16.269L4.39458 16.3737C4.07555 16.6927 3.5583 16.6927 3.23927 16.3737C2.92024 16.0546 2.92024 15.5374 3.23927 15.2183L3.34392 15.1137C3.79627 14.6614 4.40978 14.4072 5.0495 14.4072H5.23982C5.59192 14.4072 5.93615 14.5115 6.22912 14.7068L6.25043 14.721C6.90704 15.1587 7.18944 15.9818 6.93989 16.7304C6.86494 16.9553 6.74511 17.1625 6.58766 17.3397L5.63609 18.4102H6.39024C6.84142 18.4102 7.20717 18.7759 7.20717 19.2271C7.20717 19.6783 6.84142 20.044 6.39024 20.044H3.94427C3.19004 20.044 2.78987 19.1529 3.29095 18.5892L5.36651 16.2542C5.37695 16.2424 5.38491 16.2287 5.38988 16.2138C5.40644 16.1641 5.3877 16.1095 5.34413 16.0804L5.32282 16.0662C5.29824 16.0498 5.26936 16.0411 5.23982 16.0411H5.0495Z" fill="black"/>
</svg>
