<svg width="24" height="24" viewBox="0 0 24 24" fill="none" xmlns="http://www.w3.org/2000/svg">
<g opacity="0.5">
<path fill-rule="evenodd" clip-rule="evenodd" d="M2.25 6C2.25 5.58579 2.58579 5.25 3 5.25H20C20.4142 5.25 20.75 5.58579 20.75 6C20.75 6.41421 20.4142 6.75 20 6.75H3C2.58579 6.75 2.25 6.41421 2.25 6ZM2.25 11C2.25 10.5858 2.58579 10.25 3 10.25H10C10.4142 10.25 10.75 10.5858 10.75 11C10.75 11.4142 10.4142 11.75 10 11.75H3C2.58579 11.75 2.25 11.4142 2.25 11ZM2.25 16C2.25 15.5858 2.58579 15.25 3 15.25H10C10.4142 15.25 10.75 15.5858 10.75 16C10.75 16.4142 10.4142 16.75 10 16.75H3C2.58579 16.75 2.25 16.4142 2.25 16Z" fill="black"/>
</g>
<path d="M19.125 10.6857C20.767 11.6337 21.588 12.1077 21.8478 12.7349C22.0507 13.225 22.0507 13.7756 21.8478 14.2656C21.588 14.8929 20.767 15.3669 19.125 16.3148C17.483 17.2628 16.662 17.7368 15.9889 17.6482C15.4631 17.579 14.9862 17.3037 14.6633 16.8828C14.25 16.3442 14.25 15.3962 14.25 13.5003C14.25 11.6043 14.25 10.6563 14.6633 10.1177C14.9862 9.69685 15.4631 9.42154 15.9889 9.35231C16.662 9.26369 17.483 9.73769 19.125 10.6857Z" fill="black"/>
</svg>
