<svg width="24" height="24" viewBox="0 0 24 24" fill="none" xmlns="http://www.w3.org/2000/svg">
<path opacity="0.5" fill-rule="evenodd" clip-rule="evenodd" d="M2.25 4C2.25 3.58579 2.58579 3.25 3 3.25H20C20.4142 3.25 20.75 3.58579 20.75 4C20.75 4.41421 20.4142 4.75 20 4.75H3C2.58579 4.75 2.25 4.41421 2.25 4ZM2.25 9C2.25 8.58579 2.58579 8.25 3 8.25H12C12.4142 8.25 12.75 8.58579 12.75 9C12.75 9.41421 12.4142 9.75 12 9.75H3C2.58579 9.75 2.25 9.41421 2.25 9ZM2.25 14C2.25 13.5858 2.58579 13.25 3 13.25H8C8.41421 13.25 8.75 13.5858 8.75 14C8.75 14.4142 8.41421 14.75 8 14.75H3C2.58579 14.75 2.25 14.4142 2.25 14Z" fill="black"/>
<path d="M19.3446 6.99341C19.6232 6.89075 19.9559 6.80267 20.3149 6.86835C20.7572 6.94925 21.1513 7.19727 21.4156 7.56098C21.6302 7.85624 21.6948 8.19421 21.7228 8.48983C21.75 8.77754 21.75 9.13633 21.75 9.54515L21.75 9.57946L21.7501 9.65509C21.7509 9.95518 21.7518 10.2757 21.644 10.571C21.559 10.8041 21.4254 11.0164 21.252 11.194C21.0324 11.4188 20.7431 11.5568 20.4722 11.6859L20.404 11.7185L18.6185 12.5756C18.25 12.7525 17.9266 12.9078 17.6554 13.0077C17.3936 13.1041 17.0842 13.1877 16.75 13.143V17.4291C16.75 19.2434 15.3147 20.7505 13.5 20.7505C11.6853 20.7505 10.25 19.2434 10.25 17.4291C10.25 15.6148 11.6853 14.1077 13.5 14.1077C14.1477 14.1077 14.747 14.2997 15.25 14.629V11.0005H15.2529C15.25 10.8317 15.25 10.6494 15.25 10.456L15.25 10.4216L15.2499 10.346C15.2491 10.0459 15.2482 9.7254 15.356 9.43011C15.441 9.19701 15.5746 8.98465 15.748 8.80713C15.9676 8.58225 16.2569 8.44431 16.5278 8.31515L16.596 8.28255L18.3814 7.42553C18.75 7.2486 19.0734 7.09333 19.3446 6.99341Z" fill="black"/>
</svg>
