<svg width="24" height="24" viewBox="0 0 24 24" fill="none" xmlns="http://www.w3.org/2000/svg">
<path opacity="0.5" fill-rule="evenodd" clip-rule="evenodd" d="M2.25 5C2.25 4.58579 2.58579 4.25 3 4.25H15C15.4142 4.25 15.75 4.58579 15.75 5C15.75 5.41421 15.4142 5.75 15 5.75H3C2.58579 5.75 2.25 5.41421 2.25 5ZM2.25 9C2.25 8.58579 2.58579 8.25 3 8.25H13C13.4142 8.25 13.75 8.58579 13.75 9C13.75 9.41421 13.4142 9.75 13 9.75H3C2.58579 9.75 2.25 9.41421 2.25 9ZM2.25 13C2.25 12.5858 2.58579 12.25 3 12.25H9C9.41421 12.25 9.75 12.5858 9.75 13C9.75 13.4142 9.41421 13.75 9 13.75H3C2.58579 13.75 2.25 13.4142 2.25 13ZM2.25 17C2.25 16.5858 2.58579 16.25 3 16.25H8C8.41421 16.25 8.75 16.5858 8.75 17C8.75 17.4142 8.41421 17.75 8 17.75H3C2.58579 17.75 2.25 17.4142 2.25 17Z" fill="black"/>
<path d="M19.3446 5.99341C19.6232 5.89075 19.9559 5.80267 20.3149 5.86835C20.7572 5.94925 21.1513 6.19727 21.4156 6.56098C21.6302 6.85624 21.6948 7.19421 21.7228 7.48983C21.75 7.77754 21.75 8.13633 21.75 8.54515L21.75 8.57946L21.7501 8.65509C21.7509 8.95518 21.7518 9.2757 21.644 9.57098C21.559 9.80409 21.4254 10.0164 21.252 10.194C21.0324 10.4188 20.7431 10.5568 20.4722 10.6859L20.404 10.7185L18.6185 11.5756C18.25 11.7525 17.9266 11.9078 17.6554 12.0077C17.3936 12.1041 17.0842 12.1877 16.75 12.143V16.4291C16.75 18.2434 15.3147 19.7505 13.5 19.7505C11.6853 19.7505 10.25 18.2434 10.25 16.4291C10.25 14.6148 11.6853 13.1077 13.5 13.1077C14.1477 13.1077 14.747 13.2997 15.25 13.629V10.0005H15.2529C15.25 9.83172 15.25 9.64943 15.25 9.45596L15.25 9.42163L15.2499 9.34602C15.2491 9.04591 15.2482 8.7254 15.356 8.43011C15.441 8.19701 15.5746 7.98465 15.748 7.80713C15.9676 7.58225 16.2569 7.44431 16.5278 7.31515L16.596 7.28255L18.3814 6.42553C18.75 6.2486 19.0734 6.09333 19.3446 5.99341Z" fill="black"/>
</svg>
