<svg width="24" height="24" viewBox="0 0 24 24" fill="none" xmlns="http://www.w3.org/2000/svg">
<path d="M22 22L2 22" stroke="black" stroke-width="1.5" stroke-linecap="round"/>
<path d="M3 21.9998V11.347C3 10.4901 3.36644 9.67408 4.00691 9.10478M21 21.9998V15.9998M7.25345 6.21896L10.0069 3.77144C11.1436 2.76108 12.8564 2.76108 13.9931 3.77144L19.9931 9.10478C20.6336 9.67408 21 10.4901 21 11.347V11.9998" stroke="black" stroke-width="1.5" stroke-linecap="round"/>
<path d="M9 18.5H15" stroke="black" stroke-width="1.5" stroke-linecap="round"/>
<path d="M6 22V19M18 22V16C18 14.1144 18 13.1716 17.4142 12.5858C16.8284 12 15.8856 12 14 12H10C8.11438 12 7.17157 12 6.58579 12.5858C6.11424 13.0573 6.02228 13.7602 6.00434 15" stroke="black" stroke-width="1.5" stroke-linecap="round"/>
<path d="M10 9H10.5M14 9H12.5" stroke="black" stroke-width="1.5" stroke-linecap="round"/>
<path d="M9 15.5H10.5M15 15.5H12.5" stroke="black" stroke-width="1.5" stroke-linecap="round"/>
</svg>
