<svg width="24" height="24" viewBox="0 0 24 24" fill="none" xmlns="http://www.w3.org/2000/svg">
<path fill-rule="evenodd" clip-rule="evenodd" d="M18.6731 3.66776C18.0356 3.78122 17.1965 4.0589 15.9723 4.46698L11.9723 5.80031C11.2959 6.02578 10.8487 6.17604 10.5192 6.3293C10.2072 6.47443 10.0724 6.59123 9.98595 6.71113C9.89953 6.83103 9.83138 6.99592 9.79235 7.33776C9.75113 7.69877 9.75 8.17054 9.75 8.88353V10.9599L20.25 7.45993C20.2499 6.21833 20.2459 5.36081 20.1541 4.73518C20.0627 4.11195 19.906 3.88754 19.7309 3.7613C19.5557 3.63505 19.2933 3.55738 18.6731 3.66776ZM21.7402 6.0005C21.7279 5.436 21.7003 4.94093 21.6382 4.51753C21.522 3.72486 21.2634 3.01683 20.608 2.54443C19.9525 2.07203 19.1991 2.05058 18.4103 2.19096C17.6516 2.326 16.7078 2.64063 15.5559 3.02463L11.4584 4.39045C10.8321 4.59921 10.3027 4.77564 9.88651 4.96927C9.44407 5.17509 9.06018 5.43019 8.76908 5.83406C8.47799 6.23794 8.35738 6.6828 8.30203 7.16762C8.27376 7.41521 8.26085 7.69281 8.25495 8.0005H8.25V8.75968C8.25 8.78692 8.25 8.81433 8.25 8.84193L8.25 16.0002C7.62325 15.5295 6.8442 15.2505 6 15.2505C3.92893 15.2505 2.25 16.9294 2.25 19.0005C2.25 21.0716 3.92893 22.7505 6 22.7505C8.07107 22.7505 9.75 21.0716 9.75 19.0005V12.5411L20.25 9.04107V14.0002C19.6233 13.5295 18.8442 13.2505 18 13.2505C15.9289 13.2505 14.25 14.9294 14.25 17.0005C14.25 19.0716 15.9289 20.7505 18 20.7505C20.0711 20.7505 21.75 19.0716 21.75 17.0005V7.48908C21.75 7.45339 21.75 7.41789 21.75 7.38259V6.0005H21.7402ZM20.25 17.0005C20.25 15.7579 19.2426 14.7505 18 14.7505C16.7574 14.7505 15.75 15.7579 15.75 17.0005C15.75 18.2431 16.7574 19.2505 18 19.2505C19.2426 19.2505 20.25 18.2431 20.25 17.0005ZM8.25 19.0005C8.25 17.7579 7.24264 16.7505 6 16.7505C4.75736 16.7505 3.75 17.7579 3.75 19.0005C3.75 20.2431 4.75736 21.2505 6 21.2505C7.24264 21.2505 8.25 20.2431 8.25 19.0005Z" fill="black"/>
</svg>
