<svg width="24" height="24" viewBox="0 0 24 24" fill="none" xmlns="http://www.w3.org/2000/svg">
<path fill-rule="evenodd" clip-rule="evenodd" d="M11.7463 1.97478C11.7873 2.38697 11.4863 2.75429 11.0741 2.79521C6.40058 3.25923 2.75 7.20351 2.75 11.9995C2.75 17.1081 6.89137 21.2495 12 21.2495C16.796 21.2495 20.7403 17.5989 21.2043 12.9254C21.2452 12.5132 21.6125 12.2123 22.0247 12.2532C22.4369 12.2941 22.7379 12.6614 22.697 13.0736C22.1575 18.5067 17.5747 22.7495 12 22.7495C6.06294 22.7495 1.25 17.9366 1.25 11.9995C1.25 6.42481 5.49278 1.84199 10.9259 1.30255C11.3381 1.26163 11.7054 1.5626 11.7463 1.97478ZM14.5562 1.85244C14.7487 1.71114 14.9969 1.66994 15.2247 1.74149C18.5688 2.79181 21.2074 5.43041 22.2577 8.77449C22.3819 9.16967 22.1621 9.59064 21.7669 9.71476C21.3718 9.83888 20.9508 9.61914 20.8267 9.22396C20.0281 6.68134 18.1597 4.6108 15.75 3.54073V11.9995C15.75 14.0706 14.0711 15.7495 12 15.7495C9.92893 15.7495 8.25 14.0706 8.25 11.9995C8.25 9.92844 9.92893 8.24951 12 8.24951C12.8442 8.24951 13.6233 8.52847 14.25 8.99923V2.45703C14.25 2.21825 14.3637 1.99374 14.5562 1.85244ZM14.25 11.9995C14.25 10.7569 13.2426 9.74951 12 9.74951C10.7574 9.74951 9.75 10.7569 9.75 11.9995C9.75 13.2421 10.7574 14.2495 12 14.2495C13.2426 14.2495 14.25 13.2421 14.25 11.9995Z" fill="black"/>
</svg>
