<svg width="24" height="24" viewBox="0 0 24 24" fill="none" xmlns="http://www.w3.org/2000/svg">
<path fill-rule="evenodd" clip-rule="evenodd" d="M12.1402 4.9088C11.426 5.25577 10.5209 5.85066 9.2311 6.70108L9.01216 6.84543C8.9955 6.85642 8.97905 6.86727 8.96283 6.87797C8.58263 7.12876 8.31931 7.30245 8.03077 7.4298C7.74641 7.55529 7.44756 7.64495 7.14108 7.6967C6.83009 7.74922 6.51464 7.74916 6.05918 7.74906C6.03974 7.74906 6.02004 7.74906 6.00008 7.74906C4.55641 7.74906 4.06911 7.76533 3.6548 7.95702C3.25445 8.14225 2.82804 8.54345 2.6188 8.9318C2.40052 9.33692 2.36045 9.75211 2.2834 11.0163C2.26225 11.3633 2.25 11.6958 2.25 11.9991C2.25 12.3023 2.26225 12.6349 2.2834 12.9818C2.36045 14.246 2.40052 14.6612 2.6188 15.0663C2.82804 15.4547 3.25445 15.8559 3.6548 16.0411C4.06911 16.2328 4.55641 16.2491 6.00008 16.2491C6.02004 16.2491 6.03973 16.2491 6.05917 16.249C6.51464 16.249 6.83009 16.2489 7.14108 16.3014C7.44756 16.3532 7.74641 16.4428 8.03077 16.5683C8.31931 16.6957 8.58263 16.8693 8.96282 17.1201C8.97905 17.1308 8.99549 17.1417 9.01216 17.1527L9.2311 17.297C10.5209 18.1475 11.426 18.7423 12.1402 19.0893C12.8525 19.4353 13.2087 19.4492 13.4578 19.3642C13.5952 19.3173 13.7297 19.2489 13.8485 19.1654C14.0651 19.0131 14.2626 18.7186 14.4015 17.9472C14.541 17.1723 14.5924 16.1004 14.6635 14.5696C14.7156 13.4501 14.75 12.5108 14.75 11.9991C14.75 11.4873 14.7156 10.548 14.6635 9.42848C14.5924 7.89773 14.541 6.82579 14.4015 6.05091C14.2626 5.27954 14.0651 4.98497 13.8485 4.83273C13.7297 4.74925 13.5952 4.68083 13.4578 4.63395C13.2087 4.54891 12.8525 4.56279 12.1402 4.9088ZM11.4848 3.55957C12.3108 3.15831 13.1241 2.93512 13.9423 3.21433C14.2142 3.30711 14.4759 3.4403 14.7109 3.60548C15.417 4.10169 15.7159 4.8857 15.8778 5.78515C16.037 6.6695 16.0914 7.84145 16.1592 9.30134L16.1619 9.35886C16.2137 10.4738 16.25 11.4471 16.25 11.9991C16.25 12.5511 16.2137 13.5243 16.1619 14.6393L16.1592 14.6968C16.0914 16.1567 16.037 17.3286 15.8778 18.213C15.7159 19.1124 15.417 19.8964 14.7109 20.3926C14.4759 20.5578 14.2142 20.691 13.9423 20.7838C13.1241 21.063 12.3108 20.8398 11.4848 20.4385C10.6712 20.0433 9.68413 19.3925 8.45327 18.5809L8.18647 18.405C7.73856 18.1096 7.58448 18.0109 7.42513 17.9406C7.25452 17.8653 7.0752 17.8115 6.89132 17.7805C6.71956 17.7515 6.5366 17.7491 6.00008 17.7491C5.94569 17.7491 5.89203 17.7491 5.83907 17.7491C4.62215 17.7498 3.77659 17.7502 3.02496 17.4024C2.33016 17.081 1.66141 16.4518 1.29828 15.7778C0.905663 15.0491 0.859593 14.2871 0.794087 13.2035C0.791489 13.1606 0.788861 13.1171 0.786179 13.0731C0.763733 12.7048 0.75 12.3406 0.75 11.9991C0.75 11.6575 0.763733 11.2933 0.786179 10.925C0.788861 10.881 0.791489 10.8375 0.794087 10.7946C0.859593 9.71103 0.905663 8.94899 1.29828 8.2203C1.66141 7.54634 2.33016 6.91712 3.02496 6.59566C3.77659 6.24791 4.62215 6.24836 5.83906 6.249C5.89203 6.24903 5.94569 6.24906 6.00008 6.24906C6.5366 6.24906 6.71956 6.24665 6.89132 6.21764C7.0752 6.18659 7.25452 6.1328 7.42513 6.0575C7.58448 5.98717 7.73856 5.88847 8.18647 5.59314L8.45328 5.41722C9.68414 4.60564 10.6712 3.95478 11.4848 3.55957ZM19.5199 5.4231C19.8381 5.15793 20.311 5.20092 20.5762 5.51913L20 5.99927C20.5762 5.51913 20.5762 5.51913 20.5762 5.51913L20.5773 5.52051L20.5786 5.52205L20.5816 5.52566L20.5891 5.53493C20.5948 5.54203 20.6018 5.55096 20.6102 5.56175C20.6269 5.58332 20.6486 5.61232 20.6748 5.64889C20.727 5.72202 20.7966 5.82542 20.8775 5.96027C21.0394 6.23009 21.2462 6.62525 21.45 7.15503C21.8582 8.2164 22.25 9.8077 22.25 11.9993C22.25 14.1908 21.8582 15.7821 21.45 16.8435C21.2462 17.3733 21.0394 17.7684 20.8775 18.0383C20.7966 18.1731 20.727 18.2765 20.6748 18.3496C20.6486 18.3862 20.6269 18.4152 20.6102 18.4368C20.6052 18.4432 20.6007 18.449 20.5966 18.4542C20.5939 18.4576 20.5914 18.4608 20.5891 18.4636L20.5816 18.4729L20.5786 18.4765L20.5773 18.478C20.5773 18.478 20.5762 18.4794 20 17.9993L20.5762 18.4794C20.311 18.7976 19.8381 18.8406 19.5199 18.5754C19.2032 18.3115 19.1591 17.8419 19.42 17.5237M19.42 17.5237C19.42 17.5237 19.4218 17.5215 19.4235 17.5193C19.4288 17.5124 19.4393 17.4986 19.4542 17.4778C19.4839 17.4361 19.5315 17.366 19.5913 17.2665C19.7106 17.0676 19.8788 16.7503 20.05 16.305C20.3918 15.4164 20.75 14.0077 20.75 11.9993C20.75 9.99083 20.3918 8.58213 20.05 7.6935C19.8788 7.24828 19.7106 6.93095 19.5913 6.73201C19.5315 6.63249 19.4839 6.56245 19.4542 6.52074C19.4393 6.49989 19.4288 6.48611 19.4235 6.47927C19.4218 6.47706 19.42 6.4748 19.42 6.4748L19.4235 6.47927L19.422 6.47714L19.42 6.4748C19.1591 6.15665 19.2032 5.687 19.5199 5.4231M17.6358 8.34365C17.9979 8.14249 18.4545 8.27295 18.6556 8.63504L18.0276 8.98393C18.6556 8.63504 18.6556 8.63504 18.6556 8.63504L18.6563 8.63635L18.6571 8.63774L18.6588 8.64079L18.6626 8.64791L18.6723 8.66625C18.6795 8.68033 18.6884 8.69808 18.6986 8.71959C18.7191 8.76262 18.7451 8.82062 18.7745 8.89416C18.8333 9.04132 18.9059 9.25026 18.9765 9.52549C19.1178 10.0764 19.25 10.8892 19.25 11.9993C19.25 13.1094 19.1178 13.9221 18.9765 14.473C18.9059 14.7483 18.8333 14.9572 18.7745 15.1044C18.7451 15.1779 18.7191 15.2359 18.6986 15.2789C18.6884 15.3005 18.6795 15.3182 18.6723 15.3323L18.6626 15.3506L18.6588 15.3577L18.6571 15.3608L18.6563 15.3622C18.6563 15.3622 18.6556 15.3635 18.0276 15.0146L18.6556 15.3635C18.4545 15.7256 17.9979 15.856 17.6358 15.6549C17.2768 15.4554 17.1455 15.0049 17.3393 14.6443L17.3443 14.634C17.3512 14.6196 17.3643 14.5909 17.3818 14.5473C17.4167 14.4601 17.4691 14.3128 17.5235 14.1005C17.6322 13.6764 17.75 12.9892 17.75 11.9993C17.75 11.0094 17.6322 10.3221 17.5235 9.89805C17.4691 9.68577 17.4167 9.53846 17.3818 9.45125C17.3643 9.40761 17.3512 9.37889 17.3443 9.36449L17.3393 9.35425C17.1455 8.99367 17.2768 8.5431 17.6358 8.34365Z" fill="black"/>
</svg>
