<svg width="24" height="24" viewBox="0 0 24 24" fill="none" xmlns="http://www.w3.org/2000/svg">
<path fill-rule="evenodd" clip-rule="evenodd" d="M15.6402 4.9088C14.926 5.25577 14.0209 5.85066 12.7311 6.70108L12.5122 6.84543C12.4955 6.85642 12.4791 6.86727 12.4628 6.87797C12.0826 7.12876 11.8193 7.30245 11.5308 7.4298C11.2464 7.55529 10.9476 7.64495 10.6411 7.6967C10.3301 7.74922 10.0146 7.74916 9.55918 7.74906C9.53974 7.74906 9.52004 7.74906 9.50008 7.74906C8.05641 7.74906 7.56911 7.76533 7.1548 7.95702C6.75445 8.14225 6.32804 8.54345 6.1188 8.9318C5.90052 9.33692 5.86045 9.75211 5.7834 11.0163C5.76225 11.3633 5.75 11.6958 5.75 11.9991C5.75 12.3023 5.76225 12.6349 5.7834 12.9818C5.86045 14.246 5.90052 14.6612 6.1188 15.0663C6.32804 15.4547 6.75445 15.8559 7.1548 16.0411C7.56911 16.2328 8.05641 16.2491 9.50008 16.2491C9.52004 16.2491 9.53973 16.2491 9.55917 16.249C10.0146 16.249 10.3301 16.2489 10.6411 16.3014C10.9476 16.3532 11.2464 16.4428 11.5308 16.5683C11.8193 16.6957 12.0826 16.8693 12.4628 17.1201C12.479 17.1308 12.4955 17.1417 12.5122 17.1527L12.7311 17.297C14.0209 18.1475 14.926 18.7423 15.6402 19.0893C16.3525 19.4353 16.7087 19.4492 16.9578 19.3642C17.0952 19.3173 17.2297 19.2489 17.3485 19.1654C17.5651 19.0131 17.7626 18.7186 17.9015 17.9472C18.041 17.1723 18.0924 16.1004 18.1635 14.5696C18.2156 13.4501 18.25 12.5108 18.25 11.9991C18.25 11.4873 18.2156 10.548 18.1635 9.42848C18.0924 7.89773 18.041 6.82579 17.9015 6.05091C17.7626 5.27954 17.5651 4.98497 17.3485 4.83273C17.2297 4.74925 17.0952 4.68083 16.9578 4.63395C16.7087 4.54891 16.3525 4.56279 15.6402 4.9088ZM14.9848 3.55957C15.8108 3.15831 16.6241 2.93512 17.4423 3.21433C17.7142 3.30711 17.9759 3.4403 18.2109 3.60548C18.917 4.10169 19.2159 4.8857 19.3778 5.78515C19.537 6.6695 19.5914 7.84145 19.6592 9.30134L19.6619 9.35886C19.7137 10.4738 19.75 11.4471 19.75 11.9991C19.75 12.5511 19.7137 13.5243 19.6619 14.6393L19.6592 14.6968C19.5914 16.1567 19.537 17.3286 19.3778 18.213C19.2159 19.1124 18.917 19.8964 18.2109 20.3926C17.9759 20.5578 17.7142 20.691 17.4423 20.7838C16.6241 21.063 15.8108 20.8398 14.9848 20.4385C14.1712 20.0433 13.1841 19.3925 11.9533 18.5809L11.6865 18.405C11.2386 18.1096 11.0845 18.0109 10.9251 17.9406C10.7545 17.8653 10.5752 17.8115 10.3913 17.7805C10.2196 17.7515 10.0366 17.7491 9.50008 17.7491C9.44569 17.7491 9.39203 17.7491 9.33907 17.7491C8.12215 17.7498 7.27659 17.7502 6.52496 17.4024C5.83016 17.081 5.16141 16.4518 4.79828 15.7778C4.40566 15.0491 4.35959 14.2871 4.29409 13.2035C4.29149 13.1606 4.28886 13.1171 4.28618 13.0731C4.26373 12.7048 4.25 12.3406 4.25 11.9991C4.25 11.6575 4.26373 11.2933 4.28618 10.925C4.28886 10.881 4.29149 10.8375 4.29409 10.7946C4.35959 9.71103 4.40566 8.94899 4.79828 8.2203C5.16141 7.54634 5.83016 6.91712 6.52496 6.59566C7.27659 6.24791 8.12215 6.24836 9.33906 6.249C9.39203 6.24903 9.44569 6.24906 9.50008 6.24906C10.0366 6.24906 10.2196 6.24665 10.3913 6.21764C10.5752 6.18659 10.7545 6.1328 10.9251 6.0575C11.0845 5.98717 11.2386 5.88847 11.6865 5.59314L11.9533 5.41722C13.1841 4.60564 14.1712 3.95478 14.9848 3.55957Z" fill="black"/>
</svg>
