<svg width="24" height="24" viewBox="0 0 24 24" fill="none" xmlns="http://www.w3.org/2000/svg">
<path d="M22 5.36519L22.75 5.36519V5.36519H22ZM9.45448 13.3029L9.98369 12.7714L9.45448 13.3029ZM9.45448 8.54376L9.98369 9.07521L9.45448 8.54376ZM15.4285 14.4926L14.8993 13.9612L15.4285 14.4926ZM10.6493 14.4926L10.1201 15.0241L10.6493 14.4926ZM20.5152 9.42733L21.0444 9.95878L20.5152 9.42733ZM22 5.85801L21.25 5.85801V5.85801H22ZM14.5412 3.47846L14.012 2.94701V2.94701L14.5412 3.47846ZM13.4904 16.0931L13.2314 15.3892L13.4904 16.0931ZM7.86218 10.4352L8.55791 10.7153L7.86218 10.4352ZM20.5152 9.42733L19.986 8.89589L14.8993 13.9612L15.4285 14.4926L15.9577 15.0241L21.0444 9.95878L20.5152 9.42733ZM10.6493 14.4926L11.1785 13.9612L9.98369 12.7714L9.45448 13.3029L8.92527 13.8343L10.1201 15.0241L10.6493 14.4926ZM9.45448 8.54376L9.98369 9.07521L15.0704 4.00991L14.5412 3.47846L14.012 2.94701L8.92527 8.01231L9.45448 8.54376ZM18.1256 2V2.75H18.6205V2V1.25H18.1256V2ZM22 5.36519L21.25 5.36519L21.25 5.85801L22 5.85801L22.75 5.85802L22.75 5.36519L22 5.36519ZM18.6205 2V2.75C19.4382 2.75 19.9763 2.75158 20.3751 2.80497C20.7526 2.85552 20.8911 2.93987 20.9758 3.02427L21.505 2.49282L22.0343 1.96137C21.6241 1.55295 21.1169 1.3909 20.5741 1.31824C20.0527 1.24842 19.396 1.25 18.6205 1.25V2ZM22 5.36519H22.75C22.75 4.5933 22.7516 3.93861 22.6813 3.41858C22.6082 2.87664 22.4448 2.37023 22.0343 1.96137L21.505 2.49282L20.9758 3.02427C21.0602 3.10823 21.1443 3.24483 21.1948 3.61928C21.2483 4.01563 21.25 4.55072 21.25 5.36519H22ZM9.45448 13.3029L9.98369 12.7714C9.40541 12.1956 9.02633 11.8158 8.78254 11.4976C8.5519 11.1966 8.51477 11.0409 8.51477 10.9233H7.76477H7.01477C7.01477 11.5027 7.25926 11.9759 7.59186 12.4099C7.9113 12.8269 8.37708 13.2884 8.92527 13.8343L9.45448 13.3029ZM10.6493 14.4926L10.1201 15.0241C10.6683 15.57 11.1318 16.0338 11.5503 16.3518C11.9863 16.683 12.46 16.9252 13.0389 16.9252V16.1752V15.4252C12.9179 15.4252 12.76 15.387 12.4578 15.1574C12.1381 14.9145 11.7567 14.537 11.1785 13.9612L10.6493 14.4926ZM20.5152 9.42733L21.0444 9.95878C21.7335 9.27266 22.2358 8.79124 22.4995 8.15734L21.807 7.86929L21.1145 7.58125C20.9924 7.87498 20.7621 8.12304 19.986 8.89589L20.5152 9.42733ZM22 5.85801H21.25C21.25 6.95105 21.2366 7.28785 21.1145 7.58125L21.807 7.86929L22.4995 8.15734C22.7633 7.5231 22.75 6.82826 22.75 5.85801H22ZM14.5412 3.47846L15.0704 4.00991C15.8462 3.23743 16.0957 3.00759 16.3918 2.88546L16.1058 2.19212L15.8199 1.49878C15.1844 1.76089 14.7014 2.26053 14.012 2.94701L14.5412 3.47846ZM18.1256 2V1.25C17.1506 1.25 16.455 1.23682 15.8199 1.49878L16.1058 2.19212L16.3918 2.88546C16.6883 2.76318 17.0286 2.75 18.1256 2.75V2ZM15.4285 14.4926L14.8993 13.9612C14.4535 14.4051 14.1216 14.735 13.8373 14.9802C13.5517 15.2266 13.3677 15.3391 13.2314 15.3892L13.4904 16.0931L13.7493 16.797C14.1379 16.654 14.4841 16.4032 14.817 16.1161C15.1512 15.8279 15.5259 15.4541 15.9577 15.0241L15.4285 14.4926ZM13.4904 16.0931L13.2314 15.3892C13.1612 15.415 13.1007 15.4252 13.0389 15.4252V16.1752V16.9252C13.2864 16.9252 13.5218 16.8806 13.7493 16.797L13.4904 16.0931ZM9.45448 8.54376L8.92527 8.01231C8.50376 8.43205 8.1364 8.79732 7.85062 9.12306C7.5662 9.44725 7.31644 9.78252 7.16645 10.1551L7.86218 10.4352L8.55791 10.7153C8.61345 10.5773 8.73184 10.3931 8.97819 10.1123C9.22318 9.83306 9.5492 9.50786 9.98369 9.07521L9.45448 8.54376ZM7.86218 10.4352L7.16646 10.1551C7.0682 10.3991 7.01477 10.6534 7.01477 10.9233H7.76477H8.51477C8.51477 10.8585 8.52629 10.7938 8.55791 10.7153L7.86218 10.4352Z" fill="black"/>
<path opacity="0.5" d="M7.70886 10.2825L8.23887 9.75182L8.23807 9.75103L7.70886 10.2825ZM11.4377 6.79466C11.7861 7.01864 12.2501 6.91776 12.4741 6.56932C12.6981 6.22089 12.5972 5.75686 12.2488 5.53288L11.4377 6.79466ZM11.2958 5.81187L10.8902 6.44276L10.8902 6.44276L11.2958 5.81187ZM9.06024 4.66617L9.16976 3.92421L9.06024 4.66617ZM4.79597 7.23425L5.32517 7.76571H5.32517L4.79597 7.23425ZM7.50536 4.86464L7.79249 5.5575L7.50536 4.86464ZM5.35102 8.45319L5.62702 7.75582L5.62702 7.75582L5.35102 8.45319ZM5.45822 8.49603L5.17282 9.1896L5.45822 8.49603ZM6.87303 9.45016L7.40224 8.91872H7.40224L6.87303 9.45016ZM6.79108 9.3691L6.26913 9.90769L6.79108 9.3691ZM5.0216 8.32282L4.74561 9.02019L4.74561 9.02019L5.0216 8.32282ZM13.735 16.3379L13.205 16.8685C13.2166 16.8801 13.2286 16.8913 13.2409 16.9021L13.735 16.3379ZM18.4484 11.7064C18.223 11.3589 17.7586 11.2598 17.4111 11.4851C17.0635 11.7104 16.9644 12.1748 17.1897 12.5224L18.4484 11.7064ZM18.1724 12.6595L17.5431 13.0675V13.0675L18.1724 12.6595ZM19.323 14.8857L20.0648 14.7752L19.323 14.8857ZM16.744 19.132L17.2732 19.6634L17.2732 19.6634L16.744 19.132ZM19.1237 16.434L19.8157 16.7232L19.1237 16.434ZM15.6917 19.0096L16.3882 18.7315L15.6917 19.0096ZM15.2791 18.0608L14.6217 18.4218L15.2791 18.0608ZM14.1899 16.7362L14.7191 16.2048L14.7021 16.1878L14.684 16.172L14.1899 16.7362ZM14.9015 17.4891L15.4915 17.0262L14.9015 17.4891ZM16.6709 19.2048L16.1417 18.6733L16.1417 18.6733L16.6709 19.2048ZM14.0204 15.5629C13.7273 15.2702 13.2524 15.2704 12.9597 15.5635C12.667 15.8566 12.6673 16.3315 12.9604 16.6242L14.0204 15.5629ZM7.33218 10.9663C7.62525 11.259 8.10013 11.2587 8.39284 10.9656C8.68556 10.6726 8.68527 10.1977 8.3922 9.90496L7.33218 10.9663ZM11.8432 6.16377L12.2488 5.53288L11.7014 5.18098L11.2958 5.81187L10.8902 6.44276L11.4377 6.79466L11.8432 6.16377ZM11.2958 5.81187L11.7014 5.18098C11.162 4.83425 10.722 4.55077 10.3423 4.34645C9.95322 4.13704 9.58257 3.98514 9.16976 3.92421L9.06024 4.66617L8.95073 5.40813C9.1263 5.43404 9.32436 5.50204 9.63143 5.6673C9.94793 5.83764 10.3315 6.08359 10.8902 6.44276L11.2958 5.81187ZM4.79597 7.23425L5.32517 7.76571C5.81542 7.27754 6.33923 6.75615 6.80949 6.32767C7.04443 6.11361 7.25705 5.931 7.43833 5.79144C7.63121 5.64296 7.74622 5.57667 7.79249 5.5575L7.50536 4.86464L7.21823 4.17177C6.98214 4.26961 6.73911 4.43673 6.52332 4.60285C6.29593 4.7779 6.04924 4.99111 5.79924 5.21889C5.29965 5.67409 4.75113 6.22049 4.26677 6.70279L4.79597 7.23425ZM9.06024 4.66617L9.16976 3.92421C8.5128 3.82724 7.83793 3.91496 7.21823 4.17177L7.50536 4.86464L7.79249 5.5575C8.16883 5.40154 8.56995 5.35192 8.95073 5.40813L9.06024 4.66617ZM5.0216 8.32282L4.74561 9.02019L5.07503 9.15056L5.35102 8.45319L5.62702 7.75582L5.2976 7.62544L5.0216 8.32282ZM6.87303 9.45016L6.34382 9.98161L7.17965 10.8139L7.70886 10.2825L8.23807 9.75103L7.40224 8.91872L6.87303 9.45016ZM5.35102 8.45319L5.07503 9.15056C5.13063 9.17256 5.15208 9.18107 5.17282 9.1896L5.45822 8.49603L5.74363 7.80246C5.71136 7.78918 5.67901 7.77639 5.62702 7.75582L5.35102 8.45319ZM6.87303 9.45016L7.40224 8.91872C7.36266 8.8793 7.33806 8.85478 7.31302 8.83052L6.79108 9.3691L6.26913 9.90769C6.2852 9.92326 6.30154 9.9395 6.34382 9.98161L6.87303 9.45016ZM5.45822 8.49603L5.17282 9.1896C5.58092 9.35754 5.95297 9.6013 6.26913 9.90769L6.79108 9.3691L7.31302 8.83052C6.86006 8.39155 6.3274 8.04268 5.74363 7.80246L5.45822 8.49603ZM4.79597 7.23425L4.26677 6.70279C3.54282 7.42368 3.79893 8.64553 4.74561 9.02019L5.0216 8.32282L5.2976 7.62545C5.35173 7.64687 5.36997 7.7211 5.32517 7.76571L4.79597 7.23425ZM17.819 12.1144L17.1897 12.5224L17.5431 13.0675L18.1724 12.6595L18.8017 12.2515L18.4484 11.7064L17.819 12.1144ZM16.744 19.132L16.2148 18.6005L16.1417 18.6733L16.6709 19.2048L17.2001 19.7362L17.2732 19.6634L16.744 19.132ZM18.1724 12.6595L17.5431 13.0675C17.9038 13.624 18.1507 14.0057 18.3217 14.3207C18.4875 14.6263 18.5553 14.8227 18.5811 14.9961L19.323 14.8857L20.0648 14.7752C20.0034 14.3628 19.8504 13.9928 19.64 13.6052C19.4347 13.2269 19.1499 12.7886 18.8017 12.2515L18.1724 12.6595ZM16.744 19.132L17.2732 19.6634C17.7576 19.1811 18.3063 18.6349 18.7634 18.1374C18.9922 17.8884 19.2063 17.6428 19.3822 17.4163C19.5489 17.2014 19.7171 16.959 19.8157 16.7232L19.1237 16.434L18.4317 16.1448C18.4127 16.1901 18.3465 16.3043 18.1973 16.4964C18.0572 16.6768 17.8739 16.8885 17.6589 17.1225C17.2286 17.5908 16.705 18.1123 16.2148 18.6005L16.744 19.132ZM19.323 14.8857L18.5811 14.9961C18.6373 15.3735 18.5878 15.7712 18.4317 16.1448L19.1237 16.434L19.8157 16.7232C20.074 16.1049 20.1624 15.4312 20.0648 14.7752L19.323 14.8857ZM14.1899 16.7362L14.684 16.172L14.2291 15.7736L13.735 16.3379L13.2409 16.9021L13.6958 17.3005L14.1899 16.7362ZM15.6917 19.0096L16.3882 18.7315C16.2023 18.2657 16.0876 17.9749 15.9365 17.6998L15.2791 18.0608L14.6217 18.4218C14.7185 18.598 14.7962 18.7892 14.9951 19.2876L15.6917 19.0096ZM14.1899 16.7362L13.6607 17.2677C14.0415 17.6469 14.1872 17.7938 14.3115 17.9521L14.9015 17.4891L15.4915 17.0262C15.2977 16.7792 15.0751 16.5593 14.7191 16.2048L14.1899 16.7362ZM15.2791 18.0608L15.9365 17.6998C15.8068 17.4635 15.658 17.2383 15.4915 17.0262L14.9015 17.4891L14.3115 17.9521C14.4275 18.1001 14.5313 18.2571 14.6217 18.4218L15.2791 18.0608ZM16.6709 19.2048L16.1417 18.6733C16.182 18.6332 16.236 18.6242 16.2733 18.6317C16.311 18.6392 16.3638 18.6704 16.3882 18.7315L15.6917 19.0096L14.9951 19.2876C15.3559 20.1916 16.5258 20.4077 17.2001 19.7362L16.6709 19.2048ZM13.735 16.3379L14.265 15.8072L14.0204 15.5629L13.4904 16.0935L12.9604 16.6242L13.205 16.8685L13.735 16.3379ZM7.70886 10.2825L7.17886 10.8131L7.33218 10.9663L7.86219 10.4356L8.3922 9.90496L8.23887 9.75182L7.70886 10.2825Z" fill="black"/>
<path d="M5.5482 13L3.85646 14.6897C3.43177 15.1139 2.74321 15.1139 2.31852 14.6897C1.89383 14.2655 1.89383 13.5778 2.31852 13.1536L2.47231 13M11.0757 18.5696L9.38395 20.2593C8.95926 20.6835 8.95926 21.3712 9.38395 21.7954C9.80864 22.2195 10.4972 22.2195 10.9219 21.7954L11.0757 21.6418M6.93603 17.1588L5.22645 18.8308" stroke="black" stroke-width="1.5" stroke-linecap="round"/>
<path opacity="0.5" d="M10.6329 17.1855C10.9258 16.8926 10.9258 16.4177 10.6329 16.1248C10.34 15.8319 9.86514 15.8319 9.57224 16.1248L10.6329 17.1855ZM7.46982 18.2272C7.17692 18.5201 7.17692 18.995 7.46982 19.2879C7.76271 19.5808 8.23758 19.5808 8.53048 19.2879L7.46982 18.2272ZM7.85719 14.4131C8.15009 14.1202 8.15009 13.6454 7.85719 13.3525C7.5643 13.0596 7.08943 13.0596 6.79653 13.3525L7.85719 14.4131ZM4.67963 15.4694C4.38674 15.7623 4.38674 16.2372 4.67963 16.53C4.97252 16.8229 5.4474 16.8229 5.74029 16.53L4.67963 15.4694ZM10.1026 16.6551L9.57224 16.1248L7.46982 18.2272L8.00015 18.7576L8.53048 19.2879L10.6329 17.1855L10.1026 16.6551ZM7.32686 13.8828L6.79653 13.3525L4.67963 15.4694L5.20996 15.9997L5.74029 16.53L7.85719 14.4131L7.32686 13.8828Z" fill="black"/>
<path opacity="0.5" d="M12.3732 12.645C12.6667 12.3527 12.6677 11.8779 12.3754 11.5844C12.0831 11.2908 11.6083 11.2898 11.3148 11.5821L12.3732 12.645ZM10.0518 13.8982L10.581 14.4297L12.3732 12.645L11.844 12.1136L11.3148 11.5821L9.52255 13.3668L10.0518 13.8982ZM17.818 8.54424L17.2888 8.0128C16.9216 8.37849 16.3248 8.37849 15.9576 8.01279L15.4284 8.54424L14.8992 9.07569C15.8517 10.0242 17.3947 10.0242 18.3472 9.07569L17.818 8.54424ZM15.4284 8.54424L15.9576 8.01279C15.5921 7.64885 15.5921 7.06009 15.9576 6.69614L15.4284 6.1647L14.8992 5.63325C13.9449 6.58349 13.9449 8.12545 14.8992 9.07569L15.4284 8.54424ZM15.4284 6.1647L15.9576 6.69614C16.3248 6.33045 16.9216 6.33045 17.2888 6.69614L17.818 6.1647L18.3472 5.63325C17.3947 4.68475 15.8517 4.68475 14.8992 5.63325L15.4284 6.1647ZM17.818 6.1647L17.2888 6.69614C17.6543 7.06009 17.6543 7.64885 17.2888 8.0128L17.818 8.54424L18.3472 9.07569C19.3015 8.12545 19.3015 6.58349 18.3472 5.63325L17.818 6.1647Z" fill="black"/>
</svg>
