<svg width="24" height="24" viewBox="0 0 24 24" fill="none" xmlns="http://www.w3.org/2000/svg">
<path d="M6.713 12.4365C8.57507 13.4246 8.57507 16.7182 8.57507 16.7182C8.61087 20.1502 10.6946 20.6138 11.7478 20.9237L13.9891 20.5C16.4786 20.4372 16.4464 21.0624 18.1638 19.5L19.5 18.0168C18.7895 18.2509 17.3048 17.8051 16.5943 17.3369C16.337 17.1674 16.0174 16.7828 15.7146 16.3613C15.0317 15.4108 14.6939 14.2113 13.4364 13.6014C13.077 13.4271 12.7256 13.4345 12.4202 13.5184C12.2006 13.5787 11.9619 13.6172 11.7285 13.6178C10.9735 13.6198 10.4282 12.8563 10.4364 12.1014C10.4579 10.1371 12.0409 8.85126 13.9891 8.67622C16.0733 8.48897 18.0154 6.88166 18.7259 6.10142L19.0945 5.6704L18.0466 4.59718C16.2843 3.04358 14.534 2 12 2C6.53923 2 3.08983 5.37707 2.99075 10.8142L3.08449 12.3885C3.76344 12.0659 5.29451 11.6837 6.713 12.4365Z" fill="black"/>
<circle cx="12" cy="12" r="9" stroke="black" stroke-width="2"/>
</svg>
