<svg width="24" height="24" viewBox="0 0 24 24" fill="none" xmlns="http://www.w3.org/2000/svg">
<path opacity="0.5" d="M21.9995 12C21.9995 6.47715 17.5224 2 11.9995 2C6.47666 2 1.99951 6.47715 1.99951 12C1.99951 17.5228 6.47666 22 11.9995 22C17.5224 22 21.9995 17.5228 21.9995 12Z" fill="black"/>
<path d="M8.46967 12.9697C8.17678 13.2626 8.17678 13.7374 8.46967 14.0303C8.76256 14.3232 9.23744 14.3232 9.53033 14.0303L12 11.5607L14.4697 14.0303C14.7626 14.3232 15.2374 14.3232 15.5303 14.0303C15.8232 13.7374 15.8232 13.2626 15.5303 12.9697L12.5303 9.96967C12.2374 9.67678 11.7626 9.67678 11.4697 9.96967L8.46967 12.9697Z" fill="black"/>
</svg>
