<svg width="24" height="24" viewBox="0 0 24 24" fill="none" xmlns="http://www.w3.org/2000/svg">
<path fill-rule="evenodd" clip-rule="evenodd" d="M5.63598 4.1547C3.98228 4.94508 2.75 6.83899 2.75 9.11902C2.75 13.3459 5.74875 15.7711 8.58725 18.0667C8.8738 18.2984 9.15873 18.5289 9.43876 18.7597C9.96496 19.1934 10.4342 19.574 10.8862 19.8502C11.3394 20.127 11.699 20.25 12 20.25C12.3238 20.25 12.6889 20.1115 13.1269 19.8415C11.7649 18.7937 10.25 17.3409 10.25 15.0595C10.25 13.4863 11.1866 12.1318 12.523 11.5511C13.7325 11.0256 15.191 11.1606 16.4999 12.1642C17.3135 11.5399 18.1916 11.2457 19.0473 11.2501C19.6921 11.2533 20.2987 11.4263 20.8263 11.7256C21.0953 10.939 21.25 10.077 21.25 9.11902C21.25 6.83899 20.0177 4.94508 18.364 4.1547C16.7677 3.39175 14.6136 3.5849 12.5518 5.8247C12.4098 5.97898 12.2097 6.06675 12 6.06675C11.7903 6.06675 11.5902 5.97898 11.4482 5.8247C9.3864 3.5849 7.2323 3.39175 5.63598 4.1547ZM22.0221 12.7992C22.4792 13.4317 22.75 14.214 22.75 15.0595C22.75 16.5776 22.0803 17.726 21.2404 18.625C20.5743 19.338 19.756 19.9366 19.0621 20.4441C18.9078 20.557 18.7597 20.6653 18.6208 20.7694C18.342 20.9783 18.0215 21.2176 17.6918 21.4007C17.3615 21.5842 16.956 21.75 16.5 21.75C16.044 21.75 15.6385 21.5842 15.3082 21.4007C14.9892 21.2236 14.6789 20.9939 14.4066 20.7899C13.7012 21.2974 12.8842 21.75 12 21.75C11.301 21.75 10.6606 21.4701 10.1042 21.1301C9.54665 20.7895 8.99677 20.3393 8.4847 19.9172C8.2135 19.6936 7.92786 19.4644 7.63303 19.2279C4.85059 16.9953 1.25 14.1062 1.25 9.11902C1.25 6.31439 2.7678 3.86301 4.98914 2.80133C7.09794 1.79345 9.69249 2.102 12 4.25275C14.3075 2.102 16.9021 1.79345 19.0109 2.80133C21.2322 3.86301 22.75 6.31439 22.75 9.11902C22.75 10.4899 22.4789 11.7074 22.0221 12.7992ZM13.1208 12.9269C12.3259 13.2723 11.75 14.0904 11.75 15.0595C11.75 16.9423 13.2191 18.0578 14.845 19.2488C14.9905 19.3553 15.1364 19.4624 15.2787 19.569C15.5709 19.788 15.811 19.9641 16.0365 20.0894C16.2615 20.2144 16.406 20.25 16.5 20.25C16.594 20.25 16.7385 20.2144 16.9635 20.0894C17.189 19.9641 17.4291 19.788 17.7213 19.569C17.888 19.4441 18.0555 19.3213 18.2222 19.1991C18.9097 18.695 19.5844 18.2003 20.1443 17.601C20.8143 16.8839 21.25 16.0838 21.25 15.0595C21.25 14.423 21.0019 13.8515 20.6048 13.4356C20.1988 13.0102 19.6433 12.7531 19.0398 12.75C18.4445 12.747 17.7361 12.9917 17.027 13.692C16.7349 13.9805 16.2651 13.9805 15.973 13.692C14.9309 12.6628 13.8774 12.5982 13.1208 12.9269Z" fill="black"/>
</svg>
