<svg width="24" height="24" viewBox="0 0 24 24" fill="none" xmlns="http://www.w3.org/2000/svg">
<path fill-rule="evenodd" clip-rule="evenodd" d="M5.62436 4.42423C3.96537 5.18256 2.75 6.98626 2.75 9.13713C2.75 11.3345 3.64922 13.0283 4.93829 14.4798C6.00072 15.6761 7.28684 16.6677 8.54113 17.6346C8.83904 17.8643 9.13515 18.0926 9.42605 18.3219C9.95208 18.7366 10.4213 19.1006 10.8736 19.3649C11.0805 19.4857 11.2689 19.5766 11.442 19.6396L12.1694 16.7301L10.4697 15.0304C10.1926 14.7532 10.1755 14.3095 10.4306 14.0119L12.8973 11.1341L10.0641 9.11033C9.76374 8.89581 9.66412 8.49467 9.82921 8.16457L11.0849 5.65366C9.14155 3.86241 7.13852 3.7321 5.62436 4.42423ZM12.6186 5.94045L11.4575 8.26226L14.4359 10.3897C14.6072 10.512 14.7191 10.7007 14.7445 10.9095C14.7699 11.1184 14.7064 11.3284 14.5694 11.4881L12.0214 14.4608L13.5303 15.9697C13.7166 16.156 13.7915 16.4264 13.7276 16.6819L13.0453 19.4112C13.072 19.3963 13.099 19.3808 13.1264 19.3649C13.5787 19.1006 14.0479 18.7366 14.574 18.3219C14.8649 18.0926 15.161 17.8643 15.4589 17.6346C16.7132 16.6677 17.9993 15.6761 19.0617 14.4798C20.3508 13.0283 21.25 11.3345 21.25 9.13713C21.25 6.98626 20.0346 5.18256 18.3756 4.42423C16.7843 3.69684 14.6531 3.87782 12.6186 5.94045ZM12 4.45885C9.68795 2.39027 7.09896 2.1009 5.00076 3.05999C2.78471 4.07296 1.25 6.42506 1.25 9.13713C1.25 11.8027 2.3605 13.8361 3.81672 15.4758C4.98287 16.789 6.41022 17.888 7.67083 18.8586C7.95659 19.0786 8.23378 19.2921 8.49742 19.4999C9.00965 19.9037 9.55955 20.3343 10.1168 20.66C10.6739 20.9855 11.3096 21.25 12 21.25C12.6904 21.25 13.3261 20.9855 13.8832 20.66C14.4405 20.3343 14.9903 19.9037 15.5026 19.4999C15.7662 19.2921 16.0434 19.0786 16.3292 18.8586C17.5898 17.888 19.0171 16.789 20.1833 15.4758C21.6395 13.8361 22.75 11.8027 22.75 9.13713C22.75 6.42506 21.2153 4.07296 18.9992 3.05999C16.901 2.1009 14.3121 2.39027 12 4.45885Z" fill="black"/>
</svg>
