<svg width="24" height="24" viewBox="0 0 24 24" fill="none" xmlns="http://www.w3.org/2000/svg">
<path fill-rule="evenodd" clip-rule="evenodd" d="M11.9098 2.77464L13.7426 4.07618C14.2829 4.45979 14.7548 4.79482 15.0843 5.10994C15.435 5.44542 15.7501 5.87447 15.7501 6.45932C15.7501 7.04417 15.435 7.47321 15.0843 7.80869C14.7548 8.12381 14.2829 8.45885 13.7426 8.84246L9.29541 12.0006L13.7426 15.1587C14.2829 15.5423 14.7548 15.8773 15.0843 16.1925C15.435 16.5279 15.7501 16.957 15.7501 17.5418C15.7501 18.1267 15.435 18.5557 15.0843 18.8912C14.7548 19.2063 14.2829 19.5414 13.7426 19.925L11.9099 21.2265C11.1804 21.7446 10.5645 22.182 10.0536 22.4426C9.53336 22.7079 8.89829 22.9076 8.26311 22.5827C7.62612 22.2568 7.41919 21.6237 7.33374 21.0468C7.24998 20.4813 7.25002 19.7282 7.25006 18.8375L7.25006 13.4411L3.43016 16.115C3.09082 16.3525 2.62318 16.27 2.38564 15.9307C2.1481 15.5913 2.23063 15.1237 2.56997 14.8862L6.69222 12.0006L2.56997 9.115C2.23063 8.87746 2.1481 8.40982 2.38564 8.07048C2.62318 7.73114 3.09082 7.64862 3.43016 7.88615L7.25006 10.5601V5.22514C7.25006 5.20457 7.25006 5.18407 7.25006 5.16363C7.25002 4.27295 7.24998 3.51985 7.33374 2.95438C7.41919 2.37748 7.62612 1.74439 8.26311 1.41849C8.89829 1.09352 9.53336 1.29321 10.0536 1.55856C10.5644 1.81914 11.1804 2.25657 11.9098 2.77464ZM8.75006 13.453V18.776C8.75006 19.7449 8.75207 20.3849 8.81755 20.827C8.84924 21.041 8.88915 21.1536 8.9187 21.2097C8.93168 21.2343 8.94094 21.2438 8.94094 21.2438C8.94094 21.2438 8.9414 21.2448 8.94632 21.2473C8.95081 21.2496 8.95303 21.2499 8.95303 21.2499C8.95504 21.2502 8.96803 21.252 8.99661 21.248C9.06133 21.2391 9.17796 21.2054 9.372 21.1064C9.77271 20.902 10.2984 20.5311 11.0911 19.9681L12.8291 18.734C13.4278 18.3088 13.8072 18.037 14.0475 17.8072C14.1612 17.6984 14.212 17.6278 14.2343 17.5872C14.2503 17.5583 14.2501 17.5484 14.2501 17.5428V17.5408C14.2501 17.5353 14.2503 17.5254 14.2343 17.4964C14.212 17.4558 14.1612 17.3852 14.0475 17.2765C13.8072 17.0466 13.4278 16.7749 12.8291 16.3497L8.75006 13.453ZM8.75006 10.5481V5.22514C8.75006 4.25628 8.75207 3.61625 8.81755 3.17416C8.84924 2.9602 8.88915 2.84754 8.9187 2.79144C8.93168 2.76681 8.94094 2.7573 8.94094 2.7573C8.94094 2.7573 8.9414 2.75639 8.94632 2.75387C8.95081 2.75157 8.95303 2.75127 8.95303 2.75127C8.95503 2.75097 8.96803 2.74916 8.99661 2.7531C9.06133 2.76202 9.17796 2.79579 9.372 2.89477C9.77271 3.09916 10.2984 3.47006 11.0911 4.033L12.8291 5.26717C13.4278 5.69235 13.8072 5.96413 14.0475 6.19396C14.1612 6.3027 14.212 6.37331 14.2343 6.41391C14.2503 6.44289 14.2501 6.45279 14.2501 6.45833V6.46031C14.2501 6.46585 14.2503 6.47575 14.2343 6.50472C14.212 6.54533 14.1612 6.61593 14.0475 6.72467C13.8072 6.95451 13.4278 7.22628 12.8291 7.65146L8.75006 10.5481ZM18.4828 4.45747C18.7828 4.17181 19.2575 4.18339 19.5432 4.48333L19.0249 4.9769C19.5432 4.48334 19.5432 4.48333 19.5432 4.48333L19.5444 4.48467L19.5459 4.4862L19.5493 4.48987L19.5583 4.4996C19.5653 4.50716 19.5741 4.51686 19.5845 4.52873C19.6055 4.55246 19.6333 4.58486 19.667 4.6261C19.7343 4.70858 19.8251 4.82645 19.9311 4.98112C20.1433 5.29055 20.4166 5.74695 20.6867 6.36127C21.2279 7.59249 21.7501 9.44515 21.7501 12.0006C21.7501 14.556 21.2279 16.4087 20.6867 17.6399C20.4166 18.2542 20.1433 18.7106 19.9311 19.02C19.8251 19.1747 19.7343 19.2926 19.667 19.3751C19.6333 19.4163 19.6055 19.4487 19.5845 19.4724C19.5741 19.4843 19.5653 19.494 19.5583 19.5015L19.5493 19.5113L19.5459 19.5149L19.5444 19.5165C19.5444 19.5165 19.5432 19.5178 19.0249 19.0243L19.5432 19.5178C19.2575 19.8178 18.7828 19.8293 18.4828 19.5437C18.1841 19.2592 18.1714 18.7872 18.4534 18.4871L18.4557 18.4847L18.455 18.4854L18.4534 18.4871L18.4605 18.4792C18.4688 18.4697 18.484 18.4522 18.505 18.4265C18.5471 18.375 18.6126 18.2905 18.694 18.1717C18.8568 17.9343 19.0835 17.5594 19.3135 17.0363C19.7723 15.9925 20.2501 14.3451 20.2501 12.0006C20.2501 9.656 19.7723 8.00866 19.3135 6.96488C19.0835 6.4417 18.8568 6.06684 18.694 5.82941C18.6126 5.71064 18.5471 5.62617 18.505 5.57466C18.484 5.54891 18.4688 5.5314 18.4605 5.52198L18.4537 5.51436L18.455 5.51572L18.4559 5.51667M18.4828 4.45747C18.1841 4.74195 18.1717 5.21422 18.4537 5.51436L18.4828 4.45747ZM16.6508 7.33689C17.0173 7.14397 17.4708 7.28472 17.6638 7.65127L17.0001 8.00058C17.6638 7.65127 17.6638 7.65127 17.6638 7.65127L17.6646 7.6528L17.6657 7.65504L17.6691 7.6616L17.6801 7.68295C17.6891 7.70078 17.7016 7.72577 17.7171 7.7575C17.748 7.82092 17.7909 7.91143 17.8417 8.02566C17.9431 8.25377 18.0768 8.57837 18.2104 8.9723C18.4752 9.75357 18.7501 10.8393 18.7501 12.0006C18.7501 13.1618 18.4752 14.2476 18.2104 15.0289C18.0768 15.4228 17.9431 15.7474 17.8417 15.9755C17.7909 16.0897 17.748 16.1802 17.7171 16.2437C17.7016 16.2754 17.6891 16.3004 17.6801 16.3182L17.6691 16.3396L17.6657 16.3461L17.6646 16.3484L17.6639 16.3496C17.6639 16.3496 17.6638 16.3499 17.0001 16.0006L17.6639 16.3496C17.471 16.7161 17.0173 16.8572 16.6508 16.6643C16.2845 16.4715 16.1437 16.0186 16.3359 15.6522M16.3364 15.6513L16.3425 15.6392C16.3481 15.6282 16.3571 15.6103 16.369 15.586C16.3927 15.5373 16.428 15.463 16.471 15.3663C16.5571 15.1725 16.6733 14.8909 16.7898 14.5473C17.0249 13.8536 17.2501 12.9393 17.2501 12.0006C17.2501 11.0618 17.0249 10.1476 16.7898 9.45385C16.6733 9.11028 16.5571 8.82863 16.471 8.63487C16.428 8.53815 16.3927 8.46382 16.369 8.41513C16.3571 8.39081 16.3481 8.37293 16.3425 8.3619L16.3367 8.35058L16.3362 8.34961C16.1435 7.98311 16.2843 7.52976 16.6508 7.33689" fill="black"/>
</svg>
