<svg width="24" height="24" viewBox="0 0 24 24" fill="none" xmlns="http://www.w3.org/2000/svg">
<path fill-rule="evenodd" clip-rule="evenodd" d="M14.9098 2.77464L16.7426 4.07618C17.2829 4.45979 17.7548 4.79482 18.0843 5.10994C18.435 5.44542 18.7501 5.87447 18.7501 6.45932C18.7501 7.04417 18.435 7.47321 18.0843 7.80869C17.7548 8.12381 17.2829 8.45885 16.7426 8.84246L12.2954 12.0006L16.7426 15.1587C17.2829 15.5423 17.7548 15.8773 18.0843 16.1925C18.435 16.5279 18.7501 16.957 18.7501 17.5418C18.7501 18.1267 18.435 18.5557 18.0843 18.8912C17.7548 19.2063 17.2829 19.5414 16.7426 19.925L14.9099 21.2265C14.1804 21.7446 13.5645 22.182 13.0536 22.4426C12.5334 22.7079 11.8983 22.9076 11.2631 22.5827C10.6261 22.2568 10.4192 21.6237 10.3337 21.0468C10.25 20.4813 10.25 19.7282 10.2501 18.8375L10.2501 13.4411L6.43016 16.115C6.09082 16.3525 5.62318 16.27 5.38564 15.9307C5.1481 15.5913 5.23063 15.1237 5.56997 14.8862L9.69222 12.0006L5.56997 9.115C5.23063 8.87746 5.1481 8.40982 5.38564 8.07048C5.62318 7.73114 6.09082 7.64862 6.43016 7.88615L10.2501 10.5601V5.22514C10.2501 5.20457 10.2501 5.18407 10.2501 5.16363C10.25 4.27295 10.25 3.51985 10.3337 2.95438C10.4192 2.37748 10.6261 1.74439 11.2631 1.41849C11.8983 1.09352 12.5334 1.29321 13.0536 1.55856C13.5644 1.81914 14.1804 2.25657 14.9098 2.77464ZM11.7501 13.453V18.776C11.7501 19.7449 11.7521 20.3849 11.8176 20.827C11.8492 21.041 11.8892 21.1536 11.9187 21.2097C11.9317 21.2343 11.94 21.2429 11.9409 21.2438C11.9411 21.2441 11.9414 21.2448 11.9463 21.2473C11.9508 21.2496 11.9521 21.2498 11.953 21.2499C11.955 21.2502 11.968 21.252 11.9966 21.248C12.0613 21.2391 12.178 21.2054 12.372 21.1064C12.7727 20.902 13.2984 20.5311 14.0911 19.9681L15.8291 18.734C16.4278 18.3088 16.8072 18.037 17.0475 17.8072C17.1612 17.6984 17.212 17.6278 17.2343 17.5872C17.2503 17.5583 17.2501 17.5484 17.2501 17.5428C17.2501 17.5425 17.2501 17.5431 17.2501 17.5428C17.2501 17.5425 17.2501 17.5412 17.2501 17.5408C17.2501 17.5353 17.2503 17.5254 17.2343 17.4964C17.212 17.4558 17.1612 17.3852 17.0475 17.2765C16.8072 17.0466 16.4278 16.7749 15.8291 16.3497L11.7501 13.453ZM11.7501 10.5481V5.22514C11.7501 4.25628 11.7521 3.61625 11.8176 3.17416C11.8492 2.9602 11.8892 2.84754 11.9187 2.79144C11.9317 2.76681 11.94 2.75822 11.9409 2.7573C11.9411 2.75709 11.9414 2.75639 11.9463 2.75387C11.9508 2.75157 11.9521 2.7514 11.953 2.75127C11.9529 2.75129 11.9531 2.75126 11.953 2.75127C11.955 2.75097 11.968 2.74916 11.9966 2.7531C12.0613 2.76202 12.178 2.79579 12.372 2.89477C12.7727 3.09916 13.2984 3.47006 14.0911 4.033L15.8291 5.26717C16.4278 5.69235 16.8072 5.96413 17.0475 6.19396C17.1612 6.3027 17.212 6.37331 17.2343 6.41391C17.2503 6.44289 17.2501 6.45279 17.2501 6.45833C17.2501 6.45867 17.2501 6.45801 17.2501 6.45833C17.2501 6.45864 17.2501 6.45996 17.2501 6.46031C17.2501 6.46585 17.2503 6.47575 17.2343 6.50472C17.212 6.54533 17.1612 6.61593 17.0475 6.72467C16.8072 6.95451 16.4278 7.22628 15.8291 7.65146L11.7501 10.5481Z" fill="black"/>
</svg>
