<svg width="24" height="24" viewBox="0 0 24 24" fill="none" xmlns="http://www.w3.org/2000/svg">
<path d="M12 2C16.714 2 19.0711 2 20.5355 3.46447C22 4.92893 22 7.28595 22 12C22 16.714 22 19.0711 20.5355 20.5355C19.1785 21.8926 17.0551 21.9921 13 21.9994M2.00058 11C2.00788 6.94493 2.10744 4.8215 3.46447 3.46447C4.43822 2.49071 5.80659 2.16443 8.00009 2.0551" stroke="black" stroke-width="1.5" stroke-linecap="round"/>
<path d="M12 12L17 7M17 7H13.25M17 7V10.75" stroke="black" stroke-width="1.5" stroke-linecap="round" stroke-linejoin="round"/>
<path d="M2 18C2 16.1144 2 15.1716 2.58579 14.5858C3.17157 14 4.11438 14 6 14C7.88562 14 8.82843 14 9.41421 14.5858C10 15.1716 10 16.1144 10 18C10 19.8856 10 20.8284 9.41421 21.4142C8.82843 22 7.88562 22 6 22C4.11438 22 3.17157 22 2.58579 21.4142C2 20.8284 2 19.8856 2 18Z" stroke="black" stroke-width="1.5"/>
</svg>
