<svg width="24" height="24" viewBox="0 0 24 24" fill="none" xmlns="http://www.w3.org/2000/svg">
<path d="M2.00018 11.9995C2.00018 16.7136 2.00018 19.0706 3.46465 20.5351C4.92912 21.9995 7.28614 21.9995 12.0002 21.9995C16.7142 21.9995 19.0713 21.9995 20.5357 20.5351C21.8927 19.178 21.9923 17.0546 21.9996 12.9995M11.0002 2.00012C6.94512 2.00743 4.82168 2.10698 3.46465 3.46401C2.64808 4.28058 2.28682 5.37466 2.12699 7.00012" stroke="black" stroke-width="1.5" stroke-linecap="round"/>
<path d="M13 11L22 2M22 2H16.6562M22 2V7.34375M21 3L12 12M12 12H16M12 12V8" stroke="black" stroke-width="1.5" stroke-linecap="round" stroke-linejoin="round"/>
</svg>
