<svg width="24" height="24" viewBox="0 0 24 24" fill="none" xmlns="http://www.w3.org/2000/svg">
<path d="M15.0002 4V5C15.0002 6.88562 15.0002 7.82843 15.5859 8.41421C16.1717 9 17.1145 9 19.0002 9H20.5002M20.5002 9L18.0002 7M20.5002 9L18.0002 11" stroke="black" stroke-width="1.5" stroke-linecap="round" stroke-linejoin="round"/>
<path d="M15.1007 15.0272L15.6445 15.5437V15.5437L15.1007 15.0272ZM15.5562 14.5477L15.0124 14.0312V14.0312L15.5562 14.5477ZM17.9728 14.2123L17.5987 14.8623H17.5987L17.9728 14.2123ZM19.8833 15.312L19.5092 15.962L19.8833 15.312ZM20.4217 18.7584L20.9655 19.275L20.9655 19.2749L20.4217 18.7584ZM19.0011 20.254L18.4573 19.7375L19.0011 20.254ZM17.6763 20.9631L17.7499 21.7095L17.6763 20.9631ZM7.81536 16.4752L8.35915 15.9587L7.81536 16.4752ZM3.75181 6.92574C3.72961 6.51212 3.3763 6.19481 2.96269 6.21701C2.54907 6.23921 2.23176 6.59252 2.25396 7.00613L3.75181 6.92574ZM9.1907 8.80507L9.73449 9.32159L9.1907 8.80507ZM9.47751 8.50311L10.0213 9.01963L9.47751 8.50311ZM9.63424 5.6931L10.2466 5.26012L9.63424 5.6931ZM8.37325 3.90961L7.76086 4.3426V4.3426L8.37325 3.90961ZM4.71765 3.09213C4.43239 3.39246 4.4446 3.86717 4.74493 4.15244C5.04526 4.4377 5.51998 4.42549 5.80524 4.12516L4.71765 3.09213ZM11.0631 13.0559L11.6069 12.5394L11.0631 13.0559ZM10.6641 19.8123C11.0148 20.0327 11.4777 19.9271 11.6981 19.5764C11.9185 19.2257 11.8129 18.7627 11.4622 18.5423L10.6641 19.8123ZM15.1129 20.0584C14.7075 19.9735 14.31 20.2334 14.2251 20.6388C14.1402 21.0442 14.4001 21.4417 14.8055 21.5266L15.1129 20.0584ZM15.1007 15.0272L15.6445 15.5437L16.1 15.0642L15.5562 14.5477L15.0124 14.0312L14.5569 14.5107L15.1007 15.0272ZM17.9728 14.2123L17.5987 14.8623L19.5092 15.962L19.8833 15.312L20.2575 14.662L18.347 13.5623L17.9728 14.2123ZM20.4217 18.7584L19.8779 18.2419L18.4573 19.7375L19.0011 20.254L19.5449 20.7705L20.9655 19.275L20.4217 18.7584ZM7.81536 16.4752L8.35915 15.9587C4.48303 11.8778 3.83284 8.43556 3.75181 6.92574L3.00288 6.96594L2.25396 7.00613C2.35322 8.85536 3.1384 12.6403 7.27156 16.9917L7.81536 16.4752ZM9.1907 8.80507L9.73449 9.32159L10.0213 9.01963L9.47751 8.50311L8.93372 7.9866L8.64691 8.28856L9.1907 8.80507ZM9.63424 5.6931L10.2466 5.26012L8.98565 3.47663L8.37325 3.90961L7.76086 4.3426L9.02184 6.12608L9.63424 5.6931ZM9.1907 8.80507C8.64691 8.28856 8.64621 8.28929 8.64552 8.29002C8.64528 8.29028 8.64458 8.29102 8.6441 8.29152C8.64315 8.29254 8.64219 8.29357 8.6412 8.29463C8.63923 8.29675 8.6372 8.29896 8.6351 8.30127C8.6309 8.30588 8.62645 8.31087 8.62178 8.31625C8.61242 8.32701 8.60215 8.33931 8.59116 8.3532C8.56917 8.38098 8.54431 8.41511 8.51822 8.45588C8.4659 8.53764 8.40917 8.64531 8.36112 8.78033C8.26342 9.0549 8.21017 9.4185 8.2767 9.87257C8.40742 10.7647 8.99197 11.9644 10.5193 13.5724L11.0631 13.0559L11.6069 12.5394C10.1793 11.0363 9.8276 10.1106 9.76086 9.65511C9.72866 9.43536 9.76138 9.31957 9.77431 9.28321C9.78159 9.26277 9.78635 9.25709 9.78169 9.26437C9.77943 9.26789 9.77494 9.27451 9.76737 9.28407C9.76359 9.28885 9.75903 9.29437 9.75359 9.30063C9.75087 9.30375 9.74793 9.30706 9.74475 9.31056C9.74316 9.31231 9.74152 9.3141 9.73981 9.31594C9.73895 9.31686 9.73808 9.31779 9.7372 9.31873C9.73675 9.3192 9.73608 9.31992 9.73586 9.32015C9.73518 9.32087 9.73449 9.32159 9.1907 8.80507ZM11.0631 13.0559L10.5193 13.5724C12.0422 15.1757 13.1923 15.806 14.0698 15.9485C14.5201 16.0216 14.8846 15.9632 15.1606 15.8544C15.2955 15.8012 15.4022 15.7387 15.4823 15.6819C15.5223 15.6535 15.5555 15.6266 15.5824 15.6031C15.5959 15.5913 15.6077 15.5803 15.618 15.5703C15.6232 15.5654 15.628 15.5606 15.6324 15.5562C15.6346 15.554 15.6367 15.5518 15.6387 15.5497C15.6397 15.5487 15.6407 15.5477 15.6417 15.5467C15.6422 15.5462 15.6429 15.5454 15.6431 15.5452C15.6438 15.5444 15.6445 15.5437 15.1007 15.0272C14.5569 14.5107 14.5576 14.51 14.5583 14.5093C14.5585 14.509 14.5592 14.5083 14.5596 14.5078C14.5605 14.5069 14.5614 14.506 14.5623 14.5051C14.5641 14.5033 14.5658 14.5015 14.5674 14.4998C14.5708 14.4965 14.574 14.4933 14.577 14.4904C14.583 14.4846 14.5885 14.4796 14.5933 14.4754C14.6028 14.467 14.6099 14.4616 14.6145 14.4584C14.6239 14.4517 14.6229 14.454 14.6102 14.459C14.5909 14.4666 14.5 14.4987 14.3103 14.4679C13.9077 14.4025 13.0391 14.0472 11.6069 12.5394L11.0631 13.0559ZM8.37325 3.90961L8.98565 3.47663C7.97205 2.04305 5.94384 1.80119 4.71765 3.09213L5.26145 3.60864L5.80524 4.12516C6.32807 3.57471 7.24851 3.61795 7.76086 4.3426L8.37325 3.90961ZM19.0011 20.254L18.4573 19.7375C18.1783 20.0313 17.8863 20.1887 17.6026 20.2167L17.6763 20.9631L17.7499 21.7095C18.497 21.6357 19.1016 21.2373 19.5449 20.7705L19.0011 20.254ZM9.47751 8.50311L10.0213 9.01963C10.9889 8.00095 11.0574 6.40678 10.2466 5.26012L9.63424 5.6931L9.02184 6.12608C9.44399 6.72315 9.37926 7.51753 8.93372 7.9866L9.47751 8.50311ZM19.8833 15.312L19.5092 15.962C20.33 16.4345 20.4907 17.5968 19.8779 18.2419L20.4217 18.7584L20.9655 19.2749C22.2704 17.901 21.8904 15.6019 20.2575 14.662L19.8833 15.312ZM15.5562 14.5477L16.1 15.0642C16.4854 14.6584 17.086 14.5672 17.5987 14.8623L17.9728 14.2123L18.347 13.5623C17.2485 12.93 15.8861 13.1113 15.0124 14.0312L15.5562 14.5477ZM11.0631 19.1773L11.4622 18.5423C10.4784 17.9241 9.43144 17.0876 8.35915 15.9587L7.81536 16.4752L7.27156 16.9917C8.42559 18.2067 9.56892 19.1241 10.6641 19.8123L11.0631 19.1773ZM17.6763 20.9631L17.6026 20.2167C17.0561 20.2707 16.1912 20.2842 15.1129 20.0584L14.9592 20.7925L14.8055 21.5266C16.054 21.788 17.0742 21.7762 17.7499 21.7095L17.6763 20.9631Z" fill="black"/>
</svg>
