<svg width="24" height="24" viewBox="0 0 24 24" fill="none" xmlns="http://www.w3.org/2000/svg">
<path opacity="0.5" d="M2 12C2 7.28595 2 4.92893 3.46447 3.46447C4.92893 2 7.28595 2 12 2C16.714 2 19.0711 2 20.5355 3.46447C22 4.92893 22 7.28595 22 12C22 16.714 22 19.0711 20.5355 20.5355C19.0711 22 16.714 22 12 22C7.28595 22 4.92893 22 3.46447 20.5355C2 19.0711 2 16.714 2 12Z" fill="black"/>
<path d="M13.4881 6.44566C13.8882 6.55287 14.1256 6.96412 14.0184 7.36422L11.4302 17.0235C11.323 17.4236 10.9117 17.661 10.5116 17.5538C10.1115 17.4466 9.8741 17.0354 9.98131 16.6353L12.5695 6.97599C12.6767 6.57589 13.088 6.33846 13.4881 6.44566Z" fill="black"/>
<path d="M14.9697 8.46943C15.2626 8.17654 15.7374 8.17654 16.0303 8.46943L16.2387 8.67777C16.874 9.31305 17.4038 9.84284 17.7678 10.3199C18.1521 10.8236 18.4216 11.3556 18.4216 11.9998C18.4216 12.6439 18.1521 13.176 17.7678 13.6796C17.4038 14.1567 16.874 14.6864 16.2387 15.3217L16.0303 15.5301C15.7374 15.823 15.2626 15.823 14.9697 15.5301C14.6768 15.2372 14.6768 14.7623 14.9697 14.4694L15.1412 14.2979C15.8229 13.6162 16.2797 13.1572 16.5753 12.7697C16.8577 12.3995 16.9216 12.1841 16.9216 11.9998C16.9216 11.8155 16.8577 11.6 16.5753 11.2298C16.2797 10.8423 15.8229 10.3833 15.1412 9.70166L14.9697 9.53009C14.6768 9.2372 14.6768 8.76232 14.9697 8.46943Z" fill="black"/>
<path d="M7.96986 8.46943C8.26275 8.17654 8.73762 8.17654 9.03052 8.46943C9.32341 8.76232 9.32341 9.2372 9.03052 9.53009L8.85894 9.70166C8.17729 10.3833 7.72052 10.8423 7.42488 11.2298C7.14245 11.6 7.07861 11.8155 7.07861 11.9998C7.07861 12.1841 7.14245 12.3995 7.42488 12.7697C7.72052 13.1572 8.17729 13.6162 8.85894 14.2979L9.03052 14.4694C9.32341 14.7623 9.32341 15.2372 9.03052 15.5301C8.73762 15.823 8.26275 15.823 7.96986 15.5301L7.76151 15.3217C7.12617 14.6864 6.59638 14.1567 6.23235 13.6796C5.84811 13.176 5.57861 12.6439 5.57861 11.9998C5.57861 11.3556 5.84811 10.8236 6.23235 10.3199C6.59638 9.84283 7.12617 9.31307 7.76151 8.67777L7.96986 8.46943Z" fill="black"/>
</svg>
