<svg width="24" height="24" viewBox="0 0 24 24" fill="none" xmlns="http://www.w3.org/2000/svg">
<path d="M17.8144 21.236L17.5433 21.6939C17.3017 22.102 16.6982 22.102 16.4567 21.6939L16.1856 21.236C15.9754 20.8808 15.8702 20.7032 15.7014 20.605C15.5325 20.5068 15.32 20.5031 14.8948 20.4958C14.2671 20.4849 13.8734 20.4465 13.5433 20.3097C12.9307 20.056 12.444 19.5693 12.1903 18.9567C12 18.4973 12 17.9149 12 16.75V16.25C12 14.6133 12 13.7949 12.3684 13.1938C12.5745 12.8574 12.8574 12.5745 13.1938 12.3684C13.7949 12 14.6133 12 16.25 12H17.75C19.3867 12 20.2051 12 20.8062 12.3684C21.1426 12.5745 21.4255 12.8574 21.6316 13.1938C22 13.7949 22 14.6133 22 16.25V16.75C22 17.9149 22 18.4973 21.8097 18.9567C21.556 19.5693 21.0693 20.056 20.4567 20.3097C20.1266 20.4465 19.7329 20.4849 19.1052 20.4958C18.68 20.5031 18.4674 20.5068 18.2986 20.605C18.1297 20.7032 18.0246 20.8808 17.8144 21.236Z" fill="black"/>
<g opacity="0.5">
<path d="M10.2007 2.27755C10.5998 2.38841 10.8335 2.80182 10.7226 3.20092L9.32006 8.25019H16.7633L18.2774 2.79946C18.3882 2.40036 18.8016 2.16669 19.2007 2.27755C19.5998 2.38841 19.8335 2.80182 19.7226 3.20092L18.3201 8.25019H22C22.4142 8.25019 22.75 8.58598 22.75 9.00019C22.75 9.4144 22.4142 9.75019 22 9.75019H17.9034L17.2784 12.0002H16.25C16.0635 12.0002 15.8876 12.0002 15.7215 12.0007L16.3466 9.75019H8.9034L7.37562 15.2502H12.0044C12 15.5457 12 15.8766 12 16.2502V16.7502H6.95895L5.72264 21.2009C5.61178 21.6 5.19837 21.8337 4.79927 21.7228C4.40016 21.612 4.1665 21.1986 4.27736 20.7995L5.40216 16.7502H2C1.58579 16.7502 1.25 16.4144 1.25 16.0002C1.25 15.586 1.58579 15.2502 2 15.2502H5.81882L7.3466 9.75019H4C3.58579 9.75019 3.25 9.4144 3.25 9.00019C3.25 8.58598 3.58579 8.25019 4 8.25019H7.76327L9.27736 2.79946C9.38822 2.40036 9.80163 2.16669 10.2007 2.27755Z" fill="black"/>
<path d="M13.4276 20.2585L13.2774 20.7995C13.1665 21.1986 13.4002 21.612 13.7993 21.7228C14.1984 21.8337 14.6118 21.6 14.7226 21.2009L14.9184 20.4964C14.9106 20.4962 14.9027 20.4961 14.8948 20.4959C14.2671 20.4851 13.8734 20.4467 13.5433 20.3099C13.5042 20.2937 13.4656 20.2766 13.4276 20.2585Z" fill="black"/>
</g>
</svg>
