<svg width="24" height="24" viewBox="0 0 24 24" fill="none" xmlns="http://www.w3.org/2000/svg">
<path fill-rule="evenodd" clip-rule="evenodd" d="M10.2009 2.27755C10.6 2.38841 10.8337 2.80182 10.7228 3.20092L5.72283 21.2009C5.61197 21.6 5.19856 21.8337 4.79946 21.7228C4.40036 21.612 4.16669 21.1986 4.27755 20.7995L9.27755 2.79946C9.38841 2.40036 9.80182 2.16669 10.2009 2.27755Z" fill="black"/>
<path fill-rule="evenodd" clip-rule="evenodd" d="M19.2009 2.27755C19.6 2.38841 19.8337 2.80182 19.7228 3.20092L14.7228 21.2009C14.612 21.6 14.1986 21.8337 13.7995 21.7228C13.4004 21.612 13.1667 21.1986 13.2776 20.7995L18.2776 2.79946C18.3884 2.40036 18.8018 2.16669 19.2009 2.27755Z" fill="black"/>
<path opacity="0.5" fill-rule="evenodd" clip-rule="evenodd" d="M3.25 9C3.25 8.58579 3.58579 8.25 4 8.25H22C22.4142 8.25 22.75 8.58579 22.75 9C22.75 9.41421 22.4142 9.75 22 9.75H4C3.58579 9.75 3.25 9.41421 3.25 9Z" fill="black"/>
<path opacity="0.5" fill-rule="evenodd" clip-rule="evenodd" d="M1.25 16C1.25 15.5858 1.58579 15.25 2 15.25H20C20.4142 15.25 20.75 15.5858 20.75 16C20.75 16.4142 20.4142 16.75 20 16.75H2C1.58579 16.75 1.25 16.4142 1.25 16Z" fill="black"/>
</svg>
