<svg width="24" height="24" viewBox="0 0 24 24" fill="none" xmlns="http://www.w3.org/2000/svg">
<path opacity="0.5" d="M2 12C2 6.47715 6.47715 2 12 2C17.5228 2 22 6.47715 22 12C22 17.5228 17.5228 22 12 22C6.47715 22 2 17.5228 2 12Z" fill="black"/>
<path fill-rule="evenodd" clip-rule="evenodd" d="M11.7184 7.21571C11.8374 6.81896 11.6123 6.40085 11.2155 6.28183C10.8188 6.1628 10.4007 6.38794 10.2816 6.78469L9.54198 9.2502H7C6.58579 9.2502 6.25 9.58598 6.25 10.0002C6.25 10.4144 6.58579 10.7502 7 10.7502H9.09198L8.34198 13.2502H6C5.58579 13.2502 5.25 13.586 5.25 14.0002C5.25 14.4144 5.58579 14.7502 6 14.7502H7.89198L7.28163 16.7847C7.16261 17.1814 7.38774 17.5995 7.78449 17.7186C8.18123 17.8376 8.59935 17.6125 8.71837 17.2157L9.45802 14.7502H12.892L12.2816 16.7847C12.1626 17.1814 12.3877 17.5995 12.7845 17.7186C13.1812 17.8376 13.5993 17.6125 13.7184 17.2157L14.458 14.7502H17C17.4142 14.7502 17.75 14.4144 17.75 14.0002C17.75 13.586 17.4142 13.2502 17 13.2502H14.908L15.658 10.7502H18C18.4142 10.7502 18.75 10.4144 18.75 10.0002C18.75 9.58598 18.4142 9.2502 18 9.2502H16.108L16.7184 7.21571C16.8374 6.81896 16.6123 6.40085 16.2155 6.28183C15.8188 6.1628 15.4007 6.38794 15.2816 6.78469L14.542 9.2502H11.108L11.7184 7.21571ZM14.092 10.7502L13.342 13.2502H9.90802L10.658 10.7502H14.092Z" fill="black"/>
</svg>
