<svg width="24" height="24" viewBox="0 0 24 24" fill="none" xmlns="http://www.w3.org/2000/svg">
<path d="M18.5116 10.0777C18.5116 10.8163 17.8869 11.4151 17.1163 11.4151C16.3457 11.4151 15.7209 10.8163 15.7209 10.0777C15.7209 9.33899 16.3457 8.74018 17.1163 8.74018C17.8869 8.74018 18.5116 9.33899 18.5116 10.0777Z" fill="black"/>
<path fill-rule="evenodd" clip-rule="evenodd" d="M18.0363 5.53303C16.9766 5.39646 15.6225 5.39647 13.9129 5.39648H10.0871C8.37751 5.39647 7.02343 5.39646 5.9637 5.53303C4.87308 5.67358 3.99033 5.96971 3.29418 6.63699C2.59803 7.30427 2.28908 8.1504 2.14245 9.19579C1.99997 10.2116 1.99999 11.5095 2 13.1481V13.2487C1.99999 14.8874 1.99997 16.1853 2.14245 17.2011C2.28908 18.2465 2.59803 19.0926 3.29418 19.7599C3.99033 20.4272 4.87307 20.7233 5.9637 20.8638C7.02344 21.0004 8.37751 21.0004 10.0871 21.0004H13.9129C15.6225 21.0004 16.9766 21.0004 18.0363 20.8638C19.1269 20.7233 20.0097 20.4272 20.7058 19.7599C21.402 19.0926 21.7109 18.2465 21.8575 17.2011C22 16.1853 22 14.8874 22 13.2487V13.1481C22 11.5095 22 10.2116 21.8575 9.19579C21.7109 8.1504 21.402 7.30427 20.7058 6.63699C20.0097 5.96971 19.1269 5.67358 18.0363 5.53303ZM6.14963 6.85858C5.21373 6.97919 4.67452 7.20537 4.28084 7.58273C3.88716 7.96008 3.65119 8.47693 3.52536 9.37401C3.42443 10.0935 3.40184 10.9929 3.3968 12.1692L3.86764 11.7743C4.99175 10.8315 6.68596 10.8856 7.74215 11.898L11.7326 15.7229C12.1321 16.1059 12.7611 16.1581 13.2234 15.8467L13.5008 15.6598C14.8313 14.7636 16.6314 14.8674 17.8402 15.9102L20.2479 17.9872C20.3463 17.7232 20.4206 17.4081 20.4746 17.0229C20.6032 16.1065 20.6047 14.8987 20.6047 13.1984C20.6047 11.4982 20.6032 10.2903 20.4746 9.37401C20.3488 8.47693 20.1128 7.96008 19.7192 7.58273C19.3255 7.20537 18.7863 6.97919 17.8504 6.85858C16.8944 6.73538 15.6343 6.73396 13.8605 6.73396H10.1395C8.36575 6.73396 7.10559 6.73538 6.14963 6.85858Z" fill="black"/>
<g opacity="0.5">
<path d="M17.0866 2.61039C16.2268 2.49997 15.1321 2.49998 13.7675 2.5H10.6778C9.31314 2.49998 8.21844 2.49997 7.35863 2.61039C6.46826 2.72473 5.72591 2.96835 5.13712 3.53075C4.79755 3.8551 4.56886 4.22833 4.41309 4.64928C4.91729 4.41928 5.48734 4.28374 6.12735 4.20084C7.21173 4.06037 8.5973 4.06038 10.3466 4.06039H14.2615C16.0108 4.06038 17.3963 4.06037 18.4807 4.20084C19.0397 4.27325 19.5453 4.38581 20.0003 4.56638C19.8457 4.17917 19.6253 3.83365 19.3081 3.53075C18.7193 2.96835 17.977 2.72473 17.0866 2.61039Z" fill="black"/>
</g>
</svg>
