<svg width="24" height="24" viewBox="0 0 24 24" fill="none" xmlns="http://www.w3.org/2000/svg">
<path fill-rule="evenodd" clip-rule="evenodd" d="M8.67239 7.54297H15.3276C18.7024 7.54297 20.3898 7.54297 21.3377 8.5298C22.2855 9.51663 22.0625 11.0412 21.6165 14.0905L21.1935 16.9821C20.8437 19.3733 20.6689 20.5689 19.7717 21.2849C18.8745 22.0009 17.5512 22.0009 14.9046 22.0009H9.09536C6.44881 22.0009 5.12553 22.0009 4.22834 21.2849C3.33115 20.5689 3.15626 19.3733 2.80648 16.9821L2.38351 14.0905C1.93748 11.0412 1.71447 9.51663 2.66232 8.5298C3.61017 7.54297 5.29758 7.54297 8.67239 7.54297ZM8 18.0011C8 17.5869 8.3731 17.2511 8.83333 17.2511H15.1667C15.6269 17.2511 16 17.5869 16 18.0011C16 18.4153 15.6269 18.7511 15.1667 18.7511H8.83333C8.3731 18.7511 8 18.4153 8 18.0011Z" fill="black"/>
<g opacity="0.4">
<path d="M8.51005 2.00001H15.4901C15.7226 1.99995 15.9009 1.99991 16.0567 2.01515C17.1645 2.12352 18.0712 2.78958 18.4558 3.68678H5.54443C5.92895 2.78958 6.8357 2.12352 7.94352 2.01515C8.09933 1.99991 8.27757 1.99995 8.51005 2.00001Z" fill="black"/>
</g>
<g opacity="0.7">
<path d="M6.31069 4.72266C4.92007 4.72266 3.7798 5.56241 3.39927 6.67645C3.39134 6.69967 3.38374 6.72302 3.37646 6.74647C3.77461 6.6259 4.18898 6.54713 4.60845 6.49336C5.68882 6.35485 7.05416 6.35492 8.64019 6.35501L8.75863 6.35501L15.5323 6.35501C17.1183 6.35492 18.4837 6.35485 19.564 6.49336C19.9835 6.54713 20.3979 6.6259 20.796 6.74647C20.7887 6.72302 20.7811 6.69967 20.7732 6.67645C20.3927 5.56241 19.2524 4.72266 17.8618 4.72266H6.31069Z" fill="black"/>
</g>
</svg>
