<svg width="24" height="24" viewBox="0 0 24 24" fill="none" xmlns="http://www.w3.org/2000/svg">
<path opacity="0.5" fill-rule="evenodd" clip-rule="evenodd" d="M11.9998 2C8.55865 2 5.76904 4.81123 5.76904 8.27907V12.9302C5.76904 16.3981 8.55865 19.2093 11.9998 19.2093C15.441 19.2093 18.2306 16.3981 18.2306 12.9302V8.27907C18.2306 4.81124 15.441 2 11.9998 2ZM9.67803 7.39068C9.4002 7.12597 9.38792 6.6844 9.6506 6.40441L10.1537 6.88372C9.6506 6.40441 9.65135 6.40361 9.65135 6.40361L9.65212 6.40279L9.65369 6.40114L9.65697 6.3977L9.66412 6.39036C9.66915 6.38527 9.67471 6.37977 9.6808 6.37391C9.69299 6.36218 9.70732 6.349 9.72394 6.33461C9.7572 6.3058 9.79943 6.27232 9.85166 6.23613C9.95639 6.16357 10.0995 6.0814 10.2885 6.00438C10.6674 5.84997 11.2188 5.72093 11.9998 5.72093C12.7809 5.72093 13.3322 5.84997 13.7111 6.00438C13.9001 6.0814 14.0432 6.16357 14.148 6.23613C14.2002 6.27232 14.2424 6.3058 14.2757 6.33461C14.2923 6.349 14.3066 6.36218 14.3188 6.37391C14.3249 6.37977 14.3305 6.38527 14.3355 6.39036L14.3427 6.3977L14.3459 6.40114L14.3475 6.40279L14.3483 6.40361C14.3483 6.40361 14.349 6.40441 13.856 6.87412L14.349 6.40441C14.6117 6.6844 14.5994 7.12597 14.3216 7.39068C14.0534 7.64624 13.6357 7.64354 13.3708 7.39112L13.3635 7.38596C13.3424 7.37132 13.2883 7.33721 13.192 7.29795C13.0003 7.2198 12.6285 7.11628 11.9998 7.11628C11.3711 7.11628 10.9994 7.2198 10.8076 7.29795C10.7113 7.33721 10.6572 7.37132 10.6361 7.38596L10.6289 7.39112C10.3639 7.64354 9.94626 7.64624 9.67803 7.39068ZM9.67803 10.1814C9.4002 9.91667 9.38792 9.4751 9.6506 9.19511L10.1537 9.67442C9.6506 9.19511 9.65135 9.1943 9.65135 9.1943L9.65212 9.19349L9.65369 9.19183L9.65697 9.1884L9.66412 9.18106C9.66915 9.17597 9.67471 9.17047 9.6808 9.16461C9.69299 9.15288 9.70732 9.13969 9.72394 9.1253C9.7572 9.0965 9.79943 9.06301 9.85166 9.02683C9.95639 8.95427 10.0995 8.8721 10.2885 8.79507C10.6674 8.64067 11.2188 8.51163 11.9998 8.51163C12.7809 8.51163 13.3322 8.64067 13.7111 8.79507C13.9001 8.8721 14.0432 8.95427 14.148 9.02683C14.2002 9.06301 14.2424 9.0965 14.2757 9.1253C14.2923 9.13969 14.3066 9.15288 14.3188 9.16461C14.3249 9.17047 14.3305 9.17597 14.3355 9.18106L14.3427 9.1884L14.3459 9.19183L14.3475 9.19349L14.3483 9.1943C14.3483 9.1943 14.349 9.1951 13.856 9.66482L14.349 9.19511C14.6117 9.4751 14.5994 9.91667 14.3216 10.1814C14.0534 10.4369 13.6357 10.4342 13.3708 10.1818L13.3635 10.1767C13.3424 10.162 13.2883 10.1279 13.192 10.0886C13.0003 10.0105 12.6285 9.90698 11.9998 9.90698C11.3711 9.90698 10.9994 10.0105 10.8076 10.0886C10.7113 10.1279 10.6572 10.162 10.6361 10.1767L10.6289 10.1818C10.3639 10.4342 9.94626 10.4369 9.67803 10.1814Z" fill="black"/>
<path d="M9.65116 9.19488C9.38848 9.47487 9.40077 9.91644 9.6786 10.1812C9.94683 10.4367 10.3645 10.434 10.6294 10.1816L10.6366 10.1764C10.6578 10.1618 10.7119 10.1277 10.8082 10.0884C10.9999 10.0103 11.3716 9.90675 12.0004 9.90675C12.6291 9.90675 13.0008 10.0103 13.1926 10.0884C13.2889 10.1277 13.343 10.1618 13.3641 10.1764L13.3713 10.1816C13.6363 10.434 14.0539 10.4367 14.3222 10.1812C14.6 9.91644 14.6123 9.47487 14.3496 9.19488L13.8566 9.66459C14.3496 9.19488 14.3488 9.19408 14.3488 9.19408L14.3481 9.19326L14.3465 9.19161L14.3432 9.18817L14.3361 9.18083C14.331 9.17574 14.3255 9.17024 14.3194 9.16438C14.3072 9.15265 14.2929 9.13947 14.2763 9.12508C14.243 9.09627 14.2008 9.06279 14.1485 9.0266C14.0438 8.95404 13.9007 8.87187 13.7117 8.79485C13.3328 8.64044 12.7814 8.5114 12.0004 8.5114C11.2193 8.5114 10.6679 8.64044 10.2891 8.79485C10.1001 8.87187 9.95696 8.95404 9.85222 9.0266C9.8 9.06279 9.75776 9.09627 9.7245 9.12508C9.70789 9.13947 9.69355 9.15265 9.68136 9.16438C9.67527 9.17024 9.66972 9.17574 9.66469 9.18083L9.65754 9.18817L9.65425 9.19161L9.65268 9.19326L9.65192 9.19408C9.65192 9.19408 9.65116 9.19488 10.1542 9.67419L9.65116 9.19488Z" fill="black"/>
<path d="M9.65116 6.40418C9.38848 6.68417 9.40077 7.12574 9.6786 7.39046C9.94683 7.64602 10.3645 7.64332 10.6294 7.39089L10.6366 7.38573C10.6578 7.37109 10.7119 7.33698 10.8082 7.29772C10.9999 7.21957 11.3716 7.11605 12.0004 7.11605C12.6291 7.11605 13.0008 7.21957 13.1926 7.29772C13.2889 7.33698 13.343 7.37109 13.3641 7.38573L13.3713 7.39089C13.6363 7.64332 14.0539 7.64602 14.3222 7.39046C14.6 7.12574 14.6123 6.68417 14.3496 6.40418L13.8566 6.87389C14.3496 6.40418 14.3488 6.40338 14.3488 6.40338L14.3481 6.40257L14.3465 6.40091L14.3432 6.39747L14.3361 6.39014C14.331 6.38504 14.3255 6.37955 14.3194 6.37368C14.3072 6.36195 14.2929 6.34877 14.2763 6.33438C14.243 6.30557 14.2008 6.27209 14.1485 6.23591C14.0438 6.16334 13.9007 6.08117 13.7117 6.00415C13.3328 5.84974 12.7814 5.7207 12.0004 5.7207C11.2193 5.7207 10.6679 5.84974 10.2891 6.00415C10.1001 6.08117 9.95696 6.16334 9.85222 6.23591C9.8 6.27209 9.75776 6.30557 9.7245 6.33438C9.70789 6.34877 9.69355 6.36195 9.68136 6.37368C9.67527 6.37955 9.66972 6.38504 9.66469 6.39014L9.65754 6.39747L9.65425 6.40091L9.65268 6.40257L9.65192 6.40338C9.65192 6.40338 9.65116 6.40418 10.1542 6.88349L9.65116 6.40418Z" fill="black"/>
<path fill-rule="evenodd" clip-rule="evenodd" d="M3.69231 10.3711C4.07466 10.3711 4.38462 10.6835 4.38462 11.0688V12.9292C4.38462 17.1677 7.79414 20.6037 12 20.6037C16.2059 20.6037 19.6154 17.1677 19.6154 12.9292V11.0688C19.6154 10.6835 19.9253 10.3711 20.3077 10.3711C20.69 10.3711 21 10.6835 21 11.0688V12.9292C21 17.9383 16.9706 21.999 12 21.999C7.02944 21.999 3 17.9383 3 12.9292V11.0688C3 10.6835 3.30996 10.3711 3.69231 10.3711Z" fill="black"/>
</svg>
