<svg width="24" height="24" viewBox="0 0 24 24" fill="none" xmlns="http://www.w3.org/2000/svg">
<g opacity="0.5">
<path d="M6.72413 3.76172H5.26784C5.11295 3.76713 4.96866 3.77512 4.83435 3.78692C4.40341 3.82477 4.01421 3.9055 3.65073 4.10459C3.08186 4.41618 2.61937 4.91337 2.32952 5.5249C2.14431 5.91564 2.06921 6.33404 2.034 6.7973C1.99999 7.24486 1.99999 7.79557 2 8.46895V15.5318C1.99999 16.2052 1.99999 16.7559 2.034 17.2034C2.06921 17.6667 2.14431 18.0851 2.32952 18.4758C2.61937 19.0874 3.08186 19.5845 3.65073 19.8961C4.01421 20.0952 4.40341 20.176 4.83435 20.2138C4.96866 20.2256 5.11295 20.2336 5.26784 20.239H6.72438C6.41895 19.3408 6.41895 18.0372 6.41895 16V8C6.41895 5.96331 6.41895 4.6599 6.72413 3.76172Z" fill="black"/>
<path d="M17.2763 20.239C17.5817 19.3408 17.5817 18.0372 17.5817 16V8C17.5817 5.96331 17.5817 4.65991 17.2766 3.76172H18.7322C18.887 3.76713 19.0313 3.77512 19.1656 3.78692C19.5966 3.82477 19.9858 3.9055 20.3493 4.10459C20.9181 4.41618 21.3806 4.91337 21.6705 5.5249C21.8557 5.91564 21.9308 6.33404 21.966 6.7973C22 7.24484 22 7.79553 22 8.46887V15.5318C22 16.2051 22 16.7559 21.966 17.2034C21.9308 17.6667 21.8557 18.0851 21.6705 18.4758C21.3806 19.0874 20.9181 19.5845 20.3493 19.8961C19.9858 20.0952 19.5966 20.176 19.1656 20.2138C19.0313 20.2256 18.887 20.2336 18.7322 20.239H17.2763Z" fill="black"/>
</g>
<path d="M10.9999 12.75C11.6902 12.75 12.2499 13.3096 12.2499 14C12.2499 14.6904 11.6902 15.25 10.9999 15.25C10.3095 15.25 9.74985 14.6904 9.74985 14C9.74985 13.3096 10.3095 12.75 10.9999 12.75Z" fill="black"/>
<path fill-rule="evenodd" clip-rule="evenodd" d="M6.41846 8C6.41846 5.17157 6.41846 3.75736 7.23583 2.87868C8.05321 2 9.36876 2 11.9999 2C14.6309 2 15.9465 2 16.7639 2.87868C17.5812 3.75736 17.5812 5.17157 17.5812 8V16C17.5812 18.8284 17.5812 20.2426 16.7639 21.1213C15.9465 22 14.6309 22 11.9999 22C9.36876 22 8.05321 22 7.23583 21.1213C6.41846 20.2426 6.41846 18.8284 6.41846 16V8ZM13.7499 8C13.7499 7.58579 13.4141 7.25 12.9999 7.25C12.5856 7.25 12.2499 7.58579 12.2499 8V11.5499C11.8748 11.3581 11.45 11.25 10.9999 11.25C9.48107 11.25 8.24985 12.4812 8.24985 14C8.24985 15.5188 9.48107 16.75 10.9999 16.75C12.5186 16.75 13.7499 15.5188 13.7499 14V10.4501C14.1249 10.6419 14.5497 10.75 14.9999 10.75C15.4141 10.75 15.7499 10.4142 15.7499 10C15.7499 9.58579 15.4141 9.25 14.9999 9.25C14.3095 9.25 13.7499 8.69036 13.7499 8Z" fill="black"/>
</svg>
