<svg width="24" height="24" viewBox="0 0 24 24" fill="none" xmlns="http://www.w3.org/2000/svg">
<path d="M11.25 17.0009C11.25 16.5867 10.9142 16.2509 10.5 16.2509C10.0858 16.2509 9.75 16.5867 9.75 17.0009C9.75 17.4151 10.0858 17.7509 10.5 17.7509C10.9142 17.7509 11.25 17.4151 11.25 17.0009Z" fill="black"/>
<path fill-rule="evenodd" clip-rule="evenodd" d="M8.67239 7.54297H15.3276C18.7024 7.54297 20.3898 7.54297 21.3377 8.5298C22.2855 9.51662 22.0625 11.0413 21.6165 14.0905L21.1935 16.9821C20.8437 19.3733 20.6689 20.5689 19.7717 21.2849C18.8745 22.0009 17.5512 22.0009 14.9046 22.0009H9.09534C6.4488 22.0009 5.12553 22.0009 4.22834 21.2849C3.33115 20.5689 3.15626 19.3733 2.80648 16.9821L2.38351 14.0905C1.93748 11.0412 1.71447 9.51663 2.66232 8.5298C3.61017 7.54297 5.29758 7.54297 8.67239 7.54297ZM12.75 10.5009C12.75 10.0867 12.4142 9.75093 12 9.75093C11.5858 9.75093 11.25 10.0867 11.25 10.5009V14.879C11.0154 14.796 10.763 14.7509 10.5 14.7509C9.25736 14.7509 8.25 15.7583 8.25 17.0009C8.25 18.2436 9.25736 19.2509 10.5 19.2509C11.7426 19.2509 12.75 18.2436 12.75 17.0009V13.3207C13.4202 13.8643 14.2617 14.2509 15 14.2509C15.4142 14.2509 15.75 13.9151 15.75 13.5009C15.75 13.0867 15.4142 12.7509 15 12.7509C14.6946 12.7509 14.1145 12.5323 13.5835 12.0612C13.0654 11.6016 12.75 11.0395 12.75 10.5009Z" fill="black"/>
<path opacity="0.4" d="M8.50956 2.00001H15.4897C15.7221 1.99995 15.9004 1.99991 16.0562 2.01515C17.164 2.12352 18.0708 2.78958 18.4553 3.68678H5.54395C5.92846 2.78958 6.83521 2.12352 7.94303 2.01515C8.09884 1.99991 8.27708 1.99995 8.50956 2.00001Z" fill="black"/>
<path opacity="0.7" d="M6.3102 4.72266C4.91958 4.72266 3.77931 5.56241 3.39878 6.67645C3.39085 6.69967 3.38325 6.72302 3.37598 6.74647C3.77413 6.6259 4.18849 6.54713 4.60796 6.49336C5.68833 6.35485 7.05367 6.35492 8.6397 6.35501H15.5318C17.1178 6.35492 18.4832 6.35485 19.5635 6.49336C19.983 6.54713 20.3974 6.6259 20.7955 6.74647C20.7883 6.72302 20.7806 6.69967 20.7727 6.67645C20.3922 5.56241 19.2519 4.72266 17.8613 4.72266H6.3102Z" fill="black"/>
</svg>
