<svg width="24" height="24" viewBox="0 0 24 24" fill="none" xmlns="http://www.w3.org/2000/svg">
<path fill-rule="evenodd" clip-rule="evenodd" d="M10.091 11.9629L19.3637 8.63087L21 7.95235V7.49236C21.0001 6.37238 21.0001 5.4331 20.9123 4.68472C20.8999 4.57895 20.8852 4.4738 20.8691 4.37569C20.7846 3.86441 20.6352 3.38745 20.347 2.98917C20.2029 2.79002 20.024 2.61055 19.8012 2.45628C19.7594 2.42736 19.7161 2.39932 19.6712 2.3722L19.6621 2.36679C18.8906 1.90553 18.0233 1.93852 17.1298 2.14305C16.2657 2.34086 15.1945 2.74368 13.8808 3.23763L11.5964 4.09656C10.9806 4.32806 10.4589 4.52419 10.0495 4.72734C9.6138 4.94348 9.23854 5.1984 8.95711 5.57828C8.67568 5.95817 8.5588 6.36756 8.50506 6.81203C8.45455 7.22978 8.45457 7.7378 8.45459 8.33743V12.6016L10.091 11.9629Z" fill="black"/>
<g opacity="0.5">
<path d="M8.45455 16.1315C7.90347 15.8145 7.24835 15.6308 6.54545 15.6308C4.58735 15.6308 3 17.0568 3 18.8158C3 20.5748 4.58735 22.0008 6.54545 22.0008C8.50355 22.0008 10.0909 20.5748 10.0909 18.8158L10.0909 11.9636L8.45455 12.6023V16.1315Z" fill="black"/>
<path d="M19.3636 8.63165V14.1715C18.8126 13.8545 18.1574 13.6708 17.4545 13.6708C15.4964 13.6708 13.9091 15.0968 13.9091 16.8558C13.9091 18.6148 15.4964 20.0408 17.4545 20.0408C19.4126 20.0408 21 18.6148 21 16.8558L21 7.95312L19.3636 8.63165Z" fill="black"/>
</g>
</svg>
