<svg width="24" height="24" viewBox="0 0 24 24" fill="none" xmlns="http://www.w3.org/2000/svg">
<path fill-rule="evenodd" clip-rule="evenodd" d="M15.3276 7.54297H8.67239C5.29758 7.54297 3.61017 7.54297 2.66232 8.5298C1.71447 9.51663 1.93748 11.0412 2.38351 14.0905L2.80648 16.9821C3.15626 19.3733 3.33115 20.5689 4.22834 21.2849C5.12553 22.0009 6.4488 22.0009 9.09534 22.0009H14.9046C17.5512 22.0009 18.8745 22.0009 19.7717 21.2849C20.6689 20.5689 20.8437 19.3733 21.1935 16.9821L21.6165 14.0905C22.0625 11.0413 22.2855 9.51662 21.3377 8.5298C20.3898 7.54297 18.7024 7.54297 15.3276 7.54297ZM14.5885 10.166C13.3569 9.63981 11.9428 10.4314 11.8607 11.6934C11.8571 11.7485 11.8571 11.8173 11.8571 11.9003L11.8571 11.9271C11.8571 11.9568 11.8571 11.9832 11.8578 12.0087L11.8574 15.5228C11.4791 15.3186 11.0399 15.2017 10.5714 15.2017C9.15135 15.2017 8 16.276 8 17.6013C8 18.9267 9.15135 20.0009 10.5714 20.0009C11.9915 20.0009 13.1428 18.9266 13.1429 17.6013L13.1433 13.6823L14.0713 14.1442C14.1497 14.1833 14.2149 14.2157 14.2686 14.2387C15.5003 14.7648 16.9144 13.9733 16.9965 12.7113C17 12.6562 17 12.5873 17 12.5043L17 12.4776C17 12.4436 17 12.414 16.999 12.3851C16.9778 11.7616 16.6121 11.1928 16.0326 10.882C16.0057 10.8676 15.9777 10.8536 15.9456 10.8377L14.7858 10.2604C14.7074 10.2214 14.6423 10.189 14.5885 10.166Z" fill="black"/>
<path d="M14.0533 11.257C13.6426 11.0816 13.1714 11.3456 13.144 11.7661C13.1432 11.7793 13.1429 11.8066 13.1429 11.92C13.1429 11.965 13.1429 11.9742 13.1432 11.9814C13.1503 12.1892 13.2721 12.3787 13.4653 12.4824C13.472 12.486 13.4807 12.4904 13.5232 12.5115L14.6576 13.0761C14.7649 13.1295 14.7909 13.1421 14.8038 13.1476C15.2145 13.3231 15.6858 13.059 15.7131 12.6386C15.714 12.6254 15.7143 12.5981 15.7143 12.4846C15.7143 12.4397 15.7142 12.4305 15.714 12.4232C15.7069 12.2155 15.585 12.0259 15.3919 11.9223L14.0533 11.257Z" fill="black"/>
<path d="M10.5714 16.4016C11.2816 16.4016 11.8571 16.9388 11.8571 17.6012C11.8571 18.2637 11.2816 18.801 10.5714 18.801C9.86127 18.801 9.28571 18.2638 9.28571 17.6013C9.28571 16.9388 9.86127 16.4016 10.5714 16.4016Z" fill="black"/>
<path opacity="0.4" d="M8.51005 2.00001H15.4901C15.7226 1.99995 15.9009 1.99991 16.0567 2.01515C17.1645 2.12352 18.0712 2.78958 18.4558 3.68678H5.54443C5.92895 2.78958 6.8357 2.12352 7.94352 2.01515C8.09933 1.99991 8.27757 1.99995 8.51005 2.00001Z" fill="black"/>
<path opacity="0.7" d="M6.31069 4.72266C4.92007 4.72266 3.7798 5.56241 3.39927 6.67645C3.39134 6.69967 3.38374 6.72302 3.37646 6.74647C3.77461 6.6259 4.18898 6.54713 4.60845 6.49336C5.68882 6.35485 7.05416 6.35492 8.64019 6.35501H15.5323C17.1183 6.35492 18.4837 6.35485 19.564 6.49336C19.9835 6.54713 20.3979 6.6259 20.796 6.74647C20.7887 6.72302 20.7811 6.69967 20.7732 6.67645C20.3927 5.56241 19.2524 4.72266 17.8618 4.72266H6.31069Z" fill="black"/>
</svg>
