<svg width="24" height="24" viewBox="0 0 24 24" fill="none" xmlns="http://www.w3.org/2000/svg">
<path d="M14.8683 8.41172C14.9381 8.38128 14.9703 8.37152 14.9784 8.36917C15.0883 8.35966 15.1916 8.42348 15.2322 8.52605C15.2337 8.5343 15.2394 8.5675 15.2434 8.64357C15.2496 8.76123 15.2499 8.92003 15.2499 9.17103C15.2499 9.27816 15.2497 9.33925 15.2481 9.3855C15.2471 9.41444 15.2457 9.42668 15.2453 9.42975C15.2337 9.48965 15.2006 9.54324 15.1522 9.58042C15.1496 9.58215 15.1393 9.58885 15.1138 9.60273C15.0732 9.62489 15.0186 9.6523 14.9228 9.70021L13.6061 10.3586C13.3816 10.4708 13.2394 10.5416 13.1314 10.5887C13.0616 10.6191 13.0294 10.6289 13.0213 10.6313C12.9114 10.6408 12.8081 10.5769 12.7675 10.4744C12.766 10.4661 12.7603 10.4329 12.7563 10.3569C12.7501 10.2392 12.7499 10.0804 12.7499 9.82939C12.7499 9.72226 12.75 9.66118 12.7516 9.61492C12.7526 9.58596 12.754 9.57373 12.7544 9.57067C12.766 9.51077 12.7991 9.45718 12.8475 9.42001C12.8501 9.41827 12.8604 9.41157 12.8859 9.39769C12.9265 9.37554 12.9811 9.34812 13.0769 9.30021L14.3936 8.64185C14.6181 8.5296 14.7603 8.4588 14.8683 8.41172Z" fill="black"/>
<path d="M9.99985 13.75C10.6902 13.75 11.2499 14.3097 11.2499 15C11.2499 15.6904 10.6902 16.25 9.99985 16.25C9.3095 16.25 8.74985 15.6904 8.74985 15C8.74985 14.3097 9.3095 13.75 9.99985 13.75Z" fill="black"/>
<path fill-rule="evenodd" clip-rule="evenodd" d="M7.23583 2.87868C6.41846 3.75736 6.41846 5.17157 6.41846 8V16C6.41846 18.8284 6.41846 20.2426 7.23583 21.1213C8.05321 22 9.36876 22 11.9999 22C14.6309 22 15.9465 22 16.7639 21.1213C17.5812 20.2426 17.5812 18.8284 17.5812 16V8C17.5812 5.17158 17.5812 3.75736 16.7639 2.87868C15.9465 2 14.6309 2 11.9999 2C9.36876 2 8.05321 2 7.23583 2.87868ZM16.6452 8.02225C16.3687 7.25889 15.6035 6.78596 14.7971 6.88003C14.5987 6.90318 14.4197 6.97092 14.2689 7.03669C14.1202 7.10149 13.9424 7.19042 13.7395 7.29184L12.3696 7.97679C12.2247 8.04899 12.0709 8.12557 11.9369 8.22804C11.5954 8.48919 11.3619 8.86695 11.2811 9.28925C11.2493 9.45495 11.2496 9.62668 11.2498 9.78859L11.2499 9.8481C11.2499 9.86538 11.2498 9.88251 11.2498 9.89946C11.2498 9.93367 11.2498 9.96721 11.2499 10V12.5499C10.8748 12.3582 10.45 12.25 9.99985 12.25C8.48107 12.25 7.24985 13.4813 7.24985 15C7.24985 16.5188 8.48107 17.75 9.99985 17.75C11.5186 17.75 12.7499 16.5188 12.7499 15V12.1144C12.8972 12.1357 13.0492 12.1383 13.2026 12.1204C13.401 12.0972 13.58 12.0295 13.7308 11.9637C13.8795 11.8989 14.0574 11.81 14.2602 11.7086L15.6301 11.0236C15.775 10.9514 15.9288 10.8749 16.0628 10.7724C16.4043 10.5112 16.6378 10.1335 16.7186 9.71117C16.7504 9.54547 16.7501 9.37374 16.7499 9.21184L16.7499 9.15231C16.7499 8.92555 16.7499 8.72669 16.7413 8.56475C16.7327 8.4004 16.7133 8.21007 16.6452 8.02225Z" fill="black"/>
<g opacity="0.5">
<path d="M6.72413 3.76172H5.26784C5.11295 3.76713 4.96866 3.77512 4.83435 3.78692C4.40341 3.82477 4.01421 3.9055 3.65073 4.10459C3.08186 4.41618 2.61937 4.91337 2.32952 5.5249C2.14431 5.91564 2.06921 6.33404 2.034 6.7973C1.99999 7.24486 1.99999 7.79557 2 8.46895V15.5318C1.99999 16.2052 1.99999 16.7559 2.034 17.2034C2.06921 17.6667 2.14431 18.0851 2.32952 18.4758C2.61937 19.0874 3.08186 19.5845 3.65073 19.8961C4.01421 20.0952 4.40341 20.176 4.83435 20.2138C4.96866 20.2256 5.11295 20.2336 5.26784 20.239H6.72438C6.41895 19.3408 6.41895 18.0372 6.41895 16V8C6.41895 5.96331 6.41895 4.6599 6.72413 3.76172Z" fill="black"/>
<path d="M17.2763 20.239C17.5817 19.3408 17.5817 18.0372 17.5817 16V8C17.5817 5.96331 17.5817 4.65991 17.2766 3.76172H18.7322C18.887 3.76713 19.0313 3.77512 19.1656 3.78692C19.5966 3.82477 19.9858 3.9055 20.3493 4.10459C20.9181 4.41618 21.3806 4.91337 21.6705 5.5249C21.8557 5.91564 21.9308 6.33404 21.966 6.7973C22 7.24484 22 7.79553 22 8.46887V15.5318C22 16.2051 22 16.7559 21.966 17.2034C21.9308 17.6667 21.8557 18.0851 21.6705 18.4758C21.3806 19.0874 20.9181 19.5845 20.3493 19.8961C19.9858 20.0952 19.5966 20.176 19.1656 20.2138C19.0313 20.2256 18.887 20.2336 18.7322 20.239H17.2763Z" fill="black"/>
</g>
</svg>
