<svg width="24" height="24" viewBox="0 0 24 24" fill="none" xmlns="http://www.w3.org/2000/svg">
<path d="M10.8373 10.5446C10.8373 10.1429 10.5249 9.81729 10.1396 9.81729H8.5815C8.90471 8.15748 10.3124 6.9082 12.0001 6.9082C13.6877 6.9082 15.0955 8.15748 15.4187 9.81729H12.9303C12.545 9.81729 12.2326 10.1429 12.2326 10.5446C12.2326 10.9462 12.545 11.2718 12.9303 11.2718H15.4885V12.7264H12.9303C12.545 12.7264 12.2326 13.052 12.2326 13.4537C12.2326 13.8553 12.545 14.1809 12.9303 14.1809H15.4187C15.1412 15.6058 14.0646 16.7281 12.6978 17.0173V19.2718C12.6978 19.6735 12.3854 19.9991 12.0001 19.9991C11.6148 19.9991 11.3024 19.6735 11.3024 19.2718V17.0173C9.93558 16.7281 8.85895 15.6058 8.5815 14.1809H10.1396C10.5249 14.1809 10.8373 13.8553 10.8373 13.4537C10.8373 13.052 10.5249 12.7264 10.1396 12.7264H8.51172V11.2718H10.1396C10.5249 11.2718 10.8373 10.9462 10.8373 10.5446Z" fill="black"/>
<path opacity="0.5" d="M12 4C8.67054 4 5.94634 6.70128 5.73422 10.1161C5.38211 9.92573 4.98218 9.81818 4.55814 9.81818C3.14532 9.81818 2 11.0121 2 12.4848V14.4242C2 15.897 3.14532 17.0909 4.55814 17.0909C4.60616 17.0909 4.65388 17.0895 4.70125 17.0868V17.0909C6.03503 17.0909 7.11628 15.9638 7.11628 14.5734V10.5454C7.11628 7.73382 9.30279 5.45455 12 5.45455C14.6972 5.45455 16.8837 7.73382 16.8837 10.5454V14.5734C16.8837 15.9638 17.9649 17.0909 19.2987 17.0909V17.0868C19.3461 17.0895 19.3938 17.0909 19.4419 17.0909C20.8547 17.0909 22 15.897 22 14.4242V12.4848C22 11.0121 20.8547 9.81818 19.4419 9.81818C19.0178 9.81818 18.6179 9.92574 18.2657 10.1161C18.0536 6.70129 15.3294 4 12 4Z" fill="black"/>
</svg>
