<svg width="24" height="24" viewBox="0 0 24 24" fill="none" xmlns="http://www.w3.org/2000/svg">
<path opacity="0.5" d="M2 12C2 7.28595 2 4.92893 3.46447 3.46447C4.92893 2 7.28595 2 12 2C16.714 2 19.0711 2 20.5355 3.46447C22 4.92893 22 7.28595 22 12C22 16.714 22 19.0711 20.5355 20.5355C19.0711 22 16.714 22 12 22C7.28595 22 4.92893 22 3.46447 20.5355C2 19.0711 2 16.714 2 12Z" fill="black"/>
<path d="M5.25003 13.993C5.25354 13.5788 5.59216 13.2459 6.00636 13.2494C6.85705 13.2566 7.58296 13.2829 8.18536 13.4009C8.80871 13.523 9.35196 13.7525 9.7981 14.1986C10.2442 14.6448 10.4737 15.188 10.5958 15.8114C10.7138 16.4138 10.7402 17.1397 10.7474 17.9904C10.7509 18.4046 10.4179 18.7432 10.0038 18.7467C9.58955 18.7502 9.25093 18.4173 9.24742 18.0031C9.24016 17.1472 9.21189 16.5495 9.1238 16.0997C9.0398 15.6709 8.91171 15.4336 8.73744 15.2593C8.56316 15.085 8.32582 14.9569 7.89702 14.8729C7.44729 14.7848 6.84952 14.7566 5.99364 14.7493C5.57944 14.7458 5.24652 14.4072 5.25003 13.993Z" fill="black"/>
<path d="M10.0038 5.25003C10.4179 5.25354 10.7509 5.59216 10.7474 6.00636C10.7402 6.85705 10.7138 7.58296 10.5958 8.18536C10.4737 8.80871 10.2442 9.35196 9.7981 9.7981C9.35196 10.2442 8.80871 10.4737 8.18536 10.5958C7.58296 10.7138 6.85705 10.7402 6.00636 10.7474C5.59216 10.7509 5.25354 10.4179 5.25003 10.0038C5.24652 9.58955 5.57944 9.25093 5.99364 9.24742C6.84952 9.24016 7.44729 9.21189 7.89702 9.1238C8.32582 9.0398 8.56316 8.91171 8.73744 8.73744C8.91171 8.56316 9.0398 8.32582 9.1238 7.89702C9.21189 7.44729 9.24016 6.84952 9.24742 5.99364C9.25093 5.57944 9.58955 5.24652 10.0038 5.25003Z" fill="black"/>
<path d="M13.9935 5.25003C14.4077 5.24652 14.7463 5.57944 14.7498 5.99364C14.7571 6.84952 14.7853 7.44729 14.8734 7.89702C14.9574 8.32582 15.0855 8.56316 15.2598 8.73744C15.4341 8.91171 15.6714 9.0398 16.1002 9.1238C16.5499 9.21189 17.1477 9.24016 18.0036 9.24742C18.4178 9.25093 18.7507 9.58955 18.7472 10.0038C18.7437 10.4179 18.4051 10.7509 17.9909 10.7474C17.1402 10.7402 16.4143 10.7138 15.8119 10.5958C15.1885 10.4737 14.6453 10.2442 14.1991 9.7981C13.753 9.35196 13.5235 8.80871 13.4014 8.18536C13.2834 7.58296 13.2571 6.85705 13.2499 6.00636C13.2463 5.59216 13.5793 5.25354 13.9935 5.25003Z" fill="black"/>
<path d="M18.7472 13.993C18.7507 14.4072 18.4178 14.7458 18.0036 14.7493C17.1477 14.7566 16.5499 14.7848 16.1002 14.8729C15.6714 14.9569 15.4341 15.085 15.2598 15.2593C15.0855 15.4336 14.9574 15.6709 14.8734 16.0997C14.7853 16.5495 14.7571 17.1472 14.7498 18.0031C14.7463 18.4173 14.4077 18.7502 13.9935 18.7467C13.5793 18.7432 13.2463 18.4046 13.2499 17.9904C13.2571 17.1397 13.2834 16.4138 13.4014 15.8114C13.5235 15.188 13.753 14.6448 14.1991 14.1986C14.6453 13.7525 15.1885 13.523 15.8119 13.4009C16.4143 13.2829 17.1402 13.2566 17.9909 13.2494C18.4051 13.2459 18.7437 13.5788 18.7472 13.993Z" fill="black"/>
</svg>
