<svg width="24" height="24" viewBox="0 0 24 24" fill="none" xmlns="http://www.w3.org/2000/svg">
<path opacity="0.5" d="M12 22C17.5228 22 22 17.5228 22 12C22 6.47715 17.5228 2 12 2C6.47715 2 2 6.47715 2 12C2 17.5228 6.47715 22 12 22Z" fill="black"/>
<path d="M13.4365 7.46007C13.0994 7.21931 12.631 7.29738 12.3902 7.63444C12.1495 7.9715 12.2276 8.43991 12.5646 8.68067L15.7862 10.9818C16.4841 11.4803 16.4841 12.5176 15.7862 13.0161L12.5646 15.3172C12.2276 15.558 12.1495 16.0264 12.3902 16.3634C12.631 16.7005 13.0994 16.7786 13.4365 16.5378L16.658 14.2367C18.1935 13.14 18.1935 10.8579 16.658 9.76118L13.4365 7.46007Z" fill="black"/>
<path d="M7.50049 15.1309V8.86789C7.50049 8.0692 8.39063 7.59281 9.05519 8.03584L13.7524 11.1673C14.3461 11.5631 14.3461 12.4356 13.7524 12.8314L9.05519 15.9629C8.39063 16.4059 7.50049 15.9296 7.50049 15.1309Z" fill="black"/>
</svg>
