<svg width="24" height="24" viewBox="0 0 24 24" fill="none" xmlns="http://www.w3.org/2000/svg">
<path opacity="0.5" d="M12 22C6.47715 22 2 17.5228 2 12C2 6.47715 6.47715 2 12 2C17.5228 2 22 6.47715 22 12C22 17.5228 17.5228 22 12 22Z" fill="black"/>
<path d="M10.5636 7.46007C10.9006 7.21931 11.369 7.29738 11.6098 7.63444C11.8506 7.9715 11.7725 8.43991 11.4354 8.68067L8.21388 10.9818C7.51594 11.4803 7.51594 12.5176 8.21388 13.0161L11.4354 15.3172C11.7725 15.558 11.8506 16.0264 11.6098 16.3634C11.369 16.7005 10.9006 16.7786 10.5636 16.5378L7.34202 14.2367C5.80656 13.14 5.80656 10.8579 7.34202 9.76118L10.5636 7.46007Z" fill="black"/>
<path d="M16.4996 15.1309V8.86789C16.4996 8.0692 15.6094 7.59281 14.9449 8.03584L10.2476 11.1673C9.6539 11.5631 9.6539 12.4356 10.2476 12.8314L14.9449 15.9629C15.6094 16.4059 16.4996 15.9296 16.4996 15.1309Z" fill="black"/>
</svg>
