<svg width="24" height="24" viewBox="0 0 24 24" fill="none" xmlns="http://www.w3.org/2000/svg">
<path opacity="0.5" d="M12 22C13.3261 22 14.592 21.7419 15.75 21.2731V19.7362C15.094 19.8091 14.412 19.594 13.909 19.091C13.0303 18.2123 13.0303 16.7877 13.909 15.909L16.409 13.409C17.2877 12.5303 18.7123 12.5303 19.591 13.409L21.4528 15.2709C21.8074 14.246 22 13.1455 22 12C22 6.47715 17.5228 2 12 2C6.47715 2 2 6.47715 2 12C2 17.5228 6.47715 22 12 22Z" fill="black"/>
<path fill-rule="evenodd" clip-rule="evenodd" d="M17.4697 14.4697C17.7626 14.1768 18.2374 14.1768 18.5303 14.4697L21.0303 16.9697C21.3232 17.2626 21.3232 17.7374 21.0303 18.0303C20.7374 18.3232 20.2626 18.3232 19.9697 18.0303L18.75 16.8107V22C18.75 22.4142 18.4142 22.75 18 22.75C17.5858 22.75 17.25 22.4142 17.25 22V16.8107L16.0303 18.0303C15.7374 18.3232 15.2626 18.3232 14.9697 18.0303C14.6768 17.7374 14.6768 17.2626 14.9697 16.9697L17.4697 14.4697Z" fill="black"/>
<path d="M12.75 11.2128L13.7397 11.7076C13.9425 11.809 14.1204 11.898 14.269 11.9628C14.4199 12.0285 14.5988 12.0963 14.7972 12.1194C15.6037 12.2135 16.3689 11.7406 16.6454 10.9772C16.7134 10.7894 16.7328 10.599 16.7415 10.4347C16.75 10.2728 16.75 10.0739 16.75 9.84714L16.75 9.78761C16.7503 9.6257 16.7505 9.45398 16.7188 9.28827C16.638 8.86598 16.4045 8.48822 16.0629 8.22706C15.9289 8.12459 15.7752 8.04801 15.6303 7.97581L14.2603 7.29087C14.0575 7.18945 13.8796 7.10051 13.731 7.03571C13.5801 6.96994 13.4012 6.9022 13.2028 6.87906C12.3963 6.78499 11.6311 7.25792 11.3546 8.02127C11.2866 8.20909 11.2672 8.39943 11.2585 8.56378C11.2519 8.68843 11.2504 8.83495 11.2501 8.99924L11.25 9.2113C11.2499 9.23863 11.2499 9.26652 11.25 9.29434V12.5491C10.875 12.3574 10.4501 12.2492 10 12.2492C8.48122 12.2492 7.25 13.4805 7.25 14.9992C7.25 16.518 8.48122 17.7492 10 17.7492C11.5188 17.7492 12.75 16.518 12.75 14.9992V11.2128Z" fill="black"/>
</svg>
