<svg width="24" height="24" viewBox="0 0 24 24" fill="none" xmlns="http://www.w3.org/2000/svg">
<path d="M6.24976 2.2207C5.02703 2.41497 4.14826 2.7795 3.46423 3.46353C2.78019 4.14757 2.41566 5.02633 2.2214 6.24906H6.24976V2.2207Z" fill="black"/>
<path d="M2.0685 7.74906C2.01015 8.73023 2.00133 9.88288 2 11.2491H6.24976V7.74906H2.0685Z" fill="black"/>
<path d="M2 12.7491C2.00133 14.1152 2.01015 15.2679 2.0685 16.2491H6.24976V12.7491H2Z" fill="black"/>
<path d="M2.2214 17.7491C2.41566 18.9718 2.78019 19.8506 3.46423 20.5346C4.14826 21.2186 5.02703 21.5832 6.24976 21.7774V17.7491H2.2214Z" fill="black"/>
<path d="M17.7498 21.7774C18.9725 21.5832 19.8513 21.2186 20.5353 20.5346C21.2193 19.8506 21.5839 18.9718 21.7781 17.7491H17.7498V21.7774Z" fill="black"/>
<path d="M21.931 16.2491C21.9894 15.2679 21.9982 14.1152 21.9995 12.7491H17.7498V16.2491H21.931Z" fill="black"/>
<path d="M21.9995 11.2491C21.9982 9.88288 21.9894 8.73023 21.931 7.74906H17.7498V11.2491H21.9995Z" fill="black"/>
<path d="M21.7781 6.24906C21.5839 5.02633 21.2193 4.14757 20.5353 3.46353C19.8513 2.7795 18.9725 2.41497 17.7498 2.2207V6.24906H21.7781Z" fill="black"/>
<g opacity="0.5">
<path d="M7.75 21.9313C8.9058 22 10.2996 22 12 22C13.7004 22 15.0942 22 16.25 21.9313V12.75H7.75V21.9313Z" fill="black"/>
<path d="M16.25 2.06874C15.0942 2 13.7004 2 12 2C10.2996 2 8.9058 2 7.75 2.06874V11.25H16.25V2.06874Z" fill="black"/>
</g>
</svg>
