<svg width="24" height="24" viewBox="0 0 24 24" fill="none" xmlns="http://www.w3.org/2000/svg">
<path opacity="0.5" d="M4.92893 19.0711C8.83418 22.9763 15.1658 22.9763 19.0711 19.0711C22.9763 15.1658 22.9763 8.83418 19.0711 4.92893C15.1658 1.02369 8.83418 1.02369 4.92893 4.92893C1.02369 8.83418 1.02369 15.1658 4.92893 19.0711Z" fill="black"/>
<path d="M17.1265 6.87397C16.8336 6.58107 16.3588 6.58107 16.0659 6.87397C15.773 7.16686 15.773 7.64173 16.0659 7.93463C18.3114 10.1801 18.3114 13.8208 16.0659 16.0664C15.773 16.3592 15.773 16.8341 16.0659 17.127C16.3588 17.4199 16.8336 17.4199 17.1265 17.127C19.9578 14.2957 19.9578 9.70527 17.1265 6.87397Z" fill="black"/>
<path d="M7.93414 7.93463C8.22703 7.64173 8.22703 7.16686 7.93414 6.87397C7.64124 6.58107 7.16637 6.58107 6.87348 6.87397C4.04217 9.70527 4.04217 14.2957 6.87348 17.127C7.16637 17.4199 7.64124 17.4199 7.93414 17.127C8.22703 16.8341 8.22703 16.3592 7.93414 16.0664C5.68862 13.8208 5.68862 10.1801 7.93414 7.93463Z" fill="black"/>
<path fill-rule="evenodd" clip-rule="evenodd" d="M9.34835 9.34884C10.8128 7.88437 13.1872 7.88437 14.6517 9.34884C16.1161 10.8133 16.1161 13.1877 14.6517 14.6521C13.1872 16.1166 10.8128 16.1166 9.34835 14.6521C7.88388 13.1877 7.88388 10.8133 9.34835 9.34884ZM10.409 10.4095C11.2877 9.53082 12.7123 9.53082 13.591 10.4095C14.4697 11.2882 14.4697 12.7128 13.591 13.5915C12.7123 14.4702 11.2877 14.4702 10.409 13.5915C9.53033 12.7128 9.53033 11.2882 10.409 10.4095Z" fill="black"/>
</svg>
