<svg width="24" height="24" viewBox="0 0 24 24" fill="none" xmlns="http://www.w3.org/2000/svg">
<path d="M2.00299 11.7155C2.04033 9.87326 2.059 8.95215 2.67093 8.16363C2.78262 8.0197 2.9465 7.8487 3.08385 7.73274C3.83639 7.09741 4.82995 7.09741 6.81706 7.09741C7.527 7.09741 7.88197 7.09741 8.22035 7.00452C8.29067 6.98522 8.36024 6.96296 8.4289 6.93781C8.75936 6.81674 9.05574 6.60837 9.64851 6.19161C11.9872 4.54738 13.1565 3.72527 14.138 4.08241C14.3261 4.15088 14.5083 4.24972 14.671 4.37162C15.5194 5.00744 15.5839 6.48675 15.7128 9.44537C15.7606 10.5409 15.7931 11.4785 15.7931 12C15.7931 12.5215 15.7606 13.4591 15.7128 14.5546C15.5839 17.5132 15.5194 18.9926 14.671 19.6284C14.5083 19.7503 14.3261 19.8491 14.138 19.9176C13.1565 20.2747 11.9872 19.4526 9.64851 17.8084C9.05574 17.3916 8.75936 17.1833 8.4289 17.0622C8.36024 17.037 8.29067 17.0148 8.22035 16.9955C7.88197 16.9026 7.52701 16.9026 6.81706 16.9026C4.82995 16.9026 3.83639 16.9026 3.08385 16.2673C2.9465 16.1513 2.78262 15.9803 2.67093 15.8364C2.059 15.0478 2.04033 14.1267 2.00299 12.2845C2.00103 12.1878 2 12.0928 2 12C2 11.9072 2.00103 11.8122 2.00299 11.7155Z" fill="black"/>
<path opacity="0.4" fill-rule="evenodd" clip-rule="evenodd" d="M19.4894 5.55328C19.782 5.29327 20.2169 5.33543 20.4607 5.64743L19.9309 6.11822C20.4607 5.64743 20.4607 5.64743 20.4607 5.64743L20.4617 5.64878L20.4629 5.6503L20.4656 5.65384L20.4726 5.66293C20.4778 5.66989 20.4843 5.67865 20.492 5.68922C20.5073 5.71038 20.5273 5.73881 20.5513 5.77466C20.5994 5.84638 20.6634 5.94776 20.7378 6.07998C20.8866 6.34454 21.0769 6.73201 21.2642 7.25147C21.6396 8.29216 21.9998 9.85245 21.9998 12.0013C21.9998 14.1502 21.6396 15.7105 21.2642 16.7512C21.0769 17.2706 20.8866 17.6581 20.7378 17.9227C20.6634 18.0549 20.5994 18.1563 20.5513 18.228C20.5273 18.2638 20.5073 18.2923 20.492 18.3134C20.4843 18.324 20.4778 18.3328 20.4726 18.3397L20.4656 18.3488L20.4629 18.3523L20.4617 18.3539C20.4617 18.3539 20.4607 18.3552 19.9309 17.8844L20.4607 18.3552C20.2169 18.6672 19.782 18.7094 19.4894 18.4494C19.1982 18.1906 19.1576 17.7301 19.3976 17.4181C19.3976 17.4181 19.3992 17.4159 19.4008 17.4138C19.4056 17.4071 19.4153 17.3936 19.429 17.3731C19.4563 17.3322 19.5001 17.2635 19.555 17.166C19.6648 16.9709 19.8194 16.6597 19.9769 16.2232C20.2911 15.3519 20.6205 13.9706 20.6205 12.0013C20.6205 10.032 20.2911 8.65076 19.9769 7.77944C19.8194 7.3429 19.6648 7.03175 19.555 6.83669C19.5001 6.7391 19.4563 6.67043 19.429 6.62953C19.4153 6.60908 19.4056 6.59558 19.4008 6.58887C19.3992 6.5867 19.3976 6.58449 19.3976 6.58449" fill="black"/>
<path opacity="0.7" fill-rule="evenodd" clip-rule="evenodd" d="M17.7572 8.4169C18.0902 8.21966 18.51 8.34757 18.695 8.7026L18.0921 9.05974C18.695 8.7026 18.695 8.7026 18.695 8.7026L18.6957 8.70389L18.6964 8.70526L18.6979 8.70825L18.7014 8.71522L18.7103 8.73322C18.717 8.74701 18.7251 8.76442 18.7345 8.78551C18.7534 8.8277 18.7772 8.88457 18.8043 8.95668C18.8584 9.10098 18.9252 9.30585 18.9901 9.57571C19.12 10.1159 19.2415 10.9128 19.2415 12.0013C19.2415 13.0898 19.12 13.8867 18.9901 14.4269C18.9252 14.6967 18.8584 14.9016 18.8043 15.0459C18.7772 15.118 18.7534 15.1749 18.7345 15.2171C18.7251 15.2382 18.717 15.2556 18.7103 15.2694L18.7014 15.2874L18.6979 15.2943L18.6964 15.2973L18.6957 15.2987C18.6957 15.2987 18.695 15.3 18.0921 14.9428L18.695 15.3C18.51 15.655 18.0902 15.7829 17.7572 15.5857C17.4271 15.3901 17.3063 14.9483 17.4846 14.5948L17.4892 14.5847C17.4955 14.5706 17.5076 14.5425 17.5236 14.4997C17.5557 14.4142 17.6039 14.2697 17.654 14.0616C17.754 13.6458 17.8622 12.9719 17.8622 12.0013C17.8622 11.0307 17.754 10.3568 17.654 9.94101C17.6039 9.73287 17.5557 9.58843 17.5236 9.50292C17.5076 9.46012 17.4955 9.43196 17.4892 9.41785L17.4846 9.40781C17.3063 9.05426 17.4271 8.61246 17.7572 8.4169Z" fill="black"/>
</svg>
