<svg width="24" height="24" viewBox="0 0 24 24" fill="none" xmlns="http://www.w3.org/2000/svg">
<path d="M15.7207 7.34884C15.7207 8.37634 14.8878 9.2093 13.8603 9.2093C12.8328 9.2093 11.9998 8.37634 11.9998 7.34884C11.9998 6.32133 12.8328 5.48837 13.8603 5.48837C14.8878 5.48837 15.7207 6.32133 15.7207 7.34884Z" fill="black"/>
<path fill-rule="evenodd" clip-rule="evenodd" d="M16.0852 2.10839C15.2787 1.99997 14.2533 1.99998 12.9811 2H11.0185C9.74637 1.99998 8.72095 1.99997 7.91447 2.10839C7.07717 2.22097 6.37217 2.4618 5.81225 3.02172C5.25233 3.58164 5.01149 4.28664 4.89892 5.12395C4.79049 5.93043 4.79051 6.95585 4.79053 8.22802V15.772C4.79051 17.0442 4.79049 18.0696 4.89892 18.876C5.01149 19.7134 5.25233 20.4184 5.81225 20.9783C6.37217 21.5382 7.07717 21.779 7.91447 21.8916C8.72095 22 9.74637 22 11.0185 22H12.9811C14.2533 22 15.2787 22 16.0852 21.8916C16.9225 21.779 17.6275 21.5382 18.1874 20.9783C18.7473 20.4184 18.9881 19.7134 19.1007 18.876C19.2091 18.0696 19.2091 17.0441 19.2091 15.772V8.22803C19.2091 6.95585 19.2091 5.93044 19.1007 5.12395C18.9881 4.28664 18.7473 3.58164 18.1874 3.02172C17.6275 2.4618 16.9225 2.22097 16.0852 2.10839ZM16.8083 16.6302L17.7944 17.6708C17.8133 17.134 17.8138 16.4954 17.8138 15.7209V8.27907C17.8138 6.9438 17.8123 6.01253 17.7178 5.30988C17.626 4.6273 17.4582 4.26584 17.2007 4.00838C16.9433 3.75093 16.5818 3.58307 15.8992 3.4913C15.1966 3.39683 14.2653 3.39535 12.93 3.39535H11.0696C9.73432 3.39535 8.80305 3.39683 8.1004 3.4913C7.41782 3.58307 7.05636 3.75093 6.79891 4.00838C6.54145 4.26584 6.3736 4.6273 6.28183 5.30988C6.18736 6.01253 6.18587 6.9438 6.18587 8.27907V12.904L6.18917 12.9007C7.106 11.96 8.52439 12.0245 9.37252 13.019L12.3128 16.4668C12.5484 16.7429 12.8582 16.7555 13.0959 16.5596L13.3003 16.3912C14.3762 15.5045 15.8515 15.6204 16.8083 16.6302Z" fill="black"/>
<g opacity="0.5">
<path d="M5.01606 4.5H5C4.5355 4.5 4.30325 4.5 4.10891 4.53078C3.03918 4.70021 2.20021 5.53918 2.03078 6.60891C2 6.80325 2 7.0355 2 7.5V16.5C2 16.9645 2 17.1968 2.03078 17.3911C2.20021 18.4608 3.03918 19.2998 4.10891 19.4692C4.30325 19.5 4.5355 19.5 5 19.5H5.01606C4.96635 19.301 4.92858 19.093 4.89941 18.876C4.79098 18.0696 4.791 17.0442 4.79102 15.772V8.22802C4.791 6.95585 4.79098 5.93043 4.89941 5.12395C4.92858 4.90701 4.96635 4.69895 5.01606 4.5Z" fill="black"/>
<path d="M18.9845 19.5C19.0343 19.301 19.072 19.093 19.1012 18.876C19.2096 18.0696 19.2096 17.0442 19.2096 15.772V8.22803C19.2096 6.95588 19.2096 5.93042 19.1012 5.12395C19.072 4.90701 19.0343 4.69895 18.9845 4.5H19C19.4645 4.5 19.6968 4.5 19.8911 4.53078C20.9608 4.70021 21.7998 5.53918 21.9692 6.60891C22 6.80325 22 7.0355 22 7.5V16.5C22 16.9645 22 17.1968 21.9692 17.3911C21.7998 18.4608 20.9608 19.2998 19.8911 19.4692C19.6968 19.5 19.4645 19.5 19 19.5H18.9845Z" fill="black"/>
</g>
</svg>
