<svg width="24" height="24" viewBox="0 0 24 24" fill="none" xmlns="http://www.w3.org/2000/svg">
<path fill-rule="evenodd" clip-rule="evenodd" d="M2.02588 15.75C2.09201 17.7712 2.32819 18.9849 3.17174 19.8284C3.47615 20.1328 3.82878 20.3582 4.25016 20.5249V22C4.25016 22.4142 4.58595 22.75 5.00016 22.75C5.41438 22.75 5.75016 22.4142 5.75016 22V20.8713C6.82005 21 8.1938 21 10.0002 21H12.0005H14.0002C15.8065 21 17.1803 21 18.2502 20.8713V22C18.2502 22.4142 18.5859 22.75 19.0002 22.75C19.4144 22.75 19.7502 22.4142 19.7502 22V20.5249C20.1715 20.3582 20.5242 20.1328 20.8286 19.8284C21.6368 19.0203 21.8874 17.8723 21.9652 16L21.9744 15.75C21.9763 15.358 22.0002 13.4419 22.0002 13V10C22.0002 6.22876 22.0002 4.34315 20.8286 3.17157C19.657 2 17.7714 2 14.0002 2H12.7502V15.75H12.0005H2.02588ZM6.25016 18C6.25016 17.5858 6.58595 17.25 7.00016 17.25H9.00016C9.41438 17.25 9.75016 17.5858 9.75016 18C9.75016 18.4142 9.41438 18.75 9.00016 18.75H7.00016C6.58595 18.75 6.25016 18.4142 6.25016 18ZM15.0002 17.25C14.586 17.25 14.2502 17.5858 14.2502 18C14.2502 18.4142 14.586 18.75 15.0002 18.75H17.0002C17.4144 18.75 17.7502 18.4142 17.7502 18C17.7502 17.5858 17.4144 17.25 17.0002 17.25H15.0002ZM15.0002 7.25C15.4144 7.25 15.7502 7.58579 15.7502 8V10C15.7502 10.4142 15.4144 10.75 15.0002 10.75C14.586 10.75 14.2502 10.4142 14.2502 10V8C14.2502 7.58579 14.586 7.25 15.0002 7.25Z" fill="black"/>
<g opacity="0.5">
<path d="M10 2H11.25V7.25H2.02572C2.09185 5.22882 2.32803 4.01511 3.17157 3.17157C4.34315 2 6.22876 2 10 2Z" fill="black"/>
<path d="M2.00189 8.75C2 9.14203 2 9.55807 2 10V13C2 13.4419 2.02351 15.358 2.02539 15.75H11.25V8.75H2.00189Z" fill="black"/>
</g>
</svg>
