<svg width="24" height="24" viewBox="0 0 24 24" fill="none" xmlns="http://www.w3.org/2000/svg">
<path opacity="0.5" d="M16.4413 19.4275L15.441 20.5452L15.9998 21.0454C16.6628 21.6388 17.54 22.0004 18.5 22.0004C20.5711 22.0004 22.25 20.3215 22.25 18.2504C22.25 17.2905 21.8883 16.4132 21.295 15.7503L20.7948 15.1914L19.6771 16.1918L16.4413 19.4275Z" fill="black"/>
<path opacity="0.5" d="M7.55818 19.4275L8.55855 20.5452L7.9997 21.0454C7.33675 21.6388 6.45947 22.0004 5.49951 22.0004C3.42844 22.0004 1.74951 20.3215 1.74951 18.2504C1.74951 17.2905 2.1112 16.4132 2.70455 15.7503L3.20474 15.1914L4.32244 16.1918L7.55818 19.4275Z" fill="black"/>
<path d="M12 1.75C17.5228 1.75 22 6.22715 22 11.75C22 17.2728 17.5228 21.75 12 21.75C6.47715 21.75 2 17.2728 2 11.75C2 6.22715 6.47715 1.75 12 1.75ZM12 15C11.5858 15 11.25 15.3358 11.25 15.75V17.75C11.25 18.1642 11.5858 18.5 12 18.5C12.4142 18.5 12.75 18.1642 12.75 17.75V15.75C12.75 15.3358 12.4142 15 12 15ZM12 5C9.92893 5 8.25 6.67893 8.25 8.75C8.25 10.8211 9.92893 12.5 12 12.5C14.0711 12.5 15.75 10.8211 15.75 8.75C15.75 6.67893 14.0711 5 12 5ZM12 6.5C13.2426 6.5 14.25 7.50736 14.25 8.75C14.25 9.99264 13.2426 11 12 11C10.7574 11 9.75 9.99264 9.75 8.75C9.75 7.50736 10.7574 6.5 12 6.5Z" fill="black"/>
</svg>
