<svg width="24" height="24" viewBox="0 0 24 24" fill="none" xmlns="http://www.w3.org/2000/svg">
<circle cx="12" cy="13" r="3" stroke="black" stroke-width="1.5"/>
<path d="M3.00001 12.9999C3.00001 10.191 2.99986 8.78673 3.67398 7.77783C3.96581 7.34107 4.34082 6.96607 4.77758 6.67423C5.78647 6.00011 7.19093 6.00011 9.99986 6.00011H13.9999C16.8088 6.00011 18.2132 6.00011 19.2221 6.67423C19.6589 6.96607 20.0339 7.34107 20.3257 7.77783C20.9999 8.78673 21 10.191 21 12.9999C21 15.8088 21 17.2133 20.3259 18.2222C20.0341 18.6589 19.659 19.0339 19.2223 19.3258C18.2134 19.9999 16.8089 19.9999 14 19.9999H10C7.19108 19.9999 5.78662 19.9999 4.77773 19.3258C4.34097 19.0339 3.96596 18.6589 3.67413 18.2222C3.4423 17.8752 3.29019 17.4815 3.1904 16.9999" stroke="black" stroke-width="1.5" stroke-linecap="round"/>
<path d="M18 10H17.5" stroke="black" stroke-width="1.5" stroke-linecap="round"/>
<path d="M14.5 3.5H9.5" stroke="black" stroke-width="1.5" stroke-linecap="round"/>
</svg>
