<svg width="24" height="24" viewBox="0 0 24 24" fill="none" xmlns="http://www.w3.org/2000/svg">
<path d="M1.95857 8.57776C2.24476 8.04661 2.79233 7.5314 3.33991 7.27805C3.93924 7.00076 4.6262 7.00076 6.00011 7.00076C6.51218 7.00076 6.76822 7.00076 7.01623 6.95888C7.26141 6.91748 7.50049 6.84576 7.72798 6.74536C7.95809 6.6438 8.17184 6.50287 8.59935 6.22099L8.81828 6.07664C11.3613 4.39995 12.6327 3.56161 13.7001 3.92585C13.9047 3.99568 14.1028 4.09648 14.2797 4.22081C15.2024 4.86927 15.2725 6.37797 15.4128 9.39538C15.4647 10.5126 15.5 11.4689 15.5 12.0008C15.5 12.5326 15.4647 13.4889 15.4128 14.6062C15.2725 17.6236 15.2024 19.1323 14.2797 19.7807C14.1028 19.905 13.9047 20.0058 13.7001 20.0757C12.6327 20.4399 11.3613 19.6016 8.81828 17.9249L8.59935 17.7805C8.17184 17.4987 7.95809 17.3577 7.72798 17.2562C7.50049 17.1558 7.26141 17.084 7.01623 17.0426C6.76822 17.0008 6.51218 17.0008 6.00011 17.0008C4.6262 17.0008 3.93924 17.0008 3.33991 16.7235C2.79233 16.4701 2.24476 15.9549 1.95857 15.4238C1.64534 14.8424 1.6085 14.238 1.53482 13.0292C1.5239 12.85 1.51519 12.6732 1.50922 12.5008" stroke="black" stroke-width="1.5" stroke-linecap="round"/>
<path d="M22 10L18 14M18 10L22 14" stroke="black" stroke-width="1.5" stroke-linecap="round"/>
</svg>
