<svg width="24" height="24" viewBox="0 0 24 24" fill="none" xmlns="http://www.w3.org/2000/svg">
<path d="M9 10C9 8.34315 10.3431 7 12 7C13.6569 7 15 8.34315 15 10V13C15 14.6569 13.6569 16 12 16C10.3431 16 9 14.6569 9 13V10Z" stroke="black" stroke-width="1.5"/>
<path d="M13 10L15 10" stroke="black" stroke-width="1.5" stroke-linecap="round"/>
<path d="M13 13L15 13" stroke="black" stroke-width="1.5" stroke-linecap="round"/>
<path d="M9 10L10 10" stroke="black" stroke-width="1.5" stroke-linecap="round"/>
<path d="M9 13L10 13" stroke="black" stroke-width="1.5" stroke-linecap="round"/>
<path d="M16.9514 8.24993C17.0895 8.64047 17.518 8.84516 17.9085 8.70713C18.2991 8.5691 18.5037 8.1406 18.3657 7.75007L16.9514 8.24993ZM6.00002 14.1538H6.75002V9.99998H6.00002H5.25002V14.1538H6.00002ZM6.00002 14.1538H5.25002C5.25002 14.7592 4.75926 15.25 4.15387 15.25V16V16.75C5.58769 16.75 6.75002 15.5877 6.75002 14.1538H6.00002ZM18 14.1538H17.25C17.25 15.5877 18.4123 16.75 19.8461 16.75V16V15.25C19.2408 15.25 18.75 14.7592 18.75 14.1538H18ZM12 4V3.25C8.27209 3.25 5.25002 6.27207 5.25002 9.99998H6.00002H6.75002C6.75002 7.1005 9.10052 4.75 12 4.75V4ZM12 4V4.75C14.2847 4.75 16.2304 6.20984 16.9514 8.24993L17.6586 8L18.3657 7.75007C17.4394 5.1294 14.9402 3.25 12 3.25V4Z" fill="black"/>
<path d="M2 12C2 10.8954 2.89543 10 4 10C5.10457 10 6 10.8954 6 12V14C6 15.1046 5.10457 16 4 16C2.89543 16 2 15.1046 2 14V12Z" stroke="black" stroke-width="1.5"/>
<path d="M18 12C18 10.8954 18.8954 10 20 10C21.1046 10 22 10.8954 22 12V14C22 15.1046 21.1046 16 20 16C18.8954 16 18 15.1046 18 14V12Z" stroke="black" stroke-width="1.5"/>
<path d="M12 16V19" stroke="black" stroke-width="1.5" stroke-linecap="round"/>
</svg>
