<svg width="24" height="24" viewBox="0 0 24 24" fill="none" xmlns="http://www.w3.org/2000/svg">
<path d="M2.75 14.5C2.75 14.0858 2.41421 13.75 2 13.75C1.58579 13.75 1.25 14.0858 1.25 14.5H2.75ZM2.97631 2.87868L3.47803 3.43615L3.47803 3.43615L2.97631 2.87868ZM2.97631 19.1213L3.47803 18.5639L2.97631 19.1213ZM6.25 20C6.25 20.4142 6.58579 20.75 7 20.75C7.41421 20.75 7.75 20.4142 7.75 20H6.25ZM7.75 2C7.75 1.58579 7.41422 1.25 7 1.25C6.58579 1.25 6.25 1.58579 6.25 2H7.75ZM7 7V7.75V7ZM2 6.25C1.58579 6.25 1.25 6.58579 1.25 7C1.25 7.41421 1.58579 7.75 2 7.75V6.25ZM12 20V20.75H12.75V20H12ZM2 15.25C1.58579 15.25 1.25 15.5858 1.25 16C1.25 16.4142 1.58579 16.75 2 16.75V15.25ZM22.75 14.5C22.75 14.0858 22.4142 13.75 22 13.75C21.5858 13.75 21.25 14.0858 21.25 14.5H22.75ZM21.25 10.5C21.25 10.9142 21.5858 11.25 22 11.25C22.4142 11.25 22.75 10.9142 22.75 10.5H21.25ZM21.0237 4.87868L20.522 5.43615L21.0237 4.87868ZM21.0237 21.1213L20.522 20.5639L21.0237 21.1213ZM16.25 22C16.25 22.4142 16.5858 22.75 17 22.75C17.4142 22.75 17.75 22.4142 17.75 22H16.25ZM17.75 4C17.75 3.58579 17.4142 3.25 17 3.25C16.5858 3.25 16.25 3.58579 16.25 4H17.75ZM17 9V9.75V9ZM12 4V3.25H11.25V4L12 4ZM22 9.75C22.4142 9.75 22.75 9.41421 22.75 9C22.75 8.58579 22.4142 8.25 22 8.25V9.75ZM22 18.75C22.4142 18.75 22.75 18.4142 22.75 18C22.75 17.5858 22.4142 17.25 22 17.25V18.75ZM12 3L12.75 3V3L12 3ZM1.25 10.5C1.25 10.9142 1.58579 11.25 2 11.25C2.41421 11.25 2.75 10.9142 2.75 10.5H1.25ZM2 8H2.75C2.75 7.64443 2.75 7.31409 2.75192 7.00464L2.00193 7L1.25195 6.99536C1.25 7.31032 1.25 7.6455 1.25 8H2ZM2.00193 7L2.75192 7.00464C2.75868 5.91065 2.79037 5.14239 2.90886 4.56183C3.02163 4.00928 3.20202 3.68456 3.47803 3.43615L2.97631 2.87868L2.47459 2.32121C1.89684 2.84118 1.59677 3.48961 1.43915 4.26187C1.28726 5.00611 1.25863 5.91433 1.25195 6.99536L2.00193 7ZM8.66667 2V1.25C8.05506 1.25 7.4967 1.24999 6.99024 1.25658L7 2.00652L7.00977 2.75645C7.50454 2.75001 8.05246 2.75 8.66667 2.75V2ZM7 2.00652L6.99024 1.25658C5.95477 1.27006 5.08619 1.31098 4.36486 1.45123C3.62845 1.59441 2.99885 1.84937 2.47459 2.32121L2.97631 2.87868L3.47803 3.43615C3.73967 3.20068 4.08877 3.033 4.65115 2.92366C5.22862 2.81138 5.97893 2.76988 7.00977 2.75645L7 2.00652ZM8.66667 20V19.25C8.05246 19.25 7.50453 19.25 7.00976 19.2435L7 19.9935L6.99024 20.7434C7.4967 20.75 8.05506 20.75 8.66667 20.75V20ZM7 19.9935L7.00977 19.2435C5.97893 19.2301 5.22862 19.1886 4.65115 19.0763C4.08877 18.967 3.73967 18.7993 3.47803 18.5639L2.97631 19.1213L2.47459 19.6788C2.99885 20.1506 3.62845 20.4056 4.36486 20.5488C5.08619 20.689 5.95476 20.7299 6.99024 20.7434L7 19.9935ZM2 14.5H1.25C1.25 15.2665 1.24999 15.4374 1.26967 16.0251L2.01925 16L2.76883 15.9749C2.75001 15.4126 2.75 15.2617 2.75 14.5H2ZM2.01925 16L1.26967 16.0251C1.32166 17.5781 1.50653 18.8075 2.47459 19.6788L2.97631 19.1213L3.47803 18.5639C3.02098 18.1525 2.82085 17.5288 2.76883 15.9749L2.01925 16ZM7 16H6.25L6.25 19.9935H7H7.75L7.75 16H7ZM7 19.9935H6.25V20H7H7.75V19.9935H7ZM7 2H6.25V2.00652H7H7.75V2H7ZM7 2.00652H6.25V7H7H7.75V2.00652H7ZM12 3L11.25 3L11.25 7L12 7L12.75 7L12.75 3L12 3ZM12 7V6.25L7 6.25V7V7.75L12 7.75V7ZM7 7V6.25L2.00193 6.25L2.00193 7L2.00193 7.75L7 7.75V7ZM2.00193 7V6.25H2V7V7.75H2.00193V7ZM12 7H11.25V16H12H12.75V7H12ZM12 16H11.25V20H12H12.75V16H12ZM12 16V15.25L7 15.25V16V16.75L12 16.75V16ZM7 16V15.25L2.01925 15.25L2.01925 16L2.01925 16.75L7 16.75V16ZM2.01925 16V15.25H2V16V16.75H2.01925V16ZM12 20V19.25H8.66667V20V20.75H12V20ZM8.66667 2V2.75H11V2V1.25H8.66667V2ZM22 10.5H22.75C22.75 10.1465 22.75 9.31055 22.7481 8.99536L21.9981 9L21.2481 9.00464C21.25 9.31387 21.25 10.1434 21.25 10.5H22ZM21.9981 9L22.7481 8.99536C22.7414 7.91433 22.7127 7.00611 22.5608 6.26187C22.4032 5.48961 22.1032 4.84118 21.5254 4.32121L21.0237 4.87868L20.522 5.43615C20.798 5.68456 20.9784 6.00928 21.0911 6.56183C21.2096 7.14239 21.2413 7.91065 21.2481 9.00464L21.9981 9ZM15.3333 4V4.75C15.9475 4.75 16.4955 4.75001 16.9902 4.75645L17 4.00652L17.0098 3.25658C16.5033 3.24999 15.9449 3.25 15.3333 3.25V4ZM17 4.00652L16.9902 4.75645C18.0211 4.76988 18.7714 4.81138 19.3489 4.92366C19.9112 5.033 20.2603 5.20068 20.522 5.43615L21.0237 4.87868L21.5254 4.32121C21.0011 3.84937 20.3716 3.59441 19.6351 3.45123C18.9138 3.31098 18.0452 3.27006 17.0098 3.25658L17 4.00652ZM15.3333 22V22.75C15.9449 22.75 16.5033 22.75 17.0098 22.7434L17 21.9935L16.9902 21.2435C16.4955 21.25 15.9475 21.25 15.3333 21.25V22ZM17 21.9935L17.0098 22.7434C18.0452 22.7299 18.9138 22.689 19.6351 22.5488C20.3716 22.4056 21.0011 22.1506 21.5254 21.6788L21.0237 21.1213L20.522 20.5639C20.2603 20.7993 19.9112 20.967 19.3489 21.0763C18.7714 21.1886 18.0211 21.2301 16.9902 21.2435L17 21.9935ZM22 14.5H21.25C21.25 15.2744 21.2499 17.4163 21.2312 17.9749L21.9808 18L22.7303 18.0251C22.7501 17.4337 22.75 15.2538 22.75 14.5H22ZM21.9808 18L21.2312 17.9749C21.1792 19.5288 20.979 20.1525 20.522 20.5639L21.0237 21.1213L21.5254 21.6788C22.4935 20.8075 22.6783 19.5781 22.7303 18.0251L21.9808 18ZM17 18H16.25L16.25 21.9935H17H17.75L17.75 18H17ZM17 21.9935H16.25V22H17H17.75V21.9935H17ZM17 4H16.25V4.00652H17H17.75V4H17ZM17 4.00652H16.25V9H17H17.75V4.00652H17ZM12 4L11.25 4L11.25 9H12H12.75L12.75 4L12 4ZM12 9V9.75L17 9.75V9V8.25L12 8.25V9ZM17 9V9.75L21.9981 9.75V9V8.25L17 8.25V9ZM21.9981 9V9.75H22V9V8.25H21.9981V9ZM12 9H11.25V18H12H12.75V9H12ZM12 18H11.25V21H12H12.75V18H12ZM12 18V18.75H17V18V17.25H12V18ZM17 18V18.75H21.9808V18V17.25H17V18ZM21.9808 18V18.75H22V18V17.25H21.9808V18ZM13 22V22.75H15.3333V22V21.25H13V22ZM15.3333 4V3.25H12V4V4.75H15.3333V4ZM12 21H11.25C11.25 21.9665 12.0335 22.75 13 22.75V22V21.25C12.8619 21.25 12.75 21.1381 12.75 21H12ZM12 3L12.75 3C12.75 2.0335 11.9665 1.25 11 1.25V2V2.75C11.1381 2.75 11.25 2.86193 11.25 3L12 3ZM2 10.5H2.75V8H2H1.25V10.5H2Z" fill="black"/>
</svg>
