<svg width="24" height="24" viewBox="0 0 24 24" fill="none" xmlns="http://www.w3.org/2000/svg">
<path d="M15.5 12.0008C15.5 12.5326 15.4646 13.4889 15.4127 14.6062C15.2725 17.6236 15.2024 19.1323 14.2797 19.7807C14.1028 19.905 13.9047 20.0058 13.7 20.0757C12.7326 20.4058 11.5975 19.748 9.49997 18.3735M7.01617 17.0426C6.76816 17.0008 6.51212 17.0008 6.00005 17.0008C4.62614 17.0008 3.93918 17.0008 3.33985 16.7235C2.79227 16.4701 2.2447 15.9549 1.95851 15.4238C1.64528 14.8424 1.60844 14.238 1.53476 13.0292C1.52384 12.85 1.51513 12.6732 1.50916 12.5007M1.95851 8.57776C2.2447 8.04661 2.79227 7.5314 3.33985 7.27805C3.93918 7.00076 4.62614 7.00076 6.00005 7.00076C6.51212 7.00076 6.76816 7.00076 7.01617 6.95888C7.26135 6.91748 7.50043 6.84576 7.72792 6.74536C7.95803 6.6438 8.17178 6.50287 8.59929 6.22099L8.81822 6.07664C11.3612 4.39995 12.6327 3.56161 13.7 3.92585C13.9047 3.99568 14.1028 4.09648 14.2797 4.22081C15.1149 4.80783 15.2515 6.09979 15.3739 8.57776" stroke="black" stroke-width="1.5" stroke-linecap="round"/>
<path d="M20 18C20 18 21.5 16.2 21.5 12C21.5 9.56658 20.9965 7.93882 20.5729 7" stroke="black" stroke-width="1.5" stroke-linecap="round"/>
<path d="M18 15C18 15 18.5 14.1 18.5 12C18.5 11.1381 18.4158 10.4784 18.3165 10" stroke="black" stroke-width="1.5" stroke-linecap="round"/>
<path d="M22 2L2 22" stroke="black" stroke-width="1.5" stroke-linecap="round"/>
</svg>
