<svg width="24" height="24" viewBox="0 0 24 24" fill="none" xmlns="http://www.w3.org/2000/svg">
<path d="M5.95851 8.57776C6.2447 8.04661 6.79227 7.5314 7.33985 7.27805C7.93918 7.00076 8.62614 7.00076 10.0001 7.00076C10.5121 7.00076 10.7682 7.00076 11.0162 6.95888C11.2614 6.91748 11.5004 6.84576 11.7279 6.74536C11.958 6.6438 12.1718 6.50287 12.5993 6.22099L12.8182 6.07664C15.3612 4.39995 16.6327 3.56161 17.7 3.92585C17.9047 3.99568 18.1028 4.09648 18.2797 4.22081C19.2024 4.86927 19.2725 6.37797 19.4127 9.39538C19.4646 10.5126 19.5 11.4689 19.5 12.0008C19.5 12.5326 19.4646 13.4889 19.4127 14.6062C19.2725 17.6236 19.2024 19.1323 18.2797 19.7807C18.1028 19.905 17.9047 20.0058 17.7 20.0757C16.6327 20.4399 15.3612 19.6016 12.8182 17.9249L12.5993 17.7805C12.1718 17.4987 11.958 17.3577 11.7279 17.2562C11.5004 17.1558 11.2614 17.084 11.0162 17.0426C10.7682 17.0008 10.5121 17.0008 10.0001 17.0008C8.62614 17.0008 7.93918 17.0008 7.33985 16.7235C6.79227 16.4701 6.2447 15.9549 5.95851 15.4238C5.64528 14.8424 5.60844 14.238 5.53476 13.0292C5.52384 12.85 5.51513 12.6732 5.50916 12.5008" stroke="black" stroke-width="1.5" stroke-linecap="round"/>
</svg>
