<svg width="24" height="24" viewBox="0 0 24 24" fill="none" xmlns="http://www.w3.org/2000/svg">
<path d="M17.5433 21.6939L17.1131 21.4392L17.113 21.4392L17.5433 21.6939ZM17.8144 21.236L18.2447 21.4906L18.2447 21.4906L17.8144 21.236ZM16.1856 21.236L15.7553 21.4906L15.7553 21.4906L16.1856 21.236ZM16.4567 21.6939L16.8869 21.4392L16.8869 21.4392L16.4567 21.6939ZM12.1903 18.9567L12.6522 18.7654H12.6522L12.1903 18.9567ZM14.8948 20.4958L14.8862 20.9957L14.8948 20.4958ZM13.5433 20.3097L13.3519 20.7717L13.3519 20.7717L13.5433 20.3097ZM21.8097 18.9567L22.2716 19.1481V19.1481L21.8097 18.9567ZM19.1052 20.4958L19.0966 19.9958L19.1052 20.4958ZM20.4567 20.3097L20.6481 20.7717L20.6481 20.7717L20.4567 20.3097ZM20.8062 12.3684L20.545 12.7947L20.8062 12.3684ZM21.6316 13.1938L22.0579 12.9325L22.0579 12.9325L21.6316 13.1938ZM13.1938 12.3684L12.9325 11.9421L13.1938 12.3684ZM12.3684 13.1938L11.9421 12.9325L12.3684 13.1938ZM15.7014 20.605L15.9528 20.1727L15.9528 20.1727L15.7014 20.605ZM17.5433 21.6939L17.9736 21.9486L18.2447 21.4906L17.8144 21.236L17.3841 20.9813L17.1131 21.4392L17.5433 21.6939ZM16.1856 21.236L15.7553 21.4906L16.0264 21.9486L16.4567 21.6939L16.8869 21.4392L16.6159 20.9813L16.1856 21.236ZM17.5433 21.6939L17.113 21.4392C17.0908 21.4767 17.0521 21.5 17 21.5C16.9479 21.5 16.9091 21.4767 16.8869 21.4392L16.4567 21.6939L16.0264 21.9486C16.4616 22.6838 17.5384 22.6838 17.9736 21.9486L17.5433 21.6939ZM16.25 12V12.5H17.75V12V11.5H16.25V12ZM22 16.25H21.5V16.75H22H22.5V16.25H22ZM12 16.75H12.5V16.25H12H11.5V16.75H12ZM12 16.75H11.5C11.5 17.3256 11.4997 17.7823 11.5249 18.152C11.5505 18.5261 11.6038 18.8473 11.7284 19.1481L12.1903 18.9567L12.6522 18.7654C12.5865 18.6068 12.5447 18.4071 12.5226 18.0839C12.5003 17.7562 12.5 17.3393 12.5 16.75H12ZM14.8948 20.4958L14.9034 19.9958C14.2757 19.985 13.9683 19.9446 13.7346 19.8478L13.5433 20.3097L13.3519 20.7717C13.7785 20.9484 14.2585 20.9849 14.8862 20.9957L14.8948 20.4958ZM12.1903 18.9567L11.7284 19.1481C12.0328 19.8832 12.6169 20.4672 13.3519 20.7717L13.5433 20.3097L13.7346 19.8478C13.2446 19.6448 12.8552 19.2555 12.6522 18.7654L12.1903 18.9567ZM22 16.75H21.5C21.5 17.3393 21.4997 17.7562 21.4774 18.0839C21.4553 18.4071 21.4135 18.6068 21.3478 18.7654L21.8097 18.9567L22.2716 19.1481C22.3962 18.8473 22.4495 18.5261 22.4751 18.152C22.5003 17.7823 22.5 17.3256 22.5 16.75H22ZM19.1052 20.4958L19.1138 20.9957C19.7414 20.9849 20.2215 20.9484 20.6481 20.7717L20.4567 20.3097L20.2654 19.8478C20.0317 19.9446 19.7243 19.985 19.0966 19.9958L19.1052 20.4958ZM21.8097 18.9567L21.3478 18.7654C21.1448 19.2555 20.7554 19.6448 20.2654 19.8478L20.4567 20.3097L20.6481 20.7717C21.3831 20.4672 21.9672 19.8832 22.2716 19.1481L21.8097 18.9567ZM17.75 12V12.5C18.578 12.5 19.164 12.5005 19.6191 12.5438C20.0669 12.5864 20.3362 12.6668 20.545 12.7947L20.8062 12.3684L21.0675 11.9421C20.6751 11.7016 20.2347 11.5978 19.7138 11.5483C19.2003 11.4995 18.5587 11.5 17.75 11.5V12ZM22 16.25H22.5C22.5 15.4413 22.5005 14.7997 22.4517 14.2862C22.4022 13.7653 22.2984 13.3249 22.0579 12.9325L21.6316 13.1938L21.2053 13.455C21.3332 13.6638 21.4136 13.9332 21.4562 14.3809C21.4995 14.8361 21.5 15.422 21.5 16.25H22ZM20.8062 12.3684L20.545 12.7947C20.8141 12.9596 21.0404 13.1859 21.2053 13.455L21.6316 13.1938L22.0579 12.9325C21.8106 12.5288 21.4712 12.1895 21.0675 11.9421L20.8062 12.3684ZM16.25 12V11.5C15.4413 11.5 14.7997 11.4995 14.2862 11.5483C13.7653 11.5978 13.3249 11.7016 12.9325 11.9421L13.1938 12.3684L13.455 12.7947C13.6638 12.6668 13.9331 12.5864 14.3809 12.5438C14.836 12.5005 15.422 12.5 16.25 12.5V12ZM12 16.25H12.5C12.5 15.422 12.5005 14.8361 12.5438 14.3809C12.5864 13.9332 12.6668 13.6638 12.7947 13.455L12.3684 13.1938L11.9421 12.9325C11.7016 13.3249 11.5978 13.7653 11.5483 14.2862C11.4995 14.7997 11.5 15.4413 11.5 16.25H12ZM13.1938 12.3684L12.9325 11.9421C12.5288 12.1894 12.1894 12.5288 11.9421 12.9325L12.3684 13.1938L12.7947 13.455C12.9596 13.1859 13.1859 12.9596 13.455 12.7947L13.1938 12.3684ZM16.1856 21.236L16.6159 20.9813C16.5156 20.8118 16.423 20.6544 16.332 20.5296C16.2349 20.3963 16.1182 20.2689 15.9528 20.1727L15.7014 20.605L15.45 21.0372C15.4535 21.0392 15.4737 21.0497 15.5239 21.1186C15.5803 21.1959 15.6454 21.3049 15.7553 21.4906L16.1856 21.236ZM14.8948 20.4958L14.8862 20.9957C15.108 20.9995 15.2403 21.0023 15.3392 21.0132C15.4288 21.0232 15.4482 21.0361 15.45 21.0372L15.7014 20.605L15.9528 20.1727C15.7857 20.0756 15.6144 20.0376 15.4492 20.0193C15.2933 20.0021 15.1067 19.9993 14.9034 19.9958L14.8948 20.4958ZM17.8144 21.236L18.2447 21.4906C18.3546 21.3049 18.4197 21.1959 18.4761 21.1186C18.5263 21.0497 18.5465 21.0392 18.55 21.0372L18.2986 20.605L18.0472 20.1727C17.8818 20.2689 17.7651 20.3963 17.6679 20.5296C17.577 20.6544 17.4844 20.8118 17.3841 20.9813L17.8144 21.236ZM19.1052 20.4958L19.0966 19.9958C18.8933 19.9993 18.7067 20.0021 18.5507 20.0193C18.3855 20.0376 18.2142 20.0756 18.0472 20.1727L18.2986 20.605L18.55 21.0372C18.5518 21.0361 18.5712 21.0232 18.6608 21.0132C18.7597 21.0023 18.8919 20.9995 19.1138 20.9957L19.1052 20.4958Z" fill="black"/>
<path d="M10 3L5 21" stroke="black" stroke-linecap="round" stroke-linejoin="round"/>
<path d="M18.9999 3L17.1943 9.5" stroke="black" stroke-linecap="round" stroke-linejoin="round"/>
<path d="M22 9H4" stroke="black" stroke-linecap="round" stroke-linejoin="round"/>
<path d="M2 16H9" stroke="black" stroke-linecap="round" stroke-linejoin="round"/>
</svg>
