<svg width="24" height="24" viewBox="0 0 24 24" fill="none" xmlns="http://www.w3.org/2000/svg">
<path d="M14 4C14 5.10457 13.1046 6 12 6C10.8954 6 10 5.10457 10 4C10 2.89543 10.8954 2 12 2C13.1046 2 14 2.89543 14 4Z" stroke="black" stroke-width="1.5"/>
<path d="M6.04779 10.85L6.28497 10.1385H6.28497L6.04779 10.85ZM8.22309 11.5751L7.98592 12.2866H7.98592L8.22309 11.5751ZM9.01682 13.257L8.31681 12.9877H8.31681L9.01682 13.257ZM7.77003 16.4986L8.47004 16.7679H8.47004L7.77003 16.4986ZM17.9522 10.85L17.715 10.1385H17.715L17.9522 10.85ZM15.7769 11.5751L16.0141 12.2866H16.0141L15.7769 11.5751ZM14.9832 13.257L15.6832 12.9877L14.9832 13.257ZM16.23 16.4986L15.53 16.7679L16.23 16.4986ZM10.4242 17.7584L11.0754 18.1305L10.4242 17.7584ZM12 15.0007L12.6512 14.6286C12.5177 14.3949 12.2691 14.2507 12 14.2507C11.7309 14.2507 11.4823 14.3949 11.3488 14.6286L12 15.0007ZM17.1465 7.89788L16.9894 7.16453L17.1465 7.89788ZM15.249 8.3045L15.4061 9.03785V9.03785L15.249 8.3045ZM8.75102 8.3045L8.90817 7.57115V7.57115L8.75102 8.3045ZM6.85345 7.89788L6.69631 8.63123L6.85345 7.89788ZM13.5758 17.7584L12.9246 18.1305V18.1305L13.5758 17.7584ZM15.0384 8.34924L14.8865 7.61479L14.8865 7.61479L15.0384 8.34924ZM8.96161 8.34924L8.80969 9.08369L8.80969 9.08369L8.96161 8.34924ZM15.2837 11.7675L15.6777 12.4057L15.2837 11.7675ZM14.8182 12.7539L15.5613 12.6523V12.6523L14.8182 12.7539ZM8.71625 11.7675L8.3223 12.4057H8.3223L8.71625 11.7675ZM9.18177 12.7539L9.92485 12.8556V12.8556L9.18177 12.7539ZM10.3454 9.32304C10.7573 9.36655 11.1265 9.0679 11.17 8.65598C11.2135 8.24406 10.9149 7.87485 10.503 7.83134L10.3454 9.32304ZM13.497 7.83134C13.0851 7.87485 12.7865 8.24406 12.83 8.65598C12.8735 9.0679 13.2427 9.36655 13.6546 9.32304L13.497 7.83134ZM6.04779 10.85L5.81062 11.5615L7.98592 12.2866L8.22309 11.5751L8.46026 10.8636L6.28497 10.1385L6.04779 10.85ZM9.01682 13.257L8.31681 12.9877L7.07002 16.2294L7.77003 16.4986L8.47004 16.7679L9.71683 13.5262L9.01682 13.257ZM17.9522 10.85L17.715 10.1385L15.5397 10.8636L15.7769 11.5751L16.0141 12.2866L18.1894 11.5615L17.9522 10.85ZM14.9832 13.257L14.2832 13.5262L15.53 16.7679L16.23 16.4986L16.93 16.2294L15.6832 12.9877L14.9832 13.257ZM10.4242 17.7584L11.0754 18.1305L12.6512 15.3728L12 15.0007L11.3488 14.6286L9.77299 17.3863L10.4242 17.7584ZM17.1465 7.89788L16.9894 7.16453L15.0918 7.57115L15.249 8.3045L15.4061 9.03785L17.3037 8.63123L17.1465 7.89788ZM8.75102 8.3045L8.90817 7.57115L7.0106 7.16453L6.85345 7.89788L6.69631 8.63123L8.59387 9.03786L8.75102 8.3045ZM12 15.0007L11.3488 15.3728L12.9246 18.1305L13.5758 17.7584L14.227 17.3863L12.6512 14.6286L12 15.0007ZM15.249 8.3045L15.0918 7.57115C14.9853 7.59397 14.9356 7.60463 14.8865 7.61479L15.0384 8.34924L15.1903 9.08369C15.2458 9.07221 15.3016 9.06025 15.4061 9.03785L15.249 8.3045ZM8.75102 8.3045L8.59387 9.03786C8.6984 9.06025 8.75416 9.07221 8.80969 9.08369L8.96161 8.34924L9.11353 7.61479C9.06443 7.60463 9.01468 7.59398 8.90817 7.57115L8.75102 8.3045ZM9.14506 18.5007V19.2507C9.94287 19.2507 10.6795 18.8232 11.0754 18.1305L10.4242 17.7584L9.77299 17.3863C9.64422 17.6116 9.40459 17.7507 9.14506 17.7507V18.5007ZM16.23 16.4986L15.53 16.7679C15.7122 17.2416 15.3625 17.7507 14.8549 17.7507V18.5007V19.2507C16.4152 19.2507 17.4901 17.6856 16.93 16.2294L16.23 16.4986ZM15.7769 11.5751L15.5397 10.8636C15.3178 10.9375 15.0816 11.0109 14.8898 11.1293L15.2837 11.7675L15.6777 12.4057C15.6688 12.4112 15.6763 12.4047 15.7342 12.3828C15.795 12.3598 15.877 12.3323 16.0141 12.2866L15.7769 11.5751ZM14.9832 13.257L15.6832 12.9877C15.6313 12.8529 15.6004 12.7721 15.5795 12.7105C15.5596 12.6519 15.5599 12.642 15.5613 12.6523L14.8182 12.7539L14.0751 12.8556C14.1057 13.0789 14.1992 13.3079 14.2832 13.5262L14.9832 13.257ZM15.2837 11.7675L14.8898 11.1293C14.3007 11.493 13.9814 12.1697 14.0751 12.8556L14.8182 12.7539L15.5613 12.6523C15.5479 12.5544 15.5935 12.4577 15.6777 12.4057L15.2837 11.7675ZM19 9.39624H18.25C18.25 9.733 18.0345 10.032 17.715 10.1385L17.9522 10.85L18.1894 11.5615C19.1214 11.2508 19.75 10.3786 19.75 9.39624H19ZM7.77003 16.4986L7.07002 16.2294C6.50994 17.6856 7.58484 19.2507 9.14506 19.2507V18.5007V17.7507C8.63751 17.7507 8.28784 17.2416 8.47004 16.7679L7.77003 16.4986ZM8.22309 11.5751L7.98592 12.2866C8.12301 12.3323 8.20501 12.3598 8.26583 12.3828C8.32371 12.4047 8.33115 12.4112 8.3223 12.4057L8.71625 11.7675L9.1102 11.1293C8.91842 11.0109 8.68219 10.9375 8.46026 10.8636L8.22309 11.5751ZM9.01682 13.257L9.71683 13.5262C9.80081 13.3079 9.89432 13.0789 9.92485 12.8556L9.18177 12.7539L8.43868 12.6523C8.44009 12.642 8.4404 12.6519 8.42051 12.7105C8.3996 12.7721 8.36869 12.8529 8.31681 12.9877L9.01682 13.257ZM8.71625 11.7675L8.3223 12.4057C8.40646 12.4577 8.45208 12.5544 8.43868 12.6523L9.18177 12.7539L9.92485 12.8556C10.0186 12.1697 9.69929 11.493 9.1102 11.1293L8.71625 11.7675ZM5 9.39624H4.25C4.25 10.3786 4.87863 11.2508 5.81062 11.5615L6.04779 10.85L6.28497 10.1385C5.96549 10.032 5.75 9.733 5.75 9.39624H5ZM5 9.39624H5.75C5.75 8.89815 6.20927 8.52687 6.69631 8.63123L6.85345 7.89788L7.0106 7.16453C5.58979 6.86007 4.25 7.94318 4.25 9.39624H5ZM13.5758 17.7584L12.9246 18.1305C13.3205 18.8232 14.0571 19.2507 14.8549 19.2507V18.5007V17.7507C14.5954 17.7507 14.3558 17.6116 14.227 17.3863L13.5758 17.7584ZM19 9.39624H19.75C19.75 7.94318 18.4102 6.86007 16.9894 7.16453L17.1465 7.89788L17.3037 8.63123C17.7907 8.52687 18.25 8.89815 18.25 9.39624H19ZM10.4242 8.57719L10.503 7.83134C10.0374 7.78216 9.57371 7.70998 9.11353 7.61479L8.96161 8.34924L8.80969 9.08369C9.31831 9.1889 9.83084 9.26868 10.3454 9.32304L10.4242 8.57719ZM15.0384 8.34924L14.8865 7.61479C14.4263 7.70998 13.9626 7.78216 13.497 7.83134L13.5758 8.57719L13.6546 9.32304C14.1692 9.26868 14.6817 9.1889 15.1903 9.08369L15.0384 8.34924Z" fill="black"/>
<path d="M19.4537 15C21.0372 15.7961 22 16.8475 22 18C22 18.7484 21.594 19.4541 20.8758 20.0749M4.54631 15C2.96285 15.7961 2 16.8475 2 18C2 20.4853 6.47715 22.5 12 22.5C13.8214 22.5 15.5291 22.2809 17 21.898" stroke="black" stroke-width="1.5" stroke-linecap="round"/>
</svg>
