<svg width="24" height="24" viewBox="0 0 24 24" fill="none" xmlns="http://www.w3.org/2000/svg">
<path d="M9.4118 21.6598C9.94109 21.8016 10.4718 21.8982 11 21.9519C15.7946 22.4396 20.3717 19.3941 21.6593 14.5887C23.0887 9.25406 19.9228 3.77069 14.5882 2.34127C11.9556 1.63587 9.2868 2.04955 7.08685 3.2907M12 12.0005L5.00193 6.33643C4.5728 5.98911 3.93865 6.0528 3.63594 6.51448C3.06673 7.38261 2.62409 8.35486 2.34074 9.41234C1.37317 13.0233 2.51108 16.7025 5.00193 19.1463M7.36914 8.18514C6.51378 9.22212 5.99999 10.5513 5.99999 12.0005C5.99999 15.3142 8.68629 18.0005 12 18.0005C15.3137 18.0005 18 15.3142 18 12.0005C18 11.4827 17.9344 10.9803 17.8111 10.501M10.1028 6.30665C10.6991 6.10807 11.337 6.00053 12 6.00053C13.0928 6.00053 14.1174 6.2927 15 6.8032" stroke="black" stroke-width="1.5" stroke-linecap="round"/>
</svg>
