<svg width="24" height="24" viewBox="0 0 24 24" fill="none" xmlns="http://www.w3.org/2000/svg">
<circle cx="5" cy="5" r="3" stroke="black" stroke-width="1.5"/>
<circle cx="19" cy="19" r="3" stroke="black" stroke-width="1.5"/>
<path d="M11 4.25C10.5858 4.25 10.25 4.58579 10.25 5C10.25 5.41421 10.5858 5.75 11 5.75V4.25ZM13 19L13.5303 19.5303C13.8232 19.2374 13.8232 18.7626 13.5303 18.4697L13 19ZM17.2056 8.68732L17.6083 9.32007L17.2056 8.68732ZM6.79438 15.3127L7.19703 15.9454H7.19703L6.79438 15.3127ZM12.0303 16.9697C11.7374 16.6768 11.2626 16.6768 10.9697 16.9697C10.6768 17.2626 10.6768 17.7374 10.9697 18.0303L12.0303 16.9697ZM10.9697 19.9697C10.6768 20.2626 10.6768 20.7374 10.9697 21.0303C11.2626 21.3232 11.7374 21.3232 12.0303 21.0303L10.9697 19.9697ZM10.4027 13.9055C10.7521 13.6831 10.8552 13.2195 10.6328 12.8701C10.4104 12.5206 9.94683 12.4176 9.59737 12.64L10.4027 13.9055ZM13.2002 10.3473C12.8507 10.5697 12.7477 11.0332 12.9701 11.3827C13.1925 11.7321 13.656 11.8351 14.0055 11.6128L13.2002 10.3473ZM16.1319 5V4.25H11V5V5.75H16.1319V5ZM13 19V18.25H7.86812V19V19.75H13V19ZM13 19L13.5303 18.4697L12.0303 16.9697L11.5 17.5L10.9697 18.0303L12.4697 19.5303L13 19ZM13 19L12.4697 18.4697L10.9697 19.9697L11.5 20.5L12.0303 21.0303L13.5303 19.5303L13 19ZM7.86812 19V18.25C6.61757 18.25 6.14198 16.6168 7.19703 15.9454L6.79438 15.3127L6.39172 14.6799C4.07062 16.157 5.11688 19.75 7.86812 19.75V19ZM16.1319 5V5.75C17.3824 5.75 17.858 7.38318 16.803 8.05458L17.2056 8.68732L17.6083 9.32007C19.9294 7.843 18.8831 4.25 16.1319 4.25V5ZM10 13.2727L9.59737 12.64L6.39172 14.6799L6.79438 15.3127L7.19703 15.9454L10.4027 13.9055L10 13.2727ZM17.2056 8.68732L16.803 8.05458L13.2002 10.3473L13.6028 10.98L14.0055 11.6128L17.6083 9.32007L17.2056 8.68732Z" fill="black"/>
</svg>
