<svg width="24" height="24" viewBox="0 0 24 24" fill="none" xmlns="http://www.w3.org/2000/svg">
<g clip-path="url(#clip0_576_3209)">
<path d="M19.0711 4.92969C22.4044 8.26302 24.0711 9.92969 24.0711 12.0008C24.0711 14.0718 22.4044 15.7385 19.0711 19.0718C15.7377 22.4052 14.0711 24.0718 12 24.0718C9.92892 24.0718 8.26226 22.4052 4.92892 19.0718C1.59559 15.7385 -0.0710754 14.0718 -0.0710754 12.0008C-0.0710754 9.92969 1.59559 8.26302 4.92892 4.92969C8.26226 1.59635 9.92892 -0.0703125 12 -0.0703125C13.3771 -0.0703122 14.5754 0.666532 16.2037 2.14022" stroke="black" stroke-width="1.5" stroke-linecap="round"/>
<path d="M16 11.5L13.3333 9M16 11.5L13.3333 14M16 11.5L10.6667 11.5C9.77778 11.5 8 12 8 14" stroke="black" stroke-width="1.5" stroke-linecap="round" stroke-linejoin="round"/>
</g>
<defs>
<clipPath id="clip0_576_3209">
<rect width="24" height="24" fill="white"/>
</clipPath>
</defs>
</svg>
