<svg width="24" height="24" viewBox="0 0 24 24" fill="none" xmlns="http://www.w3.org/2000/svg">
<path d="M3.62661 16.3991C3.8036 19.054 3.8921 20.3815 4.75711 21.1907C5.62212 22 6.95252 22 9.61332 22H10.3867C13.0475 22 14.3779 22 15.2429 21.1907C16.1079 20.3815 16.1964 19.054 16.3734 16.3991L16.7156 11.2661C16.8489 9.26687 16.9155 8.26726 16.3227 7.63363C15.7299 7 14.7281 7 12.7245 7H7.27555C5.2719 7 4.27008 7 3.67728 7.63363C3.08449 8.26726 3.15113 9.26687 3.28441 11.2661L3.3422 12.133" stroke="black" stroke-width="1.5" stroke-linecap="round"/>
<path d="M17 17H18C20.2091 17 22 15.2091 22 13C22 10.7909 20.2091 9 18 9H17" stroke="black" stroke-width="1.5"/>
<path d="M10 18.75C10.4142 18.75 10.75 18.4142 10.75 18C10.75 17.5858 10.4142 17.25 10 17.25V18.75ZM13.5 17.25C13.0858 17.25 12.75 17.5858 12.75 18C12.75 18.4142 13.0858 18.75 13.5 18.75V17.25ZM10 18V17.25H4V18V18.75H10V18ZM16 18V17.25H13.5V18V18.75H16V18Z" fill="black"/>
<path d="M6.05068 5.0614L6.4613 4.48574C6.68808 4.16781 6.61419 3.72623 6.29626 3.49945C5.97832 3.27267 5.90443 2.8311 6.13121 2.51317L6.54183 1.9375M14.0507 5.0614L14.4613 4.48574C14.6881 4.16781 14.6142 3.72623 14.2963 3.49945C13.9783 3.27267 13.9044 2.8311 14.1312 2.51317L14.5418 1.9375M10.0507 5.0614L10.4613 4.48574C10.6881 4.16781 10.6142 3.72623 10.2963 3.49945C9.97832 3.27267 9.90443 2.8311 10.1312 2.51317L10.5418 1.9375" stroke="black" stroke-width="1.5" stroke-linecap="round"/>
</svg>
