<svg width="24" height="24" viewBox="0 0 24 24" fill="none" xmlns="http://www.w3.org/2000/svg">
<path d="M2.71601 16.1258C2.89684 17.6729 3.72355 19.0714 4.99185 19.9757C5.92633 20.6419 7.0454 21 8.19306 21H11.8069C12.9546 21 14.0737 20.6419 15.0082 19.9757C16.2765 19.0714 17.1032 17.6729 17.284 16.1258L17.6847 12.6978C17.7346 12.2706 17.7596 12.057 17.7491 11.8809C17.694 10.9577 17.0132 10.1928 16.1027 10.0309C15.929 10 15.714 10 15.2839 10H4.71615C4.28603 10 4.07097 10 3.89728 10.0309C2.9868 10.1928 2.30602 10.9577 2.25094 11.8809C2.24043 12.057 2.26539 12.2706 2.31533 12.6978" stroke="black" stroke-width="1.5" stroke-linecap="round"/>
<path d="M17 17H19C20.6569 17 22 15.6569 22 14C22 12.3431 20.6569 11 19 11H17.5" stroke="black" stroke-width="1.5"/>
<path d="M10.0002 2C9.44787 2.55228 9.44787 3.44772 10.0002 4C10.5524 4.55228 10.5524 5.44772 10.0002 6" stroke="black" stroke-width="1.5" stroke-linecap="round" stroke-linejoin="round"/>
<path d="M5 7.5L5.11612 7.38388C5.62328 6.87671 5.68035 6.0738 5.25 5.5C4.81965 4.9262 4.87671 4.12329 5.38388 3.61612L5.5 3.5" stroke="black" stroke-width="1.5" stroke-linecap="round" stroke-linejoin="round"/>
<path d="M14.5 7.5L14.6161 7.38388C15.1233 6.87671 15.1803 6.0738 14.75 5.5C14.3197 4.9262 14.3767 4.12329 14.8839 3.61612L15 3.5" stroke="black" stroke-width="1.5" stroke-linecap="round" stroke-linejoin="round"/>
</svg>
