<svg width="24" height="24" viewBox="0 0 24 24" fill="none" xmlns="http://www.w3.org/2000/svg">
<path d="M3.08289 10.5029C2.27659 11.3728 2 12.6124 2 13.8502C2 15.91 3.78158 17.4148 5.6072 16.897L6.9469 16.517C8.15591 16.1741 9 14.9823 9 13.6182M20.9171 10.5029C21.7234 11.3728 22 12.6124 22 13.8502C22 15.91 20.2184 17.4148 18.3928 16.897L17.0531 16.517C15.8441 16.1741 15 14.9823 15 13.6182" stroke="black" stroke-width="1.5"/>
<path opacity="0.5" d="M3.08301 10.5032C4.44035 9.03888 7.19334 7 12.0001 7C16.8069 7 19.5599 9.03889 20.9172 10.5032" stroke="black" stroke-width="1.5"/>
<path opacity="0.5" d="M9 13.6185C9 13.6185 9 11.9639 12 11.9639C15 11.9639 15 13.6185 15 13.6185" stroke="black" stroke-width="1.5"/>
</svg>
