<svg width="24" height="24" viewBox="0 0 24 24" fill="none" xmlns="http://www.w3.org/2000/svg">
<path d="M14.381 9.02641C14.9767 8.81831 15.6178 8.70508 16.2857 8.70508C16.9404 8.70508 17.5693 8.81388 18.1551 9.01417C20.393 9.77943 22 11.8803 22 14.3521C22 17.4709 19.4416 19.9992 16.2857 19.9992H6.28571C3.91878 19.9992 2 18.103 2 15.7639C2 13.4248 3.91878 11.5286 6.28571 11.5286C6.56983 11.5286 6.8475 11.5559 7.11616 11.6081C7.68059 11.7176 8.20528 11.9366 8.66667 12.2418" stroke="black" stroke-width="1.5" stroke-linecap="round"/>
<path opacity="0.5" d="M7.11622 11.6089C6.88712 10.9978 6.76196 10.3369 6.76196 9.64706C6.76196 6.52827 9.32034 4 12.4762 4C15.4159 4 17.8372 6.19371 18.1551 9.01498" stroke="black" stroke-width="1.5" stroke-linecap="round"/>
</svg>
