<svg width="24" height="24" viewBox="0 0 24 24" fill="none" xmlns="http://www.w3.org/2000/svg">
<path d="M7.49974 17.9997C8.32809 17.9997 8.99961 18.6714 8.99974 19.4997C8.99974 20.328 8.32892 20.9995 7.50072 20.9997C6.67229 20.9997 5.99974 20.3281 5.99974 19.4997C5.99987 18.6716 6.67162 18 7.49974 17.9997ZM16.4997 17.9997C17.3281 17.9997 18.0005 18.6714 18.0007 19.4997C18.0007 20.328 17.3289 20.9995 16.5007 20.9997C15.6723 20.9997 15.0007 20.3281 15.0007 19.4997C15.0009 18.6716 15.6716 18 16.4997 17.9997ZM2.0847 2.7507C2.22228 2.36027 2.65016 2.15537 3.04076 2.29269L3.34252 2.39816C3.95891 2.61484 4.48225 2.79951 4.89427 3.00167C5.33487 3.21787 5.71265 3.48427 5.99681 3.90011C6.2787 4.31269 6.39523 4.76515 6.44896 5.26144C6.473 5.48357 6.48621 5.72948 6.49291 5.99972H17.1306C18.8153 5.99972 20.3319 6.00006 20.7761 6.57687C21.22 7.15392 21.047 8.02358 20.6999 9.76242L20.1999 12.1872C19.8848 13.7161 19.7272 14.4808 19.1755 14.9304C18.6238 15.38 17.843 15.3796 16.282 15.3796H10.9792C8.19054 15.3796 6.79582 15.3802 5.92943 14.4665C5.06306 13.5527 4.99975 12.5816 4.99974 9.64035V7.03781C4.99974 6.29813 4.9989 5.8027 4.95775 5.42257C4.91841 5.05946 4.84876 4.87786 4.75853 4.74582C4.67047 4.61702 4.53623 4.49707 4.23314 4.34835C3.91033 4.18999 3.47183 4.03417 2.80443 3.79953L2.54271 3.70773C2.15216 3.57022 1.94736 3.14135 2.0847 2.7507ZM10.24 8.87472C10.1708 8.46633 9.78314 8.19128 9.37474 8.26046C8.96646 8.32974 8.69131 8.71737 8.76048 9.1257L9.2888 12.2429C9.35799 12.6513 9.74564 12.9263 10.154 12.8571C10.5621 12.7878 10.8372 12.401 10.7683 11.9929L10.24 8.87472ZM15.654 8.26046C15.2456 8.19128 14.858 8.46633 14.7888 8.87472L14.2605 11.9929C14.1916 12.401 14.4667 12.7878 14.8747 12.8571C15.2831 12.9263 15.6708 12.6513 15.74 12.2429L16.2683 9.1257C16.3375 8.71737 16.0623 8.32974 15.654 8.26046Z" fill="black"/>
</svg>
