<svg width="24" height="24" viewBox="0 0 24 24" fill="none" xmlns="http://www.w3.org/2000/svg">
<path d="M16.5276 2H7.47201C6.26919 2 5.66778 2 5.18448 2.2987C4.70117 2.5974 4.43221 3.13531 3.8943 4.21114L2.49068 7.75929C2.16639 8.57905 1.88266 9.54525 2.42854 10.2375C2.79476 10.7019 3.36244 11 3.99978 11C5.10435 11 5.99978 10.1046 5.99978 9C5.99978 10.1046 6.89522 11 7.99978 11C9.10435 11 9.99978 10.1046 9.99978 9C9.99978 10.1046 10.8952 11 11.9998 11C13.1044 11 13.9998 10.1046 13.9998 9C13.9998 10.1046 14.8952 11 15.9998 11C17.1044 11 17.9998 10.1046 17.9998 9C17.9998 10.1046 18.8952 11 19.9998 11C20.6371 11 21.2048 10.7019 21.5711 10.2375C22.117 9.54525 21.8333 8.57905 21.509 7.75929L20.1054 4.21114C19.5674 3.13531 19.2985 2.5974 18.8152 2.2987C18.3319 2 17.7305 2 16.5276 2Z" fill="black"/>
<path fill-rule="evenodd" clip-rule="evenodd" d="M20 21.2499H22C22.4142 21.2499 22.75 21.5857 22.75 21.9999C22.75 22.4141 22.4142 22.7499 22 22.7499H2C1.58579 22.7499 1.25 22.4141 1.25 21.9999C1.25 21.5857 1.58579 21.2499 2 21.2499H4L4 12.4999C4.74363 12.4999 5.43309 12.268 6 11.8726C6.56692 12.268 7.25638 12.4999 8 12.4999C8.74363 12.4999 9.43309 12.268 10 11.8726C10.5669 12.268 11.2564 12.4999 12 12.4999C12.7436 12.4999 13.4331 12.268 14 11.8726C14.5669 12.268 15.2564 12.4999 16 12.4999C16.7436 12.4999 17.4331 12.268 18 11.8726C18.5669 12.268 19.2564 12.4999 20 12.4999L20 21.2499ZM9.5 21.2499H14.5V18.4999C14.5 17.5653 14.5 17.098 14.299 16.7499C14.1674 16.5219 13.978 16.3325 13.75 16.2009C13.4019 15.9999 12.9346 15.9999 12 15.9999C11.0654 15.9999 10.5981 15.9999 10.25 16.2009C10.022 16.3325 9.83261 16.5219 9.70096 16.7499C9.5 17.098 9.5 17.5653 9.5 18.4999V21.2499Z" fill="black"/>
</svg>
