<svg width="24" height="24" viewBox="0 0 24 24" fill="none" xmlns="http://www.w3.org/2000/svg">
<path d="M2 12C2 7.28595 2 4.92893 3.46447 3.46447C4.92893 2 7.28595 2 12 2C16.714 2 19.0711 2 20.5355 3.46447C22 4.92893 22 7.28595 22 12C22 16.714 22 19.0711 20.5355 20.5355C19.0711 22 16.714 22 12 22C7.28595 22 4.92893 22 3.46447 20.5355C2 19.0711 2 16.714 2 12Z" stroke="black" stroke-width="1.5"/>
<path opacity="0.5" d="M11 11.9994L13.9333 9.79939C14.4222 9.43273 14.6667 9.24939 14.6667 8.99939C14.6667 8.74939 14.4222 8.56606 13.9333 8.19939L12.6 7.19939C11.9019 6.67579 11.5528 6.41398 11.2764 6.55218C11 6.69038 11 7.12672 11 7.99939V11.9994ZM11 11.9994V15.9994C11 16.8721 11 17.3084 11.2764 17.4466C11.5528 17.5848 11.9019 17.323 12.6 16.7994L13.9333 15.7994C14.4222 15.4327 14.6667 15.2494 14.6667 14.9994C14.6667 14.7494 14.4222 14.5661 13.9333 14.1994L11 11.9994ZM11 11.9994L8 9.49939M11 11.9994L8 14.4994" stroke="black" stroke-width="1.5" stroke-linecap="round"/>
</svg>
