<svg width="24" height="24" viewBox="0 0 24 24" fill="none" xmlns="http://www.w3.org/2000/svg">
<path d="M4 10C4 6.22876 4 4.34315 5.17157 3.17157C6.34315 2 8.22876 2 12 2C15.7712 2 17.6569 2 18.8284 3.17157C20 4.34315 20 6.22876 20 10V14C20 17.7712 20 19.6569 18.8284 20.8284C17.6569 22 15.7712 22 12 22C8.22876 22 6.34315 22 5.17157 20.8284C4 19.6569 4 17.7712 4 14V10Z" stroke="black" stroke-width="1.5"/>
<path opacity="0.5" d="M15 19H9" stroke="black" stroke-width="1.5" stroke-linecap="round"/>
<path opacity="0.5" d="M16.7483 2.37695L16.6641 2.50312C15.9081 3.6372 15.53 4.20427 14.9779 4.54738C14.8681 4.6156 14.754 4.67666 14.6363 4.73017C14.0446 4.99927 13.3631 4.99927 12 4.99927C10.637 4.99927 9.95552 4.99927 9.36375 4.73017C9.24608 4.67666 9.13199 4.6156 9.0222 4.54738C8.47004 4.20427 8.09201 3.63722 7.33594 2.50312L7.25183 2.37695" stroke="black" stroke-width="1.5" stroke-linecap="round"/>
</svg>
