<svg width="24" height="24" viewBox="0 0 24 24" fill="none" xmlns="http://www.w3.org/2000/svg">
<g clip-path="url(#clip0_576_7968)">
<path d="M13 2C16.1143 2.00911 17.7653 2.10755 18.8284 3.17064C20 4.34222 20 6.22783 20 9.99907V13.9991C20 17.7703 20 19.6559 18.8284 20.8275C17.6569 21.9991 15.7712 21.9991 12 21.9991C8.22876 21.9991 6.34315 21.9991 5.17157 20.8275C4 19.6559 4 17.7703 4 13.9991V11" stroke="black" stroke-width="1.5" stroke-linecap="round"/>
<path d="M2.73016 4H1.98016H2.73016ZM2.73016 4.8L2.17621 5.3056C2.31831 5.46129 2.51937 5.55 2.73016 5.55C2.94096 5.55 3.14202 5.46129 3.28412 5.3056L2.73016 4.8ZM4.01428 4.5056C4.29352 4.19966 4.27187 3.72528 3.96593 3.44604C3.65998 3.16681 3.1856 3.18846 2.90637 3.4944L4.01428 4.5056ZM2.55396 3.4944C2.27472 3.18846 1.80034 3.16681 1.4944 3.44604C1.18846 3.72528 1.16681 4.19966 1.44604 4.5056L2.55396 3.4944ZM8.53968 1.83047C8.79878 2.15364 9.27081 2.20559 9.59398 1.94649C9.91715 1.68739 9.9691 1.21537 9.71 0.892194L8.53968 1.83047ZM6.38098 0V-0.75C3.88747 -0.75 1.98016 1.4426 1.98016 4H2.73016H3.48016C3.48016 2.13913 4.84191 0.75 6.38098 0.75V0ZM2.73016 4H1.98016L1.98016 4.8H2.73016H3.48016L3.48016 4L2.73016 4ZM2.73016 4.8L3.28412 5.3056L4.01428 4.5056L3.46033 4L2.90637 3.4944L2.17621 4.2944L2.73016 4.8ZM2.73016 4.8L3.28412 4.2944L2.55396 3.4944L2 4L1.44604 4.5056L2.17621 5.3056L2.73016 4.8ZM9.12484 1.36133L9.71 0.892194C8.9139 -0.10079 7.72551 -0.75 6.38098 -0.75V0V0.75C7.22351 0.75 7.99759 1.15432 8.53968 1.83047L9.12484 1.36133Z" fill="black"/>
<path opacity="0.5" d="M10.2698 3.19922L10.8238 2.69362C10.6817 2.53793 10.4806 2.44922 10.2698 2.44922C10.059 2.44922 9.85798 2.53793 9.71588 2.69362L10.2698 3.19922ZM8.98572 3.49362C8.70648 3.79956 8.72813 4.27394 9.03408 4.55318C9.34002 4.83241 9.8144 4.81076 10.0936 4.50482L8.98572 3.49362ZM10.446 4.50482C10.7253 4.81076 11.1997 4.83241 11.5056 4.55318C11.8115 4.27394 11.8332 3.79956 11.554 3.49362L10.446 4.50482ZM4.57638 6.3054C4.29935 5.99745 3.82514 5.97239 3.5172 6.24942C3.20925 6.52644 3.18419 7.00066 3.46122 7.3086L4.57638 6.3054ZM6.61902 7.99922V8.74922C9.11253 8.74922 11.0198 6.55662 11.0198 3.99922H10.2698H9.51984C9.51984 5.86009 8.15809 7.24922 6.61902 7.24922V7.99922ZM10.2698 3.99922H11.0198V3.19922H10.2698H9.51984V3.99922H10.2698ZM10.2698 3.19922L9.71588 2.69362L8.98572 3.49362L9.53968 3.99922L10.0936 4.50482L10.8238 3.70482L10.2698 3.19922ZM10.2698 3.19922L9.71588 3.70482L10.446 4.50482L11 3.99922L11.554 3.49362L10.8238 2.69362L10.2698 3.19922ZM4.0188 6.807L3.46122 7.3086C4.25149 8.18706 5.3685 8.74922 6.61902 8.74922V7.99922V7.24922C5.83415 7.24922 5.11029 6.8989 4.57638 6.3054L4.0188 6.807Z" fill="black"/>
<path opacity="0.5" d="M15 19H9" stroke="black" stroke-width="1.5" stroke-linecap="round"/>
</g>
<defs>
<clipPath id="clip0_576_7968">
<rect width="24" height="24" fill="white"/>
</clipPath>
</defs>
</svg>
