<svg width="24" height="24" viewBox="0 0 24 24" fill="none" xmlns="http://www.w3.org/2000/svg">
<path d="M12.9407 10.5127L12.5574 11.1516L12.9407 10.5127ZM12.4106 8.0218L13.1534 8.12516C13.2033 7.71396 12.9111 7.33434 12.5009 7.27725L12.4106 8.0218ZM12.3164 9.6443L11.5911 9.81699L12.3164 9.6443ZM16.0918 10.1696L16.7518 10.5351L16.0918 10.1696ZM15.2811 10.8383L15.4992 11.561L15.2811 10.8383ZM16.116 3.95431L16.4993 3.31533L16.116 3.95431ZM16.7403 4.82267L17.4656 4.64998L16.7403 4.82267ZM13.7756 3.62863L13.5575 2.90597L13.7756 3.62863ZM12.6689 5.89173L12.5786 6.63628C12.9889 6.69336 13.3619 6.4063 13.4118 5.9951L12.6689 5.89173ZM12.9649 4.29732L12.3049 3.93186L12.9649 4.29732ZM2.83194 9.106L2.44868 9.74498L2.83194 9.106ZM2.20767 8.23764L1.4824 8.41033L2.20767 8.23764ZM6.27904 7.16858L6.36934 6.42403C5.95908 6.36694 5.58607 6.65401 5.5362 7.06521L6.27904 7.16858ZM5.98305 8.76299L6.64305 9.12845L5.98305 8.76299ZM5.17235 9.43167L5.39047 10.1543L5.17235 9.43167ZM6.00727 2.54765L6.39053 1.90867L6.00727 2.54765ZM6.53738 5.03851L5.79454 4.93514C5.74467 5.34634 6.03682 5.72597 6.44708 5.78306L6.53738 5.03851ZM6.63155 3.41601L7.35682 3.24332L6.63155 3.41601ZM3.66686 2.22198L3.44875 1.49931L3.66686 2.22198ZM2.85617 2.89066L2.19617 2.5252L2.85617 2.89066ZM16.6892 6.09016L15.9463 5.98679L15.6019 8.82688L16.3447 8.93024L17.0876 9.03361L17.432 6.19353L16.6892 6.09016ZM14.0978 10.7836L14.1881 10.039C13.8684 9.99456 13.6684 9.96626 13.5181 9.93408C13.3755 9.90354 13.3349 9.8804 13.3239 9.87368L12.9407 10.5127L12.5574 11.1516C12.777 11.2869 13.0061 11.3563 13.23 11.4042C13.4462 11.4505 13.7095 11.4867 14.0075 11.5281L14.0978 10.7836ZM12.4106 8.0218L11.6677 7.91843C11.6282 8.24466 11.585 8.59921 11.5613 8.90756C11.5406 9.17728 11.5214 9.54021 11.5911 9.81699L12.3164 9.6443L13.0417 9.4716C13.047 9.49269 13.0395 9.47094 13.0389 9.37599C13.0384 9.2917 13.0432 9.1823 13.0535 9.04852C13.0742 8.77979 13.1127 8.46058 13.1534 8.12516L12.4106 8.0218ZM12.9407 10.5127L13.3239 9.87368C13.1957 9.79467 13.0878 9.65489 13.0417 9.4716L12.3164 9.6443L11.5911 9.81699C11.7297 10.367 12.071 10.852 12.5574 11.1516L12.9407 10.5127ZM16.3447 8.93024L15.6019 8.82688C15.5606 9.16724 15.5335 9.38757 15.5023 9.55488C15.4721 9.71644 15.4467 9.77638 15.4318 9.80419L16.0918 10.1696L16.7518 10.5351C16.8694 10.316 16.9303 10.0871 16.9735 9.85607C17.0155 9.63082 17.0486 9.3549 17.0876 9.03361L16.3447 8.93024ZM14.0978 10.7836L14.0075 11.5281C14.3055 11.5696 14.5687 11.6067 14.7888 11.6211C15.0166 11.636 15.2546 11.6317 15.4992 11.561L15.2811 10.8383L15.063 10.1157C15.0508 10.1192 15.006 10.1304 14.8608 10.1209C14.7079 10.1109 14.5078 10.0835 14.1881 10.039L14.0978 10.7836ZM16.0918 10.1696L15.4318 9.80419C15.3434 9.96877 15.2058 10.0744 15.063 10.1157L15.2811 10.8383L15.4992 11.561C16.041 11.4044 16.4866 11.029 16.7518 10.5351L16.0918 10.1696ZM14.9589 3.68338L14.8686 4.42792C15.1883 4.47241 15.3883 4.50071 15.5386 4.53288C15.6812 4.56342 15.7219 4.58657 15.7328 4.59329L16.116 3.95431L16.4993 3.31533C16.2797 3.18005 16.0506 3.11071 15.8268 3.06277C15.6105 3.01647 15.3472 2.9803 15.0492 2.93883L14.9589 3.68338ZM16.6892 6.09016L17.432 6.19353C17.471 5.87224 17.5048 5.59642 17.5179 5.36714C17.5313 5.13202 17.527 4.894 17.4656 4.64998L16.7403 4.82267L16.015 4.99536C16.0228 5.02634 16.0331 5.09125 16.0237 5.2557C16.014 5.426 15.9876 5.64643 15.9463 5.98679L16.6892 6.09016ZM16.116 3.95431L15.7328 4.59329C15.861 4.67229 15.9689 4.81207 16.015 4.99536L16.7403 4.82267L17.4656 4.64998C17.327 4.09992 16.9857 3.61498 16.4993 3.31533L16.116 3.95431ZM14.9589 3.68338L15.0492 2.93883C14.7512 2.89737 14.488 2.86027 14.2679 2.84586C14.0401 2.83094 13.8021 2.83529 13.5575 2.90597L13.7756 3.62863L13.9937 4.3513C14.0059 4.34779 14.0507 4.33653 14.1959 4.34604C14.3488 4.35606 14.5489 4.38343 14.8686 4.42792L14.9589 3.68338ZM12.6689 5.89173L13.4118 5.9951C13.4524 5.65968 13.4913 5.34052 13.5354 5.07506C13.5574 4.94291 13.5788 4.83581 13.5994 4.75446C13.6226 4.66282 13.6351 4.64384 13.6249 4.66277L12.9649 4.29732L12.3049 3.93186C12.1715 4.18037 12.1035 4.5365 12.0592 4.80294C12.0085 5.10754 11.9656 5.46213 11.9261 5.78836L12.6689 5.89173ZM13.7756 3.62863L13.5575 2.90597C13.0157 3.06254 12.5701 3.43798 12.3049 3.93186L12.9649 4.29732L13.6249 4.66277C13.7133 4.4982 13.8509 4.39258 13.9937 4.3513L13.7756 3.62863ZM2.25877 6.97015L3.00162 7.07352L3.34607 4.23343L2.60323 4.13006L1.86039 4.0267L1.51593 6.86678L2.25877 6.97015ZM3.98904 9.37693L4.07934 8.63239C3.75962 8.5879 3.55964 8.5596 3.40937 8.52742C3.26675 8.49688 3.22611 8.47374 3.2152 8.46702L2.83194 9.106L2.44868 9.74498C2.66829 9.88026 2.89735 9.9496 3.12121 9.99754C3.33743 10.0438 3.60073 10.08 3.89874 10.1215L3.98904 9.37693ZM2.25877 6.97015L1.51593 6.86678C1.47696 7.18807 1.44315 7.46389 1.43007 7.69317C1.41664 7.92829 1.42093 8.1663 1.4824 8.41033L2.20767 8.23764L2.93294 8.06495C2.92513 8.03397 2.91485 7.96906 2.92424 7.80461C2.93396 7.63431 2.96033 7.41388 3.00162 7.07352L2.25877 6.97015ZM2.83194 9.106L3.2152 8.46702C3.08694 8.38802 2.9791 8.24824 2.93294 8.06495L2.20767 8.23764L1.4824 8.41033C1.62094 8.96039 1.96221 9.44533 2.44868 9.74498L2.83194 9.106ZM6.27904 7.16858L5.5362 7.06521C5.49552 7.40063 5.45666 7.71979 5.41252 7.98525C5.39054 8.1174 5.36913 8.2245 5.34853 8.30585C5.32532 8.39749 5.31288 8.41647 5.32304 8.39754L5.98305 8.76299L6.64305 9.12845C6.77647 8.87994 6.8445 8.52381 6.88881 8.25737C6.93946 7.95277 6.98232 7.59818 7.02188 7.27195L6.27904 7.16858ZM3.98904 9.37693L3.89874 10.1215C4.19674 10.1629 4.45993 10.2 4.68002 10.2144C4.90788 10.2294 5.14587 10.225 5.39047 10.1543L5.17235 9.43167L4.95424 8.70901C4.94209 8.71252 4.89728 8.72378 4.7521 8.71427C4.59915 8.70425 4.39905 8.67688 4.07934 8.63239L3.98904 9.37693ZM5.98305 8.76299L5.32304 8.39754C5.23469 8.56211 5.09708 8.66773 4.95424 8.70901L5.17235 9.43167L5.39047 10.1543C5.93227 9.99777 6.37789 9.62233 6.64305 9.12845L5.98305 8.76299ZM4.85018 2.27672L4.75988 3.02126C5.07959 3.06575 5.27957 3.09405 5.42984 3.12623C5.57247 3.15677 5.61311 3.17991 5.62401 3.18663L6.00727 2.54765L6.39053 1.90867C6.17092 1.77339 5.94187 1.70405 5.71801 1.65612C5.50179 1.60981 5.23848 1.57364 4.94048 1.53218L4.85018 2.27672ZM6.53738 5.03851L7.28023 5.14188C7.31979 4.81565 7.36294 4.4611 7.38663 4.15274C7.40735 3.88303 7.42653 3.5201 7.35682 3.24332L6.63155 3.41601L5.90628 3.5887C5.90097 3.56762 5.90847 3.58937 5.90904 3.68432C5.90956 3.76861 5.90471 3.87801 5.89443 4.01179C5.87379 4.28052 5.83522 4.59972 5.79454 4.93514L6.53738 5.03851ZM6.00727 2.54765L5.62401 3.18663C5.75227 3.26563 5.86011 3.40541 5.90628 3.5887L6.63155 3.41601L7.35682 3.24332C7.21828 2.69326 6.877 2.20832 6.39053 1.90867L6.00727 2.54765ZM4.85018 2.27672L4.94048 1.53218C4.64248 1.49071 4.37928 1.45362 4.1592 1.4392C3.93133 1.42428 3.69334 1.42863 3.44875 1.49931L3.66686 2.22198L3.88498 2.94464C3.89713 2.94113 3.94194 2.92987 4.08711 2.93938C4.24007 2.9494 4.44016 2.97677 4.75988 3.02126L4.85018 2.27672ZM2.60323 4.13006L3.34607 4.23343C3.38735 3.89307 3.41443 3.67274 3.44566 3.50543C3.47581 3.34387 3.50124 3.28393 3.51617 3.25611L2.85617 2.89066L2.19617 2.5252C2.07853 2.74431 2.01761 2.97324 1.9745 3.20424C1.93246 3.42949 1.89935 3.7054 1.86039 4.0267L2.60323 4.13006ZM3.66686 2.22198L3.44875 1.49931C2.90695 1.65588 2.46132 2.03132 2.19617 2.5252L2.85617 2.89066L3.51617 3.25611C3.60452 3.09154 3.74213 2.98592 3.88498 2.94464L3.66686 2.22198ZM6.53738 5.03851L6.44708 5.78306L12.5786 6.63628L12.6689 5.89173L12.7592 5.14719L6.62769 4.29397L6.53738 5.03851ZM12.4106 8.0218L12.5009 7.27725L6.36934 6.42403L6.27904 7.16858L6.18874 7.91312L12.3203 8.76634L12.4106 8.0218Z" fill="black"/>
<path d="M11.3306 21.0119L11.7873 21.5947L11.3306 21.0119ZM11.5486 18.4678L10.8277 18.6747C10.7272 18.2729 10.9684 17.8545 11.3666 17.7402L11.5486 18.4678ZM11.8422 20.0627L12.5799 20.1345L11.8422 20.0627ZM7.0402 20.1324C6.93968 19.7306 7.18095 19.3122 7.57909 19.1979C7.97723 19.0836 8.38147 19.3167 8.48199 19.7186L7.0402 20.1324ZM8.16481 21.1182L7.55942 21.5755L8.16481 21.1182ZM9.05093 21.6662L8.92743 22.4155L9.05093 21.6662ZM7.37356 14.9608L6.91683 14.378L7.37356 14.9608ZM7.59969 15.9818C7.54858 16.3977 7.17684 16.7027 6.7694 16.663C6.36197 16.6234 6.07311 16.2541 6.12422 15.8382L7.59969 15.9818ZM9.65322 14.3066L9.77671 13.5572L9.65322 14.3066ZM11.0296 16.393L11.2116 17.1206C10.8134 17.2349 10.4092 17.0018 10.3087 16.6L11.0296 16.393ZM10.5393 14.8546L11.1447 14.3973L10.5393 14.8546ZM21.1769 18.1859L21.6337 18.7687L21.6337 18.7687L21.1769 18.1859ZM21.6885 17.2367L22.4263 17.3085L21.6885 17.2367ZM17.5209 16.7537L17.3389 16.0261C17.7371 15.9118 18.1413 16.145 18.2418 16.5468L17.5209 16.7537ZM18.0112 18.2922L17.4058 18.7495L18.0112 18.2922ZM18.8973 18.8402L18.7738 19.5895L18.8973 18.8402ZM17.2199 12.1348L16.7632 11.5521L17.2199 12.1348ZM17.0019 14.6789L17.7228 14.472C17.8233 14.8738 17.5821 15.2922 17.1839 15.4065L17.0019 14.6789ZM16.7083 13.084L15.9706 13.0122L16.7083 13.084ZM19.4996 11.4806L19.6231 10.7312L19.6231 10.7312L19.4996 11.4806ZM20.3857 12.0286L20.9911 11.5713L20.3857 12.0286ZM10.2171 21.4443L10.0351 20.7167C10.3464 20.6274 10.5415 20.5709 10.6868 20.5176C10.8248 20.467 10.8631 20.4379 10.8739 20.4291L11.3306 21.0119L11.7873 21.5947C11.5871 21.7593 11.3695 21.8601 11.154 21.9391C10.9457 22.0155 10.6895 22.0886 10.3991 22.1719L10.2171 21.4443ZM11.5486 18.4678L12.2695 18.2609C12.3489 18.5786 12.4355 18.9241 12.4971 19.2266C12.5509 19.4909 12.615 19.8491 12.5799 20.1345L11.8422 20.0627L11.1045 19.991C11.1017 20.0134 11.1065 19.9914 11.0954 19.8974C11.0855 19.8141 11.0673 19.7065 11.0406 19.5755C10.987 19.3122 10.9094 19.0015 10.8277 18.6747L11.5486 18.4678ZM11.3306 21.0119L10.8739 20.4291C10.9924 20.3316 11.0815 20.1775 11.1045 19.991L11.8422 20.0627L12.5799 20.1345C12.5103 20.701 12.2313 21.2298 11.7873 21.5947L11.3306 21.0119ZM7.7611 19.9255L8.48199 19.7186C8.56495 20.0502 8.61892 20.2645 8.67044 20.4256C8.72015 20.5811 8.75247 20.6362 8.77019 20.6609L8.16481 21.1182L7.55942 21.5755C7.41526 21.3742 7.32634 21.1552 7.25497 20.9319C7.1854 20.7143 7.11846 20.4452 7.0402 20.1324L7.7611 19.9255ZM10.2171 21.4443L10.3991 22.1719C10.1087 22.2552 9.85275 22.3292 9.63672 22.3746C9.41319 22.4215 9.17764 22.4508 8.92743 22.4155L9.05093 21.6662L9.17442 20.9168C9.18786 20.9187 9.23456 20.9234 9.37778 20.8933C9.5285 20.8617 9.72379 20.8061 10.0351 20.7167L10.2171 21.4443ZM8.16481 21.1182L8.77019 20.6609C8.87716 20.8102 9.02622 20.896 9.17442 20.9168L9.05093 21.6662L8.92743 22.4155C8.37257 22.3373 7.88415 22.0288 7.55942 21.5755L8.16481 21.1182ZM8.48705 14.5284L8.66906 15.256C8.35775 15.3453 8.16269 15.4018 8.01738 15.4551C7.87931 15.5057 7.84104 15.5348 7.83029 15.5436L7.37356 14.9608L6.91683 14.378C7.11704 14.2135 7.33468 14.1127 7.55019 14.0336C7.75846 13.9572 8.01467 13.8842 8.30504 13.8008L8.48705 14.5284ZM7.37356 14.9608L7.83029 15.5436C7.7117 15.6411 7.62263 15.7952 7.59969 15.9818L6.86196 15.91L6.12422 15.8382C6.19385 15.2717 6.47283 14.743 6.91683 14.378L7.37356 14.9608ZM8.48705 14.5284L8.30504 13.8008C8.59542 13.7175 8.8514 13.6435 9.06743 13.5982C9.29096 13.5512 9.52651 13.5219 9.77671 13.5572L9.65322 14.3066L9.52973 15.0559C9.51629 15.054 9.46959 15.0493 9.32637 15.0794C9.17564 15.1111 8.98036 15.1666 8.66906 15.256L8.48705 14.5284ZM11.0296 16.393L10.3087 16.6C10.2269 16.2732 10.149 15.9625 10.0726 15.7058C10.0345 15.5781 10.0001 15.4752 9.96978 15.3977C9.93554 15.3104 9.92111 15.2939 9.93395 15.3118L10.5393 14.8546L11.1447 14.3973C11.3084 14.6257 11.42 14.9702 11.4968 15.2279C11.5847 15.5228 11.671 15.8684 11.7504 16.1861L11.0296 16.393ZM9.65322 14.3066L9.77671 13.5572C10.3316 13.6355 10.82 13.944 11.1447 14.3973L10.5393 14.8546L9.93395 15.3118C9.82699 15.1625 9.67792 15.0768 9.52973 15.0559L9.65322 14.3066ZM21.4814 15.9876L20.7605 16.1945L20.0685 13.4282L20.7894 13.2213L21.5103 13.0144L22.2023 15.7807L21.4814 15.9876ZM20.0634 18.6183L19.8814 17.8907C20.1927 17.8014 20.3878 17.7449 20.5331 17.6916C20.6712 17.641 20.7095 17.6119 20.7202 17.6031L21.1769 18.1859L21.6337 18.7687C21.4335 18.9333 21.2158 19.0341 21.0003 19.1131C20.792 19.1895 20.5358 19.2626 20.2455 19.3459L20.0634 18.6183ZM21.4814 15.9876L22.2023 15.7807C22.2806 16.0936 22.3482 16.3625 22.3895 16.5882C22.4319 16.8197 22.4572 17.057 22.4263 17.3085L21.6885 17.2367L20.9508 17.165C20.9546 17.134 20.9569 17.069 20.9274 16.9078C20.8968 16.7406 20.8435 16.5261 20.7605 16.1945L21.4814 15.9876ZM21.1769 18.1859L20.7202 17.6031C20.8388 17.5056 20.9279 17.3516 20.9508 17.165L21.6885 17.2367L22.4263 17.3085C22.3566 17.875 22.0777 18.4038 21.6337 18.7687L21.1769 18.1859ZM17.5209 16.7537L18.2418 16.5468C18.3236 16.8735 18.4015 17.1842 18.4779 17.4409C18.516 17.5687 18.5504 17.6716 18.5807 17.749C18.615 17.8364 18.6294 17.8528 18.6165 17.8349L18.0112 18.2922L17.4058 18.7495C17.2421 18.5211 17.1305 18.1766 17.0537 17.9188C16.9658 17.6239 16.8795 17.2783 16.8 16.9606L17.5209 16.7537ZM20.0634 18.6183L20.2455 19.3459C19.9551 19.4292 19.6991 19.5032 19.4831 19.5486C19.2595 19.5955 19.024 19.6248 18.7738 19.5895L18.8973 18.8402L19.0208 18.0909C19.0342 18.0927 19.0809 18.0974 19.2241 18.0673C19.3749 18.0357 19.5701 17.9801 19.8814 17.8907L20.0634 18.6183ZM18.0112 18.2922L18.6165 17.8349C18.7235 17.9842 18.8726 18.07 19.0208 18.0909L18.8973 18.8402L18.7738 19.5895C18.2189 19.5113 17.7305 19.2028 17.4058 18.7495L18.0112 18.2922ZM18.3334 11.7024L18.5154 12.43C18.2041 12.5193 18.009 12.5758 17.8637 12.6291C17.7257 12.6798 17.6874 12.7088 17.6766 12.7176L17.2199 12.1348L16.7632 11.5521C16.9634 11.3875 17.181 11.2867 17.3965 11.2076C17.6048 11.1312 17.861 11.0582 18.1514 10.9748L18.3334 11.7024ZM17.0019 14.6789L16.281 14.8858C16.2016 14.5681 16.115 14.2226 16.0534 13.9201C15.9996 13.6558 15.9355 13.2977 15.9706 13.0122L16.7083 13.084L17.446 13.1558C17.4488 13.1334 17.444 13.1554 17.4551 13.2493C17.465 13.3327 17.4832 13.4402 17.5099 13.5712C17.5635 13.8345 17.6411 14.1453 17.7228 14.472L17.0019 14.6789ZM17.2199 12.1348L17.6766 12.7176C17.5581 12.8151 17.469 12.9692 17.446 13.1558L16.7083 13.084L15.9706 13.0122C16.0402 12.4457 16.3192 11.917 16.7632 11.5521L17.2199 12.1348ZM18.3334 11.7024L18.1514 10.9748C18.4418 10.8915 18.6977 10.8176 18.9138 10.7722C19.1373 10.7252 19.3729 10.696 19.6231 10.7312L19.4996 11.4806L19.3761 12.2299C19.3626 12.228 19.3159 12.2233 19.1727 12.2534C19.022 12.2851 18.8267 12.3407 18.5154 12.43L18.3334 11.7024ZM20.7894 13.2213L20.0685 13.4282C19.9855 13.0965 19.9316 12.8823 19.8801 12.7211C19.8303 12.5656 19.798 12.5106 19.7803 12.4858L20.3857 12.0286L20.9911 11.5713C21.1352 11.7725 21.2242 11.9916 21.2955 12.2148C21.3651 12.4324 21.432 12.7015 21.5103 13.0144L20.7894 13.2213ZM19.4996 11.4806L19.6231 10.7312C20.1779 10.8095 20.6664 11.118 20.9911 11.5713L20.3857 12.0286L19.7803 12.4858C19.6733 12.3365 19.5243 12.2508 19.3761 12.2299L19.4996 11.4806ZM17.0019 14.6789L17.1839 15.4065L11.2116 17.1206L11.0296 16.393L10.8475 15.6655L16.8199 13.9513L17.0019 14.6789ZM11.5486 18.4678L11.3666 17.7402L17.3389 16.0261L17.5209 16.7537L17.703 17.4813L11.7306 19.1954L11.5486 18.4678Z" fill="black"/>
</svg>
