<svg width="24" height="24" viewBox="0 0 24 24" fill="none" xmlns="http://www.w3.org/2000/svg">
<path d="M6.09067 7.31123L6.18097 6.56668L6.09067 7.31123ZM8.93075 7.65568L8.84045 8.40023L8.93075 7.65568ZM10.5132 11.0597L11.1517 11.4531L10.5132 11.0597ZM8.0223 11.5898L8.1126 10.8453C7.7065 10.796 7.33584 11.0813 7.27946 11.4865L8.0223 11.5898ZM9.6448 11.684L9.46162 10.9567L9.46162 10.9567L9.6448 11.684ZM10.1702 7.90862L10.5249 7.24783L10.5249 7.24783L10.1702 7.90862ZM10.8388 8.71931L10.1183 8.92753L10.1183 8.92753L10.8388 8.71931ZM3.95482 7.88439L3.31624 7.49104V7.49104L3.95482 7.88439ZM4.82318 7.26012L4.64 6.53283L4.64 6.53283L4.82318 7.26012ZM3.62914 10.2248L2.90862 10.433L2.90862 10.433L3.62914 10.2248ZM5.89224 11.3315L6.63508 11.4349C6.66281 11.2356 6.60931 11.0335 6.4866 10.8741C6.3639 10.7146 6.18227 10.6112 5.98254 10.587L5.89224 11.3315ZM4.29782 11.0355L4.65259 10.3747L4.65259 10.3747L4.29782 11.0355ZM6.97066 21.7416L6.88035 22.4862L6.97066 21.7416ZM4.13057 21.3972L4.22087 20.6526L4.13057 21.3972ZM9.37744 20.0114L10.1203 20.1147L9.37744 20.0114ZM9.10651 21.1685L8.46793 20.7751L8.46793 20.7751L9.10651 21.1685ZM8.23815 21.7927L8.42133 22.52H8.42133L8.23815 21.7927ZM7.16908 17.7214L6.42624 17.618C6.39851 17.8173 6.45201 18.0193 6.57472 18.1788C6.69743 18.3382 6.87905 18.4417 7.07878 18.4659L7.16908 17.7214ZM8.7635 18.0174L9.11826 17.3566L9.11826 17.3566L8.7635 18.0174ZM9.43218 18.8281L8.71166 19.0363L8.71166 19.0363L9.43218 18.8281ZM2.27723 19.1502L3.02007 19.2536L2.27723 19.1502ZM2.54816 17.9931L1.90958 17.5998H1.90958L2.54816 17.9931ZM5.03902 17.463L4.94872 18.2076C5.35482 18.2568 5.72548 17.9716 5.78186 17.5664L5.03902 17.463ZM3.41652 17.3689L3.23334 16.6416H3.23334L3.41652 17.3689ZM2.22248 20.3335L1.50197 20.5418L2.22248 20.3335ZM2.89117 21.1442L2.5364 21.805H2.5364L2.89117 21.1442ZM6.09067 7.31123L6.00037 8.05577L8.84045 8.40023L8.93075 7.65568L9.02105 6.91114L6.18097 6.56668L6.09067 7.31123ZM10.7841 9.90263L10.0413 9.79926C9.99677 10.1189 9.96847 10.319 9.93627 10.4693C9.90576 10.6118 9.88243 10.6537 9.87459 10.6664L10.5132 11.0597L11.1517 11.4531C11.2859 11.2353 11.3551 11.0074 11.403 10.7834C11.4493 10.5673 11.4855 10.304 11.5269 10.006L10.7841 9.90263ZM8.0223 11.5898L7.932 12.3344C8.25825 12.374 8.61278 12.4171 8.9211 12.4408C9.19146 12.4616 9.55317 12.4805 9.82798 12.4113L9.6448 11.684L9.46162 10.9567C9.48129 10.9518 9.45863 10.9592 9.36376 10.9598C9.27929 10.9603 9.16978 10.9555 9.036 10.9452C8.76723 10.9245 8.44801 10.886 8.1126 10.8453L8.0223 11.5898ZM10.5132 11.0597L9.87459 10.6664C9.79303 10.7988 9.64876 10.9096 9.46162 10.9567L9.6448 11.684L9.82798 12.4113C10.3742 12.2737 10.8546 11.9354 11.1517 11.4531L10.5132 11.0597ZM8.93075 7.65568L8.84045 8.40023C9.18084 8.44151 9.40113 8.46859 9.56838 8.4998C9.7301 8.52999 9.78909 8.55529 9.81539 8.56941L10.1702 7.90862L10.5249 7.24783C10.3043 7.12939 10.0744 7.06835 9.84358 7.02526C9.61826 6.98321 9.34231 6.9501 9.02105 6.91114L8.93075 7.65568ZM10.7841 9.90263L11.5269 10.006C11.5684 9.70804 11.6055 9.4448 11.6199 9.22462C11.6348 8.99693 11.6306 8.75774 11.5594 8.5111L10.8388 8.71931L10.1183 8.92753C10.1212 8.93763 10.1326 8.98124 10.1231 9.1266C10.1131 9.27947 10.0857 9.47952 10.0413 9.79926L10.7841 9.90263ZM10.1702 7.90862L9.81539 8.56941C9.97643 8.65587 10.0784 8.78944 10.1183 8.92753L10.8388 8.71931L11.5594 8.5111C11.4014 7.96454 11.0223 7.51488 10.5249 7.24783L10.1702 7.90862ZM3.68388 9.04149L4.42673 9.14486C4.47121 8.82518 4.49951 8.62515 4.53171 8.47478C4.56222 8.3323 4.58555 8.29047 4.59339 8.27774L3.95482 7.88439L3.31624 7.49104C3.18208 7.70884 3.11293 7.9367 3.06496 8.1607C3.01868 8.37683 2.98251 8.64008 2.94104 8.93812L3.68388 9.04149ZM6.09067 7.31123L6.18097 6.56668C5.85965 6.52771 5.58388 6.49391 5.35467 6.48082C5.11941 6.4674 4.88235 6.47179 4.64 6.53283L4.82318 7.26012L5.00636 7.9874C5.039 7.97918 5.10487 7.96901 5.26919 7.97839C5.43957 7.98811 5.66004 8.01449 6.00037 8.05577L6.09067 7.31123ZM3.95482 7.88439L4.59339 8.27774C4.67495 8.14533 4.81922 8.03454 5.00636 7.9874L4.82318 7.26012L4.64 6.53283C4.09379 6.6704 3.61333 7.00873 3.31624 7.49104L3.95482 7.88439ZM3.68388 9.04149L2.94104 8.93812C2.89958 9.23609 2.86248 9.49933 2.84806 9.7195C2.83315 9.94719 2.83735 10.1864 2.90862 10.433L3.62914 10.2248L4.34966 10.0166C4.34674 10.0065 4.33533 9.96287 4.34485 9.81752C4.35486 9.66466 4.38223 9.46461 4.42673 9.14486L3.68388 9.04149ZM5.89224 11.3315L5.98254 10.587C5.64711 10.5463 5.32796 10.5074 5.06253 10.4633C4.93038 10.4413 4.82338 10.4199 4.74219 10.3993C4.65047 10.3761 4.63237 10.3639 4.65259 10.3747L4.29782 11.0355L3.94306 11.6963C4.19334 11.8307 4.55069 11.8988 4.81648 11.943C5.12111 11.9936 5.47571 12.0365 5.80194 12.076L5.89224 11.3315ZM3.62914 10.2248L2.90862 10.433C3.06656 10.9796 3.44565 11.4292 3.94306 11.6963L4.29782 11.0355L4.65259 10.3747C4.49155 10.2882 4.38956 10.1547 4.34966 10.0166L3.62914 10.2248ZM6.97066 21.7416L7.06096 20.9971L4.22087 20.6526L4.13057 21.3972L4.04027 22.1417L6.88035 22.4862L6.97066 21.7416ZM9.37744 20.0114L8.6346 19.908C8.59011 20.2277 8.56181 20.4277 8.52961 20.5781C8.4991 20.7206 8.47577 20.7624 8.46793 20.7751L9.10651 21.1685L9.74508 21.5618C9.87924 21.344 9.9484 21.1162 9.99636 20.8922C10.0426 20.676 10.0788 20.4128 10.1203 20.1147L9.37744 20.0114ZM6.97066 21.7416L6.88035 22.4862C7.20168 22.5252 7.47745 22.559 7.70665 22.572C7.94192 22.5855 8.17897 22.5811 8.42133 22.52L8.23815 21.7927L8.05497 21.0655C8.02231 21.0737 7.95645 21.0839 7.79214 21.0745C7.62176 21.0648 7.40129 21.0384 7.06096 20.9971L6.97066 21.7416ZM9.10651 21.1685L8.46793 20.7751C8.38637 20.9075 8.2421 21.0183 8.05497 21.0655L8.23815 21.7927L8.42133 22.52C8.96753 22.3825 9.44799 22.0441 9.74508 21.5618L9.10651 21.1685ZM7.16908 17.7214L7.07878 18.4659C7.41422 18.5066 7.73336 18.5455 7.99879 18.5896C8.13094 18.6116 8.23794 18.633 8.31913 18.6535C8.41086 18.6768 8.42895 18.689 8.40874 18.6782L8.7635 18.0174L9.11826 17.3566C8.86798 17.2222 8.51063 17.1541 8.24484 17.1099C7.94021 17.0593 7.58561 17.0164 7.25939 16.9768L7.16908 17.7214ZM9.37744 20.0114L10.1203 20.1147C10.1617 19.8168 10.1988 19.5535 10.2133 19.3334C10.2282 19.1057 10.224 18.8665 10.1527 18.6198L9.43218 18.8281L8.71166 19.0363C8.71458 19.0464 8.72599 19.09 8.71647 19.2353C8.70646 19.3882 8.67909 19.5883 8.6346 19.908L9.37744 20.0114ZM8.7635 18.0174L8.40873 18.6782C8.56978 18.7646 8.67176 18.8982 8.71166 19.0363L9.43218 18.8281L10.1527 18.6198C9.99476 18.0733 9.61567 17.6236 9.11826 17.3566L8.7635 18.0174ZM2.27723 19.1502L3.02007 19.2536C3.06455 18.9339 3.09285 18.7339 3.12505 18.5835C3.15556 18.441 3.17889 18.3992 3.18673 18.3865L2.54816 17.9931L1.90958 17.5998C1.77543 17.8176 1.70627 18.0454 1.6583 18.2694C1.61202 18.4856 1.57586 18.7488 1.53438 19.0469L2.27723 19.1502ZM5.03902 17.463L5.12932 16.7185C4.80307 16.6789 4.44855 16.6358 4.14023 16.6121C3.86987 16.5913 3.50815 16.5724 3.23334 16.6416L3.41652 17.3689L3.5997 18.0961C3.58004 18.1011 3.60269 18.0936 3.69756 18.0931C3.78203 18.0925 3.89154 18.0974 4.02532 18.1077C4.29409 18.1283 4.61331 18.1669 4.94872 18.2076L5.03902 17.463ZM2.54816 17.9931L3.18673 18.3865C3.2683 18.2541 3.41256 18.1433 3.5997 18.0961L3.41652 17.3689L3.23334 16.6416C2.68713 16.7791 2.20668 17.1175 1.90958 17.5998L2.54816 17.9931ZM2.27723 19.1502L1.53438 19.0469C1.49292 19.3448 1.45582 19.6081 1.4414 19.8282C1.42649 20.0559 1.43069 20.2951 1.50197 20.5418L2.22248 20.3335L2.943 20.1253C2.94008 20.1152 2.92868 20.0716 2.9382 19.9263C2.94821 19.7734 2.97558 19.5734 3.02007 19.2536L2.27723 19.1502ZM4.13057 21.3972L4.22087 20.6526C3.88048 20.6114 3.66019 20.5843 3.49294 20.5531C3.33122 20.5229 3.27223 20.4976 3.24593 20.4835L2.89117 21.1442L2.5364 21.805C2.75702 21.9235 2.9869 21.9845 3.21774 22.0276C3.44305 22.0697 3.71901 22.1028 4.04027 22.1417L4.13057 21.3972ZM2.22248 20.3335L1.50197 20.5418C1.65991 21.0883 2.03899 21.538 2.5364 21.805L2.89117 21.1442L3.24593 20.4835C3.08489 20.397 2.98291 20.2634 2.943 20.1253L2.22248 20.3335ZM5.03902 17.463L5.78186 17.5664L6.63508 11.4349L5.89224 11.3315L5.1494 11.2281L4.29618 17.3597L5.03902 17.463ZM8.0223 11.5898L7.27946 11.4865L6.42624 17.618L7.16908 17.7214L7.91193 17.8247L8.76514 11.6932L8.0223 11.5898Z" fill="black"/>
<path d="M21.0124 12.6696L21.5918 12.1934V12.1934L21.0124 12.6696ZM18.4683 12.4516L17.7474 12.6585C17.8589 13.047 18.2582 13.2773 18.6503 13.1792L18.4683 12.4516ZM20.0632 12.158L20.1547 11.4136L20.0632 12.158ZM19.744 15.5115C19.3421 15.6121 19.0979 16.0193 19.1984 16.4211C19.2989 16.823 19.7062 17.0672 20.108 16.9667L19.744 15.5115ZM21.1187 15.8354L21.5554 16.4451L21.1187 15.8354ZM21.6667 14.9493L22.4093 15.054V15.054L21.6667 14.9493ZM14.9613 16.6266L14.3819 17.1029H14.3819L14.9613 16.6266ZM15.819 17.8826C16.2301 17.9332 16.6044 17.6409 16.6549 17.2297C16.7054 16.8186 16.4131 16.4444 16.002 16.3939L15.819 17.8826ZM14.3071 14.347L13.5644 14.2423V14.2423L14.3071 14.347ZM16.3935 12.9707L16.5756 13.6982C16.7729 13.6489 16.9417 13.5215 17.0433 13.3453C17.1449 13.1691 17.1705 12.9592 17.1144 12.7637L16.3935 12.9707ZM14.855 13.4609L15.2918 14.0706L14.855 13.4609ZM15.9881 2.51879L16.1701 3.24637L15.9881 2.51879ZM13.2218 3.21081L13.0397 2.48323L13.0397 2.48323L13.2218 3.21081ZM18.1864 2.82327L17.607 3.29949V3.29949L18.1864 2.82327ZM17.2372 2.31167L17.3287 1.56727L17.2372 2.31167ZM16.7542 6.47926L16.5722 5.75168C16.3749 5.80104 16.2061 5.92841 16.1045 6.1046C16.0029 6.28078 15.9772 6.49068 16.0333 6.68617L16.7542 6.47926ZM18.2927 5.98905L17.8559 5.37935L18.2927 5.98905ZM18.8407 5.10293L18.098 4.9982V4.9982L18.8407 5.10293ZM12.1353 6.7803L12.7148 6.30408H12.7148L12.1353 6.7803ZM14.6794 6.99828L15.4003 6.79138C15.2888 6.40288 14.8895 6.17261 14.4974 6.2707L14.6794 6.99828ZM13.0845 7.2919L13.176 6.5475H13.176L13.0845 7.2919ZM11.4811 4.50064L12.2237 4.60537L11.4811 4.50064ZM12.0291 3.61452L12.4658 4.22422L12.0291 3.61452ZM21.4448 13.7831L22.1657 13.5762C22.0824 13.2858 22.0093 13.0297 21.933 12.8216C21.8539 12.6058 21.7537 12.3904 21.5918 12.1934L21.0124 12.6696L20.433 13.1458C20.4444 13.1598 20.4742 13.2003 20.5247 13.3381C20.5781 13.4836 20.6346 13.6788 20.7239 13.99L21.4448 13.7831ZM18.4683 12.4516L18.6503 13.1792C18.9771 13.0975 19.2879 13.0199 19.5512 12.9663C19.6822 12.9396 19.79 12.9213 19.8737 12.9114C19.9675 12.9003 19.9913 12.9048 19.9717 12.9024L20.0632 12.158L20.1547 11.4136C19.8733 11.379 19.5175 11.4424 19.2519 11.4964C18.9495 11.558 18.6041 11.6446 18.2863 11.7241L18.4683 12.4516ZM21.0124 12.6696L21.5918 12.1934C21.2328 11.7567 20.7134 11.4823 20.1547 11.4136L20.0632 12.158L19.9717 12.9024C20.1661 12.9263 20.3295 13.02 20.433 13.1458L21.0124 12.6696ZM19.926 16.2391L20.108 16.9667C20.4208 16.8884 20.6899 16.8215 20.9077 16.7519C21.1306 16.6806 21.3515 16.5912 21.5554 16.4451L21.1187 15.8354L20.6819 15.2257C20.6599 15.2414 20.6067 15.2733 20.4509 15.3231C20.2899 15.3746 20.0756 15.4286 19.744 15.5115L19.926 16.2391ZM21.4448 13.7831L20.7239 13.99C20.8133 14.3014 20.8688 14.4966 20.9005 14.6472C20.9306 14.7907 20.9253 14.8352 20.924 14.8446L21.6667 14.9493L22.4093 15.054C22.4452 14.7997 22.4153 14.5619 22.3684 14.3388C22.323 14.1226 22.249 13.8665 22.1657 13.5762L21.4448 13.7831ZM21.1187 15.8354L21.5554 16.4451C22.0152 16.1157 22.3297 15.6184 22.4093 15.054L21.6667 14.9493L20.924 14.8446C20.9045 14.9832 20.8247 15.1234 20.6819 15.2257L21.1187 15.8354ZM14.5289 15.5132L13.808 15.7201C13.8914 16.0105 13.9644 16.2666 14.0407 16.4747C14.1199 16.6904 14.22 16.9058 14.3819 17.1029L14.9613 16.6266L15.5407 16.1504C15.5293 16.1365 15.4995 16.096 15.449 15.9581C15.3956 15.8127 15.3391 15.6175 15.2498 15.3063L14.5289 15.5132ZM14.9613 16.6266L14.3819 17.1029C14.7409 17.5396 15.2603 17.814 15.819 17.8826L15.9105 17.1383L16.002 16.3939C15.8076 16.37 15.6442 16.2763 15.5407 16.1504L14.9613 16.6266ZM14.5289 15.5132L15.2498 15.3063C15.1604 14.9949 15.1049 14.7997 15.0733 14.6491C15.0431 14.5055 15.0484 14.4611 15.0497 14.4517L14.3071 14.347L13.5644 14.2423C13.5285 14.4965 13.5584 14.7343 13.6053 14.9575C13.6507 15.1737 13.7247 15.4297 13.808 15.7201L14.5289 15.5132ZM16.3935 12.9707L16.2115 12.2431C15.8938 12.3225 15.5482 12.4088 15.2532 12.4967C14.9968 12.5731 14.6499 12.6852 14.4183 12.8512L14.855 13.4609L15.2918 14.0706C15.2716 14.0851 15.2863 14.0712 15.3738 14.0369C15.451 14.0067 15.5537 13.9724 15.6815 13.9343C15.9381 13.8578 16.2488 13.78 16.5756 13.6982L16.3935 12.9707ZM14.3071 14.347L15.0497 14.4517C15.0693 14.3131 15.149 14.1729 15.2918 14.0706L14.855 13.4609L14.4183 12.8512C13.9585 13.1805 13.644 13.6778 13.5644 14.2423L14.3071 14.347ZM15.9881 2.51879L15.8061 1.79121L13.0397 2.48323L13.2218 3.21081L13.4038 3.93839L16.1701 3.24637L15.9881 2.51879ZM18.6188 3.93676L19.3397 3.72986C19.2564 3.43941 19.1833 3.18332 19.107 2.97523C19.0279 2.75947 18.9277 2.54407 18.7658 2.34705L18.1864 2.82327L17.607 3.29949C17.6184 3.31344 17.6482 3.35394 17.6987 3.49177C17.7521 3.63727 17.8086 3.83244 17.8979 4.14367L18.6188 3.93676ZM15.9881 2.51879L16.1701 3.24637C16.5017 3.16343 16.7163 3.11012 16.8835 3.07949C17.0446 3.05 17.1114 3.05185 17.1457 3.05607L17.2372 2.31167L17.3287 1.56727C17.0806 1.53678 16.8452 1.56157 16.6134 1.60402C16.3878 1.64532 16.119 1.71293 15.8061 1.79121L15.9881 2.51879ZM18.1864 2.82327L18.7658 2.34705C18.4068 1.91032 17.8874 1.63594 17.3287 1.56727L17.2372 2.31167L17.1457 3.05607C17.3401 3.07996 17.5035 3.17364 17.607 3.29949L18.1864 2.82327ZM16.7542 6.47926L16.9362 7.20685C17.2539 7.12737 17.5995 7.04107 17.8945 6.95319C18.151 6.87679 18.4978 6.76468 18.7295 6.59875L18.2927 5.98905L17.8559 5.37935C17.8762 5.36483 17.8614 5.37869 17.7739 5.41299C17.6967 5.44323 17.594 5.47756 17.4662 5.51562C17.2096 5.59207 16.899 5.66994 16.5722 5.75168L16.7542 6.47926ZM18.6188 3.93676L17.8979 4.14367C17.9873 4.45503 18.0428 4.65024 18.0745 4.80081C18.1046 4.94438 18.0993 4.98884 18.098 4.9982L18.8407 5.10293L19.5833 5.20766C19.6192 4.95338 19.5893 4.71559 19.5424 4.49241C19.497 4.27623 19.423 4.02017 19.3397 3.72986L18.6188 3.93676ZM18.2927 5.98905L18.7295 6.59875C19.1892 6.26938 19.5037 5.77208 19.5833 5.20766L18.8407 5.10293L18.098 4.9982C18.0785 5.13684 17.9987 5.27703 17.8559 5.37935L18.2927 5.98905ZM11.7029 5.66681L10.982 5.87371C11.0654 6.16417 11.1384 6.42026 11.2147 6.62834C11.2939 6.8441 11.394 7.0595 11.5559 7.25652L12.1353 6.7803L12.7148 6.30408C12.7033 6.29013 12.6735 6.24963 12.623 6.1118C12.5696 5.9663 12.5131 5.77113 12.4238 5.4599L11.7029 5.66681ZM14.6794 6.99828L14.4974 6.2707C14.1707 6.35243 13.8599 6.43003 13.5965 6.48364C13.4655 6.51032 13.3577 6.52863 13.2741 6.53854C13.1802 6.54964 13.1565 6.5451 13.176 6.5475L13.0845 7.2919L12.993 8.0363C13.2744 8.07089 13.6303 8.00755 13.8958 7.95349C14.1982 7.89192 14.5437 7.80535 14.8614 7.72586L14.6794 6.99828ZM12.1353 6.7803L11.5559 7.25652C11.9149 7.69325 12.4343 7.96763 12.993 8.0363L13.0845 7.2919L13.176 6.5475C12.9816 6.52361 12.8182 6.42993 12.7148 6.30408L12.1353 6.7803ZM11.7029 5.66681L12.4238 5.4599C12.3344 5.14854 12.2789 4.95333 12.2473 4.80276C12.2171 4.65919 12.2224 4.61473 12.2237 4.60537L11.4811 4.50064L10.7384 4.39591C10.7025 4.65019 10.7324 4.88798 10.7793 5.11116C10.8247 5.32734 10.8987 5.5834 10.982 5.87371L11.7029 5.66681ZM13.2218 3.21081L13.0397 2.48323C12.7269 2.56148 12.4578 2.62843 12.2401 2.69804C12.0171 2.76931 11.7963 2.85869 11.5923 3.00482L12.0291 3.61452L12.4658 4.22422C12.4878 4.20847 12.541 4.17661 12.6968 4.1268C12.8579 4.07532 13.0721 4.02136 13.4038 3.93839L13.2218 3.21081ZM11.4811 4.50064L12.2237 4.60537C12.2433 4.46673 12.323 4.32654 12.4658 4.22422L12.0291 3.61452L11.5923 3.00482C11.1325 3.33419 10.818 3.83149 10.7384 4.39591L11.4811 4.50064ZM14.6794 6.99828L13.9585 7.20518L15.6726 13.1776L16.3935 12.9707L17.1144 12.7637L15.4003 6.79138L14.6794 6.99828ZM18.4683 12.4516L19.1892 12.2447L17.4751 6.27236L16.7542 6.47926L16.0333 6.68617L17.7474 12.6585L18.4683 12.4516Z" fill="black"/>
</svg>
