<svg width="24" height="24" viewBox="0 0 24 24" fill="none" xmlns="http://www.w3.org/2000/svg">
<path d="M9.19761 11.9582L9.91425 11.737L9.19761 11.9582ZM9.54557 10.8683L9.08994 10.2726L9.54557 10.8683ZM9.91895 14.2952L9.20231 14.5164L9.91895 14.2952ZM14.0579 14.2952L13.3413 14.074L14.0579 14.2952ZM14.4313 10.8683L13.9757 11.4641V11.4641L14.4313 10.8683ZM14.7793 11.9582L15.4959 12.1794L14.7793 11.9582ZM12.5948 9.46375L13.0504 8.86802L12.5948 9.46375ZM11.3821 9.46375L11.8377 10.0595L11.3821 9.46375ZM20.1847 17.75C20.5989 17.75 20.9347 17.4142 20.9347 17C20.9347 16.5858 20.5989 16.25 20.1847 16.25V17.75ZM14.7793 19.7351L14.0677 19.4982L14.7793 19.7351ZM13.4801 21.2631C13.3492 21.6561 13.5617 22.0807 13.9547 22.2116C14.3477 22.3424 14.7724 22.1299 14.9032 21.7369L13.4801 21.2631ZM3.99768 16.25C3.58346 16.25 3.24768 16.5858 3.24768 17C3.24768 17.4142 3.58346 17.75 3.99768 17.75V16.25ZM9.40313 19.7351L10.1147 19.4982H10.1147L9.40313 19.7351ZM9.27916 21.7369C9.41001 22.1299 9.83467 22.3424 10.2277 22.2116C10.6207 22.0807 10.8332 21.6561 10.7023 21.2631L9.27916 21.7369ZM8.2207 17.3775L7.78183 17.9857L8.2207 17.3775ZM5.55598 5.45942C5.44889 5.05928 5.03771 4.82173 4.63758 4.92882C4.23745 5.03591 3.99989 5.44709 4.10698 5.84723L5.55598 5.45942ZM5.2495 7.21519L4.525 7.40909V7.40909L5.2495 7.21519ZM3.59167 11.5885L3.1781 10.9628H3.1781L3.59167 11.5885ZM1.62738 11.9879C1.28183 12.2163 1.18688 12.6816 1.41529 13.0271C1.6437 13.3727 2.10898 13.4676 2.45453 13.2392L1.62738 11.9879ZM19.934 5.84732C20.0411 5.44719 19.8035 5.036 19.4034 4.92891C19.0032 4.82182 18.5921 5.05938 18.485 5.45951L19.934 5.84732ZM18.7914 7.21528L18.0669 7.02137L18.7914 7.21528ZM20.4493 11.5886L20.0357 12.2143L20.4493 11.5886ZM21.5864 13.2393C21.932 13.4677 22.3972 13.3728 22.6257 13.0272C22.8541 12.6817 22.7591 12.2164 22.4136 11.988L21.5864 13.2393ZM16.0902 3.83623C16.4287 3.5975 16.5096 3.12956 16.2709 2.79107C16.0321 2.45257 15.5642 2.3717 15.2257 2.61044L16.0902 3.83623ZM14.3376 4.15456L14.7699 4.76746V4.76746L14.3376 4.15456ZM9.66561 4.10403L9.22019 4.70744V4.70744L9.66561 4.10403ZM8.61537 2.39659C8.28212 2.15059 7.81254 2.22133 7.56655 2.55459C7.32055 2.88784 7.39129 3.35742 7.72454 3.60341L8.61537 2.39659ZM14.7793 11.3678L14.0626 11.589L14.7793 11.3678ZM9.19761 11.3678L9.91424 11.589L9.19761 11.3678ZM12.5948 9.46375L12.1392 10.0595L13.9757 11.4641L14.4313 10.8683L14.8869 10.2726L13.0504 8.86802L12.5948 9.46375ZM14.7793 11.9582L14.0626 11.737L13.3413 14.074L14.0579 14.2952L14.7746 14.5164L15.4959 12.1794L14.7793 11.9582ZM13.1036 15V14.25H10.8733V15V15.75H13.1036V15ZM9.91895 14.2952L10.6356 14.074L9.91425 11.737L9.19761 11.9582L8.48097 12.1794L9.20231 14.5164L9.91895 14.2952ZM9.54557 10.8683L10.0012 11.4641L11.8377 10.0595L11.3821 9.46375L10.9265 8.86802L9.08994 10.2726L9.54557 10.8683ZM20.1847 17V16.25H18.5696V17V17.75H20.1847V17ZM14.7793 19.7351L14.0677 19.4982L13.4801 21.2631L14.1916 21.5L14.9032 21.7369L15.4909 19.972L14.7793 19.7351ZM18.5696 17V16.25C17.892 16.25 17.3207 16.2489 16.8555 16.302C16.371 16.3574 15.9264 16.4781 15.5228 16.7693L15.9617 17.3775L16.4006 17.9857C16.5201 17.8994 16.6846 17.8313 17.0258 17.7923C17.3863 17.7511 17.8574 17.75 18.5696 17.75V17ZM14.7793 19.7351L15.4909 19.972C15.7161 19.2956 15.8662 18.8484 16.0193 18.5189C16.1643 18.2069 16.2809 18.072 16.4006 17.9857L15.9617 17.3775L15.5228 16.7693C15.1193 17.0605 14.8645 17.4444 14.659 17.8868C14.4615 18.3117 14.282 18.8545 14.0677 19.4982L14.7793 19.7351ZM3.99768 17V17.75H5.61277V17V16.25H3.99768V17ZM9.40313 19.7351L8.69153 19.972L9.27916 21.7369L9.99075 21.5L10.7023 21.2631L10.1147 19.4982L9.40313 19.7351ZM5.61277 17V17.75C6.32499 17.75 6.79609 17.7511 7.15657 17.7923C7.49782 17.8313 7.66227 17.8994 7.78183 17.9857L8.2207 17.3775L8.65956 16.7693C8.25596 16.4781 7.81136 16.3574 7.32691 16.302C6.86167 16.2489 6.2904 16.25 5.61277 16.25V17ZM9.40313 19.7351L10.1147 19.4982C9.90042 18.8545 9.72089 18.3117 9.52344 17.8868C9.31789 17.4445 9.0631 17.0605 8.65956 16.7693L8.2207 17.3775L7.78183 17.9857C7.90147 18.072 8.01813 18.2069 8.16313 18.5189C8.31623 18.8484 8.46633 19.2956 8.69153 19.972L9.40313 19.7351ZM4.83148 5.65332L4.10698 5.84723L4.525 7.40909L5.2495 7.21519L5.974 7.02128L5.55598 5.45942L4.83148 5.65332ZM3.59167 11.5885L3.1781 10.9628L1.62738 11.9879L2.04095 12.6136L2.45453 13.2392L4.00525 12.2142L3.59167 11.5885ZM5.2495 7.21519L4.525 7.40909C4.70932 8.09777 4.8302 8.55381 4.88377 8.91324C4.9345 9.25362 4.91138 9.43069 4.85895 9.56902L5.56025 9.83487L6.26155 10.1007C6.43794 9.63541 6.4393 9.17465 6.36738 8.69211C6.2983 8.22862 6.1494 7.67663 5.974 7.02128L5.2495 7.21519ZM3.59167 11.5885L4.00525 12.2142C4.57075 11.8404 5.04806 11.5262 5.40699 11.2252C5.78072 10.9119 6.08514 10.5661 6.26155 10.1007L5.56025 9.83487L4.85895 9.56902C4.80653 9.70729 4.70658 9.855 4.44319 10.0759C4.165 10.3091 3.77243 10.57 3.1781 10.9628L3.59167 11.5885ZM19.2095 5.65341L18.485 5.45951L18.0669 7.02137L18.7914 7.21528L19.5159 7.40918L19.934 5.84732L19.2095 5.65341ZM20.4493 11.5886L20.0357 12.2143L21.5864 13.2393L22 12.6137L22.4136 11.988L20.8628 10.9629L20.4493 11.5886ZM18.7914 7.21528L18.0669 7.02137C17.8915 7.67672 17.7426 8.22871 17.6736 8.6922C17.6016 9.17474 17.603 9.6355 17.7794 10.1008L18.4807 9.83496L19.182 9.56911C19.1296 9.43078 19.1064 9.25372 19.1572 8.91333C19.2107 8.5539 19.3316 8.09787 19.5159 7.40918L18.7914 7.21528ZM20.4493 11.5886L20.8628 10.9629C20.2685 10.5701 19.8759 10.3092 19.5977 10.0759C19.3344 9.85509 19.2344 9.70739 19.182 9.56911L18.4807 9.83496L17.7794 10.1008C17.9558 10.5662 18.2602 10.912 18.634 11.2253C18.9929 11.5263 19.4702 11.8405 20.0357 12.2143L20.4493 11.5886ZM15.658 3.22334L15.2257 2.61044L13.9053 3.54166L14.3376 4.15456L14.7699 4.76746L16.0902 3.83623L15.658 3.22334ZM9.66561 4.10403L10.111 3.50061L8.61537 2.39659L8.16996 3L7.72454 3.60341L9.22019 4.70744L9.66561 4.10403ZM14.3376 4.15456L13.9053 3.54166C13.3231 3.9523 12.9373 4.22303 12.6189 4.39721C12.3173 4.56214 12.1438 4.60125 11.9966 4.59965L11.9884 5.34961L11.9803 6.09957C12.478 6.10495 12.9109 5.94721 13.3387 5.7132C13.7496 5.48845 14.2159 5.15817 14.7699 4.76746L14.3376 4.15456ZM9.66561 4.10403L9.22019 4.70744C9.76561 5.11004 10.2247 5.45033 10.6306 5.68392C11.0533 5.92712 11.4827 6.09418 11.9803 6.09957L11.9884 5.34961L11.9966 4.59965C11.8493 4.59806 11.6766 4.5552 11.3788 4.38379C11.0642 4.20276 10.6843 3.92375 10.111 3.50061L9.66561 4.10403ZM14.4313 10.8683L13.9757 11.4641C14.0178 11.4963 14.0475 11.5399 14.0626 11.589L14.7793 11.3678L15.4959 11.1465C15.3911 10.807 15.1828 10.4989 14.8869 10.2726L14.4313 10.8683ZM14.7793 11.3678L14.0626 11.589C14.0773 11.6364 14.0779 11.6876 14.0626 11.737L14.7793 11.9582L15.4959 12.1794C15.6022 11.8349 15.5974 11.4754 15.4959 11.1465L14.7793 11.3678ZM18.4807 9.83496L18.1937 9.14203L14.4923 10.6748L14.7793 11.3678L15.0662 12.0607L18.7676 10.5279L18.4807 9.83496ZM12.5948 9.46375L13.0504 8.86802C12.7371 8.62838 12.3623 8.50841 11.9884 8.50841V9.25841V10.0084C12.0419 10.0084 12.0945 10.0253 12.1392 10.0595L12.5948 9.46375ZM11.9884 9.25841V8.50841C11.6145 8.50841 11.2398 8.62838 10.9265 8.86802L11.3821 9.46375L11.8377 10.0595C11.8824 10.0253 11.935 10.0084 11.9884 10.0084V9.25841ZM11.9884 9.25841H12.7384V5.34961H11.9884H11.2384V9.25841H11.9884ZM14.0579 14.2952L13.3413 14.074C13.3258 14.1241 13.2962 14.166 13.2572 14.1967L13.7212 14.786L14.1852 15.3752C14.4575 15.1608 14.6671 14.8646 14.7746 14.5164L14.0579 14.2952ZM13.7212 14.786L13.2572 14.1967C13.214 14.2308 13.1607 14.25 13.1036 14.25V15V15.75C13.5063 15.75 13.8846 15.6119 14.1852 15.3752L13.7212 14.786ZM15.9617 17.3775L16.5291 16.887L14.2885 14.2954L13.7212 14.786L13.1538 15.2765L15.3943 17.868L15.9617 17.3775ZM10.8733 15V14.25C10.8162 14.25 10.7629 14.2308 10.7197 14.1967L10.2557 14.786L9.79171 15.3752C10.0922 15.6119 10.4706 15.75 10.8733 15.75V15ZM10.2557 14.786L10.7197 14.1967C10.6807 14.166 10.651 14.1241 10.6356 14.074L9.91895 14.2952L9.20231 14.5164C9.30978 14.8646 9.51942 15.1608 9.79171 15.3752L10.2557 14.786ZM8.2207 17.3775L8.81057 17.8407L10.8456 15.2492L10.2557 14.786L9.66583 14.3228L7.63082 16.9143L8.2207 17.3775ZM9.19761 11.9582L9.91425 11.737C9.89898 11.6876 9.8996 11.6364 9.91424 11.589L9.19761 11.3678L8.48098 11.1465C8.37948 11.4754 8.37464 11.8349 8.48097 12.1794L9.19761 11.9582ZM9.19761 11.3678L9.91424 11.589C9.92938 11.5399 9.95904 11.4963 10.0012 11.4641L9.54557 10.8683L9.08994 10.2726C8.7941 10.4989 8.58578 10.807 8.48098 11.1465L9.19761 11.3678ZM9.19761 11.3678L9.48887 10.6766L5.85151 9.14373L5.56025 9.83487L5.26899 10.526L8.90635 12.0589L9.19761 11.3678Z" fill="black"/>
<path d="M4.00085 6.00037C5.01888 4.64041 6.39758 3.52194 8.07211 2.80651C13.1495 0.637194 19.0242 2.99469 21.1935 8.07211C23.3628 13.1495 21.0053 19.0242 15.9279 21.1935C10.8505 23.3628 4.97582 21.0053 2.80651 15.9279C2.09107 14.2533 1.868 12.4921 2.07249 10.8057" stroke="black" stroke-width="1.5" stroke-linecap="round"/>
</svg>
