<svg width="24" height="24" viewBox="0 0 24 24" fill="none" xmlns="http://www.w3.org/2000/svg">
<circle cx="18.5" cy="4.5" r="2.5" stroke="black" stroke-width="1.5"/>
<path d="M9 17L7.99923 18.2009C7.262 19.0856 6.89338 19.5279 6.38945 19.764C5.88552 20 5.30973 20 4.15813 20H3" stroke="black" stroke-width="1.5" stroke-linecap="round"/>
<path d="M13.65 21.9999C13.65 22.4141 13.9858 22.7499 14.4 22.7499C14.8142 22.7499 15.15 22.4141 15.15 21.9999H13.65ZM12.5646 16.2457L13.0175 15.6479L13.0175 15.6479L12.5646 16.2457ZM13.749 17.261L14.3362 16.7945L14.3362 16.7945L13.749 17.261ZM14.3059 18.3817L15.0324 18.1954L15.0324 18.1954L14.3059 18.3817ZM13.5042 11.555C13.8107 11.2763 13.8333 10.802 13.5546 10.4955C13.276 10.189 12.8017 10.1664 12.4952 10.445L13.5042 11.555ZM10.852 13.1644L11.5552 13.4252L11.5552 13.4252L10.852 13.1644ZM10.9217 14.72L10.2446 15.0426H10.2446L10.9217 14.72ZM14.4 19.9389H13.65V21.9999H14.4H15.15V19.9389H14.4ZM12.5646 16.2457L12.1117 16.8436C12.7753 17.3463 12.9989 17.5226 13.1617 17.7276L13.749 17.261L14.3362 16.7945C14.0279 16.4065 13.6189 16.1035 13.0175 15.6479L12.5646 16.2457ZM14.4 19.9389H15.15C15.15 19.1844 15.1555 18.6754 15.0324 18.1954L14.3059 18.3817L13.5794 18.5681C13.6445 18.8216 13.65 19.1063 13.65 19.9389H14.4ZM13.749 17.261L13.1617 17.7276C13.3585 17.9753 13.5008 18.2617 13.5794 18.5681L14.3059 18.3817L15.0324 18.1954C14.9014 17.6847 14.6642 17.2073 14.3362 16.7945L13.749 17.261ZM12.9997 11L12.4952 10.445C12.0756 10.8265 11.5504 11.2813 11.1412 11.6686C10.9318 11.8668 10.7314 12.0669 10.5678 12.2554C10.4193 12.4266 10.2412 12.6544 10.1488 12.9037L10.852 13.1644L11.5552 13.4252C11.5475 13.4461 11.5693 13.39 11.7008 13.2385C11.8172 13.1044 11.9768 12.9431 12.1723 12.758C12.5728 12.3789 13.0368 11.9799 13.5042 11.555L12.9997 11ZM12.5646 16.2457L13.0175 15.6479C12.53 15.2786 12.1997 15.0277 11.962 14.8161C11.7285 14.6083 11.6411 14.4864 11.5988 14.3975L10.9217 14.72L10.2446 15.0426C10.4117 15.3935 10.6681 15.6725 10.9647 15.9366C11.2571 16.1969 11.6436 16.4889 12.1117 16.8436L12.5646 16.2457ZM10.852 13.1644L10.1488 12.9037C9.89048 13.6003 9.92502 14.3719 10.2446 15.0426L10.9217 14.72L11.5988 14.3975C11.4535 14.0926 11.4378 13.7419 11.5552 13.4252L10.852 13.1644Z" fill="black"/>
<path d="M5.80619 9.47228C6.16633 9.26765 6.2924 8.80982 6.08777 8.44968C5.88315 8.08954 5.42531 7.96347 5.06517 8.16809L5.80619 9.47228ZM3.62949 8.98382C3.26935 9.18844 3.14328 9.64628 3.34791 10.0064C3.55253 10.3666 4.01037 10.4926 4.37051 10.288L3.62949 8.98382ZM13.4066 7.3567L13.1211 8.05024V8.05024L13.4066 7.3567ZM10.4467 6.64241L10.3924 5.89438L10.4467 6.64241ZM21 12.7495C21.4142 12.7495 21.75 12.4138 21.75 11.9995C21.75 11.5853 21.4142 11.2495 21 11.2495V12.7495ZM15.7681 9.53574L15.0973 9.87114V9.87114L15.7681 9.53574ZM8.73808 6.27245C8.34994 6.41711 8.15257 6.84902 8.29722 7.23715C8.44188 7.62528 8.87379 7.82266 9.26192 7.678L8.73808 6.27245ZM5.43568 8.82018L5.06517 8.16809L3.62949 8.98382L4 9.63591L4.37051 10.288L5.80619 9.47228L5.43568 8.82018ZM13.4066 7.3567L13.6921 6.66316C12.3481 6.10991 11.6111 5.80576 10.3924 5.89438L10.4467 6.64241L10.5011 7.39043C11.3248 7.33054 11.7575 7.48894 13.1211 8.05024L13.4066 7.3567ZM19.7546 11.9995V12.7495H21V11.9995V11.2495H19.7546V11.9995ZM15.7681 9.53574L15.0973 9.87114C15.9793 11.6352 17.7823 12.7495 19.7546 12.7495V11.9995V11.2495C18.3505 11.2495 17.0669 10.4562 16.4389 9.20033L15.7681 9.53574ZM15.7681 9.53574L16.4389 9.20033C15.8611 8.04461 14.8765 7.1507 13.6921 6.66316L13.4066 7.3567L13.1211 8.05024C13.9811 8.40424 14.6864 9.04944 15.0973 9.87114L15.7681 9.53574ZM9 6.97523L9.26192 7.678C9.71397 7.50953 10.1059 7.41917 10.5011 7.39043L10.4467 6.64241L10.3924 5.89438C9.83019 5.93526 9.29773 6.06387 8.73808 6.27245L9 6.97523Z" fill="black"/>
</svg>
