<svg width="24" height="24" viewBox="0 0 24 24" fill="none" xmlns="http://www.w3.org/2000/svg">
<path d="M11.9998 10.4001C13.7672 10.4001 15.1999 8.96737 15.1999 7.20004C15.1999 5.43271 13.7672 4 11.9998 4C10.2325 4 8.7998 5.43271 8.7998 7.20004C8.7998 8.96737 10.2325 10.4001 11.9998 10.4001Z" fill="black"/>
<path opacity="0.5" d="M17.4006 10.6001C18.947 10.6001 20.2007 9.34645 20.2007 7.80004C20.2007 6.25362 18.947 5 17.4006 5C15.8542 5 14.6006 6.25362 14.6006 7.80004C14.6006 9.34645 15.8542 10.6001 17.4006 10.6001Z" fill="black"/>
<path opacity="0.5" d="M6.60082 10.6001C8.14724 10.6001 9.40086 9.34645 9.40086 7.80004C9.40086 6.25362 8.14724 5 6.60082 5C5.0544 5 3.80078 6.25362 3.80078 7.80004C3.80078 9.34645 5.0544 10.6001 6.60082 10.6001Z" fill="black"/>
<path d="M5.59961 16.3999C5.59961 18.3881 5.59961 19.9999 11.9997 19.9999C18.3998 19.9999 18.3998 18.3881 18.3998 16.3999C18.3998 14.4116 15.5344 12.7998 11.9997 12.7998C8.46502 12.7998 5.59961 14.4116 5.59961 16.3999Z" fill="black"/>
<path opacity="0.5" d="M11.7998 15.8497C11.7998 17.5895 11.7998 18.9998 17.3999 18.9998C23 18.9998 23 17.5895 23 15.8497C23 14.11 20.4927 12.6997 17.3999 12.6997C14.307 12.6997 11.7998 14.11 11.7998 15.8497Z" fill="black"/>
<path opacity="0.5" d="M1 15.8497C1 17.5895 1 18.9998 6.60007 18.9998C12.2001 18.9998 12.2001 17.5895 12.2001 15.8497C12.2001 14.11 9.69291 12.6997 6.60007 12.6997C3.50724 12.6997 1 14.11 1 15.8497Z" fill="black"/>
</svg>
