<svg width="24" height="24" viewBox="0 0 24 24" fill="none" xmlns="http://www.w3.org/2000/svg">
<path fill-rule="evenodd" clip-rule="evenodd" d="M17.4006 4.99991C17.0345 4.99991 16.6847 5.0702 16.3641 5.19801C16.6441 5.80736 16.8002 6.48542 16.8002 7.19994C16.8002 8.29407 16.4342 9.30269 15.8178 10.11C16.2681 10.4191 16.8132 10.6 17.4006 10.6C18.947 10.6 20.2007 9.34636 20.2007 7.79995C20.2007 6.25353 18.947 4.99991 17.4006 4.99991ZM7.63643 5.19766C7.31609 5.07007 6.96665 4.99991 6.60082 4.99991C5.0544 4.99991 3.80078 6.25353 3.80078 7.79995C3.80078 9.34636 5.0544 10.6 6.60082 10.6C7.18792 10.6 7.73281 10.4193 8.18293 10.1105C7.56637 9.30308 7.20016 8.29428 7.20016 7.19994C7.20016 6.48528 7.35634 5.8071 7.63643 5.19766ZM23 15.85C23 17.3221 23 18.5583 19.6071 18.9038C20.0077 18.0281 20.0034 17.123 20.0006 16.5343C20.0003 16.4874 20.0001 16.4426 20.0001 16.4C20.0001 14.75 18.9412 13.5061 17.7139 12.7048C20.6607 12.7964 23 14.1695 23 15.85ZM4.39295 18.9038C3.99239 18.0281 3.99671 17.123 3.99952 16.5343C3.99975 16.4874 3.99996 16.4426 3.99996 16.4C3.99996 14.75 5.05892 13.5061 6.28616 12.7048C3.33935 12.7964 1 14.1695 1 15.85C1 17.3221 1 18.5583 4.39295 18.9038Z" fill="black"/>
<path d="M11.9002 10.4001C13.6676 10.4001 15.1003 8.96737 15.1003 7.20004C15.1003 5.43271 13.6676 4 11.9002 4C10.1329 4 8.7002 5.43271 8.7002 7.20004C8.7002 8.96737 10.1329 10.4001 11.9002 10.4001Z" fill="black"/>
<path d="M5.5 16.3999C5.5 18.3881 5.5 19.9999 11.9001 19.9999C18.3002 19.9999 18.3002 18.3881 18.3002 16.3999C18.3002 14.4116 15.4347 12.7998 11.9001 12.7998C8.36541 12.7998 5.5 14.4116 5.5 16.3999Z" fill="black"/>
</svg>
