<svg width="24" height="24" viewBox="0 0 24 24" fill="none" xmlns="http://www.w3.org/2000/svg">
<path opacity="0.5" d="M22 12C22 17.5228 17.5228 22 12 22C6.47715 22 2 17.5228 2 12C2 6.47715 6.47715 2 12 2C17.5228 2 22 6.47715 22 12Z" fill="black"/>
<path d="M12 13C14.2091 13 16 11.2091 16 9C16 6.79086 14.2091 5 12 5C9.79086 5 8 6.79086 8 9C8 11.2091 9.79086 13 12 13Z" fill="black"/>
<mask id="mask0_576_27140" style="mask-type:alpha" maskUnits="userSpaceOnUse" x="2" y="2" width="20" height="20">
<circle cx="12" cy="12" r="10" fill="#D9D9D9"/>
</mask>
<g mask="url(#mask0_576_27140)">
<path d="M19.0219 24.0224C17.0247 25.9007 14.6061 27 12.0001 27C9.39391 27 6.97529 25.9007 4.97808 24.0223C4.09599 23.1927 3.71902 21.6123 4.23189 20.3263C5.29508 17.6604 7.48584 16 12 16C16.5142 16 18.705 17.6605 19.7681 20.3265C20.281 21.6125 19.904 23.1928 19.0219 24.0224Z" fill="black"/>
</g>
</svg>
