<svg width="24" height="24" viewBox="0 0 24 24" fill="none" xmlns="http://www.w3.org/2000/svg">
<path fill-rule="evenodd" clip-rule="evenodd" d="M1.81828 5.27257C2.22012 5.17211 2.62732 5.41643 2.72778 5.81828L3.10975 7.34614C3.71957 9.78541 5.64125 11.6766 8.0847 12.2502H16.0002C18.0912 12.2502 19.8512 13.8153 20.0956 15.892L20.745 21.4125C20.7934 21.8239 20.4992 22.1966 20.0878 22.245C19.6764 22.2934 19.3037 21.9992 19.2553 21.5878L18.6058 16.0673C18.4504 14.746 17.3306 13.7502 16.0002 13.7502H7.91785L7.83748 13.7323C4.80227 13.0578 2.40864 10.7264 1.65454 7.70994L1.27257 6.18208C1.17211 5.78023 1.41643 5.37303 1.81828 5.27257Z" fill="black"/>
<path opacity="0.5" d="M8 13.75V18C8 19.8856 8 20.8284 8.58579 21.4142C9.17157 22 10.1144 22 12 22C13.8856 22 14.8284 22 15.4142 21.4142C16 20.8284 16 19.8856 16 18V13.75H8Z" fill="black"/>
<circle cx="12" cy="6" r="4" fill="black"/>
</svg>
