<svg width="24" height="24" viewBox="0 0 24 24" fill="none" xmlns="http://www.w3.org/2000/svg">
<path d="M13.926 9.70541C13.5474 9.33386 13.5474 8.74151 13.5474 7.55682V7.24712C13.5474 3.96249 13.5474 2.32018 12.6241 2.03721C11.7007 1.75425 10.711 3.09327 8.73167 5.77133L5.66953 9.91436C4.3848 11.6526 3.74244 12.5217 4.09639 13.205C4.10225 13.2164 4.10829 13.2276 4.1145 13.2387C4.48945 13.9117 5.59888 13.9117 7.81775 13.9117C9.05079 13.9117 9.6673 13.9117 10.054 14.2754" stroke="black" stroke-width="1.5"/>
<path opacity="0.5" d="M13.9259 9.70508L13.9459 9.72432C14.3326 10.088 14.9492 10.088 16.1822 10.088C18.4011 10.088 19.5105 10.088 19.8854 10.761C19.8917 10.7721 19.8977 10.7833 19.9036 10.7947C20.2575 11.478 19.6151 12.3471 18.3304 14.0853L15.2682 18.2283C13.2888 20.9064 12.2991 22.2454 11.3758 21.9624C10.4524 21.6795 10.4524 20.0371 10.4525 16.7525L10.4525 16.4429C10.4525 15.2582 10.4525 14.6658 10.074 14.2943L10.054 14.275" stroke="black" stroke-width="1.5"/>
</svg>
