<svg width="24" height="24" viewBox="0 0 24 24" fill="none" xmlns="http://www.w3.org/2000/svg">
<path d="M9.21249 10.1732L11.2275 8.56855C12.5301 7.5313 13.1813 7.01267 13.5907 7.26882C14 7.52498 13.7875 8.31815 13.3624 9.90451L13.3223 10.0541C13.169 10.6262 13.0923 10.9123 13.2271 11.1408L13.2343 11.1526C13.374 11.3783 13.6717 11.4581 14.2672 11.6177C15.3389 11.9048 15.8747 12.0484 15.9687 12.4219C15.9702 12.4281 15.9717 12.4343 15.9731 12.4406C16.0556 12.8164 15.6329 13.153 14.7874 13.8262L12.7724 15.4309C11.4698 16.4681 10.8186 16.9868 10.4092 16.7306C9.99991 16.4744 10.2125 15.6813 10.6375 14.0949L10.6776 13.9454C10.8309 13.3732 10.9076 13.0871 10.7729 12.8587L10.7657 12.8468C10.626 12.6211 10.3282 12.5413 9.73271 12.3818C8.66108 12.0946 8.12526 11.951 8.03126 11.5775C8.0297 11.5713 8.02824 11.5651 8.02688 11.5589C7.94436 11.1831 8.36707 10.8464 9.21249 10.1732Z" stroke="black" stroke-width="1.5"/>
<path opacity="0.5" d="M2 12C2 6.47715 6.47715 2 12 2C17.5228 2 22 6.47715 22 12C22 17.5228 17.5228 22 12 22C6.47715 22 2 17.5228 2 12Z" stroke="black" stroke-width="1.5"/>
</svg>
