<svg width="24" height="24" viewBox="0 0 24 24" fill="none" xmlns="http://www.w3.org/2000/svg">
<path d="M4.01207 15.7618L5.70156 10.6933C6.46758 8.39525 6.85059 7.24623 7.75684 7.03229C8.6631 6.81835 9.51953 7.67478 11.2324 9.38764L14.6114 12.7666C16.3242 14.4795 17.1807 15.3359 16.9667 16.2422C16.7528 17.1484 15.6038 17.5314 13.3057 18.2975L8.23724 19.987C5.47183 20.9088 4.08912 21.3697 3.35924 20.6398C2.62936 19.9099 3.09026 18.5272 4.01207 15.7618Z" stroke="black" stroke-width="1.5" stroke-linecap="round"/>
<path opacity="0.5" d="M12.2351 18.3461C12.2351 18.3461 11.477 16.0649 11.477 14.5552C11.477 13.0454 12.2351 10.7643 12.2351 10.7643M8.06517 19.4833C8.06517 19.4833 7.42484 16.7314 7.307 14.9343C7.11229 11.965 8.06517 7.35254 8.06517 7.35254" stroke="black" stroke-width="1.5" stroke-linecap="round"/>
<path d="M14.5093 10.0061L14.6533 9.28614C14.7986 8.55924 15.3224 7.96597 16.0256 7.73155C16.7289 7.49714 17.2526 6.90387 17.398 6.17697L17.542 5.45703" stroke="black" stroke-width="1.5" stroke-linecap="round"/>
<path d="M17.5693 13.2533L17.7822 13.3762C18.4393 13.7556 19.2655 13.6719 19.8332 13.1685C20.3473 12.7126 21.0794 12.597 21.709 12.8723L22.0005 12.9997" stroke="black" stroke-width="1.5" stroke-linecap="round"/>
<path d="M9.79513 2.77952C9.45764 3.33157 9.54223 4.04296 9.99976 4.50049L10.0976 4.59837C10.4908 4.99153 10.6358 5.56911 10.4749 6.10134" stroke="black" stroke-width="1.5" stroke-linecap="round"/>
<g opacity="0.5">
<path d="M6.92761 3.9403C7.13708 3.73084 7.47669 3.73084 7.68616 3.9403C7.89563 4.14977 7.89563 4.48939 7.68616 4.69886C7.47669 4.90833 7.13708 4.90833 6.92761 4.69886C6.71814 4.48939 6.71814 4.14977 6.92761 3.9403Z" fill="black"/>
</g>
<g opacity="0.5">
<path d="M12.1571 7.1571C12.3666 6.94763 12.7062 6.94763 12.9157 7.1571C13.1251 7.36657 13.1251 7.70619 12.9157 7.91566C12.7062 8.12512 12.3666 8.12512 12.1571 7.91566C11.9476 7.70619 11.9476 7.36657 12.1571 7.1571Z" fill="black"/>
</g>
<g opacity="0.5">
<path d="M17.1571 10.1571C17.3666 9.94763 17.7062 9.94763 17.9157 10.1571C18.1251 10.3666 18.1251 10.7062 17.9157 10.9157C17.7062 11.1251 17.3666 11.1251 17.1571 10.9157C16.9476 10.7062 16.9476 10.3666 17.1571 10.1571Z" fill="black"/>
</g>
<path opacity="0.5" d="M19.0582 15.3134C19.2677 15.1039 19.6073 15.1039 19.8168 15.3134C20.0262 15.5228 20.0262 15.8624 19.8168 16.0719C19.6073 16.2814 19.2677 16.2814 19.0582 16.0719C18.8488 15.8624 18.8488 15.5228 19.0582 15.3134Z" fill="black"/>
<path d="M19.1722 10.3275L18.6869 10.4476L18.7593 10.7404L19.0521 10.8129L19.1722 10.3275ZM21.0002 8.49951L20.5002 8.49818C20.4999 8.63125 20.5526 8.75897 20.6467 8.85307C20.7408 8.94716 20.8685 8.99987 21.0016 8.99951L21.0002 8.49951ZM19.1722 10.3275C19.6576 10.2074 19.6576 10.2075 19.6576 10.2076C19.6576 10.2076 19.6577 10.2077 19.6577 10.2077C19.6577 10.2078 19.6577 10.2078 19.6577 10.2078C19.6577 10.2078 19.6577 10.2078 19.6576 10.2075C19.6575 10.2071 19.6573 10.2063 19.657 10.205C19.6564 10.2024 19.6553 10.198 19.6539 10.1919C19.6511 10.1798 19.6468 10.1611 19.6415 10.1364C19.6307 10.0871 19.6158 10.0146 19.5997 9.92497C19.5673 9.74466 19.5312 9.50049 19.5145 9.24011C19.4976 8.97672 19.5019 8.71477 19.5414 8.49257C19.5823 8.26294 19.6508 8.13168 19.7151 8.06743L19.3615 7.71388L19.008 7.36032C18.7371 7.6312 18.6144 7.99421 18.5569 8.31748C18.4981 8.64818 18.4969 8.99774 18.5165 9.30399C18.5363 9.61323 18.5786 9.89681 18.6154 10.1018C18.6339 10.2049 18.6513 10.2894 18.6643 10.349C18.6708 10.3788 18.6762 10.4025 18.6801 10.4191C18.682 10.4275 18.6836 10.4341 18.6847 10.4389C18.6853 10.4413 18.6858 10.4432 18.6861 10.4447C18.6863 10.4454 18.6865 10.446 18.6866 10.4465C18.6867 10.4468 18.6867 10.447 18.6868 10.4472C18.6868 10.4473 18.6868 10.4474 18.6868 10.4474C18.6869 10.4475 18.6869 10.4476 19.1722 10.3275ZM19.3615 7.71388L19.7151 8.06743C19.9578 7.82467 20.1498 7.84323 20.2385 7.88421C20.3349 7.92873 20.5013 8.08837 20.5002 8.49818L21.0002 8.49951L21.5002 8.50085C21.5021 7.8168 21.2041 7.22868 20.6578 6.97637C20.1039 6.72052 19.4751 6.89319 19.008 7.36032L19.3615 7.71388ZM19.1722 10.3275C19.0521 10.8129 19.0522 10.8129 19.0523 10.8129C19.0524 10.8129 19.0525 10.813 19.0526 10.813C19.0528 10.813 19.053 10.8131 19.0532 10.8132C19.0537 10.8133 19.0543 10.8134 19.0551 10.8136C19.0565 10.814 19.0585 10.8144 19.0609 10.815C19.0656 10.8162 19.0723 10.8177 19.0806 10.8197C19.0973 10.8236 19.121 10.829 19.1508 10.8355C19.2104 10.8484 19.2949 10.8658 19.3979 10.8843C19.6029 10.9212 19.8865 10.9634 20.1958 10.9832C20.502 11.0028 20.8516 11.0017 21.1823 10.9429C21.5055 10.8854 21.8686 10.7627 22.1394 10.4918L21.7859 10.1382L21.4323 9.78469C21.3681 9.84895 21.2368 9.91748 21.0072 9.95832C20.785 9.99783 20.523 10.0021 20.2596 9.98526C19.9993 9.96859 19.7551 9.93249 19.5748 9.90009C19.4852 9.88399 19.4126 9.86903 19.3633 9.85831C19.3387 9.85295 19.3199 9.84866 19.3078 9.84584C19.3018 9.84443 19.2974 9.84339 19.2948 9.84276C19.2935 9.84244 19.2926 9.84223 19.2922 9.84213C19.292 9.84208 19.2919 9.84206 19.2919 9.84207C19.292 9.84207 19.292 9.84208 19.2921 9.8421C19.2921 9.8421 19.2922 9.84212 19.2922 9.84213C19.2923 9.84215 19.2924 9.84217 19.1722 10.3275ZM21.7859 10.1382L22.1394 10.4918C22.6066 10.0247 22.7792 9.39581 22.5234 8.84191C22.2711 8.29567 21.683 7.99769 20.9989 7.99951L21.0002 8.49951L21.0016 8.99951C21.4114 8.99842 21.571 9.16485 21.6156 9.26124C21.6565 9.34995 21.6751 9.54193 21.4323 9.78469L21.7859 10.1382Z" fill="black"/>
<path opacity="0.5" d="M15.1884 3.41748L15.1608 3.51459C15.1305 3.62126 15.1153 3.67459 15.1225 3.72695C15.1296 3.77931 15.1583 3.82476 15.2157 3.91567L15.2679 3.99844C15.4698 4.31836 15.5707 4.47831 15.5019 4.60915C15.4332 4.73998 15.2402 4.75504 14.8544 4.78517L14.7546 4.79296C14.6449 4.80152 14.5901 4.8058 14.5422 4.83099C14.4943 4.85618 14.4587 4.89943 14.3875 4.98592L14.3226 5.06467C14.072 5.36905 13.9467 5.52124 13.8038 5.50167C13.6609 5.4821 13.595 5.30373 13.4632 4.94699L13.4291 4.85469C13.3916 4.75332 13.3729 4.70263 13.3361 4.66584C13.2993 4.62905 13.2486 4.61033 13.1472 4.57287L13.0549 4.53878C12.6982 4.40698 12.5198 4.34108 12.5003 4.19815C12.4807 4.05522 12.6329 3.92992 12.9373 3.67932L13.016 3.61448C13.1025 3.54327 13.1458 3.50767 13.1709 3.45974C13.1961 3.41181 13.2004 3.35699 13.209 3.24735L13.2168 3.14753C13.2469 2.76169 13.262 2.56877 13.3928 2.50001C13.5236 2.43124 13.6836 2.53217 14.0035 2.73403L14.0863 2.78626C14.1772 2.84362 14.2226 2.8723 14.275 2.87947C14.3273 2.88664 14.3807 2.87148 14.4873 2.84117L14.5845 2.81358C14.9598 2.70692 15.1475 2.65359 15.2479 2.75402C15.3483 2.85445 15.295 3.04213 15.1884 3.41748Z" stroke="black"/>
</svg>
