<svg width="24" height="24" viewBox="0 0 24 24" fill="none" xmlns="http://www.w3.org/2000/svg">
<path d="M5 22V14V4V2" stroke="black" stroke-width="1.5" stroke-linecap="round"/>
<path opacity="0.5" d="M5 14.0005L7.47067 13.5064C9.1212 13.1763 10.8321 13.3334 12.3949 13.9585C14.0885 14.6359 15.9524 14.7624 17.722 14.32L17.8221 14.295C18.4082 14.1485 18.6861 13.4774 18.3753 12.9594L16.8147 10.3583C16.4732 9.78916 16.3024 9.50458 16.2619 9.19504C16.2451 9.06592 16.2451 8.93514 16.2619 8.80602C16.3024 8.49648 16.4732 8.2119 16.8147 7.64274L18.0932 5.51185C18.4278 4.95413 17.9211 4.27025 17.2901 4.42799C15.8013 4.8002 14.2331 4.69376 12.8082 4.12382L12.3949 3.9585C10.8321 3.33337 9.1212 3.17629 7.47067 3.5064L5 4.00053" stroke="black" stroke-width="1.5" stroke-linecap="round"/>
</svg>
