<svg width="24" height="24" viewBox="0 0 24 24" fill="none" xmlns="http://www.w3.org/2000/svg">
<path opacity="0.5" d="M2.36395 12.9579C1.98451 10.3208 1.79478 9.00229 2.33524 7.87495C2.87571 6.7476 4.02607 6.06234 6.32679 4.69181L7.71163 3.86687C9.80092 2.62229 10.8456 2 11.9999 2C13.1542 2 14.1988 2.62229 16.2881 3.86687L17.673 4.69181C19.9737 6.06234 21.1241 6.7476 21.6645 7.87495C22.205 9.00229 22.0153 10.3208 21.6358 12.9579L21.357 14.8952C20.8696 18.2827 20.6259 19.9764 19.4509 20.9882C18.2758 22 16.5525 22 13.106 22H10.8938C7.44725 22 5.72397 22 4.54891 20.9882C3.37384 19.9764 3.13013 18.2827 2.64272 14.8952L2.36395 12.9579Z" stroke="black" stroke-width="1.5"/>
<path d="M9 16C9.85038 16.6303 10.8846 17 12 17C13.1154 17 14.1496 16.6303 15 16" stroke="black" stroke-width="1.5" stroke-linecap="round"/>
</svg>
