<svg width="24" height="24" viewBox="0 0 24 24" fill="none" xmlns="http://www.w3.org/2000/svg">
<path opacity="0.5" d="M2.01096 10C1.96724 9.12544 2.0484 8.47327 2.33524 7.87495C2.8757 6.7476 4.02607 6.06234 6.32679 4.69181L7.71163 3.86687C9.80092 2.62229 10.8456 2 11.9999 2C13.1542 2 14.1988 2.62229 16.2881 3.86687L17.673 4.69181C19.9737 6.06233 21.1241 6.7476 21.6645 7.87495C22.205 9.00229 22.0153 10.3208 21.6358 12.9579L21.357 14.8952C20.8696 18.2827 20.6259 19.9764 19.4509 20.9882C18.3821 21.9085 16.8598 21.9917 13.9999 21.9993" stroke="black" stroke-width="1.5" stroke-linecap="round"/>
<path d="M11 22C11 17.0294 6.97056 13 2 13" stroke="black" stroke-width="1.5" stroke-linecap="round"/>
<path d="M8 22C8 18.6863 5.31371 16 2 16" stroke="black" stroke-width="1.5" stroke-linecap="round"/>
<path d="M5 22C5 20.3431 3.65685 19 2 19" stroke="black" stroke-width="1.5" stroke-linecap="round"/>
</svg>
