<svg width="24" height="24" viewBox="0 0 24 24" fill="none" xmlns="http://www.w3.org/2000/svg">
<path d="M2.81505 16.2498C2.94082 15.8551 2.72283 15.4332 2.32817 15.3075C1.93351 15.1817 1.51162 15.3997 1.38586 15.7943C1.19416 16.3959 1.17378 17.057 1.53513 17.6345C1.98799 18.3584 2.84178 18.641 3.68932 18.7221C4.10165 18.7615 4.4679 18.4593 4.50736 18.047C4.54683 17.6346 4.24456 17.2684 3.83223 17.2289C3.13788 17.1625 2.88379 16.9621 2.80675 16.8389C2.75703 16.7595 2.70503 16.595 2.81505 16.2498Z" fill="black"/>
<path d="M6.48552 18.5088C6.99795 18.4074 7.53843 18.2749 8.10053 18.113C7.57988 17.7802 7.10457 17.3827 6.68595 16.9318C6.51856 16.9705 6.35463 17.0056 6.19441 17.0373C5.78808 17.1177 5.52384 17.5123 5.60423 17.9186C5.60906 17.9431 5.61502 17.967 5.62206 17.9903C5.78674 18.1656 5.95856 18.3341 6.13707 18.4953C6.24704 18.5263 6.36577 18.5325 6.48552 18.5088Z" fill="black"/>
<path fill-rule="evenodd" clip-rule="evenodd" d="M19.0826 10.4435C18.4994 10.9735 17.8134 11.5232 17.039 12.075C16.7017 12.3153 16.623 12.7836 16.8634 13.121C17.1037 13.4583 17.572 13.537 17.9094 13.2966C18.3829 12.9593 18.8292 12.6197 19.2447 12.281C19.2483 12.1878 19.2501 12.0941 19.2501 12C19.2501 11.4657 19.1923 10.9449 19.0826 10.4435ZM8.10053 18.113C8.73685 17.9297 9.40087 17.7087 10.0832 17.4526C10.471 17.307 10.6674 16.8746 10.5218 16.4868C10.3762 16.099 9.94384 15.9027 9.55605 16.0483C8.52823 16.4341 7.55989 16.7301 6.68595 16.9318C7.10457 17.3827 7.57988 17.7802 8.10053 18.113ZM15.7507 14.7037C16.1062 14.4911 16.2221 14.0306 16.0095 13.6751C15.7969 13.3196 15.3364 13.2037 14.9809 13.4162C14.4993 13.7042 13.9976 13.9878 13.4783 14.2645C12.9448 14.5487 12.4135 14.8146 11.8885 15.0612C11.5136 15.2373 11.3524 15.684 11.5286 16.0589C11.7047 16.4338 12.1514 16.5949 12.5263 16.4188C13.0741 16.1615 13.6279 15.8844 14.1836 15.5883C14.7245 15.3002 15.2477 15.0044 15.7507 14.7037Z" fill="black"/>
<path d="M4.75009 12C4.75009 7.99594 7.99602 4.75 12.0001 4.75C15.4698 4.75 18.3703 7.18746 19.0826 10.4435C19.2833 10.2611 19.4719 10.081 19.6476 9.90396C19.865 9.68506 20.1838 9.62822 20.4538 9.734C20.1649 8.65332 19.6742 7.65506 19.0247 6.78204C19.4291 6.73635 19.7245 6.37527 19.687 5.96807C19.6491 5.5556 19.2839 5.252 18.8714 5.28997C18.5273 5.32164 18.1658 5.37181 17.7898 5.43925C16.2471 4.07679 14.2201 3.25 12.0001 3.25C7.1676 3.25 3.25009 7.16751 3.25009 12C3.25009 12.3435 3.2731 12.6824 3.31161 13.0156C2.97676 13.3513 2.67621 13.6843 2.41524 14.0109C2.15671 14.3346 2.20949 14.8065 2.53311 15.065C2.85674 15.3236 3.32867 15.2708 3.5872 14.9472C3.62607 14.8985 3.66621 14.8494 3.70762 14.7998C4.11318 16.0015 4.77259 17.0862 5.62206 17.9903C5.61502 17.967 5.60906 17.9431 5.60423 17.9186C5.52384 17.5123 5.78808 17.1177 6.19441 17.0373C6.35463 17.0056 6.51856 16.9705 6.68595 16.9318C5.48465 15.638 4.75009 13.9048 4.75009 12Z" fill="black"/>
<path d="M12.0001 20.75C16.8326 20.75 20.7501 16.8325 20.7501 12C20.7501 11.6555 20.7302 11.3157 20.6915 10.9815C20.266 11.4084 19.781 11.8439 19.2447 12.281C19.0971 16.1548 15.9101 19.25 12.0001 19.25C10.5646 19.25 9.22651 18.8328 8.10053 18.113C7.53843 18.2749 6.99795 18.4074 6.48552 18.5088C6.36577 18.5325 6.24704 18.5263 6.13707 18.4953C7.68861 19.8967 9.7447 20.75 12.0001 20.75Z" fill="black"/>
<path d="M19.6476 9.90396C19.4719 10.081 19.2833 10.2611 19.0826 10.4435C19.1923 10.9449 19.2501 11.4657 19.2501 12C19.2501 12.0941 19.2483 12.1878 19.2447 12.281C19.781 11.8439 20.266 11.4084 20.6915 10.9815C20.6421 10.5556 20.5621 10.139 20.4538 9.734C20.1838 9.62822 19.865 9.68506 19.6476 9.90396Z" fill="black"/>
<path d="M20.9369 5.37889C20.5338 5.28343 20.1297 5.53278 20.0342 5.93584C19.9388 6.3389 20.1881 6.74304 20.5912 6.83851C20.9852 6.93184 21.137 7.0709 21.1934 7.16107C21.2568 7.26234 21.3265 7.52697 21.0366 8.10903C20.8519 8.47979 21.0027 8.93007 21.3735 9.11475C21.7442 9.29944 22.1945 9.14859 22.3792 8.77783C22.7569 8.01968 22.9424 7.12851 22.465 6.36547C22.1209 5.81539 21.5418 5.52217 20.9369 5.37889Z" fill="black"/>
<path d="M20.7121 10.9608C21.0039 10.6668 21.0022 10.192 20.7083 9.90014C20.6332 9.82564 20.5464 9.77026 20.4538 9.734C20.5621 10.139 20.6421 10.5556 20.6915 10.9815L20.7121 10.9608Z" fill="black"/>
</svg>
