<svg width="24" height="24" viewBox="0 0 24 24" fill="none" xmlns="http://www.w3.org/2000/svg">
<path fill-rule="evenodd" clip-rule="evenodd" d="M17.4058 1.25004C17.4522 1.25007 17.4992 1.25009 17.5468 1.25009L18.1673 1.25009C19.0388 1.25006 19.7675 1.25004 20.3464 1.32763C20.9581 1.40962 21.5136 1.59037 21.9607 2.03612C22.4081 2.48218 22.5898 3.03701 22.6722 3.64789C22.7501 4.22551 22.7501 4.95241 22.7501 5.82101V6.44002C22.7501 6.4877 22.7501 6.53475 22.7501 6.58119C22.7506 7.63124 22.751 8.36819 22.4709 9.04242C22.1909 9.71642 21.6683 10.2369 20.9231 10.9791C20.8902 11.0119 20.8568 11.0451 20.823 11.0788L18.1532 13.7406L18.2463 13.8843C18.64 14.4923 18.9589 14.9848 19.1891 15.4095C19.4276 15.8494 19.597 16.262 19.6649 16.7185C19.774 17.4523 19.6753 18.2066 19.3861 18.8996C19.2788 19.1566 19.0932 19.4259 18.9028 19.6714C18.7034 19.9286 18.4596 20.2088 18.1977 20.4941C17.6764 21.0621 17.0507 21.686 16.4953 22.2397L16.4042 22.3305C15.6843 23.0483 14.4363 22.8156 14.0524 21.8525C13.8248 21.2814 13.7326 21.0538 13.6173 20.8435C13.5104 20.6486 13.3878 20.4627 13.2505 20.2876C13.1045 20.1012 12.9337 19.9287 12.5104 19.5066L12.0056 19.064C11.9986 19.0578 11.9916 19.0515 11.9848 19.0451C11.8913 19.0572 11.7965 19.0634 11.6999 19.0634C11.0684 19.0634 10.5475 18.7998 10.0564 18.4262C9.59183 18.0729 9.07644 17.559 8.46027 16.9446L7.01365 15.5024C6.3975 14.8881 5.88207 14.3743 5.5276 13.911C5.15294 13.4215 4.88765 12.901 4.88765 12.2693C4.88765 12.1547 4.89645 12.0425 4.91354 11.9325L4.08311 11.1046C4.03469 11.0563 4.01531 11.037 3.99617 11.0185C3.62251 10.6559 3.18287 10.3675 2.70071 10.1689C2.67602 10.1587 2.65054 10.1486 2.58691 10.1234L2.20827 9.97334C1.19472 9.57173 0.921885 8.26365 1.69568 7.4922L1.70274 7.48516C2.25816 6.93141 2.8839 6.30756 3.45354 5.78791C3.73977 5.5268 4.02077 5.28373 4.27869 5.08494C4.525 4.89509 4.7948 4.71029 5.05204 4.60356C5.74626 4.31552 6.50167 4.21738 7.23635 4.32595C7.69325 4.39347 8.10646 4.56205 8.54757 4.79974C8.97345 5.02923 9.46734 5.34711 10.0772 5.73965L10.2249 5.8347L12.8972 3.17043C12.9309 3.13686 12.9641 3.10371 12.9968 3.071C13.7416 2.32769 14.2635 1.80689 14.9389 1.52798C15.614 1.24915 16.352 1.24952 17.4058 1.25004ZM9.13759 6.91875C8.57759 6.55864 8.1745 6.30262 7.83602 6.12024C7.47695 5.92675 7.23646 5.84226 7.01706 5.80984C6.55891 5.74213 6.07756 5.80205 5.62689 5.98904C5.55957 6.01697 5.41784 6.10078 5.1944 6.27299C4.98258 6.43625 4.73564 6.6487 4.46447 6.89608C3.92173 7.39119 3.31779 7.9931 2.75473 8.55446C2.75155 8.55763 2.75053 8.55938 2.75044 8.55953C2.75035 8.5597 2.75044 8.55952 2.75044 8.55953C2.75034 8.55988 2.74963 8.56283 2.75057 8.56737C2.75151 8.57191 2.75321 8.5744 2.75368 8.57497C2.75396 8.57517 2.75639 8.57707 2.76084 8.57883L3.14456 8.73088C3.2016 8.75348 3.23692 8.76748 3.27212 8.78198C3.93007 9.05306 4.53032 9.44669 5.04072 9.94193C5.06804 9.96843 5.09493 9.99525 5.13835 10.0385L5.6161 10.5149C5.6815 10.4336 5.74978 10.353 5.82028 10.2725C6.14205 9.90528 6.55546 9.49312 7.03402 9.016L9.13759 6.91875ZM13.4546 18.3396L13.5355 18.4104L13.587 18.4619C13.9777 18.8513 14.2198 19.0926 14.4312 19.3624C14.6187 19.6016 14.7863 19.8557 14.9325 20.1222C15.0921 20.4133 15.2159 20.7203 15.409 21.2047L15.4292 21.1845C15.9922 20.6231 16.5959 20.021 17.0925 19.4799C17.3406 19.2096 17.5537 18.9634 17.7174 18.7522C17.8902 18.5294 17.974 18.3884 18.0018 18.3218C18.189 17.8733 18.2489 17.3946 18.1812 16.9391C18.1488 16.7214 18.0644 16.4822 17.8704 16.1244C17.6871 15.7863 17.4297 15.3835 17.0673 14.8233L14.9587 16.9256C14.4688 17.414 14.0468 17.8348 13.6709 18.1594C13.5991 18.2214 13.5271 18.2816 13.4546 18.3396ZM17.5468 2.75009C16.2949 2.75009 15.8773 2.7633 15.5114 2.9144C15.1458 3.06541 14.8415 3.35009 13.9562 4.23268L8.1094 10.062C7.61096 10.5589 7.23311 10.9362 6.94844 11.2611C6.66244 11.5874 6.51645 11.8109 6.44547 11.9874C6.40407 12.0903 6.38765 12.1792 6.38765 12.2693C6.38765 12.4398 6.44607 12.643 6.71881 12.9994C7.00473 13.3731 7.44696 13.8162 8.1094 14.4767L8.26654 14.6333L9.79703 13.1074C10.0904 12.815 10.5652 12.8157 10.8577 13.109C11.1501 13.4024 11.1494 13.8772 10.8561 14.1697L9.3288 15.6924L9.48275 15.8459C10.1452 16.5063 10.5897 16.9473 10.9645 17.2324C11.3219 17.5043 11.5269 17.5634 11.6999 17.5634C11.7847 17.5634 11.8672 17.5491 11.9596 17.5151C12.135 17.4505 12.3587 17.3107 12.6905 17.0241C13.021 16.7387 13.4058 16.3557 13.9171 15.8459L19.7639 10.0166C20.6494 9.13374 20.9346 8.83068 21.0857 8.46692C21.2367 8.10341 21.2501 7.68861 21.2501 6.44002V5.87287C21.2501 4.93878 21.2485 4.31389 21.1857 3.84835C21.1258 3.40463 21.0231 3.21946 20.9017 3.09837C20.7799 2.97697 20.5933 2.87414 20.1471 2.81434C19.6796 2.75167 19.0523 2.75009 18.1156 2.75009H17.5468ZM16.6638 7.32353C16.198 6.85916 15.4419 6.85916 14.9762 7.32353C14.5116 7.78666 14.5116 8.53661 14.9762 8.99974C15.4419 9.46412 16.198 9.46412 16.6638 8.99974C17.1283 8.53661 17.1283 7.78666 16.6638 7.32353ZM13.9171 6.26128C14.9683 5.21324 16.6717 5.21324 17.7229 6.26128C18.7753 7.31056 18.7753 9.01271 17.7229 10.062C16.6717 11.11 14.9683 11.11 13.9171 10.062C12.8647 9.01271 12.8647 7.31056 13.9171 6.26128Z" fill="black"/>
</svg>
