<svg width="24" height="24" viewBox="0 0 24 24" fill="none" xmlns="http://www.w3.org/2000/svg">
<path d="M20 18.4151C20.3136 18.2627 20.5862 18.0706 20.8284 17.8284C22 16.6569 22 14.7712 22 11C22 10.6508 22 10.3178 21.9991 10M4 18.4151C3.68645 18.2627 3.41375 18.0706 3.17157 17.8284C2 16.6569 2 14.7712 2 11C2 7.22876 2 5.34315 3.17157 4.17157C4.34315 3 6.22876 3 10 3H14C17.7712 3 19.6569 3 20.8284 4.17157C21.298 4.64118 21.5794 5.2255 21.748 6" stroke="black" stroke-width="1.5" stroke-linecap="round"/>
<path d="M9.94955 16.05C10.8806 15.119 11.3461 14.6534 11.9209 14.6232C11.9735 14.6204 12.0261 14.6204 12.0787 14.6232C12.6535 14.6534 13.119 15.119 14.0501 16.05C16.0759 18.0759 17.0888 19.0888 16.8053 19.9627C16.7809 20.0379 16.7506 20.1109 16.7147 20.1813C16.2973 20.9998 14.8648 20.9998 11.9998 20.9998C9.13482 20.9998 7.70233 20.9998 7.28489 20.1813C7.249 20.1109 7.21873 20.0379 7.19436 19.9627C6.91078 19.0888 7.92371 18.0759 9.94955 16.05Z" stroke="black" stroke-width="1.5"/>
</svg>
