<svg width="24" height="24" viewBox="0 0 24 24" fill="none" xmlns="http://www.w3.org/2000/svg">
<path fill-rule="evenodd" clip-rule="evenodd" d="M10.0069 3.77144L4.00691 9.10478C3.36644 9.67408 3 10.4901 3 11.347V21.2498H2C1.58579 21.2498 1.25 21.5856 1.25 21.9998C1.25 22.414 1.58579 22.7498 2 22.7498H22C22.4142 22.7498 22.75 22.414 22.75 21.9998C22.75 21.5856 22.4142 21.2498 22 21.2498H21V11.347C21 10.4901 20.6336 9.67408 19.9931 9.10478L13.9931 3.77144C12.8564 2.76108 11.1436 2.76108 10.0069 3.77144ZM10 8.24981C9.58579 8.24981 9.25 8.58559 9.25 8.99981C9.25 9.41402 9.58579 9.74981 10 9.74981H14C14.4142 9.74981 14.75 9.41402 14.75 8.99981C14.75 8.58559 14.4142 8.24981 14 8.24981H10ZM14.052 11.2498C14.9505 11.2498 15.6997 11.2498 16.2945 11.3297C16.9223 11.4141 17.4891 11.5998 17.9445 12.0553C18.4 12.5107 18.5857 13.0775 18.6701 13.7053C18.7501 14.3001 18.75 15.0493 18.75 15.9478L18.75 21.2498H17.25H6.75H5.25L5.25 15.9478C5.24997 15.0493 5.24994 14.3001 5.32991 13.7053C5.41432 13.0775 5.59999 12.5107 6.05546 12.0553C6.51093 11.5998 7.07773 11.4141 7.70552 11.3297C8.3003 11.2498 9.04952 11.2498 9.948 11.2498H14.052Z" fill="black"/>
<path opacity="0.5" d="M14.052 11.25H9.948H9.94797C9.04952 11.25 8.30029 11.2499 7.70552 11.3299C7.07773 11.4143 6.51093 11.6 6.05546 12.0555C5.59999 12.5109 5.41432 13.0777 5.32991 13.7055C5.24995 14.3003 5.24997 15.0495 5.25 15.9479V15.9479L5.25 21.25H18.75L18.75 15.948C18.75 15.0496 18.7501 14.3003 18.6701 13.7055C18.5857 13.0777 18.4 12.5109 17.9445 12.0555C17.4891 11.6 16.9223 11.4143 16.2945 11.3299C15.6997 11.2499 14.9505 11.25 14.052 11.25H14.052Z" fill="black"/>
<path d="M9 14.75C8.58579 14.75 8.25 15.0858 8.25 15.5C8.25 15.9142 8.58579 16.25 9 16.25H15C15.4142 16.25 15.75 15.9142 15.75 15.5C15.75 15.0858 15.4142 14.75 15 14.75H9Z" fill="black"/>
<path d="M9 17.75C8.58579 17.75 8.25 18.0858 8.25 18.5C8.25 18.9142 8.58579 19.25 9 19.25H15C15.4142 19.25 15.75 18.9142 15.75 18.5C15.75 18.0858 15.4142 17.75 15 17.75H9Z" fill="black"/>
</svg>
