<svg width="24" height="24" viewBox="0 0 24 24" fill="none" xmlns="http://www.w3.org/2000/svg">
<path fill-rule="evenodd" clip-rule="evenodd" d="M21.5315 11.5856L20.75 10.9604V21.2499H22C22.4142 21.2499 22.75 21.5857 22.75 21.9999C22.75 22.4141 22.4142 22.7499 22 22.7499H2.00003C1.58581 22.7499 1.25003 22.4141 1.25003 21.9999C1.25003 21.5857 1.58581 21.2499 2.00003 21.2499H3.25003V10.9604L2.46855 11.5856C2.1451 11.8443 1.67313 11.7919 1.41438 11.4684C1.15562 11.145 1.20806 10.673 1.53151 10.4143L9.65742 3.91354C11.027 2.81788 12.9731 2.81788 14.3426 3.91354L22.4685 10.4143C22.792 10.673 22.8444 11.145 22.5857 11.4684C22.3269 11.7919 21.855 11.8443 21.5315 11.5856ZM12 6.74992C10.4812 6.74992 9.25003 7.98114 9.25003 9.49992C9.25003 11.0187 10.4812 12.2499 12 12.2499C13.5188 12.2499 14.75 11.0187 14.75 9.49992C14.75 7.98114 13.5188 6.74992 12 6.74992ZM13.7459 13.3115C13.2871 13.2499 12.7143 13.2499 12.0494 13.2499H11.9507C11.2858 13.2499 10.7129 13.2499 10.2542 13.3115C9.76255 13.3776 9.29128 13.5267 8.90904 13.9089C8.52679 14.2912 8.37773 14.7624 8.31163 15.2541C8.24996 15.7128 8.24999 16.2857 8.25003 16.9505L8.25003 21.2499H9.75003H14.25H15.75L15.75 16.9506L15.75 16.827C15.7498 16.2145 15.7462 15.6841 15.6884 15.2541C15.6223 14.7624 15.4733 14.2912 15.091 13.9089C14.7088 13.5267 14.2375 13.3776 13.7459 13.3115Z" fill="black"/>
<g opacity="0.5">
<path fill-rule="evenodd" clip-rule="evenodd" d="M10.75 9.5C10.75 8.80964 11.3096 8.25 12 8.25C12.6904 8.25 13.25 8.80964 13.25 9.5C13.25 10.1904 12.6904 10.75 12 10.75C11.3096 10.75 10.75 10.1904 10.75 9.5Z" fill="black"/>
<path fill-rule="evenodd" clip-rule="evenodd" d="M10.75 9.5C10.75 8.80964 11.3096 8.25 12 8.25C12.6904 8.25 13.25 8.80964 13.25 9.5C13.25 10.1904 12.6904 10.75 12 10.75C11.3096 10.75 10.75 10.1904 10.75 9.5Z" fill="black"/>
</g>
<path opacity="0.5" d="M12.0494 13.25C12.7142 13.25 13.2871 13.2499 13.7458 13.3116C14.2375 13.3777 14.7087 13.5268 15.091 13.909C15.4732 14.2913 15.6223 14.7625 15.6884 15.2542C15.7462 15.6842 15.7498 16.2146 15.75 16.827L15.75 21.25H8.25L8.25 16.9506C8.24997 16.2858 8.24993 15.7129 8.31161 15.2542C8.37771 14.7625 8.52677 14.2913 8.90901 13.909C9.29126 13.5268 9.76252 13.3777 10.2542 13.3116C10.7129 13.2499 11.2858 13.25 11.9506 13.25H12.0494Z" fill="black"/>
<path opacity="0.5" d="M16 3H18.5C18.7761 3 19 3.22386 19 3.5L19 7.63955L15.5 4.83955V3.5C15.5 3.22386 15.7239 3 16 3Z" fill="black"/>
</svg>
