<svg width="24" height="24" viewBox="0 0 24 24" fill="none" xmlns="http://www.w3.org/2000/svg">
<path opacity="0.5" d="M11.0001 2.00012C6.94506 2.00743 4.82162 2.10698 3.46459 3.46401C2.00012 4.92848 2.00012 7.2855 2.00012 11.9995C2.00012 16.7136 2.00012 19.0706 3.46459 20.5351C4.92905 21.9995 7.28608 21.9995 12.0001 21.9995C16.7142 21.9995 19.0712 21.9995 20.5357 20.5351C21.8927 19.178 21.9922 17.0546 21.9995 12.9995" stroke="black" stroke-width="1.5" stroke-linecap="round"/>
<path d="M13 11L22 2M22 2H16.6562M22 2V7.34375M21 3L12 12M12 12H16M12 12V8" stroke="black" stroke-width="1.5" stroke-linecap="round" stroke-linejoin="round"/>
</svg>
