<svg width="24" height="24" viewBox="0 0 24 24" fill="none" xmlns="http://www.w3.org/2000/svg">
<path opacity="0.5" d="M2 6.94975C2 6.06722 2 5.62595 2.06935 5.25839C2.37464 3.64031 3.64031 2.37464 5.25839 2.06935C5.62595 2 6.06722 2 6.94975 2C7.33642 2 7.52976 2 7.71557 2.01738C8.51665 2.09229 9.27652 2.40704 9.89594 2.92051C10.0396 3.03961 10.1763 3.17633 10.4497 3.44975L11 4C11.8158 4.81578 12.2237 5.22367 12.7121 5.49543C12.9804 5.64471 13.2651 5.7626 13.5604 5.84678C14.0979 6 14.6747 6 15.8284 6H16.2021C18.8345 6 20.1506 6 21.0062 6.76946C21.0849 6.84024 21.1598 6.91514 21.2305 6.99383C22 7.84935 22 9.16554 22 11.7979V14C22 17.7712 22 19.6569 20.8284 20.8284C19.6569 22 17.7712 22 14 22H10C6.22876 22 4.34315 22 3.17157 20.8284C2 19.6569 2 17.7712 2 14V6.94975Z" fill="black"/>
<path d="M19.9996 6.23751C19.9987 5.94016 19.9944 5.76263 19.9741 5.60842C19.7969 4.26222 18.7376 3.2029 17.3914 3.02567C17.1964 3 16.9642 3 16.4998 3H9.98779C10.1037 3.10392 10.2342 3.23445 10.4495 3.44975L10.9998 4C11.8156 4.81578 12.2235 5.22367 12.7119 5.49543C12.9802 5.64471 13.2648 5.7626 13.5601 5.84678C14.0977 6 14.6745 6 15.8282 6H16.2019C17.9809 6 19.1588 6 19.9996 6.23751Z" fill="black"/>
<path fill-rule="evenodd" clip-rule="evenodd" d="M12.25 10C12.25 9.58579 12.5858 9.25 13 9.25H18C18.4142 9.25 18.75 9.58579 18.75 10C18.75 10.4142 18.4142 10.75 18 10.75H13C12.5858 10.75 12.25 10.4142 12.25 10Z" fill="black"/>
</svg>
