<svg width="24" height="24" viewBox="0 0 24 24" fill="none" xmlns="http://www.w3.org/2000/svg">
<path opacity="0.5" fill-rule="evenodd" clip-rule="evenodd" d="M20.9995 22.75C20.5853 22.75 20.2495 22.4142 20.2495 22L20.2495 2C20.2495 1.58579 20.5853 1.25 20.9995 1.25C21.4137 1.25 21.7495 1.58579 21.7495 2L21.7495 22C21.7495 22.4142 21.4137 22.75 20.9995 22.75ZM2.99951 22.75C2.5853 22.75 2.24951 22.4142 2.24951 22L2.24951 2C2.24951 1.58579 2.5853 1.25 2.99951 1.25C3.41373 1.25 3.74951 1.58579 3.74951 2L3.74951 22C3.74951 22.4142 3.41372 22.75 2.99951 22.75Z" fill="black"/>
<path d="M12 20C13.8856 20 14.8284 20 15.4142 19.4142C16 18.8284 16 17.8856 16 16L16 8C16 6.11438 16 5.17157 15.4142 4.58579C14.8284 4 13.8856 4 12 4C10.1144 4 9.17157 4 8.58579 4.58579C8 5.17157 8 6.11438 8 8L8 16C8 17.8856 8 18.8284 8.58579 19.4142C9.17157 20 10.1144 20 12 20Z" fill="black"/>
</svg>
