<svg width="24" height="24" viewBox="0 0 24 24" fill="none" xmlns="http://www.w3.org/2000/svg">
<path fill-rule="evenodd" clip-rule="evenodd" d="M12.6688 1.51033C13.3163 1.14123 14.1521 1.14042 14.8509 1.66457C16.6984 3.05035 18.7499 5.44509 18.7499 8.80739C18.7499 11.5394 17.5552 13.3133 16.0287 14.3768C14.5415 15.4129 12.7817 15.7499 11.5999 15.7499C10.5303 15.7499 8.95615 15.4018 7.63279 14.3482C6.27652 13.2683 5.24995 11.4986 5.24995 8.80739C5.24995 6.38391 6.65537 4.82595 7.84335 4.02968C8.7644 3.41234 10.1354 3.81387 10.3153 5.06983C10.3812 5.52966 10.618 5.85734 10.7873 5.96785C10.8071 5.98073 10.822 5.98839 10.8325 5.99289C10.8517 5.97705 10.8846 5.94352 10.9272 5.87666C11.4098 5.11986 11.6029 4.03939 11.6029 3.3889C11.6029 2.56945 12.0352 1.87144 12.6688 1.51033ZM10.8133 6.00565C10.8133 6.00551 10.8147 6.00468 10.8177 6.00358C10.8148 6.00525 10.8133 6.00579 10.8133 6.00565ZM10.8484 5.99844C10.8507 5.99856 10.8519 5.99884 10.8519 5.99895C10.8519 5.99906 10.8508 5.999 10.8484 5.99844ZM13.4116 2.81349C13.2456 2.90811 13.1029 3.10904 13.1029 3.3889C13.1029 4.22386 12.8748 5.6123 12.1919 6.68317C11.945 7.07048 11.5948 7.37008 11.1441 7.46694C10.6968 7.56306 10.2841 7.43066 9.96739 7.22391C9.35842 6.82638 8.94292 6.06746 8.83048 5.28253C8.8284 5.26801 8.82536 5.25962 8.8237 5.25576C8.82203 5.25187 8.8208 5.25031 8.82052 5.24997L8.82051 5.24995C8.82032 5.2497 8.81836 5.24714 8.81105 5.24428C8.79779 5.2391 8.74939 5.22817 8.67851 5.27568C7.7613 5.89046 6.74995 7.0363 6.74995 8.80739C6.74995 11.0702 7.59004 12.3968 8.5671 13.1747C9.57707 13.9788 10.803 14.2499 11.5999 14.2499C12.5515 14.2499 13.9917 13.9677 15.1712 13.146C16.3113 12.3518 17.2499 11.0294 17.2499 8.80739C17.2499 6.10679 15.6038 4.10433 13.9509 2.86452C13.7517 2.71514 13.5636 2.72686 13.4116 2.81349ZM15.2155 9.28157C15.6122 9.40059 15.8373 9.81871 15.7183 10.2155C15.4494 11.1118 14.3343 12.7499 11.9999 12.7499C11.5857 12.7499 11.2499 12.4142 11.2499 11.9999C11.2499 11.5857 11.5857 11.2499 11.9999 11.2499C13.5056 11.2499 14.1505 10.2214 14.2816 9.78443C14.4006 9.38768 14.8187 9.16255 15.2155 9.28157ZM3.31283 14.6993C3.47885 14.3198 3.92107 14.1468 4.30056 14.3128L9.30056 16.5003C9.68004 16.6663 9.85309 17.1086 9.68706 17.4881C9.52104 17.8675 9.07882 18.0406 8.69933 17.8746L3.69933 15.6871C3.31985 15.521 3.1468 15.0788 3.31283 14.6993ZM20.6871 14.6993C20.8531 15.0788 20.68 15.521 20.3006 15.6871L4.30056 22.6871C3.92107 22.8531 3.47885 22.68 3.31283 22.3006C3.1468 21.9211 3.31985 21.4788 3.69933 21.3128L19.6993 14.3128C20.0788 14.1468 20.521 14.3198 20.6871 14.6993ZM13.8128 19.2931C13.9789 18.9136 14.4211 18.7405 14.8006 18.9066L20.3006 21.3128C20.68 21.4788 20.8531 21.9211 20.6871 22.3006C20.521 22.68 20.0788 22.8531 19.6993 22.6871L14.1993 20.2808C13.8198 20.1148 13.6468 19.6726 13.8128 19.2931Z" fill="black"/>
</svg>
