<svg width="24" height="24" viewBox="0 0 24 24" fill="none" xmlns="http://www.w3.org/2000/svg">
<path d="M14.8591 1.58787C15.5684 1.26688 16.3265 1.08379 17.0573 1.45994C17.7943 1.83934 18.0742 2.56535 18.2067 3.32615C18.3362 4.06957 18.3608 5.06716 18.3903 6.28123L18.4079 7.00193C18.4271 7.7902 18.4462 7.95712 18.5095 8.08982C18.5712 8.2193 18.6821 8.33283 19.277 8.83006L19.822 9.28514C20.7349 10.0481 21.4884 10.6772 21.9821 11.2383C22.4937 11.8195 22.8692 12.4872 22.7155 13.2998C22.5638 14.101 21.9793 14.6028 21.2956 14.9902C20.6284 15.3683 19.6906 15.7337 18.5446 16.1806L18.487 16.2031L17.8688 16.4443C17.1314 16.7319 16.9664 16.8114 16.8464 16.9287C16.7261 17.0464 16.6423 17.2104 16.3366 17.9424L16.0563 18.6142C15.5808 19.753 15.1924 20.6844 14.7985 21.3437C14.3957 22.0181 13.8805 22.593 13.0759 22.7246C12.2583 22.8581 11.6012 22.4602 11.0368 21.9316C10.4915 21.4209 9.88512 20.6478 9.15008 19.7109L8.71161 19.1523C8.23252 18.5417 8.12303 18.4273 7.99676 18.3623C7.86803 18.296 7.70429 18.2718 6.91864 18.2314L6.20184 18.1943C4.99466 18.1323 4.00157 18.0816 3.26434 17.9316C2.50822 17.7778 1.79263 17.4763 1.43524 16.7275C1.08202 15.9873 1.28253 15.2344 1.62079 14.5312C1.95326 13.8402 2.51758 12.999 3.2077 11.9707L3.61493 11.3642C4.0593 10.702 4.149 10.5427 4.17938 10.3828C4.20884 10.2272 4.18536 10.0576 4.00946 9.29783L3.84832 8.60154C3.57631 7.42675 3.35228 6.46089 3.29266 5.70603C3.23108 4.9262 3.32572 4.16812 3.91082 3.59568C4.49723 3.0223 5.25739 2.94647 6.03387 3.02928C6.78435 3.10936 7.74049 3.35974 8.90204 3.66404L9.59247 3.84471C10.3445 4.0417 10.5095 4.0699 10.6628 4.0449C10.8209 4.01908 10.9805 3.93421 11.653 3.50486L12.2682 3.11228C13.3099 2.44722 14.1621 1.90331 14.8591 1.58787ZM18.4694 18.4697C18.7622 18.1769 19.237 18.1772 19.53 18.4697L21.53 20.4697C21.8229 20.7626 21.8229 21.2374 21.53 21.5303C21.2371 21.8231 20.7623 21.8231 20.4694 21.5303L18.4694 19.5303C18.1769 19.2373 18.1767 18.7625 18.4694 18.4697ZM16.3708 2.79392C16.2664 2.74018 16.0631 2.68893 15.4772 2.95408C14.8906 3.21956 14.1295 3.70311 13.0222 4.41014L12.4606 4.76951C12.427 4.79096 12.3929 4.81193 12.36 4.83299C11.8424 5.16442 11.4077 5.44319 10.905 5.52537C10.3974 5.60823 9.90207 5.47774 9.32293 5.32517C9.2863 5.31552 9.24895 5.30566 9.21161 5.29588L8.58368 5.13182C7.34468 4.80726 6.49901 4.58808 5.87469 4.52146C5.26352 4.4563 5.0684 4.56162 4.95965 4.66795C4.84997 4.77533 4.73908 4.97099 4.78778 5.58787C4.83748 6.21727 5.03401 7.07297 5.32391 8.32517L5.4704 8.95994C5.47912 8.99764 5.48815 9.03528 5.49676 9.07225C5.63325 9.65822 5.74949 10.1561 5.65399 10.6611C5.55914 11.1622 5.27076 11.5908 4.92645 12.1025C4.90475 12.1348 4.88216 12.1672 4.86004 12.2002L4.48797 12.7549C3.75473 13.8475 3.25346 14.5994 2.97332 15.1816C2.69383 15.7626 2.73645 15.9712 2.78875 16.081C2.83703 16.1822 2.95593 16.3383 3.56317 16.4619C4.17644 16.5867 5.05545 16.6339 6.34344 16.7002L6.99579 16.7334C7.03593 16.7354 7.07648 16.7373 7.1159 16.7392C7.71376 16.7691 8.22999 16.795 8.68329 17.0283C9.1388 17.2628 9.45518 17.6686 9.81903 18.1338C9.84297 18.1644 9.86787 18.1954 9.89227 18.2265L10.2897 18.7334C11.0755 19.7349 11.6114 20.4147 12.0622 20.8369C12.5038 21.2504 12.7053 21.2651 12.8337 21.2441C12.9747 21.2211 13.181 21.1257 13.5104 20.5742C13.8423 20.0186 14.1907 19.1884 14.696 17.9785L14.9528 17.3642C14.9678 17.3284 14.9822 17.2929 14.9968 17.2578C15.2338 16.6883 15.4312 16.2137 15.7975 15.8554C16.1643 15.4969 16.6433 15.3116 17.2165 15.0888C17.2517 15.0752 17.287 15.0609 17.3229 15.0469L17.9421 14.8056C19.1599 14.3307 19.9949 14.0036 20.5563 13.6855C21.1121 13.3706 21.2145 13.1658 21.2419 13.0215C21.267 12.8886 21.2554 12.6832 20.8561 12.2295C20.448 11.7656 19.7851 11.2101 18.8093 10.3945L18.3151 9.98142C18.285 9.95621 18.255 9.93096 18.2253 9.90623C17.7715 9.52817 17.3769 9.19917 17.1559 8.73631C16.9366 8.27654 16.9246 7.7597 16.9108 7.15818C16.9099 7.1187 16.9089 7.07828 16.9079 7.03807L16.8923 6.38182C16.8607 5.08733 16.8372 4.20283 16.7292 3.58299C16.6221 2.9683 16.469 2.84454 16.3708 2.79392Z" fill="black"/>
</svg>
