<svg width="24" height="24" viewBox="0 0 24 24" fill="none" xmlns="http://www.w3.org/2000/svg">
<path fill-rule="evenodd" clip-rule="evenodd" d="M22.75 9.25994C22.75 6.0788 21.2578 3.60593 18.9755 2.65645C16.8461 1.77059 14.2743 2.30906 12 4.43628C9.72568 2.30906 7.15386 1.77064 5.02447 2.65653C2.74218 3.60603 1.25 6.0789 1.25 9.25998C1.25 11.3858 2.37926 13.4789 3.7862 15.282C5.20736 17.1034 6.99532 18.7345 8.48775 19.9515L8.62247 20.0615C9.82232 21.0413 10.6895 21.7495 12 21.7495C13.3105 21.7495 14.1777 21.0414 15.3775 20.0615L15.5123 19.9515C17.0047 18.7345 18.7926 17.1035 20.2138 15.2821C21.6207 13.4789 22.75 11.3858 22.75 9.25994ZM12.5491 6.00921C14.6472 3.75433 16.827 3.38728 18.3994 4.04139C19.9921 4.70399 21.25 6.52999 21.25 9.25994C21.25 9.90486 21.1108 10.572 20.8589 11.2496H18.6361L18.5241 11.2495C17.9784 11.2486 17.4937 11.2478 17.0527 11.4442C16.6116 11.6407 16.2879 12.0016 15.9233 12.408L15.8485 12.4913L14.8192 13.6349C14.7426 13.7201 14.68 13.7896 14.6247 13.8489C14.5723 13.7874 14.5128 13.7154 14.4401 13.6273L10.8889 9.32272C10.7493 9.15345 10.6 8.97235 10.454 8.83794C10.2839 8.68142 10.0325 8.50536 9.68096 8.48424C9.32945 8.46313 9.05875 8.60783 8.87115 8.74287C8.71006 8.85884 8.54016 9.02077 8.38136 9.17212L6.85172 10.6289C6.37995 11.0782 6.28151 11.1548 6.17854 11.196C6.07557 11.2372 5.9515 11.2496 5.3 11.2496H3.14115C2.88924 10.572 2.75 9.90488 2.75 9.25998C2.75 6.53011 4.0079 4.70408 5.60065 4.04146C7.17297 3.38732 9.35285 3.75433 11.4509 6.00921C11.5928 6.16169 11.7917 6.24831 12 6.24831C12.2083 6.24831 12.4072 6.16169 12.5491 6.00921ZM3.86493 12.7496C4.18003 13.287 4.55224 13.8254 4.96881 14.3593C6.29293 16.0563 7.98585 17.6067 9.43571 18.789C10.8287 19.925 11.2785 20.2495 12 20.2495C12.7216 20.2495 13.1713 19.925 14.5643 18.789C16.0142 17.6067 17.7071 16.0564 19.0312 14.3593C19.4478 13.8254 19.82 13.287 20.1351 12.7496H18.6361C17.9119 12.7496 17.7746 12.7648 17.6629 12.8145C17.5513 12.8642 17.4481 12.9562 16.9634 13.4947L15.9086 14.6668C15.7507 14.8424 15.5839 15.0279 15.4235 15.1623C15.2384 15.3175 14.9627 15.4916 14.5896 15.4836C14.2166 15.4756 13.9488 15.29 13.7704 15.1269C13.616 14.9858 13.4574 14.7934 13.3074 14.6113L9.75487 10.3053C9.68734 10.2234 9.63239 10.1569 9.5839 10.1C9.52897 10.1507 9.46645 10.2102 9.38961 10.2833L7.81346 11.7846C7.4575 12.1246 7.14165 12.4263 6.73563 12.5887C6.32961 12.7511 5.89282 12.7505 5.40054 12.7497L3.86493 12.7496Z" fill="black"/>
</svg>
