<svg width="24" height="24" viewBox="0 0 24 24" fill="none" xmlns="http://www.w3.org/2000/svg">
<path d="M10.0932 10.7458C10.1827 10.6179 10.2571 10.5118 10.3233 10.4208C10.3793 10.5184 10.4418 10.6319 10.517 10.7687L12.2273 13.8783C12.3933 14.1804 12.5562 14.4766 12.7197 14.6916C12.8947 14.9217 13.2023 15.2369 13.6954 15.2462C14.1884 15.2555 14.5077 14.952 14.6912 14.7287C14.8627 14.52 15.0365 14.23 15.2138 13.9344L15.2692 13.8421C15.49 13.4741 15.629 13.244 15.752 13.0778C15.8654 12.9246 15.9309 12.8747 15.9798 12.847C16.0286 12.8193 16.1052 12.7889 16.2948 12.7705C16.5006 12.7505 16.7694 12.7497 17.1986 12.7497H18C18.4142 12.7497 18.75 12.4139 18.75 11.9997C18.75 11.5854 18.4142 11.2497 18 11.2497L17.1662 11.2497C16.7791 11.2496 16.4367 11.2496 16.1497 11.2775C15.8385 11.3078 15.5357 11.3747 15.2407 11.5417C14.9457 11.7087 14.7325 11.934 14.5465 12.1852C14.3749 12.417 14.1988 12.7106 13.9996 13.0426L13.9521 13.1218C13.8654 13.2663 13.793 13.3868 13.7284 13.4901C13.6676 13.3844 13.5999 13.2613 13.5186 13.1136L11.8092 10.0055C11.6551 9.72514 11.5015 9.4458 11.3458 9.24101C11.1756 9.0173 10.8839 8.72149 10.4164 8.69624C9.94887 8.671 9.62698 8.93368 9.43373 9.13777C9.25683 9.3246 9.0741 9.58579 8.89069 9.84795L8.58131 10.2899C8.35416 10.6144 8.21175 10.8166 8.08848 10.9625C7.975 11.0967 7.91193 11.1406 7.86538 11.1649C7.81882 11.1891 7.74663 11.2156 7.57159 11.2316C7.38144 11.2489 7.13413 11.2497 6.73803 11.2497H6C5.58579 11.2497 5.25 11.5854 5.25 11.9997C5.25 12.4139 5.58579 12.7497 6 12.7497L6.76812 12.7497C7.12509 12.7497 7.44153 12.7497 7.70801 12.7254C7.99707 12.699 8.27904 12.6406 8.55809 12.4954C8.83714 12.3501 9.04661 12.1525 9.234 11.9308C9.40676 11.7265 9.58821 11.4672 9.79291 11.1748L10.0932 10.7458Z" fill="black"/>
<path fill-rule="evenodd" clip-rule="evenodd" d="M22.75 9.25994C22.75 6.0788 21.2578 3.60593 18.9755 2.65645C16.8461 1.77059 14.2743 2.30906 12 4.43628C9.72568 2.30906 7.15386 1.77064 5.02447 2.65653C2.74218 3.60603 1.25 6.0789 1.25 9.25998C1.25 11.3858 2.37926 13.4789 3.7862 15.282C5.20736 17.1034 6.99532 18.7345 8.48775 19.9515L8.62247 20.0615C9.82232 21.0413 10.6895 21.7495 12 21.7495C13.3105 21.7495 14.1777 21.0414 15.3775 20.0615L15.5123 19.9515C17.0047 18.7345 18.7926 17.1035 20.2138 15.2821C21.6207 13.4789 22.75 11.3858 22.75 9.25994ZM12.5491 6.00921C14.6472 3.75433 16.827 3.38728 18.3994 4.04139C19.9921 4.70399 21.25 6.52999 21.25 9.25994C21.25 10.8817 20.3695 12.6441 19.0312 14.3593C17.7071 16.0564 16.0142 17.6067 14.5643 18.789C13.1713 19.925 12.7216 20.2495 12 20.2495C11.2785 20.2495 10.8287 19.925 9.43571 18.789C7.98585 17.6067 6.29293 16.0563 4.96881 14.3593C3.63045 12.644 2.75 10.8816 2.75 9.25998C2.75 6.53011 4.0079 4.70408 5.60065 4.04146C7.17297 3.38732 9.35285 3.75433 11.4509 6.00921C11.5928 6.16169 11.7917 6.24831 12 6.24831C12.2083 6.24831 12.4072 6.16169 12.5491 6.00921Z" fill="black"/>
</svg>
