<svg width="24" height="24" viewBox="0 0 24 24" fill="none" xmlns="http://www.w3.org/2000/svg">
<path d="M13.024 14.5611C10.7142 15.485 9.5593 15.9469 8.89964 15.4987C8.74324 15.3924 8.60834 15.2575 8.50206 15.1011C8.0538 14.4414 8.51575 13.2865 9.43967 10.9768C9.63673 10.4841 9.73527 10.2378 9.90474 10.0445C9.94792 9.99526 9.99429 9.9489 10.0435 9.90571C10.2368 9.73624 10.4831 9.63771 10.9758 9.44064C13.2856 8.51673 14.4405 8.05477 15.1001 8.50303C15.2565 8.60932 15.3914 8.74421 15.4977 8.90062C15.946 9.56027 15.484 10.7152 14.5601 13.0249C14.363 13.5176 14.2645 13.7639 14.095 13.9572C14.0518 14.0064 14.0055 14.0528 13.9562 14.096C13.763 14.2655 13.5166 14.364 13.024 14.5611Z" stroke="black" stroke-width="1.5"/>
<path d="M2 12C2 7.28595 2 4.92893 3.46447 3.46447C4.92893 2 7.28595 2 12 2C16.714 2 19.0711 2 20.5355 3.46447C22 4.92893 22 7.28595 22 12C22 16.714 22 19.0711 20.5355 20.5355C19.0711 22 16.714 22 12 22C7.28595 22 4.92893 22 3.46447 20.5355C2 19.0711 2 16.714 2 12Z" stroke="black" stroke-width="1.5"/>
</svg>
