<svg width="24" height="24" viewBox="0 0 24 24" fill="none" xmlns="http://www.w3.org/2000/svg">
<path d="M21.6593 14.5887L20.9349 14.3946L21.6593 14.5887ZM9.41185 21.6598L9.21774 22.3842L9.41185 21.6598ZM2.34078 9.41234L1.61634 9.21822L2.34078 9.41234ZM14.5882 2.34127L14.3941 3.06571L14.5882 2.34127ZM11.5282 12.5835C11.8502 12.8441 12.3224 12.7943 12.583 12.4724C12.8436 12.1504 12.7939 11.6781 12.4719 11.4176L11.5282 12.5835ZM5.00197 6.33643L5.47382 5.75346H5.47382L5.00197 6.33643ZM3.63599 6.51448L3.00878 6.10324L3.63599 6.51448ZM6.71837 2.63749C6.35761 2.84102 6.23015 3.29847 6.43368 3.65923C6.63722 4.01999 7.09467 4.14745 7.45543 3.94392L6.71837 2.63749ZM9.86587 5.59508C9.47288 5.72596 9.2604 6.15064 9.39128 6.54364C9.52216 6.93663 9.94684 7.14911 10.3398 7.01823L9.86587 5.59508ZM21.6593 14.5887L20.9349 14.3946C19.6126 19.3292 14.5405 22.2576 9.60596 20.9353L9.41185 21.6598L9.21774 22.3842C14.9525 23.9209 20.8471 20.5176 22.3837 14.7828L21.6593 14.5887ZM9.41185 21.6598L9.60596 20.9353C4.6714 19.6131 1.74301 14.541 3.06523 9.60645L2.34078 9.41234L1.61634 9.21822C0.0797132 14.953 3.48298 20.8476 9.21774 22.3842L9.41185 21.6598ZM14.5882 2.34127L14.3941 3.06571C19.3287 4.38793 22.2571 9.46004 20.9349 14.3946L21.6593 14.5887L22.3837 14.7828C23.9204 9.04807 20.5171 3.15345 14.7823 1.61683L14.5882 2.34127ZM12 12.0005L12.4719 11.4176L5.47382 5.75346L5.00197 6.33643L4.53012 6.91941L11.5282 12.5835L12 12.0005ZM2.34078 9.41234L3.06523 9.60645C3.32766 8.62702 3.73719 7.72794 4.26319 6.92571L3.63599 6.51448L3.00878 6.10324C2.39636 7.03727 1.9206 8.0827 1.61634 9.21822L2.34078 9.41234ZM7.0869 3.2907L7.45543 3.94392C9.49131 2.79532 11.9587 2.41315 14.3941 3.06571L14.5882 2.34127L14.7823 1.61683C11.9526 0.858588 9.08238 1.30378 6.71837 2.63749L7.0869 3.2907ZM5.00197 6.33643L5.47382 5.75346C4.74057 5.15998 3.58279 5.22778 3.00878 6.10324L3.63599 6.51448L4.26319 6.92571C4.28537 6.89188 4.31614 6.87215 4.36156 6.86666C4.41144 6.86063 4.47428 6.87421 4.53012 6.91941L5.00197 6.33643ZM18 12.0005H17.25C17.25 14.9 14.8995 17.2505 12 17.2505V18.0005V18.7505C15.728 18.7505 18.75 15.7285 18.75 12.0005H18ZM12 18.0005V17.2505C9.10054 17.2505 6.75004 14.9 6.75004 12.0005H6.00004H5.25004C5.25004 15.7285 8.27212 18.7505 12 18.7505V18.0005ZM12 6.00053V6.75053C14.8995 6.75053 17.25 9.10103 17.25 12.0005H18H18.75C18.75 8.27261 15.728 5.25053 12 5.25053V6.00053ZM6.00004 12.0005H6.75004C6.75004 10.7318 7.19913 9.56997 7.94776 8.66238L7.36918 8.18514L6.79061 7.70791C5.82853 8.87428 5.25004 10.3708 5.25004 12.0005H6.00004ZM10.1029 6.30665L10.3398 7.01823C10.8607 6.84477 11.4186 6.75053 12 6.75053V6.00053V5.25053C11.2555 5.25053 10.5376 5.37137 9.86587 5.59508L10.1029 6.30665Z" fill="black"/>
</svg>
