<svg width="24" height="24" viewBox="0 0 24 24" fill="none" xmlns="http://www.w3.org/2000/svg">
<path opacity="0.5" d="M16.2857 18C19.4416 18 22 15.4717 22 12.3529C22 9.88113 20.393 7.78024 18.1551 7.01498C17.8371 4.19371 15.4159 2 12.4762 2C9.32028 2 6.7619 4.52827 6.7619 7.64706C6.7619 8.33687 6.88706 8.9978 7.11616 9.60887C6.8475 9.55673 6.56983 9.52941 6.28571 9.52941C3.91878 9.52941 2 11.4256 2 13.7647C2 16.1038 3.91878 18 6.28571 18H16.2857Z" fill="black"/>
<path d="M9.62607 17.4661L10.7744 15.9113C11.5166 14.9064 11.8878 14.4039 12.234 14.5101C12.5803 14.6162 12.5803 15.2325 12.5803 16.4651V16.5814C12.5803 17.0259 12.5803 17.2482 12.7222 17.3876L12.7297 17.3949C12.8748 17.5314 13.106 17.5314 13.5683 17.5314C14.4004 17.5314 14.8165 17.5314 14.9571 17.7839C14.9594 17.7881 14.9617 17.7923 14.9639 17.7965C15.0966 18.053 14.8557 18.3791 14.3739 19.0314L13.2256 20.5861C12.4833 21.5911 12.1122 22.0936 11.7659 21.9874C11.4197 21.8812 11.4197 21.2649 11.4197 20.0323L11.4197 19.9161C11.4197 19.4715 11.4197 19.2492 11.2778 19.1098L11.2703 19.1026C11.1252 18.9661 10.894 18.9661 10.4317 18.9661C9.59958 18.9661 9.18354 18.9661 9.04294 18.7136C9.04061 18.7094 9.03835 18.7052 9.03615 18.7009C8.90342 18.4445 9.1443 18.1183 9.62607 17.4661Z" fill="black"/>
</svg>
