<svg width="24" height="24" viewBox="0 0 24 24" fill="none" xmlns="http://www.w3.org/2000/svg">
<path fill-rule="evenodd" clip-rule="evenodd" d="M12 1.25C12.4142 1.25 12.75 1.58579 12.75 2V4.18934L14.4697 2.46967C14.7626 2.17678 15.2374 2.17678 15.5303 2.46967C15.8232 2.76256 15.8232 3.23744 15.5303 3.53033L12.75 6.31066V17.6893L15.5303 20.4697C15.8232 20.7626 15.8232 21.2374 15.5303 21.5303C15.2374 21.8232 14.7626 21.8232 14.4697 21.5303L12.75 19.8107V22C12.75 22.4142 12.4142 22.75 12 22.75C11.5858 22.75 11.25 22.4142 11.25 22V19.8107L9.53033 21.5303C9.23744 21.8232 8.76256 21.8232 8.46967 21.5303C8.17678 21.2374 8.17678 20.7626 8.46967 20.4697L11.25 17.6893V6.31066L8.46967 3.53033C8.17678 3.23744 8.17678 2.76256 8.46967 2.46967C8.76256 2.17678 9.23744 2.17678 9.53033 2.46967L11.25 4.18934V2C11.25 1.58579 11.5858 1.25 12 1.25Z" fill="black"/>
<path opacity="0.5" fill-rule="evenodd" clip-rule="evenodd" d="M5.51183 4.17809C5.91193 4.07088 6.32319 4.30832 6.43039 4.70842L7.44806 8.50642L12.0001 11.1345L16.5521 8.50642L17.5698 4.70842C17.677 4.30832 18.0882 4.07088 18.4883 4.17809C18.8884 4.28529 19.1259 4.69654 19.0187 5.09664L18.3892 7.44576L20.2852 6.35109C20.644 6.14398 21.1026 6.26689 21.3098 6.62561C21.5169 6.98433 21.394 7.44302 21.0352 7.65013L19.1392 8.7448L21.4883 9.37424C21.8884 9.48144 22.1259 9.8927 22.0187 10.2928C21.9114 10.6929 21.5002 10.9303 21.1001 10.8231L17.3021 9.80546L13.5001 12.0005L17.3023 14.1958L21.1003 13.1781C21.5004 13.0709 21.9116 13.3083 22.0189 13.7084C22.1261 14.1085 21.8886 14.5198 21.4885 14.627L19.1394 15.2564L21.0354 16.3511C21.3942 16.5582 21.5171 17.0169 21.31 17.3756C21.1028 17.7343 20.6442 17.8572 20.2854 17.6501L18.3894 16.5555L19.0189 18.9046C19.1261 19.3047 18.8886 19.7159 18.4885 19.8231C18.0884 19.9303 17.6772 19.6929 17.57 19.2928L16.5523 15.4948L12.0001 12.8666L7.44787 15.4948L6.4302 19.2928C6.32299 19.6929 5.91174 19.9303 5.51164 19.8231C5.11154 19.7159 4.8741 19.3047 4.98131 18.9046L5.61075 16.5555L3.71473 17.6501C3.35601 17.8572 2.89731 17.7343 2.69021 17.3756C2.4831 17.0169 2.60601 16.5582 2.96473 16.3511L4.86075 15.2564L2.51164 14.627C2.11154 14.5198 1.8741 14.1085 1.98131 13.7084C2.08851 13.3083 2.49977 13.0709 2.89987 13.1781L6.69787 14.1958L10.5001 12.0005L6.69806 9.80546L2.90006 10.8231C2.49996 10.9303 2.08871 10.6929 1.9815 10.2928C1.8743 9.8927 2.11173 9.48144 2.51183 9.37424L4.86095 8.7448L2.96492 7.65013C2.6062 7.44302 2.4833 6.98433 2.6904 6.62561C2.89751 6.26689 3.3562 6.14398 3.71492 6.35109L5.61095 7.44576L4.9815 5.09664C4.8743 4.69654 5.11173 4.28529 5.51183 4.17809Z" fill="black"/>
</svg>
