<svg width="24" height="24" viewBox="0 0 24 24" fill="none" xmlns="http://www.w3.org/2000/svg">
<path d="M17 12C17 14.7614 14.7614 17 12 17C9.23858 17 7 14.7614 7 12C7 9.23858 9.23858 7 12 7C14.7614 7 17 9.23858 17 12Z" fill="black"/>
<path fill-rule="evenodd" clip-rule="evenodd" d="M12 1.25C12.4142 1.25 12.75 1.58579 12.75 2V4C12.75 4.41421 12.4142 4.75 12 4.75C11.5858 4.75 11.25 4.41421 11.25 4V2C11.25 1.58579 11.5858 1.25 12 1.25ZM1.25 12C1.25 11.5858 1.58579 11.25 2 11.25H4C4.41421 11.25 4.75 11.5858 4.75 12C4.75 12.4142 4.41421 12.75 4 12.75H2C1.58579 12.75 1.25 12.4142 1.25 12ZM19.25 12C19.25 11.5858 19.5858 11.25 20 11.25H22C22.4142 11.25 22.75 11.5858 22.75 12C22.75 12.4142 22.4142 12.75 22 12.75H20C19.5858 12.75 19.25 12.4142 19.25 12ZM12 19.25C12.4142 19.25 12.75 19.5858 12.75 20V22C12.75 22.4142 12.4142 22.75 12 22.75C11.5858 22.75 11.25 22.4142 11.25 22V20C11.25 19.5858 11.5858 19.25 12 19.25Z" fill="black"/>
<g opacity="0.5">
<path d="M3.6687 3.71658C3.9482 3.41088 4.4226 3.38964 4.7283 3.66914L6.95032 5.70073C7.25602 5.98023 7.27726 6.45463 6.99776 6.76033C6.71826 7.06603 6.24386 7.08727 5.93816 6.80776L3.71614 4.77618C3.41044 4.49668 3.3892 4.02228 3.6687 3.71658Z" fill="black"/>
<path d="M20.3314 3.71658C20.6109 4.02228 20.5897 4.49668 20.284 4.77618L18.062 6.80776C17.7563 7.08727 17.2819 7.06603 17.0024 6.76033C16.7229 6.45463 16.7441 5.98023 17.0498 5.70073L19.2718 3.66914C19.5775 3.38964 20.0519 3.41088 20.3314 3.71658Z" fill="black"/>
<path d="M17.0256 17.0257C17.3185 16.7328 17.7934 16.7328 18.0862 17.0257L20.3082 19.248C20.6011 19.5409 20.6011 20.0158 20.3082 20.3087C20.0153 20.6016 19.5404 20.6015 19.2475 20.3086L17.0255 18.0863C16.7326 17.7934 16.7327 17.3186 17.0256 17.0257Z" fill="black"/>
<path d="M6.97472 17.0258C7.26761 17.3187 7.26761 17.7936 6.97472 18.0865L4.7525 20.3087C4.4596 20.6016 3.98473 20.6016 3.69184 20.3087C3.39894 20.0158 3.39894 19.5409 3.69184 19.248L5.91406 17.0258C6.20695 16.7329 6.68183 16.7329 6.97472 17.0258Z" fill="black"/>
</g>
</svg>
