<svg width="24" height="24" viewBox="0 0 24 24" fill="none" xmlns="http://www.w3.org/2000/svg">
<path opacity="0.5" d="M2 12C2 6.47715 6.47715 2 12 2C17.5228 2 22 6.47715 22 12C22 17.5228 17.5228 22 12 22C6.47715 22 2 17.5228 2 12Z" fill="black"/>
<path d="M11.2274 8.56952L9.21236 10.1742C8.36695 10.8474 7.94424 11.184 8.02675 11.5599L8.03114 11.5785C8.12514 11.952 8.66096 12.0956 9.73259 12.3827C10.3281 12.5423 10.6259 12.6221 10.7656 12.8478L10.7727 12.8597C10.9075 13.0881 10.8308 13.3742 10.6775 13.9464L10.6374 14.0959L10.6374 14.0959C10.2123 15.6822 9.99979 16.4754 10.4091 16.7316C10.8184 16.9877 11.4697 16.4691 12.7722 15.4319L12.7723 15.4319L14.7873 13.8272C15.6327 13.154 16.0554 12.8174 15.9729 12.4415L15.9686 12.4229C15.8745 12.0494 15.3387 11.9058 14.2671 11.6187C13.6716 11.4591 13.3738 11.3793 13.2341 11.1536L13.227 11.1417C13.0922 10.9133 13.1689 10.6272 13.3222 10.0551L13.3623 9.90548C13.7873 8.31913 13.9999 7.52595 13.5905 7.2698C13.1812 7.01365 12.5299 7.53227 11.2274 8.56952Z" fill="black"/>
</svg>
