<svg width="24" height="24" viewBox="0 0 24 24" fill="none" xmlns="http://www.w3.org/2000/svg">
<path d="M8.42229 20.6177C10.1779 21.539 11.0557 21.9996 12 21.9996V11.9996L2.63802 7.07227C2.62423 7.09442 2.6107 7.11678 2.5974 7.13937C2 8.15387 2 9.4163 2 11.9411V12.0581C2 14.583 2 15.8454 2.5974 16.8599C3.19479 17.8744 4.27063 18.439 6.42229 19.5681L8.42229 20.6177Z" fill="black"/>
<path opacity="0.7" d="M17.5774 4.43152L15.5774 3.38197C13.8218 2.46066 12.944 2 11.9997 2C11.0554 2 10.1776 2.46066 8.42197 3.38197L6.42197 4.43152C4.31821 5.53552 3.24291 6.09982 2.6377 7.07264L11.9997 12L21.3617 7.07264C20.7564 6.09982 19.6811 5.53552 17.5774 4.43152Z" fill="black"/>
<path opacity="0.5" d="M21.4026 7.13937C21.3893 7.11678 21.3758 7.09442 21.362 7.07227L12 11.9996V21.9996C12.9443 21.9996 13.8221 21.539 15.5777 20.6177L17.5777 19.5681C19.7294 18.439 20.8052 17.8744 21.4026 16.8599C22 15.8454 22 14.583 22 12.0581V11.9411C22 9.4163 22 8.15387 21.4026 7.13937Z" fill="black"/>
</svg>
