<svg width="24" height="24" viewBox="0 0 24 24" fill="none" xmlns="http://www.w3.org/2000/svg">
<path d="M8.42229 20.6177C10.1779 21.539 11.0557 21.9996 12 21.9996V11.9996L2.63802 7.07227C2.62423 7.09442 2.6107 7.11678 2.5974 7.13937C2 8.15387 2 9.4163 2 11.9411V12.0581C2 14.583 2 15.8454 2.5974 16.8599C3.19479 17.8744 4.27063 18.439 6.42229 19.5681L8.42229 20.6177Z" fill="black"/>
<path opacity="0.7" d="M17.5774 4.43152L15.5774 3.38197C13.8218 2.46066 12.944 2 11.9997 2C11.0554 2 10.1776 2.46066 8.42197 3.38197L6.42197 4.43152C4.31821 5.53552 3.24291 6.09982 2.6377 7.07264L11.9997 12L21.3617 7.07264C20.7564 6.09982 19.6811 5.53552 17.5774 4.43152Z" fill="black"/>
<path opacity="0.5" d="M21.4026 7.13937C21.3893 7.11678 21.3758 7.09442 21.362 7.07227L12 11.9996V21.9996C12.9443 21.9996 13.8221 21.539 15.5777 20.6177L17.5777 19.5681C19.7294 18.439 20.8052 17.8744 21.4026 16.8599C22 15.8454 22 14.583 22 12.0581V11.9411C22 9.4163 22 8.15387 21.4026 7.13937Z" fill="black"/>
<path d="M6.32334 4.4843C6.35617 4.46707 6.38926 4.44971 6.42261 4.43221L7.91614 3.64844L17.0169 8.65386L21.0406 6.64201C21.1783 6.79793 21.298 6.96224 21.4029 7.14043C21.5525 7.39445 21.6646 7.66401 21.7487 7.96503L17.7503 9.96421V13.0007C17.7503 13.4149 17.4145 13.7507 17.0003 13.7507C16.5861 13.7507 16.2503 13.4149 16.2503 13.0007V10.7142L12.7503 12.4642V21.9047C12.4934 21.9687 12.2492 22.0007 12.0003 22.0007C11.7515 22.0007 11.5072 21.9687 11.2503 21.9047V12.4642L2.25195 7.96503C2.33601 7.66401 2.44813 7.39445 2.59771 7.14043C2.70264 6.96224 2.82232 6.79793 2.96001 6.64201L12.0003 11.1622L15.3865 9.46906L6.32334 4.4843Z" fill="black"/>
</svg>
