<svg width="24" height="24" viewBox="0 0 24 24" fill="none" xmlns="http://www.w3.org/2000/svg">
<path opacity="0.5" d="M22.5305 2.53033C22.8234 2.23743 22.8234 1.76256 22.5305 1.46967C22.2376 1.17678 21.7627 1.17678 21.4698 1.46967L19.0679 3.87162C19.2697 4.01476 19.4622 4.17674 19.643 4.35756C19.8237 4.53824 19.9855 4.7306 20.1286 4.93221L22.5305 2.53033Z" fill="black"/>
<path opacity="0.5" d="M2.44853 11.4117L3.18962 12.6299C5.22275 15.972 8.02819 18.7775 11.3703 20.8107L12.5886 21.5518C14.4872 22.521 16.9425 21.8984 18.0027 19.8904C18.5037 18.9415 18.9798 17.8781 19.2819 16.8214C19.7699 15.1144 19.9408 13.5616 19.9945 12.49C20.0266 11.8497 20.0426 11.5295 19.8902 11.1339C19.7378 10.7383 19.4738 10.4742 18.9456 9.94619L14.1203 5.12167C13.6288 4.63024 13.383 4.38453 13.0133 4.23226C12.6435 4.08 12.3489 4.08118 11.7597 4.08355C10.6466 4.08802 8.97556 4.20477 7.17896 4.71838C6.12226 5.02047 5.05883 5.49657 4.11001 5.99755C2.10201 7.05777 1.47943 9.51311 2.44853 11.4117Z" fill="black"/>
<path d="M19.6426 4.35756C17.9067 2.62162 15.0922 2.62175 13.3562 4.35764L13.3184 4.39549C13.5498 4.55102 13.774 4.77521 14.1201 5.12119L18.9454 9.9457C19.2472 10.2475 19.4628 10.463 19.6205 10.6662L19.6427 10.644C21.3786 8.90807 21.3785 6.09349 19.6426 4.35756Z" fill="black"/>
</svg>
