<svg width="24" height="24" viewBox="0 0 24 24" fill="none" xmlns="http://www.w3.org/2000/svg">
<path opacity="0.5" fill-rule="evenodd" clip-rule="evenodd" d="M19.6872 14.0927L19.8706 12.388C19.9684 11.4785 20.033 10.8779 19.9823 10.4995C19.5357 10.4943 19.1359 10.2939 18.8645 9.9797C18.5384 10.1809 18.1122 10.6056 17.4705 11.2447C16.9762 11.7371 16.729 11.9833 16.4533 12.0214C16.3005 12.0426 16.1449 12.0209 16.0038 11.9587C15.7492 11.8466 15.5794 11.5423 15.2399 10.9335L13.4505 7.72497C13.241 7.34942 13.0657 7.03517 12.9077 6.78223C12.6353 6.9212 12.3268 6.99958 12 6.99958C11.6732 6.99958 11.3647 6.9212 11.0923 6.78223C10.9343 7.03517 10.759 7.34942 10.5495 7.72498L8.76006 10.9335C8.42056 11.5423 8.25081 11.8466 7.99621 11.9587C7.85514 12.0209 7.69947 12.0426 7.5467 12.0214C7.27097 11.9833 7.02381 11.7371 6.5295 11.2447C5.88785 10.6056 5.46157 10.1809 5.13553 9.9797C4.86406 10.2939 4.46434 10.4943 4.01771 10.4995C3.96702 10.8779 4.03162 11.4785 4.12945 12.388L4.3128 14.0927C4.34376 14.3804 4.37312 14.664 4.40192 14.942C4.65422 17.3778 4.86292 19.3927 5.71208 20.1527C6.65817 20.9996 8.07613 20.9996 10.9121 20.9996H13.0879C15.9239 20.9996 17.3418 20.9996 18.2879 20.1527C19.1371 19.3927 19.3458 17.3779 19.5981 14.9421C19.6269 14.664 19.6562 14.3805 19.6872 14.0927Z" fill="black"/>
<path d="M20 10.5C20.8284 10.5 21.5 9.82843 21.5 9C21.5 8.17157 20.8284 7.5 20 7.5C19.1716 7.5 18.5 8.17157 18.5 9C18.5 9.37466 18.6374 9.71724 18.8645 9.98013C19.1359 10.2944 19.5357 10.4947 19.9823 10.4999L20 10.5Z" fill="black"/>
<path d="M12 3C10.8954 3 10 3.89543 10 5C10 5.77778 10.444 6.45187 11.0923 6.78265C11.3647 6.92163 11.6732 7 12 7C12.3268 7 12.6353 6.92163 12.9077 6.78265C13.556 6.45187 14 5.77778 14 5C14 3.89543 13.1046 3 12 3Z" fill="black"/>
<path d="M2.5 9C2.5 9.82843 3.17157 10.5 4 10.5L4.01771 10.4999C4.46434 10.4947 4.86406 10.2944 5.13553 9.98012C5.36264 9.71724 5.5 9.37466 5.5 9C5.5 8.17157 4.82843 7.5 4 7.5C3.17157 7.5 2.5 8.17157 2.5 9Z" fill="black"/>
<path d="M4.84911 18.25C4.75113 17.7997 4.67277 17.2952 4.60303 16.75H19.3973C19.3275 17.2952 19.2492 17.7997 19.1512 18.25H4.84911Z" fill="black"/>
</svg>
