<svg width="24" height="24" viewBox="0 0 24 24" fill="none" xmlns="http://www.w3.org/2000/svg">
<path opacity="0.5" fill-rule="evenodd" clip-rule="evenodd" d="M9.25 11C9.25 9.48122 10.4812 8.25 12 8.25C13.5188 8.25 14.75 9.48122 14.75 11C14.75 12.5188 13.5188 13.75 12 13.75C10.4812 13.75 9.25 12.5188 9.25 11Z" fill="black"/>
<path d="M9.82112 12.6779L4.84452 21.6358C4.64336 21.9979 4.77382 22.4545 5.1359 22.6557C5.49799 22.8568 5.95459 22.7264 6.15575 22.3643L11.0377 13.5768C10.5524 13.3955 10.1321 13.0811 9.82112 12.6779Z" fill="black"/>
<path d="M12.9626 13.5768L17.8445 22.3643C18.0457 22.7264 18.5023 22.8568 18.8644 22.6557C19.2265 22.4545 19.3569 21.9979 19.1558 21.6358L14.179 12.6777C13.8681 13.0809 13.4478 13.3954 12.9626 13.5768Z" fill="black"/>
<path d="M12 5.25C11.0335 5.25 10.25 4.4665 10.25 3.5C10.25 2.5335 11.0335 1.75 12 1.75C12.9665 1.75 13.75 2.5335 13.75 3.5C13.75 4.4665 12.9665 5.25 12 5.25Z" fill="black"/>
<path d="M2.75 7.5C2.75 6.5335 3.5335 5.75 4.5 5.75C5.4665 5.75 6.25 6.5335 6.25 7.5C6.25 8.4665 5.4665 9.25 4.5 9.25C3.5335 9.25 2.75 8.4665 2.75 7.5Z" fill="black"/>
<path d="M19.5 5.75C18.5335 5.75 17.75 6.5335 17.75 7.5C17.75 8.4665 18.5335 9.25 19.5 9.25C20.4665 9.25 21.25 8.4665 21.25 7.5C21.25 6.5335 20.4665 5.75 19.5 5.75Z" fill="black"/>
<path d="M19.5 14.25C18.5335 14.25 17.75 15.0335 17.75 16C17.75 16.9665 18.5335 17.75 19.5 17.75C20.4665 17.75 21.25 16.9665 21.25 16C21.25 15.0335 20.4665 14.25 19.5 14.25Z" fill="black"/>
<path d="M4.5 14.25C3.5335 14.25 2.75 15.0335 2.75 16C2.75 16.9665 3.5335 17.75 4.5 17.75C5.4665 17.75 6.25 16.9665 6.25 16C6.25 15.0335 5.4665 14.25 4.5 14.25Z" fill="black"/>
<path d="M10.25 19.5C10.25 20.4665 11.0335 21.25 12 21.25C12.9665 21.25 13.75 20.4665 13.75 19.5C13.75 18.5335 12.9665 17.75 12 17.75C11.0335 17.75 10.25 18.5335 10.25 19.5Z" fill="black"/>
<path opacity="0.5" d="M10.6367 18.4033C10.395 18.7033 10.2501 19.0847 10.25 19.5C10.25 19.6468 10.2696 19.7895 10.3037 19.9258C10.2707 19.909 10.2368 19.8938 10.2041 19.876L5.5957 17.3623C5.99165 17.0433 6.24616 16.5571 6.24902 16.0098L10.6367 18.4033ZM17.75 16.0098C17.7529 16.5566 18.0071 17.0433 18.4023 17.3623L13.7949 19.876C13.7623 19.8937 13.7283 19.909 13.6953 19.9258C13.7294 19.7894 13.75 19.6469 13.75 19.5C13.7499 19.084 13.6038 18.7026 13.3613 18.4023L17.75 16.0098ZM3.45898 8.9043C3.75016 9.12056 4.10943 9.25 4.5 9.25C4.65761 9.25 4.80981 9.22754 4.95508 9.18848V13.9688C4.95508 14.0871 4.96436 14.2046 4.98242 14.3193C4.82905 14.2754 4.66748 14.25 4.5 14.25C4.12957 14.25 3.78579 14.3651 3.50293 14.5615C3.4719 14.3674 3.45508 14.1691 3.45508 13.9688V9.03125C3.45508 8.9888 3.45756 8.94652 3.45898 8.9043ZM20.5439 9.03125V13.9688C20.5439 14.1688 20.5251 14.3667 20.4941 14.5605C20.2118 14.3652 19.8694 14.25 19.5 14.25C19.3315 14.25 19.1688 14.2749 19.0146 14.3193C19.0327 14.2045 19.0439 14.0872 19.0439 13.9688V9.1875C19.1896 9.22677 19.342 9.25 19.5 9.25C19.8898 9.25 20.2482 9.12076 20.5391 8.90527C20.5405 8.94718 20.5439 8.98912 20.5439 9.03125ZM10.3037 3.07422C10.2696 3.21062 10.25 3.35302 10.25 3.5C10.25 3.91521 10.3951 4.29663 10.6367 4.59668L6.18262 7.02637C6.03685 6.5079 5.66045 6.0863 5.16895 5.88281C5.2471 5.8323 5.32764 5.78425 5.41016 5.73926L10.2041 3.125C10.2369 3.10712 10.2705 3.09105 10.3037 3.07422ZM13.7949 3.125L18.5889 5.73926C18.6715 5.78429 18.7519 5.83224 18.8301 5.88281C18.3389 6.08646 17.962 6.50808 17.8164 7.02637L13.3613 4.59766C13.6037 4.29737 13.75 3.91592 13.75 3.5C13.75 3.35294 13.7295 3.21069 13.6953 3.07422C13.7284 3.09101 13.7622 3.10717 13.7949 3.125Z" fill="black"/>
</svg>
