<svg width="24" height="24" viewBox="0 0 24 24" fill="none" xmlns="http://www.w3.org/2000/svg">
<path opacity="0.6" d="M11.6667 2H8.33333C6.49238 2 5 3.49238 5 5.33333C5 7.17428 6.49238 8.66667 8.33333 8.66667H11.6667V2Z" fill="black"/>
<path opacity="0.4" d="M11.6667 8.66602H8.33333C6.49238 8.66602 5 10.1584 5 11.9993C5 13.8403 6.49238 15.3327 8.33333 15.3327H11.6667V8.66602Z" fill="black"/>
<path d="M18.3327 11.9993C18.3327 13.8403 16.8403 15.3327 14.9993 15.3327C13.1584 15.3327 11.666 13.8403 11.666 11.9993C11.666 10.1584 13.1584 8.66602 14.9993 8.66602C16.8403 8.66602 18.3327 10.1584 18.3327 11.9993Z" fill="black"/>
<path opacity="0.2" d="M8.33333 15.334H11.6667V18.6673C11.6667 20.5083 10.1743 22.0007 8.33333 22.0007C6.49238 22.0007 5 20.5083 5 18.6673C5 16.8264 6.49238 15.334 8.33333 15.334Z" fill="black"/>
<path opacity="0.8" d="M11.666 2H14.9993C16.8403 2 18.3327 3.49238 18.3327 5.33333C18.3327 7.17428 16.8403 8.66667 14.9993 8.66667H11.666V2Z" fill="black"/>
</svg>
