<svg width="24" height="24" viewBox="0 0 24 24" fill="none" xmlns="http://www.w3.org/2000/svg">
<path opacity="0.5" fill-rule="evenodd" clip-rule="evenodd" d="M6.5 1.75C6.5 1.33579 6.16421 1 5.75 1C5.33579 1 5 1.33579 5 1.75V21.75C5 22.1642 5.33579 22.5 5.75 22.5C6.16421 22.5 6.5 22.1642 6.5 21.75V13.6V3.6V1.75Z" fill="black"/>
<path d="M13.5582 3.87382L13.1449 3.7085C11.5821 3.08337 9.8712 2.92629 8.22067 3.2564L6.5 3.60053V13.6005L8.22067 13.2564C9.8712 12.9263 11.5821 13.0834 13.1449 13.7085C14.8385 14.3859 16.7024 14.5124 18.472 14.07L18.5721 14.045C19.1582 13.8985 19.4361 13.2274 19.1253 12.7094L17.5647 10.1083C17.2232 9.53916 17.0524 9.25458 17.0119 8.94504C16.9951 8.81592 16.9951 8.68514 17.0119 8.55602C17.0524 8.24648 17.2232 7.9619 17.5647 7.39274L18.8432 5.26185C19.1778 4.70413 18.6711 4.02025 18.0401 4.17799C16.5513 4.5502 14.9831 4.44376 13.5582 3.87382Z" fill="black"/>
</svg>
