<svg width="24" height="24" viewBox="0 0 24 24" fill="none" xmlns="http://www.w3.org/2000/svg">
<path opacity="0.5" fill-rule="evenodd" clip-rule="evenodd" d="M6.5 1.75C6.5 1.33579 6.16421 1 5.75 1C5.33579 1 5 1.33579 5 1.75V21.75C5 22.1642 5.33579 22.5 5.75 22.5C6.16421 22.5 6.5 22.1642 6.5 21.75V13.6V3.6V1.75Z" fill="black"/>
<path d="M13.3486 3.78996L13.1449 3.7085C11.5821 3.08337 9.8712 2.92629 8.22067 3.2564L6.5 3.60053V13.6005L8.22067 13.2564C9.8712 12.9263 11.5821 13.0834 13.1449 13.7085C14.8385 14.3859 16.7024 14.5124 18.472 14.07L18.6864 14.0164C19.3115 13.8602 19.75 13.2985 19.75 12.6542V5.28722C19.75 4.50666 19.0165 3.93392 18.2592 4.12323C16.628 4.53104 14.9097 4.41442 13.3486 3.78996Z" fill="black"/>
</svg>
