<svg width="24" height="24" viewBox="0 0 24 24" fill="none" xmlns="http://www.w3.org/2000/svg">
<path opacity="0.5" fill-rule="evenodd" clip-rule="evenodd" d="M12 22C17.5228 22 22 17.5228 22 12C22 6.47715 17.5228 2 12 2C6.47715 2 2 6.47715 2 12C2 17.5228 6.47715 22 12 22ZM12 16C14.2091 16 16 14.2091 16 12C16 9.79086 14.2091 8 12 8C9.79086 8 8 9.79086 8 12C8 14.2091 9.79086 16 12 16Z" fill="black"/>
<path d="M5.47924 19.5813L9.75198 15.3085C9.33529 15.0249 8.97496 14.6646 8.69128 14.2479L4.41856 18.5206C4.7452 18.9 5.09982 19.2547 5.47924 19.5813Z" fill="black"/>
<path d="M4.41846 5.47863L8.69119 9.75136C8.97485 9.33468 9.33516 8.97436 9.75185 8.6907L5.47912 4.41797C5.09971 4.7446 4.74509 5.09922 4.41846 5.47863Z" fill="black"/>
<path d="M14.2484 8.69079L18.5211 4.41807C18.9005 4.74471 19.2551 5.09934 19.5818 5.47875L15.309 9.75149C15.0254 9.3348 14.6651 8.97447 14.2484 8.69079Z" fill="black"/>
<path d="M19.5817 18.5205L15.3089 14.2478C15.0253 14.6645 14.665 15.0248 14.2483 15.3084L18.521 19.5812C18.9004 19.2545 19.255 18.8999 19.5817 18.5205Z" fill="black"/>
</svg>
