<svg width="24" height="24" viewBox="0 0 24 24" fill="none" xmlns="http://www.w3.org/2000/svg">
<path opacity="0.5" d="M10.8939 22H13.1061C16.5526 22 18.2759 22 19.451 20.9882C20.626 19.9764 20.8697 18.2827 21.3572 14.8952L21.6359 12.9579C22.0154 10.3208 22.2051 9.00229 21.6646 7.87495C21.1242 6.7476 19.9738 6.06234 17.6731 4.69182L17.6731 4.69181L16.2882 3.86687C14.199 2.62229 13.1543 2 12 2C10.8457 2 9.80104 2.62229 7.71175 3.86687L6.32691 4.69181L6.32691 4.69181C4.02619 6.06234 2.87583 6.7476 2.33537 7.87495C1.79491 9.00229 1.98463 10.3208 2.36407 12.9579L2.64284 14.8952C3.13025 18.2827 3.37396 19.9764 4.54903 20.9882C5.72409 22 7.44737 22 10.8939 22Z" fill="black"/>
<path d="M9.44666 15.3975C9.11389 15.1509 8.64418 15.2207 8.39752 15.5534C8.15086 15.8862 8.22067 16.3559 8.55343 16.6026C9.52585 17.3234 10.7151 17.75 12 17.75C13.285 17.75 14.4742 17.3234 15.4467 16.6026C15.7794 16.3559 15.8492 15.8862 15.6026 15.5534C15.3559 15.2207 14.8862 15.1509 14.5534 15.3975C13.8251 15.9374 12.9459 16.25 12 16.25C11.0541 16.25 10.175 15.9374 9.44666 15.3975Z" fill="black"/>
</svg>
