<svg width="24" height="24" viewBox="0 0 24 24" fill="none" xmlns="http://www.w3.org/2000/svg">
<g opacity="0.5">
<path d="M11.2033 21.9936C11.4777 22.158 11.7894 22.235 12.0986 22.225V16.0312L12.4099 14.6072L10.0193 14.5312L4.99194 16.296C5.04307 16.4059 5.10639 16.5102 5.18097 16.6068L11.2033 21.9936Z" fill="url(#paint0_linear_722_17)"/>
<path fill-rule="evenodd" clip-rule="evenodd" d="M4.87819 7.80472V15.9611C4.90399 16.0768 4.94219 16.1891 4.99194 16.296L10.0193 14.5312L12.0511 8.03125V1.75087V1.21969L12.0501 1.21875L12.0475 1.75076C11.7359 1.74162 11.4221 1.82094 11.1464 1.9889L5.21881 7.11187C5.05154 7.31271 4.9349 7.55043 4.87819 7.80472Z" fill="url(#paint1_linear_722_17)"/>
<path fill-rule="evenodd" clip-rule="evenodd" d="M4.87819 15.9611C4.85382 15.8519 4.84052 15.7396 4.839 15.6259L4.83887 15.604V8.16181C4.83887 8.04061 4.85227 7.92093 4.87819 7.80472C4.9349 7.55043 5.05154 7.31271 5.21881 7.11187C5.27568 7.04359 5.3384 6.97957 5.40661 6.92061L10.9263 2.14948C10.9962 2.0891 11.0698 2.03558 11.1464 1.9889C11.4221 1.82094 11.7359 1.74162 12.0475 1.75076L12.0501 1.21875L12.0511 1.21969V1.75087C12.4217 1.76255 12.789 1.89934 13.0852 2.16087L18.5694 7.00358L18.5858 7.01827C18.7532 7.17016 18.8855 7.35322 18.9771 7.55478C18.9835 7.5689 18.9897 7.58311 18.9957 7.59741C19.0795 7.79656 19.124 8.01248 19.124 8.23338V15.6069L19.1239 15.6285C19.1179 16.0809 18.9254 16.5112 18.5912 16.8171L13.153 21.7954L13.1384 21.8086C12.8504 22.066 12.4938 22.2045 12.132 22.2235C12.1296 22.2237 12.1272 22.2238 12.1248 22.2239C12.1225 22.224 12.1203 22.2241 12.118 22.2242C12.1115 22.2245 12.1051 22.2248 12.0986 22.225V16.0312L12.4099 14.6072L10.0193 14.5312L4.99194 16.296C4.94219 16.1891 4.90399 16.0768 4.87819 15.9611Z" fill="url(#paint2_linear_722_17)"/>
</g>
<path d="M11.3905 17.6678L8.7395 15.3516C8.52216 15.1617 8.39746 14.8872 8.39746 14.5986V9.24222C8.39746 8.96606 8.51166 8.7022 8.71299 8.51318L11.3636 6.02466C11.7527 5.65932 12.3601 5.66399 12.7436 6.03527L15.3045 8.51469C15.499 8.70307 15.6089 8.96231 15.6089 9.23313V14.6077C15.6089 14.891 15.4887 15.161 15.2783 15.3507L12.7178 17.6577C12.3417 17.9966 11.7717 18.0009 11.3905 17.6678Z" fill="#FEDFF9"/>
<defs>
<linearGradient id="paint0_linear_722_17" x1="5" y1="20.5" x2="19.1502" y2="5.93672" gradientUnits="userSpaceOnUse">
<stop stop-color="#FF73F9"/>
<stop offset="0.1868" stop-color="#E755D4"/>
<stop offset="0.434722" stop-color="#FF73F9"/>
<stop offset="0.834118" stop-color="#FEC0FE"/>
</linearGradient>
<linearGradient id="paint1_linear_722_17" x1="5" y1="20.5" x2="19.1502" y2="5.93672" gradientUnits="userSpaceOnUse">
<stop stop-color="#FF73F9"/>
<stop offset="0.1868" stop-color="#E755D4"/>
<stop offset="0.434722" stop-color="#FF73F9"/>
<stop offset="0.834118" stop-color="#FEC0FE"/>
</linearGradient>
<linearGradient id="paint2_linear_722_17" x1="5" y1="20.5" x2="19.1502" y2="5.93672" gradientUnits="userSpaceOnUse">
<stop stop-color="#FF73F9"/>
<stop offset="0.1868" stop-color="#E755D4"/>
<stop offset="0.434722" stop-color="#FF73F9"/>
<stop offset="0.834118" stop-color="#FEC0FE"/>
</linearGradient>
</defs>
</svg>
