<svg width="24" height="24" viewBox="0 0 24 24" fill="none" xmlns="http://www.w3.org/2000/svg">
<path opacity="0.5" fill-rule="evenodd" clip-rule="evenodd" d="M20.8265 19.7093C21.998 18.5377 21.998 16.6521 21.998 12.8808V10.8808C21.998 7.10959 21.998 5.22398 20.8265 4.0524C19.6549 2.88083 17.7693 2.88083 13.998 2.88083H9.99805C9.91378 2.88083 9.08045 2.88078 8.99805 2.8808L8.99805 20.8808C9.08045 20.8808 9.91378 20.8808 9.99805 20.8808H13.998C17.7693 20.8808 19.6549 20.8808 20.8265 19.7093Z" fill="black"/>
<path d="M2 10.9004V12.9004C2 16.6716 2 18.5572 3.17157 19.7288C4.1459 20.7031 6.36409 20.8672 9 20.8948L9 2.90598C6.36409 2.9336 4.1459 3.09763 3.17157 4.07196C2 5.24354 2 7.12915 2 10.9004Z" fill="black"/>
</svg>
