<svg width="24" height="24" viewBox="0 0 24 24" fill="none" xmlns="http://www.w3.org/2000/svg">
<path opacity="0.5" d="M11.6068 22.0003H12.3937C15.1012 22.0003 16.4549 22.0003 17.3351 21.1371C18.2153 20.2739 18.3054 18.8579 18.4855 16.026L18.745 11.9455C18.8427 10.409 18.8916 9.64069 18.45 9.15384C18.0084 8.66699 17.2628 8.66699 15.7714 8.66699H8.22905C6.73771 8.66699 5.99204 8.66699 5.55047 9.15384C5.10891 9.64069 5.15777 10.409 5.25549 11.9455L5.515 16.026C5.6951 18.8579 5.78515 20.2739 6.66534 21.1371C7.54553 22.0003 8.89927 22.0003 11.6068 22.0003Z" fill="black"/>
<path d="M3 6.52381C3 6.12932 3.32671 5.80952 3.72973 5.80952H8.51787C8.52437 4.9683 8.61554 3.81504 9.45037 3.01668C10.1074 2.38839 11.0081 2 12 2C12.9919 2 13.8926 2.38839 14.5496 3.01668C15.3844 3.81504 15.4756 4.9683 15.4821 5.80952H20.2703C20.6733 5.80952 21 6.12932 21 6.52381C21 6.9183 20.6733 7.2381 20.2703 7.2381H3.72973C3.32671 7.2381 3 6.9183 3 6.52381Z" fill="black"/>
</svg>
