<svg width="24" height="24" viewBox="0 0 24 24" fill="none" xmlns="http://www.w3.org/2000/svg">
<path opacity="0.5" d="M11.6115 22H12.3885C17.1445 22 21 18.0569 21 13.1928V12.9281C21 8.31651 18.2715 4.16347 14.0967 2.42077C12.7527 1.85974 11.2473 1.85974 9.90329 2.42077C5.72854 4.16347 3 8.31651 3 12.9281V13.1928C3 18.0569 6.85549 22 11.6115 22Z" fill="black"/>
<path d="M12.0663 5.96077C12.2401 6.33673 12.0763 6.78244 11.7003 6.9563C10.1548 7.67101 8.90701 9.12465 8.3295 10.9493C8.20451 11.3442 7.78305 11.563 7.38814 11.438C6.99324 11.313 6.77443 10.8915 6.89942 10.4966C7.59142 8.31029 9.10582 6.5035 11.0707 5.59484C11.4467 5.42098 11.8924 5.58481 12.0663 5.96077Z" fill="black"/>
</svg>
