<svg width="24" height="24" viewBox="0 0 24 24" fill="none" xmlns="http://www.w3.org/2000/svg">
<path fill-rule="evenodd" clip-rule="evenodd" d="M8.92086 7.29287C9.3114 7.15483 9.73989 7.35953 9.87792 7.75007C10.1872 8.62497 11.0216 9.25 12.0001 9.25C12.9786 9.25 13.813 8.62497 14.1223 7.75007C14.2603 7.35953 14.6888 7.15483 15.0793 7.29287C15.4699 7.43091 15.6745 7.8594 15.5365 8.24993C15.0221 9.70541 13.634 10.75 12.0001 10.75C10.3661 10.75 8.9781 9.70541 8.46366 8.24993C8.32563 7.8594 8.53032 7.43091 8.92086 7.29287ZM12.3605 5.5H11.6393C10.0135 5.5 8.9314 5.50267 8.11186 5.60393C7.33354 5.70009 6.97477 5.86728 6.72301 6.07623C6.47125 6.28517 6.24081 6.60698 6.00285 7.35425C5.7523 8.14109 5.55025 9.20417 5.25064 10.8021C4.83066 13.042 4.54908 14.5634 4.49907 15.7093C4.45085 16.8139 4.63595 17.2835 4.89583 17.5966C5.15571 17.9097 5.58312 18.1782 6.67764 18.3344C7.81316 18.4964 9.36038 18.5 11.6393 18.5H12.3605C14.6394 18.5 16.1866 18.4964 17.3221 18.3344C18.4167 18.1782 18.8441 17.9097 19.104 17.5966C19.3638 17.2835 19.5489 16.8139 19.5007 15.7093C19.4507 14.5634 19.1691 13.042 18.7492 10.8021C18.4495 9.20417 18.2475 8.14109 17.9969 7.35425C17.759 6.60698 17.5285 6.28517 17.2768 6.07623C17.025 5.86728 16.6663 5.70009 15.8879 5.60393C15.0684 5.50267 13.9863 5.5 12.3605 5.5ZM5.76506 4.92196C4.65416 5.84393 4.36155 7.40452 3.77633 10.5257C2.9534 14.9146 2.54194 17.1091 3.74157 18.5545C4.94119 20 7.17389 20 11.6393 20H12.3605C16.8259 20 19.0586 20 20.2582 18.5545C21.4578 17.1091 21.0464 14.9146 20.2235 10.5257C19.6382 7.40452 19.3456 5.84393 18.2347 4.92196C17.1238 4 15.5361 4 12.3605 4H11.6393C8.46374 4 6.87596 4 5.76506 4.92196Z" fill="black"/>
</svg>
