<svg width="24" height="24" viewBox="0 0 24 24" fill="none" xmlns="http://www.w3.org/2000/svg">
<path fill-rule="evenodd" clip-rule="evenodd" d="M2.23713 2.28869C1.84417 2.15771 1.41943 2.37008 1.28845 2.76303C1.15746 3.15599 1.36983 3.58073 1.76279 3.71172L2.0277 3.80002C2.70411 4.02549 3.15131 4.17575 3.48076 4.32901C3.79272 4.47414 3.92759 4.59093 4.01401 4.71083C4.10043 4.83074 4.16858 4.99562 4.20761 5.33747C4.24883 5.69848 4.24996 6.17024 4.24996 6.88324L4.24996 9.55508C4.24994 10.9227 4.24992 12.025 4.36648 12.892C4.4875 13.7921 4.74639 14.5499 5.34831 15.1519C5.95023 15.7538 6.7081 16.0127 7.60821 16.1337C8.47517 16.2502 9.57748 16.2502 10.9451 16.2502H19C19.4142 16.2502 19.75 15.9144 19.75 15.5002C19.75 15.086 19.4142 14.7502 19 14.7502H11C9.56454 14.7502 8.56343 14.7486 7.80808 14.6471C7.0743 14.5484 6.68573 14.368 6.40897 14.0912C6.31227 13.9945 6.22733 13.8842 6.15353 13.7502H16.0584C16.5068 13.7502 16.9012 13.7503 17.2286 13.7149C17.583 13.6766 17.9264 13.5916 18.2495 13.3786C18.5725 13.1656 18.7859 12.8834 18.9607 12.5727C19.1222 12.2857 19.2775 11.9232 19.4541 11.5111L19.9209 10.4219C20.3054 9.52486 20.6271 8.77441 20.7881 8.16406C20.956 7.52731 20.9998 6.8625 20.6035 6.2616C20.2073 5.66069 19.579 5.43901 18.9276 5.34257C18.3032 5.25013 17.4867 5.25016 16.5108 5.2502L5.70672 5.2502C5.70397 5.22221 5.70104 5.19459 5.69793 5.16732C5.64258 4.6825 5.52197 4.23764 5.23088 3.83377C4.93978 3.42989 4.55589 3.1748 4.11345 2.96898C3.69722 2.77534 3.16789 2.59892 2.54152 2.39015L2.23713 2.28869ZM5.74996 6.7502C5.74996 6.78045 5.74996 6.81091 5.74996 6.8416L5.74996 9.5002C5.74996 10.6722 5.75102 11.5546 5.80669 12.2502H16.0218C16.5177 12.2502 16.8302 12.2492 17.0676 12.2236C17.2868 12.1999 17.3711 12.161 17.4237 12.1263C17.4764 12.0916 17.5453 12.0294 17.6534 11.8373C17.7704 11.6292 17.8945 11.3423 18.0898 10.8865L18.5184 9.88652C18.9329 8.91932 19.2084 8.27152 19.3377 7.78145C19.4633 7.30522 19.3997 7.16069 19.3513 7.08734C19.3029 7.01398 19.1951 6.89853 18.7079 6.8264C18.2066 6.75218 17.5026 6.7502 16.4503 6.7502H5.74996Z" fill="black"/>
<path fill-rule="evenodd" clip-rule="evenodd" d="M5.24996 19.5002C5.24996 20.7428 6.25732 21.7502 7.49996 21.7502C8.7426 21.7502 9.74996 20.7428 9.74996 19.5002C9.74996 18.2576 8.7426 17.2502 7.49996 17.2502C6.25732 17.2502 5.24996 18.2576 5.24996 19.5002ZM7.49996 20.2502C7.08575 20.2502 6.74996 19.9144 6.74996 19.5002C6.74996 19.086 7.08575 18.7502 7.49996 18.7502C7.91417 18.7502 8.24996 19.086 8.24996 19.5002C8.24996 19.9144 7.91417 20.2502 7.49996 20.2502Z" fill="black"/>
<path fill-rule="evenodd" clip-rule="evenodd" d="M16.5 21.7503C15.2573 21.7503 14.25 20.7429 14.25 19.5003C14.25 18.2576 15.2573 17.2503 16.5 17.2503C17.7426 17.2503 18.75 18.2576 18.75 19.5003C18.75 20.7429 17.7426 21.7503 16.5 21.7503ZM15.75 19.5003C15.75 19.9145 16.0857 20.2503 16.5 20.2503C16.9142 20.2503 17.25 19.9145 17.25 19.5003C17.25 19.0861 16.9142 18.7503 16.5 18.7503C16.0857 18.7503 15.75 19.0861 15.75 19.5003Z" fill="black"/>
</svg>
