<svg width="24" height="24" viewBox="0 0 24 24" fill="none" xmlns="http://www.w3.org/2000/svg">
<path d="M7.24996 9.0002C7.24996 8.58599 7.58575 8.2502 7.99996 8.2502H11C11.4142 8.2502 11.75 8.58599 11.75 9.0002C11.75 9.41442 11.4142 9.7502 11 9.7502H7.99996C7.58575 9.7502 7.24996 9.41442 7.24996 9.0002Z" fill="black"/>
<path fill-rule="evenodd" clip-rule="evenodd" d="M1.28845 2.76303C1.41943 2.37008 1.84417 2.15771 2.23713 2.28869L2.54151 2.39015C3.16789 2.59892 3.69722 2.77534 4.11345 2.96898C4.55589 3.1748 4.93978 3.42989 5.23088 3.83377C5.52197 4.23764 5.64258 4.6825 5.69793 5.16732C5.70104 5.19459 5.70397 5.22221 5.70672 5.2502L16.5108 5.2502C17.4867 5.25016 18.3032 5.25013 18.9276 5.34257C19.579 5.43901 20.2073 5.66069 20.6035 6.2616C20.9998 6.8625 20.956 7.52731 20.7881 8.16406C20.6271 8.77441 20.3054 9.52483 19.921 10.4218L19.4541 11.5111C19.2775 11.9232 19.1222 12.2857 18.9607 12.5727C18.7859 12.8834 18.5725 13.1656 18.2495 13.3786C17.9264 13.5916 17.583 13.6766 17.2286 13.7149C16.9012 13.7503 16.5068 13.7502 16.0584 13.7502H6.15353C6.22733 13.8842 6.31227 13.9945 6.40897 14.0912C6.68573 14.368 7.0743 14.5484 7.80808 14.6471C8.56343 14.7486 9.56454 14.7502 11 14.7502H19C19.4142 14.7502 19.75 15.086 19.75 15.5002C19.75 15.9144 19.4142 16.2502 19 16.2502H10.9451C9.57751 16.2502 8.47517 16.2502 7.60821 16.1337C6.7081 16.0127 5.95023 15.7538 5.34831 15.1519C4.74639 14.5499 4.4875 13.7921 4.36648 12.892C4.24992 12.025 4.24994 10.9227 4.24996 9.55508L4.24996 6.88324C4.24996 6.17024 4.24883 5.69848 4.20761 5.33747C4.16858 4.99562 4.10043 4.83074 4.01401 4.71083C3.92759 4.59093 3.79272 4.47414 3.48076 4.32901C3.15131 4.17575 2.70411 4.02549 2.0277 3.80002L1.76279 3.71172C1.36983 3.58073 1.15746 3.15599 1.28845 2.76303ZM5.80669 12.2502H16.0218C16.5177 12.2502 16.8302 12.2492 17.0676 12.2236C17.2868 12.1999 17.3711 12.161 17.4237 12.1263C17.4764 12.0916 17.5453 12.0294 17.6534 11.8373C17.7704 11.6292 17.8945 11.3423 18.0898 10.8865L18.5184 9.88652C18.9329 8.91932 19.2084 8.27152 19.3377 7.78145C19.4633 7.30522 19.3997 7.16069 19.3513 7.08734C19.3029 7.01398 19.1951 6.89853 18.7079 6.8264C18.2066 6.75218 17.5026 6.7502 16.4503 6.7502H5.74996C5.74996 6.78044 5.74996 6.81091 5.74996 6.84159L5.74996 9.5002C5.74996 10.6722 5.75102 11.5546 5.80669 12.2502Z" fill="black"/>
<path fill-rule="evenodd" clip-rule="evenodd" d="M7.49996 21.7502C6.25732 21.7502 5.24996 20.7428 5.24996 19.5002C5.24996 18.2576 6.25732 17.2502 7.49996 17.2502C8.7426 17.2502 9.74996 18.2576 9.74996 19.5002C9.74996 20.7428 8.7426 21.7502 7.49996 21.7502ZM6.74996 19.5002C6.74996 19.9144 7.08575 20.2502 7.49996 20.2502C7.91417 20.2502 8.24996 19.9144 8.24996 19.5002C8.24996 19.086 7.91417 18.7502 7.49996 18.7502C7.08575 18.7502 6.74996 19.086 6.74996 19.5002Z" fill="black"/>
<path fill-rule="evenodd" clip-rule="evenodd" d="M14.25 19.5003C14.25 20.7429 15.2573 21.7503 16.5 21.7503C17.7426 21.7503 18.75 20.7429 18.75 19.5003C18.75 18.2576 17.7426 17.2503 16.5 17.2503C15.2573 17.2503 14.25 18.2576 14.25 19.5003ZM16.5 20.2503C16.0857 20.2503 15.75 19.9145 15.75 19.5003C15.75 19.0861 16.0857 18.7503 16.5 18.7503C16.9142 18.7503 17.25 19.0861 17.25 19.5003C17.25 19.9145 16.9142 20.2503 16.5 20.2503Z" fill="black"/>
</svg>
