<svg width="24" height="24" viewBox="0 0 24 24" fill="none" xmlns="http://www.w3.org/2000/svg">
<path d="M12 8.66667H8.66665M12 8.66667V2H8.66665C6.8257 2 5.33331 3.49238 5.33331 5.33333C5.33331 7.17428 6.8257 8.66667 8.66665 8.66667M12 8.66667V15.3333H8.66665M12 8.66667L15.3333 8.66667M8.66665 8.66667C6.8257 8.66667 5.33331 10.1591 5.33331 12C5.33331 13.8409 6.8257 15.3333 8.66665 15.3333M8.66665 15.3333C6.8257 15.3333 5.33331 16.8257 5.33331 18.6667C5.33331 20.5076 6.8257 22 8.66665 22C10.5076 22 12 20.5076 12 18.6667M15.3333 8.66667C13.4924 8.66667 12 10.1591 12 12C12 13.8409 13.4924 15.3333 15.3333 15.3333C17.1743 15.3333 18.6666 13.8409 18.6666 12C18.6666 10.1591 17.1743 8.66667 15.3333 8.66667ZM15.3333 8.66667C17.1743 8.66667 18.6666 7.17428 18.6666 5.33333C18.6666 3.49238 17.1743 2 15.3333 2" stroke="black" stroke-width="1.5" stroke-linecap="round" stroke-linejoin="round"/>
</svg>
