<svg width="24" height="24" viewBox="0 0 24 24" fill="none" xmlns="http://www.w3.org/2000/svg">
<path d="M13.6315 8.22333C15.1616 9.75341 15.9266 10.5185 15.926 11.3478C15.9257 11.6188 15.8705 11.8868 15.7635 12.1357C15.4361 12.8978 14.4309 13.2978 12.4204 14.098L12.2749 14.1559C11.7049 14.3827 11.4199 14.4962 11.19 14.6783C11.0156 14.8165 10.8655 14.9828 10.7458 15.1704C10.5881 15.4177 10.5044 15.7128 10.3369 16.3029C10.0771 17.218 9.94727 17.6756 9.67033 17.8787C9.46451 18.0296 9.20879 18.0961 8.95553 18.0645C8.61475 18.0221 8.27843 17.6858 7.60579 17.0132L4.47529 13.8827C3.80265 13.21 3.46633 12.8737 3.42392 12.5329C3.3924 12.2797 3.4589 12.024 3.60981 11.8181C3.81287 11.5412 4.27042 11.4113 5.18554 11.1516C5.77568 10.9841 6.07076 10.9004 6.31804 10.7426C6.50565 10.623 6.67197 10.4728 6.81015 10.2984C6.9923 10.0685 7.10572 9.78354 7.33256 9.21357L7.39047 9.06807C8.19063 7.05759 8.59071 6.05234 9.35273 5.72494C9.60165 5.61798 9.86971 5.56272 10.1406 5.5625C10.5028 5.56221 10.8526 5.7079 11.2593 5.99953" stroke="black" stroke-width="1.5" stroke-linecap="round"/>
<path d="M3.34679 18.142L6.04053 15.4482" stroke="black" stroke-width="1.5" stroke-linecap="round"/>
<path d="M22 8H17" stroke="black" stroke-width="1.5" stroke-linecap="round"/>
<path d="M22 12.5H18" stroke="black" stroke-width="1.5" stroke-linecap="round"/>
<path d="M22 17H21M13 17H17" stroke="black" stroke-width="1.5" stroke-linecap="round"/>
</svg>
