<svg width="24" height="24" viewBox="0 0 24 24" fill="none" xmlns="http://www.w3.org/2000/svg">
<path d="M4 12C4 13.3807 5.11929 14.5 6.5 14.5C7.88071 14.5 9 13.3807 9 12C9 10.6193 7.88071 9.5 6.5 9.5" stroke="black" stroke-width="1.5" stroke-linecap="round"/>
<path d="M14 6.5L9 10" stroke="black" stroke-width="1.5" stroke-linecap="round"/>
<path d="M14 17.5L9 14" stroke="black" stroke-width="1.5" stroke-linecap="round"/>
<path d="M16.5 21C17.8807 21 19 19.8807 19 18.5C19 17.1193 17.8807 16 16.5 16C15.1193 16 14 17.1193 14 18.5" stroke="black" stroke-width="1.5" stroke-linecap="round"/>
<path d="M18.6651 6.75042C17.9747 7.94615 16.4457 8.35584 15.25 7.66548C14.0543 6.97513 13.6446 5.44615 14.3349 4.25042C15.0253 3.05469 16.5543 2.645 17.75 3.33535" stroke="black" stroke-width="1.5" stroke-linecap="round"/>
</svg>
