<svg width="24" height="24" viewBox="0 0 24 24" fill="none" xmlns="http://www.w3.org/2000/svg">
<path d="M21.6358 12.9579L21.3571 14.8952C20.8697 18.2827 20.6259 19.9764 19.4509 20.9882C18.3821 21.9085 16.8598 21.9917 13.9999 21.9993M21.6645 7.87495C21.1241 6.7476 19.9737 6.06233 17.673 4.69181L16.2882 3.86687C14.1989 2.62229 13.1542 2 11.9999 2C10.8456 2 9.80095 2.62229 7.71166 3.86687L6.32682 4.69181C4.0261 6.06234 2.87574 6.7476 2.33527 7.87495C2.04843 8.47327 1.96727 9.12544 2.01099 10" stroke="black" stroke-width="1.5" stroke-linecap="round"/>
<path d="M11 22C11 17.0294 6.97056 13 2 13" stroke="black" stroke-width="1.5" stroke-linecap="round"/>
<path d="M8 22C8 18.6863 5.31371 16 2 16" stroke="black" stroke-width="1.5" stroke-linecap="round"/>
<path d="M5 22C5 20.3431 3.65685 19 2 19" stroke="black" stroke-width="1.5" stroke-linecap="round"/>
</svg>
