<svg width="24" height="24" viewBox="0 0 24 24" fill="none" xmlns="http://www.w3.org/2000/svg">
<path opacity="0.5" d="M20.4155 12.765L11.235 3.58447C9.12233 1.47184 5.69709 1.47184 3.58447 3.58447C1.47184 5.69709 1.47184 9.12233 3.58447 11.235L12.765 20.4155C14.8777 22.5282 18.3029 22.5282 20.4155 20.4155C22.5282 18.3029 22.5282 14.8777 20.4155 12.765Z" fill="black"/>
<path d="M19.8849 12.2349L20.4155 12.7655C20.5953 12.9453 20.7599 13.1347 20.9091 13.332L13.3315 20.9096C13.1342 20.7604 12.9448 20.5958 12.765 20.416L12.2344 19.8854L19.8849 12.2349C19.885 12.2348 19.8848 12.235 19.8849 12.2349Z" fill="black"/>
<path d="M10.6678 3.09082C10.8653 3.24017 11.0549 3.40486 11.2349 3.58489L11.765 4.11498C11.7649 4.11506 11.7651 4.1149 11.765 4.11498L4.11449 11.7655L3.5844 11.2354C3.40437 11.0553 3.23968 10.8658 3.09033 10.6683L10.6678 3.09082Z" fill="black"/>
<circle cx="9.17154" cy="12" r="1" transform="rotate(-45 9.17154 12)" fill="black"/>
<circle cx="12.0002" cy="14.8281" r="1" transform="rotate(-45 12.0002 14.8281)" fill="black"/>
<circle cx="12.0002" cy="9.17188" r="1" transform="rotate(-45 12.0002 9.17188)" fill="black"/>
<circle cx="14.8283" cy="12" r="1" transform="rotate(-45 14.8283 12)" fill="black"/>
</svg>
