<svg width="24" height="24" viewBox="0 0 24 24" fill="none" xmlns="http://www.w3.org/2000/svg">
<path opacity="0.5" d="M2 12C2 7.28595 2 4.92893 3.46447 3.46447C4.92893 2 7.28595 2 12 2C16.714 2 19.0711 2 20.5355 3.46447C22 4.92893 22 7.28595 22 12C22 16.714 22 19.0711 20.5355 20.5355C19.0711 22 16.714 22 12 22C7.28595 22 4.92893 22 3.46447 20.5355C2 19.0711 2 16.714 2 12Z" fill="black"/>
<path d="M9.4809 10.6105C10.8721 10.6105 11.9999 9.48276 11.9999 8.09156C11.9999 9.48276 13.1277 10.6105 14.5189 10.6105C15.9101 10.6105 17.0379 9.48276 17.0379 8.09156C17.0379 7.04049 16.3941 5.8522 15.4794 5.33399C14.9952 5.05969 14.5189 4.61766 14.5189 4.06118V2.01172L9.4809 2.01172V4.06118C9.4809 4.61766 9.00457 5.05969 8.52039 5.33399C7.60566 5.8522 6.96191 7.04049 6.96191 8.09156C6.96191 9.48276 8.0897 10.6105 9.4809 10.6105Z" fill="black"/>
<path d="M14.557 21.9889L14.557 19.9854C14.557 19.4289 15.0333 18.9869 15.5175 18.7126C16.4322 18.1944 17.076 17.0061 17.076 15.955C17.076 14.5638 15.9482 13.436 14.557 13.436C13.1658 13.436 12.038 14.5638 12.038 15.955C12.038 14.5638 10.9102 13.436 9.51899 13.436C8.12779 13.436 7 14.5638 7 15.955C7 17.0061 7.64375 18.1944 8.55848 18.7126C9.04266 18.9869 9.51899 19.4289 9.51899 19.9854V21.99L14.557 21.9889Z" fill="black"/>
</svg>
