<svg width="24" height="24" viewBox="0 0 24 24" fill="none" xmlns="http://www.w3.org/2000/svg">
<path opacity="0.5" d="M6.88269 21.733C5.54347 21.4908 4.73518 20.581 4.42324 18.9646C4.33661 18.5156 4.28272 17.7162 4.28108 16.8558L4.27988 16.2114L4.04586 16.0554C3.73674 15.8493 3.22264 15.3326 3.01789 15.0224C2.65405 14.4711 2.4162 13.8695 2.31205 13.2371C2.24107 12.8062 2.25709 12.0418 2.34558 11.6365C2.578 10.5722 3.2086 9.5987 4.027 9.04068L4.27529 8.87139L4.29126 7.38611C4.30838 5.79377 4.32626 5.59461 4.50915 4.9593C4.7018 4.29007 5.14471 3.54307 5.59038 3.13576C5.99954 2.76182 6.51849 2.48171 7.09743 2.32232C7.46079 2.22229 8.48976 2.21253 8.85783 2.30563C9.99613 2.59355 10.7954 3.35176 11.2269 4.55313L11.3183 4.80774V11.8788V18.9498L11.1933 19.2519C10.7807 20.2486 9.98345 21.072 9.05796 21.4572C8.56231 21.6636 8.18838 21.7387 7.5912 21.7517C7.29425 21.7582 6.97542 21.7498 6.88269 21.733Z" fill="black"/>
<path opacity="0.5" d="M15.4805 21.7114C14.9546 21.6175 14.5327 21.4512 14.0928 21.1645C13.5055 20.7817 13.0578 20.2674 12.7278 19.5967L12.5371 19.209V12.1182V5.02734L12.6446 4.6804C13.0611 3.33618 13.9569 2.48991 15.1911 2.2747C15.6333 2.1976 16.3733 2.22418 16.7858 2.33198C18.0688 2.66725 19.007 3.57855 19.4507 4.92034C19.6656 5.57009 19.6865 5.77526 19.7039 7.40605L19.7196 8.87633L19.8294 8.94154C19.8897 8.97741 20.0609 9.10496 20.2098 9.225C20.8647 9.75318 21.3725 10.5653 21.5987 11.4468C21.7367 11.9842 21.7719 12.7246 21.6838 13.2333C21.569 13.8958 21.3435 14.467 20.9783 15.0204C20.775 15.3284 20.2622 15.8458 19.9525 16.0555L19.7219 16.2115L19.7026 17.1694C19.6769 18.4372 19.5879 18.9853 19.2922 19.6955C19.0258 20.3355 18.467 21.0053 17.9407 21.3155C17.2706 21.7105 16.3265 21.8624 15.4805 21.7114Z" fill="black"/>
<path d="M11.6298 19.912C11.4767 19.8078 11.3885 19.6834 11.35 19.5174C11.3078 19.3355 11.3078 4.65675 11.35 4.4749C11.4154 4.19304 11.6439 4.00195 11.9157 4.00195C12.0096 4.00195 12.1308 4.0249 12.1851 4.05295C12.3215 4.12352 12.4566 4.29289 12.4994 4.44716C12.5495 4.62749 12.5495 19.3648 12.4994 19.5451C12.4566 19.6994 12.3215 19.8688 12.1851 19.9393C12.033 20.018 11.7662 20.0048 11.6298 19.912Z" fill="black"/>
</svg>
