<svg width="24" height="24" viewBox="0 0 24 24" fill="none" xmlns="http://www.w3.org/2000/svg">
<path opacity="0.5" d="M14.7574 7.12132C15.9289 8.29289 17.8284 8.29289 19 7.12132C19.5858 6.53553 19.8787 5.76777 19.8787 5C19.8787 4.23223 19.5858 3.46447 19 2.87868C17.8284 1.70711 15.9289 1.70711 14.7574 2.87868C14.1716 3.46447 13.8787 4.23223 13.8787 5C13.8787 5.76777 14.1716 6.53553 14.7574 7.12132Z" fill="black"/>
<path opacity="0.5" d="M20.9052 17.381C22.3649 15.9213 22.3649 13.5546 20.9052 12.0948C19.4454 10.6351 17.0787 10.6351 15.619 12.0948L12.0948 15.619C10.6351 17.0787 10.6351 19.4454 12.0948 20.9052C13.5546 22.3649 15.9213 22.3649 17.381 20.9052L20.9052 17.381Z" fill="black"/>
<path d="M19.8779 18.4079L19.8784 18.4049L19.1465 18.2639C19.1424 18.263 19.132 18.2606 19.1177 18.257C19.089 18.2498 19.0405 18.2366 18.9748 18.2156C18.8432 18.1736 18.6427 18.1002 18.3923 17.9796C17.8925 17.7387 17.1913 17.3082 16.4415 16.5584C15.6916 15.8086 15.2611 15.1073 15.0201 14.6074C14.8994 14.357 14.826 14.1564 14.784 14.0248C14.763 13.959 14.7431 13.8827 14.7359 13.8539L14.5946 13.1211L14.5916 13.1217L13.3262 14.3871C13.3348 14.4162 13.3444 14.4476 13.3551 14.4812C13.4168 14.6742 13.5155 14.9404 13.6689 15.2586C13.976 15.8959 14.501 16.7392 15.3808 17.6191C16.2606 18.4989 17.1039 19.0238 17.7412 19.3309C18.0593 19.4842 18.3255 19.5829 18.5185 19.6446C18.552 19.6553 18.5833 19.6649 18.6123 19.6734L19.8779 18.4079Z" fill="black"/>
<path d="M9.72685 12.682C7.94471 14.4393 5.05529 14.4393 3.27315 12.682C2.57624 11.9948 2.15185 11.1406 2 10.25H11C10.8481 11.1406 10.4238 11.9948 9.72685 12.682Z" fill="black"/>
<path d="M11 8.75H2C2.15185 7.85943 2.57624 7.00524 3.27315 6.31802C5.05529 4.56066 7.94471 4.56066 9.72685 6.31802C10.4238 7.00524 10.8481 7.85943 11 8.75Z" fill="black"/>
</svg>
