<svg width="24" height="24" viewBox="0 0 24 24" fill="none" xmlns="http://www.w3.org/2000/svg">
<path opacity="0.5" d="M3.46447 3.46447C2 4.92893 2 7.28595 2 12C2 12.8185 2 13.5659 2.00767 14.25H5L5.10773 14.2499C5.63376 14.2491 6.10075 14.2483 6.52918 14.4319C6.9576 14.6155 7.27913 14.9542 7.64131 15.3357L7.71552 15.4138L8.85712 16.6125C8.9656 16.7264 9.14832 16.7141 9.24061 16.5867L12.8944 11.5435C13.0432 11.3379 13.1985 11.1233 13.3518 10.9653C13.5272 10.7844 13.7992 10.5708 14.1937 10.5527C14.5882 10.5346 14.8787 10.7223 15.0699 10.8863C15.2371 11.0297 15.4114 11.229 15.5785 11.4201L17.3823 13.4816C17.868 14.0368 17.9718 14.1316 18.085 14.183C18.1982 14.2343 18.3379 14.25 19.0756 14.25H21.9923C22 13.5659 22 12.8185 22 12C22 7.28595 22 4.92893 20.5355 3.46447C19.0711 2 16.714 2 12 2C7.28595 2 4.92893 2 3.46447 3.46447Z" fill="black"/>
<path d="M2.00781 14.2503C2.0443 17.5059 2.25442 19.3256 3.46461 20.5358C4.92908 22.0003 7.2861 22.0003 12.0001 22.0003C16.7142 22.0003 19.0712 22.0003 20.5357 20.5358C21.7459 19.3256 21.956 17.5059 21.9925 14.2503H19.0757C18.3381 14.2503 18.1984 14.2346 18.0852 14.1832C17.972 14.1319 17.8682 14.0371 17.3824 13.4819L15.5786 11.4204C15.4115 11.2293 15.2372 11.0299 15.07 10.8866C14.8788 10.7225 14.5884 10.5348 14.1939 10.553C13.7994 10.5711 13.5274 10.7847 13.352 10.9655C13.1987 11.1236 13.0434 11.3381 12.8945 11.5438L9.24075 16.587C9.14847 16.7144 8.96574 16.7266 8.85727 16.6127L7.71566 15.4141L7.64145 15.336C7.27927 14.9545 6.95775 14.6158 6.52932 14.4322C6.1009 14.2486 5.63391 14.2493 5.10787 14.2502L5.00015 14.2503H2.00781Z" fill="black"/>
</svg>
