<svg width="24" height="24" viewBox="0 0 24 24" fill="none" xmlns="http://www.w3.org/2000/svg">
<path d="M18.3568 1.61424C18.5699 1.25906 19.0306 1.14388 19.3858 1.35699L18.9999 2.00011C19.3858 1.35699 19.3854 1.35679 19.3858 1.35699L19.3871 1.35783L19.3887 1.35878L19.3924 1.36103L19.402 1.36695C19.4094 1.37153 19.4186 1.37737 19.4296 1.38448C19.4516 1.39871 19.4807 1.41809 19.5159 1.44272C19.5862 1.49194 19.6812 1.56244 19.7925 1.6552C20.0146 1.84029 20.3051 2.11678 20.5944 2.49283C21.1772 3.25057 21.7499 4.40746 21.7499 6.00011C21.7499 7.59277 21.1772 8.74966 20.5944 9.5074C20.3051 9.88345 20.0146 10.1599 19.7925 10.345C19.6812 10.4378 19.5862 10.5083 19.5159 10.5575C19.4807 10.5821 19.4516 10.6015 19.4296 10.6157C19.4186 10.6229 19.4094 10.6287 19.402 10.6333L19.3924 10.6392L19.3887 10.6414L19.3871 10.6424C19.3868 10.6426 19.3858 10.6432 18.9999 10.0001L19.3858 10.6432C19.0306 10.8563 18.5699 10.7412 18.3568 10.386C18.1446 10.0323 18.2579 9.57398 18.6095 9.3597L18.6151 9.35616C18.6224 9.35145 18.6362 9.34231 18.6557 9.32866C18.6948 9.30132 18.7561 9.25619 18.8323 9.1927C18.9851 9.06529 19.1947 8.86678 19.4054 8.59283C19.8225 8.05057 20.2499 7.20746 20.2499 6.00011C20.2499 4.79277 19.8225 3.94966 19.4054 3.4074C19.1947 3.13345 18.9851 2.93494 18.8323 2.80753C18.7561 2.74403 18.6948 2.69891 18.6557 2.67157C18.6362 2.65792 18.6224 2.64878 18.6151 2.64406L18.6096 2.64053C18.2579 2.42625 18.1446 1.96793 18.3568 1.61424Z" fill="black"/>
<path fill-rule="evenodd" clip-rule="evenodd" d="M9.99989 1.25011C7.37654 1.25011 5.24989 3.37676 5.24989 6.00011C5.24989 8.62347 7.37654 10.7501 9.99989 10.7501C12.6232 10.7501 14.7499 8.62347 14.7499 6.00011C14.7499 3.37676 12.6232 1.25011 9.99989 1.25011ZM6.74989 6.00011C6.74989 4.20519 8.20496 2.75011 9.99989 2.75011C11.7948 2.75011 13.2499 4.20519 13.2499 6.00011C13.2499 7.79504 11.7948 9.25011 9.99989 9.25011C8.20496 9.25011 6.74989 7.79504 6.74989 6.00011Z" fill="black"/>
<path fill-rule="evenodd" clip-rule="evenodd" d="M9.99989 12.2501C7.68634 12.2501 5.55481 12.776 3.97534 13.6645C2.41937 14.5397 1.24989 15.8662 1.24989 17.5001L1.24982 17.6021C1.24869 18.7639 1.24728 20.2221 2.5263 21.2637C3.15577 21.7763 4.03637 22.1408 5.2261 22.3816C6.41915 22.6231 7.97412 22.7501 9.99989 22.7501C12.0257 22.7501 13.5806 22.6231 14.7737 22.3816C15.9634 22.1408 16.844 21.7763 17.4735 21.2637C18.7525 20.2221 18.7511 18.7639 18.75 17.6021L18.7499 17.5001C18.7499 15.8662 17.5804 14.5397 16.0244 13.6645C14.445 12.776 12.3134 12.2501 9.99989 12.2501ZM2.74989 17.5001C2.74989 16.6488 3.37127 15.7253 4.71073 14.9718C6.02669 14.2316 7.89516 13.7501 9.99989 13.7501C12.1046 13.7501 13.9731 14.2316 15.289 14.9718C16.6285 15.7253 17.2499 16.6488 17.2499 17.5001C17.2499 18.8079 17.2096 19.5441 16.5263 20.1005C16.1558 20.4023 15.5364 20.6968 14.4761 20.9114C13.4192 21.1253 11.9741 21.2501 9.99989 21.2501C8.02566 21.2501 6.58063 21.1253 5.52368 20.9114C4.46341 20.6968 3.84401 20.4023 3.47348 20.1005C2.79021 19.5441 2.74989 18.8079 2.74989 17.5001Z" fill="black"/>
<path d="M17.3858 3.35699C17.0306 3.14388 16.5699 3.25906 16.3568 3.61424L16.605 4.63774L16.6128 4.64305C16.6245 4.65125 16.6467 4.66747 16.676 4.6919C16.7351 4.74119 16.8197 4.82095 16.9054 4.9324C17.0725 5.14966 17.2499 5.49277 17.2499 6.00011C17.2499 6.50746 17.0725 6.85057 16.9054 7.06783C16.8197 7.17928 16.7351 7.25904 16.676 7.30832C16.6467 7.33276 16.6245 7.34897 16.6128 7.35717L16.605 7.36249C16.2569 7.57794 16.1455 8.03382 16.3568 8.38599C16.5699 8.74117 17.0306 8.85634 17.3858 8.64323L16.9999 8.00011C17.3858 8.64323 17.3854 8.64343 17.3858 8.64323L17.3871 8.64243L17.3885 8.64156L17.3917 8.63963L17.3991 8.63504L17.4184 8.62282C17.4331 8.61333 17.4514 8.60108 17.473 8.58602C17.5159 8.55594 17.5718 8.51435 17.6363 8.46065C17.7646 8.35369 17.9301 8.19594 18.0944 7.9824C18.4272 7.54966 18.7499 6.89277 18.7499 6.00011C18.7499 5.10746 18.4272 4.45057 18.0944 4.01783C17.9301 3.80428 17.7646 3.64654 17.6363 3.53957C17.5718 3.48588 17.5159 3.44428 17.473 3.4142C17.4514 3.39914 17.4331 3.3869 17.4184 3.3774L17.3991 3.36519L17.3917 3.36059L17.3885 3.35867L17.3871 3.3578C17.3868 3.3576 17.3858 3.35699 16.9999 4.00011L17.3858 3.35699Z" fill="black"/>
</svg>
