<svg width="24" height="24" viewBox="0 0 24 24" fill="none" xmlns="http://www.w3.org/2000/svg">
<path fill-rule="evenodd" clip-rule="evenodd" d="M11.9999 1.25C9.37654 1.25 7.24989 3.37665 7.24989 6C7.24989 8.62335 9.37654 10.75 11.9999 10.75C14.6232 10.75 16.7499 8.62335 16.7499 6C16.7499 3.37665 14.6232 1.25 11.9999 1.25ZM8.74989 6C8.74989 4.20507 10.205 2.75 11.9999 2.75C13.7948 2.75 15.2499 4.20507 15.2499 6C15.2499 7.79493 13.7948 9.25 11.9999 9.25C10.205 9.25 8.74989 7.79493 8.74989 6Z" fill="black"/>
<path d="M16.9999 15.25C16.5857 15.25 16.2499 15.5858 16.2499 16C16.2499 16.4142 16.5857 16.75 16.9999 16.75H18.9999C19.4141 16.75 19.7499 16.4142 19.7499 16C19.7499 15.5858 19.4141 15.25 18.9999 15.25H16.9999Z" fill="black"/>
<path fill-rule="evenodd" clip-rule="evenodd" d="M11.9999 12.25C12.9683 12.25 13.9018 12.3421 14.7745 12.5129C15.6216 11.7291 16.7548 11.25 17.9999 11.25C20.6232 11.25 22.7499 13.3766 22.7499 16C22.7499 17.7601 21.7926 19.2966 20.3702 20.1172C19.9971 20.9266 19.2984 21.5697 18.1195 22.0085C16.8098 22.4961 14.868 22.75 11.9999 22.75C9.97411 22.75 8.41915 22.6229 7.2261 22.3815C6.03637 22.1406 5.15577 21.7761 4.5263 21.2635C3.24728 20.222 3.24869 18.7638 3.24982 17.602L3.24989 17.5C3.24989 15.8661 4.41937 14.5396 5.97534 13.6643C7.55481 12.7759 9.68634 12.25 11.9999 12.25ZM4.74989 17.5C4.74989 16.6487 5.37127 15.7251 6.71073 14.9717C8.02669 14.2315 9.89516 13.75 11.9999 13.75C12.6059 13.75 13.1938 13.79 13.7556 13.865C13.4321 14.5069 13.2499 15.2322 13.2499 16C13.2499 18.3893 15.014 20.3666 17.3107 20.7004C16.24 21.0366 14.5779 21.25 11.9999 21.25C10.0257 21.25 8.58063 21.1252 7.52368 20.9113C6.46341 20.6967 5.84401 20.4022 5.47348 20.1004C4.79021 19.544 4.74989 18.8078 4.74989 17.5ZM17.9999 12.75C16.205 12.75 14.7499 14.2051 14.7499 16C14.7499 17.7949 16.205 19.25 17.9999 19.25C19.7948 19.25 21.2499 17.7949 21.2499 16C21.2499 14.2051 19.7948 12.75 17.9999 12.75Z" fill="black"/>
</svg>
