<svg width="24" height="24" viewBox="0 0 24 24" fill="none" xmlns="http://www.w3.org/2000/svg">
<path fill-rule="evenodd" clip-rule="evenodd" d="M5.24989 6C5.24989 3.37665 7.37654 1.25 9.99989 1.25C12.6232 1.25 14.7499 3.37665 14.7499 6C14.7499 8.62335 12.6232 10.75 9.99989 10.75C7.37654 10.75 5.24989 8.62335 5.24989 6ZM9.99989 2.75C8.20496 2.75 6.74989 4.20507 6.74989 6C6.74989 7.79493 8.20496 9.25 9.99989 9.25C11.7948 9.25 13.2499 7.79493 13.2499 6C13.2499 4.20507 11.7948 2.75 9.99989 2.75Z" fill="black"/>
<path fill-rule="evenodd" clip-rule="evenodd" d="M3.97534 13.6643C5.55481 12.7759 7.68634 12.25 9.99989 12.25C12.3134 12.25 14.445 12.7759 16.0244 13.6643C17.5804 14.5396 18.7499 15.8661 18.7499 17.5L18.75 17.602C18.7511 18.7638 18.7525 20.222 17.4735 21.2635C16.844 21.7761 15.9634 22.1406 14.7737 22.3815C13.5806 22.6229 12.0257 22.75 9.99989 22.75C7.97412 22.75 6.41915 22.6229 5.2261 22.3815C4.03637 22.1406 3.15577 21.7761 2.5263 21.2635C1.24728 20.222 1.24869 18.7638 1.24982 17.602L1.24989 17.5C1.24989 15.8661 2.41937 14.5396 3.97534 13.6643ZM4.71073 14.9717C3.37127 15.7251 2.74989 16.6487 2.74989 17.5C2.74989 18.8078 2.79021 19.544 3.47348 20.1004C3.84401 20.4022 4.46341 20.6967 5.52368 20.9113C6.58063 21.1252 8.02566 21.25 9.99989 21.25C11.9741 21.25 13.4192 21.1252 14.4761 20.9113C15.5364 20.6967 16.1558 20.4022 16.5263 20.1004C17.2096 19.544 17.2499 18.8078 17.2499 17.5C17.2499 16.6487 16.6285 15.7251 15.289 14.9717C13.9731 14.2315 12.1046 13.75 9.99989 13.75C7.89516 13.75 6.02669 14.2315 4.71073 14.9717Z" fill="black"/>
<path fill-rule="evenodd" clip-rule="evenodd" d="M16.6901 7.44694C17.4108 7.12802 18.2477 7.18847 18.9999 7.67889C19.752 7.18847 20.589 7.12802 21.3096 7.44694C22.1647 7.82533 22.7499 8.69929 22.7499 9.69973C22.7499 10.6481 22.3357 11.362 21.8393 11.9031C21.452 12.3254 20.9728 12.682 20.5944 12.9636C20.5131 13.0241 20.4365 13.0812 20.3664 13.1347L20.3644 13.1362C20.2157 13.2497 20.0234 13.3965 19.8206 13.5111C19.6167 13.6265 19.3343 13.75 18.9999 13.75C18.6655 13.75 18.3831 13.6265 18.1792 13.5111C17.9764 13.3965 17.7841 13.2497 17.6354 13.1362L17.6334 13.1347C17.5634 13.0812 17.4868 13.0242 17.4056 12.9638C17.0272 12.6821 16.5478 12.3254 16.1604 11.9031C15.6641 11.362 15.2499 10.6481 15.2499 9.69973C15.2499 8.69929 15.8351 7.82533 16.6901 7.44694ZM16.7499 9.69973C16.7499 9.28775 16.9897 8.95469 17.2972 8.81862C17.5634 8.7008 17.9873 8.68874 18.468 9.17232C18.6088 9.31392 18.8002 9.39354 18.9999 9.39354C19.1996 9.39354 19.391 9.31392 19.5318 9.17232C20.0125 8.68874 20.4364 8.7008 20.7026 8.81862C21.0101 8.95469 21.2499 9.28775 21.2499 9.69973C21.2499 10.1638 21.0612 10.5324 20.7339 10.8891C20.4519 11.1966 20.1156 11.448 19.7437 11.7259C19.6501 11.7959 19.5542 11.8676 19.4563 11.9423C19.2938 12.0663 19.1812 12.1495 19.082 12.2056C19.0419 12.2283 19.0152 12.2399 18.9999 12.2456C18.9846 12.2399 18.9578 12.2283 18.9178 12.2056C18.8185 12.1495 18.7059 12.0663 18.5434 11.9423C18.4456 11.8676 18.3498 11.796 18.2562 11.726C17.8843 11.448 17.5478 11.1966 17.2658 10.8891C16.9386 10.5324 16.7499 10.1638 16.7499 9.69973Z" fill="black"/>
</svg>
