<svg width="24" height="24" viewBox="0 0 24 24" fill="none" xmlns="http://www.w3.org/2000/svg">
<path d="M20.2058 14.9709C19.6687 17.6567 19.4001 18.9996 18.5126 19.8646C18.3486 20.0244 18.1711 20.1699 17.9822 20.2994C16.96 21 15.5905 21 12.8515 21H11.1485C8.4095 21 7.03998 21 6.0178 20.2994C5.82888 20.1699 5.65142 20.0244 5.4874 19.8646C4.59993 18.9996 4.33135 17.6567 3.79418 14.9709C3.02298 11.1149 2.63738 9.18686 3.52504 7.82067C3.68576 7.5733 3.87336 7.34447 4.0844 7.13836C5.24998 6 7.21616 6 11.1485 6H12.8515C16.7838 6 18.75 6 19.9156 7.13836C20.1266 7.34447 20.3142 7.5733 20.475 7.82067C20.9861 8.60728 21.075 9.58013 20.9114 11" stroke="black" stroke-width="1.5" stroke-linecap="round"/>
<circle cx="15" cy="10" r="1" fill="black"/>
<circle cx="9" cy="10" r="1" fill="black"/>
<path d="M9 6V5C9 3.34315 10.3431 2 12 2C13.6569 2 15 3.34315 15 5V6" stroke="black" stroke-width="1.5" stroke-linecap="round"/>
</svg>
