<svg width="24" height="24" viewBox="0 0 24 24" fill="none" xmlns="http://www.w3.org/2000/svg">
<path d="M20.2236 12.5257C19.6383 9.40452 19.3457 7.84393 18.2348 6.92196C17.1239 6 15.5362 6 12.3606 6H11.6394C8.46385 6 6.87606 6 5.76517 6.92196C4.65427 7.84393 4.36166 9.40452 3.77644 12.5257C2.95351 16.9146 2.54205 19.1091 3.74167 20.5545C4.94129 22 7.174 22 11.6394 22H12.3606C16.826 22 19.0587 22 20.2583 20.5545C20.9543 19.7159 21.108 18.6252 20.9537 17" stroke="black" stroke-width="1.5" stroke-linecap="round"/>
<path d="M9 6V5C9 3.34315 10.3431 2 12 2C13.6569 2 15 3.34315 15 5V6" stroke="black" stroke-width="1.5" stroke-linecap="round"/>
</svg>
