<svg width="24" height="24" viewBox="0 0 24 24" fill="none" xmlns="http://www.w3.org/2000/svg">
<path d="M3.86388 16.4552C4.40955 18.6379 4.68239 19.7292 5.49617 20.3646C6.30996 21 7.43488 21 9.68474 21H14.3154C16.5653 21 17.6902 21 18.504 20.3646C19.3178 19.7292 19.5906 18.6379 20.1363 16.4552C20.9942 13.0234 21.4232 11.3075 20.5224 10.1538C19.6215 9 17.8528 9 14.3154 9H9.68474C6.14733 9 4.37862 9 3.47779 10.1538C2.949 10.831 2.87842 11.702 3.08386 13" stroke="black" stroke-width="1.5" stroke-linecap="round"/>
<path d="M19.5 9.5L18.7896 6.89465C18.5157 5.89005 18.3787 5.38775 18.0978 5.00946C17.818 4.63273 17.4378 4.34234 17.0008 4.17152C16.5619 4 16.0413 4 15 4M4.5 9.5L5.2104 6.89465C5.48432 5.89005 5.62128 5.38775 5.90221 5.00946C6.18199 4.63273 6.56216 4.34234 6.99922 4.17152C7.43808 4 7.95872 4 9 4" stroke="black" stroke-width="1.5"/>
<path d="M9 4C9 3.44772 9.44772 3 10 3H14C14.5523 3 15 3.44772 15 4C15 4.55228 14.5523 5 14 5H10C9.44772 5 9 4.55228 9 4Z" stroke="black" stroke-width="1.5"/>
</svg>
