<svg width="24" height="24" viewBox="0 0 24 24" fill="none" xmlns="http://www.w3.org/2000/svg">
<path d="M21 22H11M3 22H7" stroke="black" stroke-width="1.5" stroke-linecap="round"/>
<path d="M19 22V15" stroke="black" stroke-width="1.5" stroke-linecap="round"/>
<path d="M5 22V15" stroke="black" stroke-width="1.5" stroke-linecap="round"/>
<path d="M12 2H7.4722C6.26938 2 5.66797 2 5.18467 2.2987C4.70136 2.5974 4.4324 3.13531 3.89449 4.21114L2.49087 7.75929C2.16658 8.57905 1.88285 9.54525 2.42873 10.2375C2.79495 10.7019 3.36263 11 3.99997 11C5.10454 11 5.99997 10.1046 5.99997 9C5.99997 10.1046 6.8954 11 7.99997 11C9.10454 11 9.99997 10.1046 9.99997 9C9.99997 10.1046 10.8954 11 12 11C13.1045 11 14 10.1046 14 9C14 10.1046 14.8954 11 16 11C17.1045 11 18 10.1046 18 9C18 10.1046 18.8954 11 20 11C20.6373 11 21.205 10.7019 21.5713 10.2375C22.1172 9.54525 21.8334 8.57905 21.5092 7.75929L20.1055 4.21114C19.5676 3.13531 19.2987 2.5974 18.8154 2.2987C18.3321 2 17.7307 2 16.5278 2H16.0001" stroke="black" stroke-width="1.5" stroke-linecap="round" stroke-linejoin="round"/>
</svg>
