<svg width="24" height="24" viewBox="0 0 24 24" fill="none" xmlns="http://www.w3.org/2000/svg">
<path d="M9.21261 10.1732L11.2277 8.56855C12.5302 7.5313 13.1814 7.01267 13.5908 7.26882C14.0001 7.52498 13.7876 8.31815 13.3625 9.90451L13.3224 10.0541C13.1691 10.6262 13.0925 10.9123 13.2272 11.1408L13.2344 11.1526C13.3741 11.3783 13.6718 11.4581 14.2673 11.6177C15.339 11.9048 15.8748 12.0484 15.9688 12.4219C15.9704 12.4281 15.9718 12.4343 15.9732 12.4406C16.0557 12.8164 15.633 13.153 14.7876 13.8262L12.7725 15.4309C11.47 16.4681 10.8187 16.9868 10.4094 16.7306C10 16.4744 10.2126 15.6813 10.6377 14.0949L10.6777 13.9454C10.8311 13.3732 10.9077 13.0871 10.773 12.8587L10.7658 12.8468C10.6261 12.6211 10.3283 12.5413 9.73283 12.3818C8.6612 12.0946 8.12538 11.951 8.03138 11.5775C8.02983 11.5713 8.02836 11.5651 8.027 11.5589C7.94449 11.1831 8.36719 10.8464 9.21261 10.1732Z" stroke="black" stroke-width="1.5"/>
<path d="M2 12C2 6.47715 6.47715 2 12 2C17.5228 2 22 6.47715 22 12C22 17.5228 17.5228 22 12 22C6.47715 22 2 17.5228 2 12Z" stroke="black" stroke-width="1.5"/>
</svg>
