<svg width="24" height="24" viewBox="0 0 24 24" fill="none" xmlns="http://www.w3.org/2000/svg">
<path d="M11.9999 2H8.66659C6.82564 2 5.33325 3.49238 5.33325 5.33333C5.33325 7.17428 6.82563 8.66667 8.66658 8.66667H11.9999V2Z" stroke="black" stroke-width="1.5"/>
<path d="M11.9999 8.66699H8.66659C6.82564 8.66699 5.33325 10.1594 5.33325 12.0003C5.33325 13.8413 6.82563 15.3337 8.66658 15.3337H11.9999V8.66699Z" stroke="black" stroke-width="1.5"/>
<path d="M18.6667 12.0003C18.6667 13.8413 17.1743 15.3337 15.3333 15.3337C13.4924 15.3337 12 13.8413 12 12.0003C12 10.1594 13.4924 8.66699 15.3333 8.66699C17.1743 8.66699 18.6667 10.1594 18.6667 12.0003Z" stroke="black" stroke-width="1.5"/>
<path d="M8.66658 15.333H11.9999V18.6663C11.9999 20.5073 10.5075 21.9997 8.66659 21.9997C6.82564 21.9997 5.33325 20.5073 5.33325 18.6663C5.33325 16.8254 6.82563 15.333 8.66658 15.333Z" stroke="black" stroke-width="1.5"/>
<path d="M12 2H15.3333C17.1743 2 18.6667 3.49238 18.6667 5.33333C18.6667 7.17428 17.1743 8.66667 15.3333 8.66667H12V2Z" stroke="black" stroke-width="1.5"/>
</svg>
