<svg width="24" height="24" viewBox="0 0 24 24" fill="none" xmlns="http://www.w3.org/2000/svg">
<path fill-rule="evenodd" clip-rule="evenodd" d="M17.952 2.87396C16.1404 2.46752 13.9349 3.07369 12.2941 4.71447C10.7139 6.29463 9.6359 8.8884 9.71122 10.9858C9.71334 11.0448 9.71635 11.1031 9.72026 11.1608C9.90527 10.8071 10.1197 10.4491 10.3482 10.0978C11.3192 8.60515 12.6636 7.05539 13.5767 6.14231C14.4911 5.228 15.8484 4.07644 17.1559 3.30026C17.4171 3.14514 17.6843 3.00026 17.952 2.87396ZM21.0789 2.92126C18.4782 0.320685 13.9918 0.895558 11.2334 3.65379C9.38534 5.50182 8.12062 8.48974 8.21219 11.0396C8.25779 12.3095 8.64447 13.5436 9.55036 14.4494C10.4566 15.3556 11.6912 15.7422 12.9616 15.7876C15.5113 15.8786 18.4985 14.6141 20.3463 12.7664C23.1046 10.0082 23.6796 5.52187 21.0789 2.92126ZM20.0182 3.98194C19.9729 3.93668 19.8406 3.84723 19.432 3.93099C19.0286 4.01365 18.5106 4.24041 17.9216 4.59009C16.753 5.28383 15.4936 6.34684 14.6374 7.20299C13.78 8.06039 12.5071 9.52982 11.6056 10.9158C11.1514 11.6139 10.8206 12.247 10.6685 12.7452C10.5926 12.9935 10.574 13.1679 10.5822 13.2782C10.586 13.3299 10.5951 13.3585 10.6004 13.3714C10.605 13.3824 10.6083 13.386 10.611 13.3888C10.6137 13.3915 10.6174 13.3948 10.6284 13.3994C10.6413 13.4047 10.6699 13.4138 10.7217 13.4176C10.8321 13.4258 11.0065 13.4072 11.2548 13.3314C11.7531 13.1793 12.3863 12.8485 13.0845 12.3945C14.4706 11.4931 15.9402 10.2204 16.7976 9.36308C17.6538 8.50698 18.7166 7.24751 19.4103 6.07882C19.7599 5.48974 19.9866 4.97165 20.0692 4.56831C20.153 4.15957 20.0635 4.02722 20.0182 3.98194ZM12.8397 14.2795C13.1932 14.0946 13.5511 13.8803 13.9023 13.652C15.3951 12.6811 16.9451 11.3369 17.8583 10.4238C18.7727 9.5094 19.9241 8.15199 20.7002 6.8444C20.8552 6.58316 21 6.3161 21.1263 6.04843C21.5326 7.85988 20.9263 10.065 19.2856 11.7057C17.7057 13.2856 15.1125 14.3635 13.0152 14.2886C12.956 14.2865 12.8975 14.2834 12.8397 14.2795Z" fill="black"/>
<path opacity="0.5" d="M8.26895 11.7053C8.41001 12.7338 8.80393 13.703 9.55036 14.4494C10.297 15.1961 11.2666 15.59 12.2954 15.7309L6.85993 21.1662C5.74815 22.278 3.94561 22.278 2.83383 21.1662C1.72206 20.0545 1.72206 18.252 2.83383 17.1403L8.26895 11.7053Z" fill="black"/>
</svg>
