<svg width="24" height="24" viewBox="0 0 24 24" fill="none" xmlns="http://www.w3.org/2000/svg">
<path d="M9.00195 5.5C9.01406 3.32497 9.87889 2.87868 9.87889 2.87868C10.7576 2 12.1718 2 15.0002 2L16.0002 2C18.8286 2 20.2429 2 21.1215 2.87868C22.0002 3.75736 22.0002 5.17157 22.0002 8L22.0002 16C22.0002 18.8284 22.0002 20.2426 21.1215 21.1213C20.2429 22 18.8286 22 16.0002 22H15.0002C12.1718 22 10.7576 22 9.87889 21.1213C9.87889 21.1213 9.01211 20.675 9 18.5" stroke="black" stroke-width="1.5" stroke-linecap="round"/>
<path d="M12 12L9 12M9 12L6 12M9 12L9 9M9 12L9 15" stroke="black" stroke-width="1.5" stroke-linecap="round"/>
</svg>
