<svg width="24" height="24" viewBox="0 0 24 24" fill="none" xmlns="http://www.w3.org/2000/svg">
<path d="M13 2L14 2C16.8284 2 18.2426 2 19.1213 2.87868C20 3.75736 20 5.17157 20 8L20 16C20 18.8284 20 20.2426 19.1213 21.1213C18.2426 22 16.8284 22 14 22H13C10.1715 22 8.75733 22 7.87865 21.1213C7.87865 21.1213 7.01186 20.675 6.99976 18.5L6.99976 11.5" stroke="black" stroke-width="1.5" stroke-linecap="round"/>
<path d="M3.99976 5.00002L6.99976 5.00002M6.99976 5.00002L9.99976 5.00003M6.99976 5.00002L6.99976 2M6.99976 5.00002L6.99976 8" stroke="black" stroke-width="1.5" stroke-linecap="round"/>
</svg>
