<svg width="24" height="24" viewBox="0 0 24 24" fill="none" xmlns="http://www.w3.org/2000/svg">
<path d="M11 2L10 2C7.1716 2 5.75739 2 4.87871 2.87868C4.00003 3.75736 4.00003 5.17157 4.00003 8L4.00003 16C4.00003 18.8284 4.00003 20.2426 4.87871 21.1213C5.75739 22 7.1716 22 10 22H11C13.8285 22 15.2427 22 16.1213 21.1213C16.1213 21.1213 16.9881 20.675 17.0002 18.5L17.0002 11.5" stroke="black" stroke-width="1.5" stroke-linecap="round"/>
<path d="M20 5.00002L17 5.00002M17 5.00002L14 5.00003M17 5.00002L17 2M17 5.00002L17 8" stroke="black" stroke-width="1.5" stroke-linecap="round"/>
</svg>
