<svg width="24" height="24" viewBox="0 0 24 24" fill="none" xmlns="http://www.w3.org/2000/svg">
<path d="M18.5 9C19.6614 9 20.3579 9.29638 20.7378 9.54492C20.8256 9.60239 20.8695 9.63112 21.0979 9.86443C21.3262 10.0977 21.3638 10.1579 21.4388 10.2782C22 11.1775 22 12.5645 22 15.0002V16.0002C22 18.8286 22 20.2429 21.1213 21.1215C20.2426 22.0002 18.8284 22.0002 16 22.0002H8C5.17157 22.0002 3.75736 22.0002 2.87868 21.1215C2 20.2429 2 18.8286 2 16.0002L2 15.0002C2 12.5645 2 11.1775 2.56116 10.2782C2.63622 10.1579 2.67376 10.0977 2.90211 9.86443C3.13046 9.63112 3.17437 9.60239 3.26221 9.54492C3.6421 9.29638 4.33859 9 5.5 9" stroke="black" stroke-width="1.5" stroke-linecap="round"/>
<path d="M15 9.00002L12 9.00002M12 9.00002L9 9.00003M12 9.00002L12 6M12 9.00002L12 12" stroke="black" stroke-width="1.5" stroke-linecap="round"/>
</svg>
