<svg width="24" height="24" viewBox="0 0 24 24" fill="none" xmlns="http://www.w3.org/2000/svg">
<path d="M2 2H6V6H2V2Z" fill="black"/>
<path d="M2 10H6V14H2V10Z" fill="black"/>
<path d="M2 18H6V22H2V18Z" fill="black"/>
<path d="M6 6H10V10H6V6Z" fill="black"/>
<path d="M6 14H10V18H6V14Z" fill="black"/>
<path d="M10 2H14V6H10V2Z" fill="black"/>
<path d="M10 10H14V14H10V10Z" fill="black"/>
<path d="M10 18H14V22H10V18Z" fill="black"/>
<path d="M14 6H18V10H14V6Z" fill="black"/>
<path d="M14 14H18V18H14V14Z" fill="black"/>
<path d="M18 2H22V6H18V2Z" fill="black"/>
<path d="M18 10H22V14H18V10Z" fill="black"/>
<path d="M18 18H22V22H18V18Z" fill="black"/>
</svg>
