<svg width="24" height="24" viewBox="0 0 24 24" fill="none" xmlns="http://www.w3.org/2000/svg">
<path fill-rule="evenodd" clip-rule="evenodd" d="M11.1991 2.92028C10.7815 3.04936 10.242 3.2454 9.48798 3.51972C8.42197 3.90756 7.16799 4.28301 6.06813 4.383C5.79425 4.40789 5.59721 4.42583 5.45193 4.44117C5.37979 4.44879 5.32575 4.45523 5.28502 4.46089C5.26494 4.46369 5.24984 4.46605 5.23875 4.46797L5.22634 4.47024C5.22346 4.47081 5.22214 4.4711 5.22218 4.4711C4.88807 4.54732 4.68167 4.67546 4.54882 4.82094C4.41597 4.96641 4.30705 5.18356 4.26138 5.52321C4.25208 5.5924 4.25023 5.71936 4.25023 6.13784V14.2503H19.7502V6.13784C19.7502 5.71936 19.7484 5.5924 19.7391 5.52321C19.6934 5.18356 19.5845 4.96641 19.4516 4.82094C19.3188 4.67546 19.1124 4.54732 18.7783 4.4711C18.7783 4.4711 18.777 4.47081 18.7741 4.47024L18.7617 4.46797C18.7506 4.46605 18.7355 4.46369 18.7154 4.4609C18.6747 4.45523 18.6207 4.44879 18.5485 4.44117C18.4032 4.42583 18.2062 4.40789 17.9323 4.383C16.8325 4.28301 15.5785 3.90756 14.5125 3.51972C13.7585 3.2454 13.219 3.04935 12.8014 2.92028C12.3776 2.78928 12.1474 2.75 12.0002 2.75C11.853 2.75 11.6229 2.78928 11.1991 2.92028ZM21.2502 14.2681V6.13784C21.2502 6.11554 21.2502 6.09362 21.2502 6.07206C21.2504 5.74812 21.2504 5.50721 21.2257 5.32332C21.1482 4.74702 20.939 4.22526 20.5593 3.80943C20.1795 3.3936 19.6789 3.13802 19.1119 3.00867C18.9308 2.96736 18.6177 2.93898 18.1678 2.8982C18.1353 2.89525 18.1021 2.89224 18.0681 2.88916C17.1641 2.80697 16.0557 2.48499 15.0253 2.11012L15.0054 2.10288C14.2756 1.83736 13.7015 1.62846 13.2444 1.48718C12.7894 1.34654 12.3818 1.25 12.0002 1.25C11.6186 1.25 11.2111 1.34654 10.7561 1.48718C10.299 1.62847 9.72482 1.83737 8.99501 2.10289L8.97514 2.11012C7.94476 2.48499 6.83634 2.80697 5.93233 2.88916C5.89839 2.89224 5.86517 2.89525 5.83267 2.8982C5.38268 2.93898 5.06964 2.96735 4.88853 3.00867C4.3216 3.13802 3.82093 3.3936 3.44119 3.80943C3.06144 4.22526 2.85225 4.74702 2.77476 5.32332C2.75003 5.50721 2.75011 5.74812 2.75022 6.07207C2.75022 6.09362 2.75023 6.11554 2.75023 6.13784V14.2681C1.9031 14.3894 1.24705 15.1182 1.25198 16.0046C1.258 17.0861 1.28388 17.9875 1.41918 18.724C1.55842 19.482 1.82366 20.1271 2.34858 20.652C2.86889 21.1723 3.50572 21.4363 4.25023 21.5765V22.0003C4.25023 22.4145 4.58602 22.7503 5.00023 22.7503C5.41444 22.7503 5.75023 22.4145 5.75023 22.0003V21.7246C6.38949 21.7504 7.119 21.7503 7.94536 21.7503H16.0551C16.8815 21.7503 17.611 21.7504 18.2502 21.7246V22.0003C18.2502 22.4145 18.586 22.7503 19.0002 22.7503C19.4144 22.7503 19.7502 22.4145 19.7502 22.0003V21.5765C20.4947 21.4363 21.1316 21.1723 21.6519 20.652C22.1768 20.1271 22.442 19.482 22.5813 18.724C22.7166 17.9875 22.7425 17.0861 22.7485 16.0046C22.7534 15.1182 22.0974 14.3894 21.2502 14.2681ZM12.7502 20.2503H16.0002C17.4356 20.2503 18.4368 20.2487 19.1921 20.1472C19.9259 20.0485 20.3145 19.8681 20.5912 19.5913C20.8347 19.3479 21.0018 19.0198 21.106 18.453C21.214 17.8648 21.2424 17.0897 21.2485 15.9962C21.2492 15.8635 21.1404 15.7503 21.0002 15.7503H12.7502V20.2503ZM11.2502 15.7503V20.2503H8.00023C6.56482 20.2503 5.5637 20.2487 4.80835 20.1472C4.07458 20.0485 3.686 19.8681 3.40924 19.5913C3.16579 19.3479 2.99861 19.0198 2.8945 18.453C2.78644 17.8648 2.75805 17.0897 2.75196 15.9962C2.75122 15.8635 2.8601 15.7503 3.00023 15.7503H11.2502ZM11.0306 6.47C11.3235 6.7629 11.3235 7.23777 11.0306 7.53066L10.0306 8.53066C9.73767 8.82356 9.26279 8.82356 8.9699 8.53066C8.67701 8.23777 8.67701 7.7629 8.9699 7.47L9.9699 6.47C10.2628 6.17711 10.7377 6.17711 11.0306 6.47ZM14.0306 7.47C14.3235 7.7629 14.3235 8.23777 14.0306 8.53066L11.0306 11.5307C10.7377 11.8236 10.2628 11.8236 9.9699 11.5307C9.67701 11.2378 9.67701 10.7629 9.9699 10.47L12.9699 7.47C13.2628 7.17711 13.7377 7.17711 14.0306 7.47ZM15.0306 10.47C15.3235 10.7629 15.3235 11.2378 15.0306 11.5307L14.0306 12.5307C13.7377 12.8236 13.2628 12.8236 12.9699 12.5307C12.677 12.2378 12.677 11.7629 12.9699 11.47L13.9699 10.47C14.2628 10.1771 14.7377 10.1771 15.0306 10.47ZM6.25023 18.0003C6.25023 17.5861 6.58602 17.2503 7.00023 17.2503H9.00023C9.41444 17.2503 9.75023 17.5861 9.75023 18.0003C9.75023 18.4145 9.41444 18.7503 9.00023 18.7503H7.00023C6.58602 18.7503 6.25023 18.4145 6.25023 18.0003ZM14.2502 18.0003C14.2502 17.5861 14.586 17.2503 15.0002 17.2503H17.0002C17.4144 17.2503 17.7502 17.5861 17.7502 18.0003C17.7502 18.4145 17.4144 18.7503 17.0002 18.7503H15.0002C14.586 18.7503 14.2502 18.4145 14.2502 18.0003Z" fill="black"/>
</svg>
