<svg width="24" height="24" viewBox="0 0 24 24" fill="none" xmlns="http://www.w3.org/2000/svg">
<path d="M13.2896 5.7897C13.438 6.32603 13.4623 6.97541 13.0688 7.3689L7.36896 13.0687C6.97547 13.4622 6.32609 13.438 5.78976 13.2895C4.77652 13.0092 3.48108 13.3942 2.73786 14.1374C1.75413 15.1212 1.75413 16.7161 2.73786 17.6998C3.72158 18.6835 5.31652 18.6835 6.30024 17.6998C5.31652 18.6835 5.31652 20.2785 6.30024 21.2622C7.28397 22.2459 8.8789 22.2459 9.86263 21.2622M14.1375 2.73779C15.1212 1.75407 16.7162 1.75407 17.6999 2.73779C18.6836 3.72152 18.6836 5.31646 17.6999 6.30018C18.6836 5.31646 20.2785 5.31645 21.2623 6.30018C22.246 7.28391 22.246 8.87884 21.2623 9.86257C20.519 10.6058 19.2236 10.9908 18.2104 10.7105C17.674 10.562 17.0247 10.5378 16.6312 10.9313L10.9313 16.6311C10.5379 17.0246 10.5621 17.674 10.7105 18.2103" stroke="black" stroke-width="1.5" stroke-linecap="round" stroke-linejoin="round"/>
<path d="M10.2322 10.2324V12.3537L12.3536 11.6466V13.0608L14.9997 12.5001" stroke="black" stroke-width="1.5" stroke-linecap="round" stroke-linejoin="round"/>
</svg>
