<svg width="24" height="24" viewBox="0 0 24 24" fill="none" xmlns="http://www.w3.org/2000/svg">
<path d="M9 14.2354V17.0001C9 19.0504 10.2341 20.8125 12 21.584M14.8824 22.0001C16.7691 22.0001 18.3595 20.7311 18.8465 19.0001" stroke="black" stroke-width="1.5" stroke-linecap="round"/>
<path d="M12.2858 3H12.3775C12.6903 3 12.8467 3 12.9786 3.01166C14.4267 3.13972 15.5746 4.28763 15.7027 5.73574C15.7143 5.86761 15.7143 6.02404 15.7143 6.3369V7.23529C15.7143 8.2172 15.5122 9.15189 15.1472 10M5.42863 3H5.33696C5.0241 3 4.86768 3 4.73581 3.01166C3.28769 3.13972 2.13978 4.28763 2.01172 5.73574C2.00006 5.86761 2.00006 6.02404 2.00006 6.3369V7.521C2.00006 11.2292 5.00615 14.2353 8.71435 14.2353C9.78795 14.2353 10.8051 13.9936 11.7143 13.5617" stroke="black" stroke-width="1.5" stroke-linecap="round"/>
<circle cx="19" cy="16" r="3" stroke="black" stroke-width="1.5"/>
<path d="M12 2V4" stroke="black" stroke-width="1.5" stroke-linecap="round"/>
<path d="M6 2V4" stroke="black" stroke-width="1.5" stroke-linecap="round"/>
</svg>
