<svg width="24" height="24" viewBox="0 0 24 24" fill="none" xmlns="http://www.w3.org/2000/svg">
<path d="M19 12.2315L19.9546 11.2769C21.3182 9.91327 22 9.23148 22 8.38426C22 7.53704 21.3182 6.85525 19.9546 5.49167L18.5083 4.04537C17.1448 2.68179 16.463 2 15.6157 2C14.7685 2 14.0867 2.68179 12.7231 4.04537L4.04537 12.7231C2.68179 14.0867 2 14.7685 2 15.6157C2 16.463 2.68179 17.1448 4.04537 18.5083L5.49167 19.9546C6.85525 21.3182 7.53704 22 8.38426 22C9.23148 22 9.91327 21.3182 11.2769 19.9546L16.2315 15" stroke="black" stroke-width="1.5" stroke-linecap="round"/>
<path d="M8.46448 8.46436L9.87869 9.87857" stroke="black" stroke-width="1.5" stroke-linecap="round"/>
<path d="M12.7071 4.22192L14.1213 5.63614" stroke="black" stroke-width="1.5" stroke-linecap="round"/>
<path d="M4.22183 12.707L5.63605 14.1212" stroke="black" stroke-width="1.5" stroke-linecap="round"/>
<path d="M6.34314 10.5857L8.46446 12.707" stroke="black" stroke-width="1.5" stroke-linecap="round"/>
<path d="M10.5858 6.34326L12.7071 8.46458" stroke="black" stroke-width="1.5" stroke-linecap="round"/>
</svg>
