<svg width="24" height="24" viewBox="0 0 24 24" fill="none" xmlns="http://www.w3.org/2000/svg">
<path d="M10.25 20C10.6642 20 11 19.6642 11 19.25L11 16.25C11 15.8358 10.6642 15.5 10.25 15.5L3.5 15.5L3.5 14L19.75 14C20.4783 14 20.9491 13.9984 21.296 13.9518C21.6213 13.908 21.7232 13.8374 21.7803 13.7803C21.8374 13.7232 21.908 13.6213 21.9518 13.296C21.9984 12.9491 22 12.4783 22 11.75C22 11.0217 21.9984 10.5509 21.9518 10.204C21.908 9.87872 21.8374 9.77676 21.7803 9.71967C21.7232 9.66258 21.6213 9.59196 21.296 9.54823C20.9491 9.50159 20.4783 9.5 19.75 9.5L3.5 9.5L3.5 8L15.25 8C15.6642 8 16 7.66421 16 7.25L16 4.25C16 3.83579 15.6642 3.5 15.25 3.5L3.5 3.5L3.5 2L3.5 1.75C3.5 1.33579 3.16421 0.999999 2.75 0.999999C2.33579 0.999999 2 1.33579 2 1.75L2 21.75C2 22.1642 2.33579 22.5 2.75 22.5C3.16421 22.5 3.5 22.1642 3.5 21.75L3.5 21.5L3.5 20L10.25 20Z" fill="black"/>
</svg>
