<svg width="24" height="24" viewBox="0 0 24 24" fill="none" xmlns="http://www.w3.org/2000/svg">
<path fill-rule="evenodd" clip-rule="evenodd" d="M16.5 21.8389C16.4873 21.8417 16.4745 21.8444 16.4617 21.8472L16.4582 21.8479C16.4424 21.8512 16.4266 21.8545 16.4107 21.8578L16.4092 21.8581C16.4256 21.8548 16.4419 21.8514 16.4582 21.8479C16.4722 21.8449 16.4861 21.8419 16.5 21.8389Z" fill="black"/>
<path d="M22 15C21.4162 15 20.9239 15 20.5 15.0076C19.5724 15.0241 18.9718 15.0768 18.4549 15.2447C16.9327 15.7393 15.7393 16.9327 15.2447 18.4549C15.0768 18.9718 15.0241 19.5724 15.0076 20.5C15 20.9239 15 21.4162 15 22C15.4827 22 15.954 21.9511 16.4092 21.8581L16.4107 21.8578L16.4582 21.8479L16.4617 21.8472L16.5 21.8389C19.162 21.2577 21.2577 19.162 21.8389 16.5C21.9444 16.0168 22 15.5149 22 15Z" fill="black"/>
<path fill-rule="evenodd" clip-rule="evenodd" d="M3.46447 20.5355C2 19.0711 2 16.714 2 12C2 7.28595 2 4.92893 3.46447 3.46447C4.92893 2 7.28595 2 12 2C16.714 2 19.0711 2 20.5355 3.46447C22 4.92893 22 7.28595 22 12V13.5L21.7409 13.4999C20.1325 13.499 18.9754 13.4984 17.9914 13.8181C16.0125 14.4611 14.4611 16.0125 13.8181 17.9914C13.4984 18.9754 13.499 20.1325 13.4999 21.7409L13.5 22H12C7.28595 22 4.92893 22 3.46447 20.5355ZM11.6006 6.74023C12.0148 6.74023 12.3506 7.07602 12.3506 7.49023V10.8487H15.709C16.1232 10.8487 16.459 11.1845 16.459 11.5987C16.459 12.0129 16.1232 12.3487 15.709 12.3487H12.3506V15.707C12.3506 16.1213 12.0148 16.457 11.6006 16.457C11.1864 16.457 10.8506 16.1213 10.8506 15.707V12.3487H7.49219C7.07797 12.3487 6.74219 12.0129 6.74219 11.5987C6.74219 11.1845 7.07797 10.8487 7.49219 10.8487L10.8506 10.8487V7.49023C10.8506 7.07602 11.1864 6.74023 11.6006 6.74023Z" fill="black"/>
</svg>
