<svg width="24" height="24" viewBox="0 0 24 24" fill="none" xmlns="http://www.w3.org/2000/svg">
<path opacity="0.5" d="M3.33995 16.9997C6.10138 21.7826 12.2173 23.4214 17.0002 20.66C18.9498 19.5344 20.377 17.8514 21.1967 15.9286C22.388 13.1341 22.2963 9.83304 20.6605 6.99972C19.0246 4.1664 16.2117 2.43642 13.196 2.07088C11.1209 1.81935 8.94981 2.21386 7.00021 3.33946C2.21728 6.10089 0.578527 12.2168 3.33995 16.9997Z" fill="black"/>
<path d="M13.9402 2.18934C13.6937 2.14048 13.4453 2.10083 13.1954 2.07055C12.9447 2.04015 12.6925 2.01919 12.4395 2.00781C12.4299 2.05058 12.4186 2.10332 12.4062 2.1655C12.3714 2.33997 12.3282 2.58922 12.2908 2.90165C12.2416 3.31293 12.5351 3.68625 12.9463 3.73549C13.3576 3.78473 13.7309 3.49125 13.7802 3.07997C13.8126 2.80928 13.8494 2.59838 13.8773 2.45847C13.8912 2.38855 13.9029 2.33648 13.9106 2.30366C13.9144 2.28725 13.9173 2.27567 13.9189 2.26909L13.9202 2.26391L13.9205 2.26279L13.9402 2.18934Z" fill="black"/>
<path d="M2.53369 8.77471C2.61473 8.53649 2.70476 8.30121 2.80361 8.06941C2.90257 7.83735 3.01038 7.60879 3.12689 7.38428C3.16877 7.39735 3.22017 7.41393 3.2803 7.43433C3.44877 7.49148 3.68623 7.57868 3.97551 7.70249C4.3563 7.86549 4.53287 8.30632 4.36988 8.68711C4.20688 9.06791 3.76605 9.24447 3.38526 9.08148C3.13462 8.9742 2.93356 8.90066 2.79846 8.85484C2.73095 8.83194 2.68002 8.816 2.64775 8.80626C2.63162 8.80139 2.62015 8.79807 2.61363 8.79621L2.60894 8.79488L2.53369 8.77471Z" fill="black"/>
<path d="M11.5601 21.991C11.3072 21.9796 11.0552 21.9587 10.8045 21.9283C10.5545 21.898 10.306 21.8584 10.0594 21.8095L10.0791 21.7359L10.0794 21.7348L10.0807 21.7296C10.0824 21.723 10.0852 21.7114 10.0891 21.695C10.0968 21.6622 10.1084 21.6101 10.1224 21.5402C10.1502 21.4003 10.1871 21.1894 10.2195 20.9187C10.2687 20.5074 10.6421 20.214 11.0533 20.2632C11.4646 20.3124 11.7581 20.6858 11.7088 21.097C11.6714 21.4095 11.6282 21.6587 11.5935 21.8332C11.5811 21.8954 11.5698 21.9482 11.5601 21.991Z" fill="black"/>
<path d="M21.4656 15.2239C21.3847 15.4618 21.2948 15.6967 21.1962 15.9282C21.0971 16.1606 20.9891 16.3895 20.8725 16.6143C20.8307 16.6013 20.7794 16.5847 20.7194 16.5644C20.5509 16.5072 20.3134 16.42 20.0242 16.2962C19.6434 16.1332 19.4668 15.6924 19.6298 15.3116C19.7928 14.9308 20.2336 14.7542 20.6144 14.9172C20.865 15.0245 21.0661 15.098 21.2012 15.1438C21.2687 15.1667 21.3196 15.1827 21.3519 15.1924C21.368 15.1973 21.3795 15.2006 21.386 15.2025L21.3906 15.2038L21.4656 15.2239Z" fill="black"/>
<path d="M13.7535 5.41394C13.7159 5.00143 13.3511 4.69749 12.9386 4.73506C12.5261 4.77263 12.2221 5.13749 12.2597 5.54999C12.3148 6.15522 12.4171 6.81384 12.5891 7.50755C12.6887 7.9096 13.0954 8.15476 13.4974 8.05513C13.8995 7.95549 14.1446 7.5488 14.045 7.14674C13.893 6.53324 13.8024 5.95021 13.7535 5.41394Z" fill="black"/>
<path d="M6.2846 8.99972C5.94615 8.76092 5.4782 8.84172 5.23941 9.18018C5.00062 9.51863 5.08141 9.98658 5.41987 10.2254C5.85987 10.5358 6.31948 10.9058 6.77477 11.3442C7.07314 11.6315 7.54793 11.6226 7.83524 11.3242C8.12255 11.0258 8.11358 10.551 7.81521 10.2637C7.3004 9.768 6.78118 9.35007 6.2846 8.99972Z" fill="black"/>
<path d="M14.8368 9.34684C14.6574 8.97349 14.2094 8.81624 13.836 8.99563C13.4626 9.17501 13.3054 9.6231 13.4848 9.99645C13.6246 10.2875 13.7787 10.5805 13.9484 10.8743C14.118 11.1682 14.2947 11.4481 14.4769 11.7148C14.7105 12.0568 15.1772 12.1447 15.5192 11.911C15.8612 11.6774 15.9491 11.2107 15.7155 10.8687C15.5543 10.6328 15.3978 10.3849 15.2474 10.1243C15.097 9.8638 14.9605 9.60432 14.8368 9.34684Z" fill="black"/>
<path d="M9.5228 12.2839C9.28916 11.9419 8.82248 11.854 8.48045 12.0877C8.13842 12.3213 8.05056 12.788 8.2842 13.13C8.44533 13.3659 8.60181 13.6138 8.75224 13.8743C8.90266 14.1349 9.03913 14.3944 9.16284 14.6518C9.34222 15.0252 9.79031 15.1824 10.1637 15.0031C10.537 14.8237 10.6943 14.3756 10.5149 14.0022C10.375 13.7112 10.2209 13.4182 10.0513 13.1243C9.88163 12.8305 9.70495 12.5506 9.5228 12.2839Z" fill="black"/>
<path d="M17.2249 12.6545C16.9265 12.3671 16.4517 12.3761 16.1644 12.6745C15.8771 12.9729 15.8861 13.4476 16.1844 13.735C16.6993 14.2307 17.2185 14.6486 17.7151 14.999C18.0535 15.2378 18.5215 15.157 18.7603 14.8185C18.999 14.4801 18.9183 14.0121 18.5798 13.7733C18.1398 13.4629 17.6802 13.0929 17.2249 12.6545Z" fill="black"/>
<path d="M11.4106 16.4911C11.311 16.0891 10.9043 15.8439 10.5022 15.9436C10.1002 16.0432 9.85501 16.4499 9.95465 16.8519C10.1067 17.4654 10.1973 18.0485 10.2462 18.5847C10.2837 18.9972 10.6486 19.3012 11.0611 19.2636C11.4736 19.2261 11.7775 18.8612 11.74 18.4487C11.6848 17.8435 11.5825 17.1848 11.4106 16.4911Z" fill="black"/>
</svg>
