<svg width="24" height="24" viewBox="0 0 24 24" fill="none" xmlns="http://www.w3.org/2000/svg">
<path d="M2 14C2 10.2288 2 8.34315 3.17157 7.17157C4.34315 6 6.22876 6 10 6C11.0254 6 12.0063 6.41048 12.7314 7.13555L16.8644 11.2686C17.5895 11.9937 18 12.9746 18 14C18 17.7712 18 19.6569 16.8284 20.8284C15.6569 22 13.7712 22 10 22C6.22876 22 4.34315 22 3.17157 20.8284C2.51839 20.1752 2.22937 19.3001 2.10149 18" stroke="black" stroke-width="1.5" stroke-linecap="round"/>
<path d="M18 17.8985C19.3001 17.7706 20.1752 17.4816 20.8284 16.8284C22 15.6569 22 13.7712 22 10C22 8.9746 21.5895 7.99369 20.8644 7.26862L20.5958 7M6.10149 6C6.22937 4.69989 6.51838 3.82475 7.17157 3.17157C8.34314 2 10.2288 2 14 2C15.0254 2 16.0063 2.41048 16.7314 3.13555L16.9999 3.4041" stroke="black" stroke-width="1.5" stroke-linecap="round"/>
<path d="M10 14H9C8.05719 14 7.58579 14 7.29289 14.2929C7 14.5858 7 15.0572 7 16V17C7 17.9428 7 18.4142 7.29289 18.7071C7.58579 19 8.05719 19 9 19H10M10 14H11C11.9428 14 12.4142 14 12.7071 14.2929C13 14.5858 13 15.0572 13 16V16.5M10 14V16.5M10 19H11C11.9428 19 12.4142 19 12.7071 18.7071C13 18.4142 13 17.9428 13 17V16.5M10 19V16.5M10 16.5H13" stroke="black" stroke-width="1.5"/>
</svg>
