<svg width="24" height="24" viewBox="0 0 24 24" fill="none" xmlns="http://www.w3.org/2000/svg">
<path d="M21 10V14C21 17.7712 21 19.6569 19.8284 20.8284C18.6569 22 16.7712 22 13 22H11C7.22876 22 5.34315 22 4.17157 20.8284C3 19.6569 3 17.7712 3 14V10C3 6.22876 3 4.34315 4.17157 3.17157C5.34315 2 7.22876 2 11 2H13C16.7712 2 18.6569 2 19.8284 3.17157C20.4816 3.82475 20.7706 4.69989 20.8985 6" stroke="black" stroke-width="1.5" stroke-linecap="round"/>
<path d="M8 18H16" stroke="black" stroke-width="1.5" stroke-linecap="round"/>
<path d="M15.1236 5.52125L15.549 5.59215C16.8084 5.80205 17.5513 7.12226 17.0772 8.30772L16.4115 9.97179C16.1758 10.5612 15.5408 10.8859 14.925 10.7319C13.0045 10.2518 10.9954 10.2518 9.07502 10.7319C8.45915 10.8859 7.82422 10.5612 7.58845 9.97179L6.92282 8.30772C6.44864 7.12226 7.19157 5.80205 8.45098 5.59215L8.87641 5.52125C9.58045 5.40391 10.2894 5.32651 11 5.28906" stroke="black" stroke-width="1.5" stroke-linecap="round"/>
<path d="M10.1796 9.92954L9.50461 8.04688" stroke="black" stroke-width="1.5" stroke-linecap="round"/>
</svg>
