<svg width="24" height="24" viewBox="0 0 24 24" fill="none" xmlns="http://www.w3.org/2000/svg">
<path d="M8.73019 3.82494V10.6244C8.73019 11.0331 8.62773 11.4353 8.43262 11.795L7.13879 14.1799H16.8638L15.5689 11.795C15.3732 11.4358 15.2706 11.0334 15.2702 10.6244V3.82494H16.3602C16.577 3.82494 16.7849 3.73881 16.9383 3.5855C17.0916 3.43219 17.1777 3.22426 17.1777 3.00744C17.1777 2.79063 17.0916 2.58269 16.9383 2.42938C16.7849 2.27607 16.577 2.18994 16.3602 2.18994H7.64019C7.42338 2.18994 7.21544 2.27607 7.06213 2.42938C6.90882 2.58269 6.82269 2.79063 6.82269 3.00744C6.82269 3.22426 6.90882 3.43219 7.06213 3.5855C7.21544 3.73881 7.42338 3.82494 7.64019 3.82494H8.73019ZM17.7499 15.8149H6.25044L4.52606 18.9923C4.36836 19.2828 4.28884 19.6092 4.29529 19.9397C4.30173 20.2701 4.39393 20.5932 4.56285 20.8773C4.73176 21.1614 4.9716 21.3967 5.25884 21.5602C5.54608 21.7237 5.87088 21.8098 6.20139 21.8099H17.7968C18.1274 21.81 18.4524 21.724 18.7397 21.5606C19.0271 21.3972 19.2671 21.1619 19.4362 20.8778C19.6052 20.5937 19.6975 20.2705 19.704 19.9399C19.7105 19.6094 19.631 19.2828 19.4732 18.9923L17.7499 15.8149Z" fill="black"/>
</svg>
