<svg width="24" height="24" viewBox="0 0 24 24" fill="none" xmlns="http://www.w3.org/2000/svg">
<path d="M3.02906 13.0786C2.70318 12.3968 2.70318 11.6042 3.02906 10.9224C3.16995 10.6276 3.41022 10.3457 3.89074 9.78182C4.082 9.5574 4.17762 9.44518 4.25795 9.32534C4.44207 9.05063 4.56986 8.74211 4.63392 8.41767C4.66186 8.27613 4.67359 8.12917 4.69704 7.83524C4.75598 7.09674 4.78544 6.72748 4.89426 6.41942C5.14593 5.70689 5.70639 5.14643 6.41891 4.89476C6.72698 4.78595 7.09623 4.75648 7.83474 4.69755C8.12866 4.67409 8.27562 4.66236 8.41716 4.63442C8.74161 4.57037 9.05013 4.44257 9.32484 4.25845C9.44468 4.17813 9.55689 4.0825 9.78131 3.89125C10.3452 3.41072 10.6271 3.17045 10.9219 3.02956C11.6037 2.70369 12.3963 2.70369 13.0781 3.02956C13.3729 3.17045 13.6548 3.41072 14.2187 3.89125C14.4431 4.0825 14.5553 4.17813 14.6752 4.25845C14.9499 4.44257 15.2584 4.57037 15.5828 4.63442C15.7244 4.66236 15.8713 4.67409 16.1653 4.69755C16.9038 4.75648 17.273 4.78595 17.5811 4.89476C18.2936 5.14643 18.8541 5.70689 19.1057 6.41942M4.89426 17.5816C5.14593 18.2941 5.70639 18.8546 6.41891 19.1062C6.72698 19.2151 7.09623 19.2445 7.83474 19.3035C8.12866 19.3269 8.27563 19.3386 8.41716 19.3666C8.74161 19.4306 9.05013 19.5584 9.32484 19.7426C9.44468 19.8229 9.55689 19.9185 9.78131 20.1098C10.3452 20.5903 10.6271 20.8305 10.9219 20.9714C11.6037 21.2973 12.3963 21.2973 13.0781 20.9714C13.3729 20.8305 13.6548 20.5903 14.2187 20.1098C14.4431 19.9185 14.5553 19.8229 14.6752 19.7426C14.9499 19.5584 15.2584 19.4306 15.5828 19.3666C15.7244 19.3386 15.8713 19.3269 16.1653 19.3035C16.9038 19.2445 17.273 19.2151 17.5811 19.1062C18.2936 18.8546 18.8541 18.2941 19.1057 17.5816C19.2146 17.2735 19.244 16.9043 19.3029 16.1658C19.3264 15.8718 19.3381 15.7249 19.3661 15.5833C19.4301 15.2589 19.5579 14.9504 19.742 14.6757C19.8224 14.5558 19.918 14.4436 20.1092 14.2192C20.5898 13.6553 20.83 13.3734 20.9709 13.0786C21.2968 12.3968 21.2968 11.6042 20.9709 10.9224" stroke="black" stroke-width="1.5" stroke-linecap="round"/>
<path d="M9 15L15 9" stroke="black" stroke-width="1.5" stroke-linecap="round"/>
<path d="M15.5 14.5C15.5 15.0523 15.0523 15.5 14.5 15.5C13.9477 15.5 13.5 15.0523 13.5 14.5C13.5 13.9477 13.9477 13.5 14.5 13.5C15.0523 13.5 15.5 13.9477 15.5 14.5Z" fill="black"/>
<path d="M10.5 9.5C10.5 10.0523 10.0523 10.5 9.5 10.5C8.94772 10.5 8.5 10.0523 8.5 9.5C8.5 8.94772 8.94772 8.5 9.5 8.5C10.0523 8.5 10.5 8.94772 10.5 9.5Z" fill="black"/>
</svg>
