<svg width="24" height="24" viewBox="0 0 24 24" fill="none" xmlns="http://www.w3.org/2000/svg">
<path d="M16.1369 4.72848C14.5914 3.18295 13.8186 2.41018 12.816 2.12264C11.8134 1.83509 10.7485 2.08083 8.61875 2.57231L7.39057 2.85574C5.59881 3.26922 4.70292 3.47597 4.08944 4.08944C3.47597 4.70292 3.26922 5.59881 2.85574 7.39057L2.57231 8.61875C2.08083 10.7485 1.83509 11.8134 2.12264 12.816C2.41018 13.8186 3.18295 14.5914 4.72848 16.1369L6.55812 17.9665C9.24711 20.6555 10.5916 22 12.2623 22C13.933 22 15.2775 20.6555 17.9665 17.9665C20.6555 15.2775 22 13.933 22 12.2623C22 10.9198 21.1319 9.788 19.3957 8" stroke="black" stroke-width="1.5" stroke-linecap="round"/>
<path d="M8.60699 10.8789C9.71156 10.8789 10.607 9.98348 10.607 8.87891C10.607 7.77434 9.71156 6.87891 8.60699 6.87891C7.50242 6.87891 6.60699 7.77434 6.60699 8.87891" stroke="black" stroke-width="1.5" stroke-linecap="round"/>
<path d="M11.5417 18.5001L12.5417 17.5001M18.5208 11.5209L15 15.0417" stroke="black" stroke-width="1.5" stroke-linecap="round"/>
</svg>
