<svg width="24" height="24" viewBox="0 0 24 24" fill="none" xmlns="http://www.w3.org/2000/svg">
<path d="M8.5 12.5L10.5 14.5L15.5 9.5" stroke="black" stroke-width="1.5" stroke-linecap="round" stroke-linejoin="round"/>
<path d="M3.02907 13.0786C2.7032 12.3968 2.7032 11.6042 3.02907 10.9224C3.16997 10.6276 3.41023 10.3457 3.89076 9.78182C4.08201 9.5574 4.17764 9.44518 4.25796 9.32534C4.44209 9.05063 4.56988 8.74211 4.63393 8.41767C4.66188 8.27613 4.6736 8.12917 4.69706 7.83524C4.75599 7.09674 4.78546 6.72748 4.89427 6.41942C5.14594 5.70689 5.7064 5.14643 6.41893 4.89476C6.72699 4.78595 7.09625 4.75648 7.83475 4.69755C8.12868 4.67409 8.27564 4.66236 8.41718 4.63442C8.74163 4.57037 9.05014 4.44257 9.32485 4.25845C9.4447 4.17813 9.55691 4.0825 9.78133 3.89125C10.3452 3.41072 10.6271 3.17045 10.9219 3.02956C11.6037 2.70369 12.3963 2.70369 13.0781 3.02956C13.3729 3.17045 13.6548 3.41072 14.2187 3.89125C14.4431 4.0825 14.5553 4.17813 14.6752 4.25845C14.9499 4.44257 15.2584 4.57037 15.5828 4.63442C15.7244 4.66236 15.8713 4.67409 16.1653 4.69755C16.9038 4.75648 17.273 4.78595 17.5811 4.89476C18.2936 5.14643 18.8541 5.70689 19.1058 6.41942M4.89427 17.5816C5.14594 18.2941 5.7064 18.8546 6.41893 19.1062C6.72699 19.2151 7.09625 19.2445 7.83475 19.3035C8.12868 19.3269 8.27564 19.3386 8.41718 19.3666C8.74163 19.4306 9.05014 19.5584 9.32485 19.7426C9.44469 19.8229 9.55691 19.9185 9.78133 20.1098C10.3452 20.5903 10.6271 20.8305 10.9219 20.9714C11.6037 21.2973 12.3963 21.2973 13.0781 20.9714C13.3729 20.8305 13.6548 20.5903 14.2187 20.1098C14.4431 19.9185 14.5553 19.8229 14.6752 19.7426C14.9499 19.5584 15.2584 19.4306 15.5828 19.3666C15.7244 19.3386 15.8713 19.3269 16.1653 19.3035C16.9038 19.2445 17.273 19.2151 17.5811 19.1062C18.2936 18.8546 18.8541 18.2941 19.1058 17.5816C19.2146 17.2735 19.244 16.9043 19.303 16.1658C19.3264 15.8718 19.3381 15.7249 19.3661 15.5833C19.4301 15.2589 19.5579 14.9504 19.7421 14.6757C19.8224 14.5558 19.918 14.4436 20.1093 14.2192C20.5898 13.6553 20.8301 13.3734 20.971 13.0786C21.2968 12.3968 21.2968 11.6042 20.971 10.9224" stroke="black" stroke-width="1.5" stroke-linecap="round"/>
</svg>
