<svg width="24" height="24" viewBox="0 0 24 24" fill="none" xmlns="http://www.w3.org/2000/svg">
<path opacity="0.5" fill-rule="evenodd" clip-rule="evenodd" d="M14.0137 16L14.0079 18.0029C14.0065 18.4731 14.0058 18.7081 13.8591 18.8541C13.7124 19 13.4767 19 13.0054 19H9.99502C6.21438 19 4.32407 19 3.14958 17.8284C2.34091 17.0218 2.08903 15.8766 2.01058 14.0105C1.99502 13.6405 1.98724 13.4554 2.05634 13.332C2.12545 13.2085 2.40133 13.0545 2.95308 12.7463C3.56586 12.4041 3.98007 11.7503 3.98007 11C3.98007 10.2497 3.56586 9.59586 2.95308 9.25366C2.40133 8.94554 2.12545 8.79147 2.05634 8.66802C1.98724 8.54458 1.99502 8.35954 2.01058 7.98947C2.08903 6.12339 2.34091 4.97823 3.14958 4.17157C4.32407 3 6.21439 3 9.99502 3H13.5052C13.7814 3 14.0056 3.22298 14.0064 3.49855L14.0137 6C14.0137 6.55228 14.4625 7 15.0162 7L15.0162 9C14.4625 9 14.0137 9.44772 14.0137 10V12C14.0137 12.5523 14.4625 13 15.0162 13V15C14.4625 15 14.0137 15.4477 14.0137 16Z" fill="black"/>
<path opacity="0.5" d="M15.0167 15.0008V15.0008C15.7163 15.0008 15.2624 15.5653 14.656 15.2163L14.1386 14.9186C13.9295 14.7982 13.6557 14.9505 13.6854 15.19C13.7038 15.3386 13.7423 15.441 13.8229 15.518C13.9773 15.6656 14.2135 15.6556 14.686 15.6356C16.5489 15.5567 15.7216 14.1375 16.5283 13.3328C17.337 12.5261 21.9115 15.8774 21.99 14.0113C22.0055 13.6413 22.0133 13.4562 21.9442 13.3328C21.8751 13.2093 21.5992 13.0553 21.0475 12.7471C20.4347 12.4049 20.0205 11.7511 20.0205 11.0008C20.0205 10.2505 20.4347 9.59665 21.0475 9.25446C21.5992 8.94633 21.8751 8.79227 21.9442 8.66882C22.0133 8.54537 22.0055 8.36034 21.99 7.99027C21.9115 6.12419 21.6596 4.97903 20.851 4.17237C19.9733 3.29684 18.6958 3.0756 16.5283 3.0197C16.2487 3.01249 16.0192 3.23798 16.0192 3.51698V6.0008C16.0192 6.55308 15.5704 7.0008 15.0167 7.0008L15.0167 9.0008C15.5704 9.0008 16.0192 9.44851 16.0192 10.0008V12.0008C16.0192 12.5531 15.5704 13.0008 15.0167 13.0008V15.0008Z" fill="black"/>
<path fill-rule="evenodd" clip-rule="evenodd" d="M17.5 21C15.3787 21 14.318 21 13.659 20.341C13 19.682 13 18.6213 13 16.5C13 14.3787 13 13.318 13.659 12.659C14.318 12 15.3787 12 17.5 12C19.6213 12 20.682 12 21.341 12.659C22 13.318 22 14.3787 22 16.5C22 18.6213 22 19.682 21.341 20.341C20.682 21 19.6213 21 17.5 21ZM18.25 14.5C18.25 14.0858 17.9142 13.75 17.5 13.75C17.0858 13.75 16.75 14.0858 16.75 14.5V15.75H15.5C15.0858 15.75 14.75 16.0858 14.75 16.5C14.75 16.9142 15.0858 17.25 15.5 17.25H16.75V18.5C16.75 18.9142 17.0858 19.25 17.5 19.25C17.9142 19.25 18.25 18.9142 18.25 18.5V17.25H19.5C19.9142 17.25 20.25 16.9142 20.25 16.5C20.25 16.0858 19.9142 15.75 19.5 15.75H18.25V14.5Z" fill="black"/>
</svg>
