<svg width="24" height="24" viewBox="0 0 24 24" fill="none" xmlns="http://www.w3.org/2000/svg">
<path fill-rule="evenodd" clip-rule="evenodd" d="M14.0137 17L14.0079 19.0029C14.0065 19.4731 14.0058 19.7081 13.8591 19.8541C13.7124 20 13.4767 20 13.0054 20H9.99502C6.21438 20 4.32407 20 3.14958 18.8284C2.34091 18.0218 2.08903 16.8766 2.01058 15.0105C1.99502 14.6405 1.98724 14.4554 2.05634 14.332C2.12545 14.2085 2.40133 14.0545 2.95308 13.7463C3.56586 13.4041 3.98007 12.7503 3.98007 12C3.98007 11.2497 3.56586 10.5959 2.95308 10.2537C2.40133 9.94554 2.12545 9.79147 2.05634 9.66802C1.98724 9.54458 1.99502 9.35954 2.01058 8.98947C2.08903 7.12339 2.34091 5.97823 3.14958 5.17157C4.32407 4 6.21439 4 9.99502 4H13.5052C13.7814 4 14.0056 4.22298 14.0064 4.49855L14.0137 7C14.0137 7.55228 14.4625 8 15.0162 8L15.0162 10C14.4625 10 14.0137 10.4477 14.0137 11V13C14.0137 13.5523 14.4625 14 15.0162 14V16C14.4625 16 14.0137 16.4477 14.0137 17Z" fill="black"/>
<path opacity="0.5" d="M15.0166 16.0008C15.5703 16.0008 16.0191 16.4485 16.0191 17.0008V18.9773C16.0191 19.4588 16.0191 19.6996 16.1735 19.8472C16.3279 19.9949 16.5641 19.9848 17.0366 19.9648C18.8995 19.886 20.0441 19.634 20.8508 18.8292C21.6595 18.0226 21.9114 16.8774 21.9898 15.0113C22.0054 14.6413 22.0132 14.4562 21.9441 14.3328C21.875 14.2093 21.5991 14.0553 21.0473 13.7471C20.4346 13.4049 20.0203 12.7511 20.0203 12.0008C20.0203 11.2505 20.4346 10.5967 21.0473 10.2545C21.5991 9.94633 21.875 9.79227 21.9441 9.66882C22.0132 9.54537 22.0054 9.36034 21.9898 8.99027C21.9114 7.12419 21.6595 5.97903 20.8508 5.17237C19.9731 4.29684 18.6956 4.0756 16.5282 4.0197C16.2486 4.01249 16.0191 4.23798 16.0191 4.51698V7.0008C16.0191 7.55308 15.5703 8.0008 15.0166 8.0008L15.0166 10.0008C15.5703 10.0008 16.0191 10.4485 16.0191 11.0008V13.0008C16.0191 13.5531 15.5703 14.0008 15.0166 14.0008V16.0008Z" fill="black"/>
</svg>
