<svg width="24" height="24" viewBox="0 0 24 24" fill="none" xmlns="http://www.w3.org/2000/svg">
<path d="M14.25 18.9989H15.75C18.0674 18.9936 19.3075 18.9366 20.2223 18.3253C20.659 18.0335 21.034 17.6585 21.3259 17.2217C22 16.2128 22 14.8084 22 11.9995C22 9.19053 22 7.78607 21.3259 6.77717C21.034 6.34041 20.659 5.96541 20.2223 5.67357C19.3075 5.06232 18.0674 5.00532 15.75 5H14.25V8.99902H15C16.6569 8.99902 18 10.3422 18 11.999C18 13.6559 16.6569 14.999 15 14.999H14.25V18.9989Z" fill="black"/>
<path d="M9.75 18.9989V14.999H9C7.34315 14.999 6 13.6559 6 11.999C6 10.3422 7.34315 8.99902 9 8.99902H9.75V5H8.25C5.93257 5.00532 4.69253 5.06232 3.77772 5.67358C3.34096 5.96541 2.96596 6.34041 2.67412 6.77717C2 7.78607 2 9.19053 2 11.9995C2 14.8084 2 16.2128 2.67412 17.2217C2.96596 17.6585 3.34096 18.0335 3.77772 18.3253C4.69253 18.9366 5.93258 18.9936 8.25 18.9989H9.75Z" fill="black"/>
<path opacity="0.5" d="M9.75 19L14.25 19V5H9.75V19Z" fill="black"/>
</svg>
