<svg width="24" height="24" viewBox="0 0 24 24" fill="none" xmlns="http://www.w3.org/2000/svg">
<path d="M15.7283 3.88409C17.1626 2.4442 19.2607 2.41396 20.4221 3.57993C21.5858 4.7481 21.5545 6.85934 20.1192 8.30021L17.6953 10.7335C17.403 11.0269 17.4039 11.5018 17.6974 11.7941C17.9909 12.0864 18.4657 12.0855 18.758 11.7921L21.1819 9.35882C23.0932 7.4401 23.3331 4.37677 21.4849 2.52133C19.6344 0.663673 16.5779 0.905786 14.6656 2.82548L9.81793 7.69194C7.90663 9.61066 7.66668 12.674 9.51494 14.5295C9.80727 14.8229 10.2821 14.8238 10.5756 14.5315C10.8691 14.2392 10.87 13.7643 10.5777 13.4709C9.414 12.3027 9.44534 10.1914 10.8806 8.75054L15.7283 3.88409Z" fill="black"/>
<path d="M14.4849 9.47086C14.1925 9.1774 13.7177 9.17648 13.4242 9.46881C13.1307 9.76113 13.1298 10.236 13.4221 10.5295C14.5858 11.6976 14.5545 13.8089 13.1192 15.2497L8.27153 20.1162C6.83721 21.5561 4.73913 21.5864 3.57766 20.4204C2.414 19.2522 2.44534 17.1409 3.88065 15.7001L6.30449 13.2668C6.59681 12.9733 6.59589 12.4985 6.30243 12.2062C6.00897 11.9138 5.5341 11.9147 5.24177 12.2082L2.81793 14.6415C0.906631 16.5602 0.666672 19.6235 2.51495 21.479C4.36542 23.3367 7.42197 23.0945 9.33425 21.1748L14.1819 16.3083C16.0932 14.3896 16.3331 11.3263 14.4849 9.47086Z" fill="black"/>
</svg>
