<svg width="24" height="24" viewBox="0 0 24 24" fill="none" xmlns="http://www.w3.org/2000/svg">
<path d="M19.9898 3.9909C18.4371 2.46971 16.3085 2.41169 15.2251 3.47306L11.5251 7.09803C11.2292 7.3879 10.7543 7.38304 10.4645 7.08715C10.1746 6.79127 10.1795 6.31643 10.4753 6.02655L14.1754 2.40158C16.0113 0.602909 19.0891 1.00858 21.0395 2.91943C22.9927 4.83295 23.4179 7.87497 21.5681 9.68728L18.6609 12.5355C18.365 12.8254 17.8902 12.8205 17.6003 12.5246C17.3104 12.2288 17.3153 11.7539 17.6112 11.464L20.5184 8.61581C21.5878 7.56808 21.5398 5.50942 19.9898 3.9909Z" fill="black"/>
<path d="M6.62424 3.58374C6.39448 3.2391 5.92882 3.14597 5.58418 3.37573C5.23953 3.60549 5.1464 4.07115 5.37617 4.41579L7.37617 7.41579C7.60593 7.76044 8.07158 7.85357 8.41623 7.62381C8.76088 7.39404 8.85401 6.92839 8.62424 6.58374L6.62424 3.58374Z" fill="black"/>
<path d="M2.23737 7.28826C1.84442 7.15727 1.41968 7.36964 1.28869 7.7626C1.15771 8.15555 1.37008 8.58029 1.76303 8.71128L7.76303 10.7113C8.15599 10.8423 8.58073 10.6299 8.71172 10.2369C8.8427 9.84398 8.63033 9.41924 8.23737 9.28826L2.23737 7.28826Z" fill="black"/>
<path d="M6.72775 12.5058C7.00721 12.2 6.98589 11.7256 6.68015 11.4462C6.37441 11.1667 5.90001 11.188 5.62056 11.4938L4.3597 12.8733C2.63286 14.7626 3.01004 17.9266 4.86404 19.955C6.72921 21.9956 9.73449 22.4592 11.5191 20.5068L15.5538 16.0924C15.8333 15.7866 15.8119 15.3122 15.5062 15.0328C15.2004 14.7533 14.7261 14.7746 14.4466 15.0804L10.4119 19.4948C9.41099 20.5898 7.44859 20.5593 5.97124 18.943C4.48273 17.3145 4.4083 15.0434 5.4669 13.8852L6.72775 12.5058Z" fill="black"/>
</svg>
