<svg width="24" height="24" viewBox="0 0 24 24" fill="none" xmlns="http://www.w3.org/2000/svg">
<path fill-rule="evenodd" clip-rule="evenodd" d="M9.94507 1.25H14.0548C15.4224 1.24998 16.5247 1.24996 17.3917 1.36652C18.2918 1.48754 19.0497 1.74643 19.6516 2.34835C20.2535 2.95027 20.5124 3.70814 20.6334 4.60825C20.75 5.47522 20.75 6.57754 20.7499 7.94513V16.0549C20.75 17.4225 20.75 18.5248 20.6334 19.3918C20.5124 20.2919 20.2535 21.0497 19.6516 21.6517C19.0497 22.2536 18.2918 22.5125 17.3917 22.6335C16.5247 22.75 15.4224 22.75 14.0548 22.75H9.94507C8.57748 22.75 7.47516 22.75 6.60819 22.6335C5.70808 22.5125 4.95021 22.2536 4.34829 21.6517C3.74638 21.0497 3.48748 20.2919 3.36646 19.3918C3.32777 19.1039 3.30192 18.7902 3.28466 18.4494C3.24558 18.326 3.23797 18.1912 3.2687 18.0568C3.24992 17.4649 3.24993 16.7991 3.24994 16.0549V7.94513C3.24992 6.57754 3.2499 5.47522 3.36646 4.60825C3.48748 3.70814 3.74638 2.95027 4.34829 2.34835C4.95021 1.74643 5.70808 1.48754 6.60819 1.36652C7.47516 1.24996 8.57748 1.24998 9.94507 1.25ZM4.7767 18.2491C4.7919 18.6029 4.81573 18.914 4.85309 19.1919C4.95174 19.9257 5.13219 20.3142 5.40895 20.591C5.68571 20.8678 6.07429 21.0482 6.80806 21.1469C7.56341 21.2484 8.56453 21.25 9.99994 21.25H13.9999C15.4354 21.25 16.4365 21.2484 17.1918 21.1469C17.9256 21.0482 18.3142 20.8678 18.5909 20.591C18.8677 20.3142 19.0481 19.9257 19.1468 19.1919C19.2296 18.5756 19.246 17.7958 19.2492 16.75H13.7499V19.5309C13.7499 19.5396 13.75 19.5485 13.75 19.5578C13.7501 19.6691 13.7504 19.8276 13.7291 19.9638C13.7031 20.1302 13.6175 20.4514 13.2848 20.6468C12.9645 20.8349 12.6511 20.765 12.5022 20.7187C12.3723 20.6783 12.2299 20.6105 12.1238 20.56C12.1154 20.556 12.1072 20.5521 12.0993 20.5483L10.9999 20.0261L9.90063 20.5483C9.8927 20.5521 9.88452 20.5559 9.87612 20.56C9.76995 20.6105 9.62757 20.6783 9.49772 20.7187C9.34878 20.765 9.03543 20.8349 8.71505 20.6468C8.38239 20.4514 8.29681 20.1302 8.2708 19.9638C8.24952 19.8276 8.24975 19.6691 8.24992 19.5578C8.24993 19.5485 8.24994 19.5396 8.24994 19.5309V16.75H7.89772C6.91946 16.75 6.57746 16.7564 6.31538 16.8267C5.59606 17.0194 5.02262 17.5541 4.7767 18.2491ZM9.74994 16.75V18.9592L10.4993 18.6033C10.5011 18.6024 10.5041 18.6009 10.5081 18.5989C10.5571 18.5738 10.7636 18.4682 10.9999 18.4682C11.2363 18.4682 11.4428 18.5738 11.4918 18.5989C11.4958 18.6009 11.4988 18.6024 11.5006 18.6033L12.2499 18.9592V16.75H9.74994ZM7.89772 15.25C7.85855 15.25 7.81995 15.25 7.78192 15.25C6.96396 15.2497 6.40581 15.2495 5.92715 15.3778C5.49917 15.4925 5.10218 15.6798 4.74994 15.9259V8C4.74994 6.56458 4.75153 5.56347 4.85309 4.80812C4.95174 4.07435 5.13219 3.68577 5.40895 3.40901C5.68571 3.13225 6.07429 2.9518 6.80806 2.85315C7.56341 2.75159 8.56453 2.75 9.99994 2.75H13.9999C15.4354 2.75 16.4365 2.75159 17.1918 2.85315C17.9256 2.9518 18.3142 3.13225 18.5909 3.40901C18.8677 3.68577 19.0481 4.07435 19.1468 4.80812C19.2483 5.56347 19.2499 6.56458 19.2499 8V15.25H7.89772ZM7.24994 7C7.24994 6.58579 7.58573 6.25 7.99994 6.25H15.9999C16.4142 6.25 16.7499 6.58579 16.7499 7C16.7499 7.41421 16.4142 7.75 15.9999 7.75H7.99994C7.58573 7.75 7.24994 7.41421 7.24994 7ZM7.24994 10.5C7.24994 10.0858 7.58573 9.75 7.99994 9.75H12.9999C13.4142 9.75 13.7499 10.0858 13.7499 10.5C13.7499 10.9142 13.4142 11.25 12.9999 11.25H7.99994C7.58573 11.25 7.24994 10.9142 7.24994 10.5Z" fill="black"/>
</svg>
