<svg width="24" height="24" viewBox="0 0 24 24" fill="none" xmlns="http://www.w3.org/2000/svg">
<path fill-rule="evenodd" clip-rule="evenodd" d="M6.7755 5.25H17.2247C18.041 5.24999 18.6994 5.24999 19.2326 5.29373C19.7815 5.33876 20.2635 5.43392 20.7092 5.66214C21.4096 6.02074 21.9794 6.59053 22.338 7.29084C22.5662 7.73655 22.6613 8.21861 22.7064 8.76754C22.7501 9.30066 22.7501 9.9591 22.7501 10.7754V10.8077C22.7501 10.8363 22.7502 10.8651 22.7503 10.894C22.7512 11.2321 22.7523 11.5921 22.6217 11.9139C22.5096 12.1902 22.3287 12.4333 22.0962 12.6201C21.9902 12.7054 21.8727 12.7729 21.7496 12.8293C21.7467 14.4416 21.726 16.0708 21.5813 17.4664C21.4964 18.2856 21.3661 19.0548 21.1594 19.7105C20.956 20.3557 20.6557 20.9665 20.1803 21.389C19.3569 22.1209 18.3205 22.4436 17.0268 22.5983C15.7569 22.75 14.1292 22.75 12.0513 22.75H11.9489C9.87096 22.75 8.24328 22.75 6.97337 22.5983C5.67965 22.4436 4.64328 22.1209 3.81984 21.389C3.3445 20.9665 3.0442 20.3557 2.84083 19.7105C2.6341 19.0548 2.50377 18.2856 2.41884 17.4664C2.27416 16.0708 2.25352 14.4416 2.25058 12.8293C2.12745 12.7729 2.00999 12.7054 1.90394 12.6201C1.67147 12.4333 1.4906 12.1902 1.37848 11.9139C1.24791 11.5921 1.24895 11.2321 1.24993 10.894C1.25001 10.8651 1.25009 10.8363 1.25009 10.8077L1.25009 10.7754C1.25009 9.95908 1.25008 9.30065 1.29382 8.76754C1.33886 8.21861 1.43401 7.73655 1.66224 7.29084C2.02083 6.59053 2.59062 6.02074 3.29094 5.66214C3.73664 5.43392 4.2187 5.33876 4.76763 5.29373C5.30074 5.24999 5.95917 5.24999 6.7755 5.25ZM3.75218 13.3087C3.75899 14.7455 3.78791 16.1259 3.91085 17.3118C3.99067 18.0818 4.10747 18.7394 4.27143 19.2596C4.43876 19.7904 4.63272 20.1046 4.81639 20.2679C5.31097 20.7075 5.99426 20.9706 7.15137 21.1089C8.32187 21.2487 9.85987 21.25 12.0001 21.25C14.1403 21.25 15.6783 21.2487 16.8488 21.1089C18.0059 20.9706 18.6892 20.7075 19.1838 20.2679C19.3675 20.1046 19.5614 19.7904 19.7288 19.2596C19.8927 18.7394 20.0095 18.0818 20.0893 17.3118C20.2123 16.1259 20.2412 14.7455 20.248 13.3087L15.2501 14.808V15.1615C15.2501 15.6726 14.9389 16.1322 14.4643 16.3221L13.7642 16.6021C12.6317 17.0551 11.3684 17.0551 10.236 16.6021L9.53585 16.3221C9.06128 16.1323 8.75009 15.6726 8.75009 15.1615V14.808L3.75218 13.3087ZM8.75009 13.242L3.35766 11.6242C3.14225 11.5596 3.01775 11.5218 2.92649 11.4873C2.87054 11.4661 2.84827 11.4536 2.84248 11.45C2.8101 11.4237 2.78482 11.3897 2.76893 11.3512C2.76714 11.3446 2.76161 11.3197 2.7574 11.26C2.75052 11.1627 2.75009 11.0326 2.75009 10.8077C2.75009 9.95153 2.75068 9.35474 2.7888 8.89019C2.82619 8.43445 2.89589 8.17271 2.99738 7.97451C3.21254 7.55432 3.55441 7.21245 3.9746 6.99729C4.17281 6.89579 4.43454 6.82609 4.89028 6.7887C5.35484 6.75059 5.95163 6.75 6.80775 6.75H17.1924C18.0486 6.75 18.6454 6.75059 19.1099 6.7887C19.5656 6.82609 19.8274 6.89579 20.0256 6.99729C20.4458 7.21245 20.7876 7.55432 21.0028 7.97451C21.1043 8.17271 21.174 8.43445 21.2114 8.89019C21.2495 9.35474 21.2501 9.95153 21.2501 10.8077C21.2501 11.0326 21.2497 11.1627 21.2428 11.26C21.2386 11.3197 21.2331 11.3446 21.2313 11.3512C21.2154 11.3897 21.1901 11.4237 21.1577 11.45C21.1519 11.4536 21.1297 11.4661 21.0737 11.4873C20.9824 11.5218 20.8579 11.5596 20.6425 11.6242L15.2501 13.242V13C15.2501 12.3096 14.6904 11.75 14.0001 11.75H10.0001C9.30974 11.75 8.75009 12.3096 8.75009 13V13.242ZM21.1593 11.4489L21.1577 11.45L21.1593 11.4489ZM21.2307 11.3531L21.2313 11.3512L21.2307 11.3531ZM2.76952 11.3531L2.76893 11.3512L2.76952 11.3531ZM2.84084 11.4489L2.84248 11.45L2.84084 11.4489ZM10.2501 13.25V14.9922L10.7931 15.2094C11.5679 15.5194 12.4323 15.5194 13.2071 15.2094L13.7501 14.9922V13.25H10.2501Z" fill="black"/>
<path fill-rule="evenodd" clip-rule="evenodd" d="M12.0003 2.75C11.0218 2.75 10.1874 3.37503 9.87812 4.24993C9.74009 4.64047 9.31159 4.84517 8.92106 4.70713C8.53052 4.56909 8.32583 4.1406 8.46386 3.75007C8.9783 2.29459 10.3663 1.25 12.0003 1.25C13.6342 1.25 15.0223 2.29459 15.5367 3.75007C15.6747 4.1406 15.4701 4.56909 15.0795 4.70713C14.689 4.84517 14.2605 4.64047 14.1224 4.24993C13.8132 3.37503 12.9788 2.75 12.0003 2.75Z" fill="black"/>
</svg>
