<svg width="24" height="24" viewBox="0 0 24 24" fill="none" xmlns="http://www.w3.org/2000/svg">
<path fill-rule="evenodd" clip-rule="evenodd" d="M15.6111 1.58358C17.2678 1.34691 18.75 2.63243 18.75 4.30594V5.68244C19.9395 6.31119 20.75 7.56089 20.75 8.99992V18.9999C20.75 21.071 19.0711 22.7499 17 22.7499H7C4.92893 22.7499 3.25 21.071 3.25 18.9999V4.99992C3.25 4.99062 3.25017 4.98136 3.2505 4.97215C3.25017 4.95776 3.25 4.94332 3.25 4.92885C3.25 4.0226 3.91638 3.25425 4.81353 3.12608L15.6111 1.58358ZM4.75 6.74992V18.9999C4.75 20.2426 5.75736 21.2499 7 21.2499H17C18.2426 21.2499 19.25 20.2426 19.25 18.9999V8.99992C19.25 7.75728 18.2426 6.74992 17 6.74992H4.75ZM5.07107 5.24992H17.25V4.30594C17.25 3.54525 16.5763 2.96092 15.8232 3.0685L5.02566 4.61101C4.86749 4.6336 4.75 4.76907 4.75 4.92885C4.75 5.10617 4.89375 5.24992 5.07107 5.24992ZM7.25 11.9999C7.25 11.5857 7.58579 11.2499 8 11.2499H16C16.4142 11.2499 16.75 11.5857 16.75 11.9999C16.75 12.4141 16.4142 12.7499 16 12.7499H8C7.58579 12.7499 7.25 12.4141 7.25 11.9999ZM7.25 15.4999C7.25 15.0857 7.58579 14.7499 8 14.7499H13.5C13.9142 14.7499 14.25 15.0857 14.25 15.4999C14.25 15.9141 13.9142 16.2499 13.5 16.2499H8C7.58579 16.2499 7.25 15.9141 7.25 15.4999Z" fill="black"/>
</svg>
