<svg width="24" height="24" viewBox="0 0 24 24" fill="none" xmlns="http://www.w3.org/2000/svg">
<path d="M6 15.5C6 14.9477 6.44772 14.5 7 14.5H17C17.5523 14.5 18 14.9477 18 15.5C18 16.6046 17.1046 17.5 16 17.5H8C6.89543 17.5 6 16.6046 6 15.5Z" stroke="black" stroke-width="1.5"/>
<path d="M15.7903 2.49567C15.0388 2 14.0258 2 12 2C9.9742 2 8.96129 2 8.20977 2.49567C7.97127 2.65298 7.75646 2.84355 7.57186 3.06161C6.99018 3.74872 6.86949 4.75442 6.62813 6.76581L6.53721 7.52342C6.28672 9.61087 6.16147 10.6546 6.75828 11.3273C7.35509 12 8.4063 12 10.5087 12H13.4913C15.5937 12 16.645 12 17.2418 11.3273C17.8386 10.6546 17.7133 9.61087 17.4628 7.52342L17.3719 6.76581" stroke="black" stroke-width="1.5" stroke-linecap="round"/>
<path d="M12 12V14" stroke="black" stroke-width="1.5"/>
<path d="M12 22V20M12 20V17.5M12 20H12.5C13.5 20 14.1886 21.0658 14.5 22M12 20H11.5C10.5 20 9.81142 21.0658 9.5 22M6 15.5L5 13C4.5 12 4 11.5 2 11.5M18 15.5L19 13C19.5 12 20 11.5 22 11.5" stroke="black" stroke-width="1.5" stroke-linecap="round"/>
</svg>
