<svg width="24" height="24" viewBox="0 0 24 24" fill="none" xmlns="http://www.w3.org/2000/svg">
<path fill-rule="evenodd" clip-rule="evenodd" d="M16.125 11.9999C16.125 11.5857 15.7892 11.2499 15.375 11.2499L4.40244 11.2499L6.36309 9.56932C6.67759 9.29975 6.71401 8.82628 6.44444 8.51178C6.17488 8.19729 5.7014 8.16087 5.38691 8.43044L1.88691 11.4304C1.72067 11.5729 1.625 11.7809 1.625 11.9999C1.625 12.2188 1.72067 12.4268 1.88691 12.5693L5.38691 15.5693C5.7014 15.8389 6.17488 15.8025 6.44444 15.488C6.71401 15.1735 6.67759 14.7 6.36309 14.4304L4.40244 12.7499L15.375 12.7499C15.7892 12.7499 16.125 12.4141 16.125 11.9999Z" fill="black"/>
<path d="M9.375 7.99988C9.375 8.70207 9.375 9.05317 9.54351 9.30538C9.61648 9.41459 9.71025 9.50836 9.81946 9.58132C10.0717 9.74984 10.4228 9.74984 11.125 9.74984L15.375 9.74984C16.6176 9.74984 17.625 10.7572 17.625 11.9998C17.625 13.2425 16.6176 14.2498 15.375 14.2498L11.125 14.2498C10.4228 14.2498 10.0716 14.2498 9.8194 14.4184C9.71023 14.4913 9.6165 14.5851 9.54355 14.6942C9.375 14.9465 9.375 15.2976 9.375 15.9999C9.375 18.8283 9.375 20.2425 10.2537 21.1212C11.1324 21.9999 12.5464 21.9999 15.3748 21.9999L16.3748 21.9999C19.2032 21.9999 20.6174 21.9999 21.4961 21.1212C22.3748 20.2425 22.3748 18.8283 22.3748 15.9999L22.3748 7.99988C22.3748 5.17146 22.3748 3.75723 21.4961 2.87856C20.6174 1.99988 19.2032 1.99988 16.3748 1.99988L15.3748 1.99988C12.5464 1.99988 11.1324 1.99988 10.2537 2.87856C9.375 3.75724 9.375 5.17145 9.375 7.99988Z" fill="black"/>
</svg>
