<svg width="24" height="24" viewBox="0 0 24 24" fill="none" xmlns="http://www.w3.org/2000/svg">
<path d="M3.74157 20.5545C4.94119 22 7.17389 22 11.6393 22H12.3605C16.8259 22 19.0586 22 20.2582 20.5545M3.74157 20.5545C2.54194 19.1091 2.9534 16.9146 3.77633 12.5257C4.36155 9.40452 4.65416 7.84393 5.76506 6.92196M3.74157 20.5545C3.74156 20.5545 3.74157 20.5545 3.74157 20.5545ZM20.2582 20.5545C21.4578 19.1091 21.0464 16.9146 20.2235 12.5257C19.6382 9.40452 19.3456 7.84393 18.2347 6.92196M20.2582 20.5545C20.2582 20.5545 20.2582 20.5545 20.2582 20.5545ZM18.2347 6.92196C17.1238 6 15.5361 6 12.3605 6H11.6393C8.46374 6 6.87596 6 5.76506 6.92196M18.2347 6.92196C18.2347 6.92196 18.2347 6.92196 18.2347 6.92196ZM5.76506 6.92196C5.76506 6.92196 5.76506 6.92196 5.76506 6.92196Z" stroke="black" stroke-width="1.5"/>
<path d="M9 6V5C9 3.34315 10.3431 2 12 2C13.6569 2 15 3.34315 15 5V6" stroke="black" stroke-width="1.5" stroke-linecap="round"/>
<path d="M12 17C12 18.1046 11.1046 19 10 19C8.89543 19 8 18.1046 8 17C8 15.8954 8.89543 15 10 15C11.1046 15 12 15.8954 12 17ZM12 17V12" stroke="black" stroke-width="1.5"/>
<path d="M14.0584 9.971L12.7416 10.6294C12.5592 10.7206 12.468 10.7662 12.3926 10.8238C12.1974 10.973 12.064 11.1889 12.0178 11.4302C12 11.5234 12 11.6254 12 11.8294C12 12.3149 12 12.5577 12.0598 12.7227C12.2178 13.1589 12.6551 13.4292 13.1159 13.3754C13.2902 13.3551 13.5074 13.2465 13.9416 13.0294L15.2584 12.371C15.4408 12.2798 15.532 12.2342 15.6074 12.1765C15.8026 12.0273 15.936 11.8115 15.9822 11.5701C16 11.477 16 11.375 16 11.171C16 10.6855 16 10.4427 15.9402 10.2776C15.7822 9.84144 15.3449 9.57119 14.8841 9.62495C14.7098 9.64528 14.4926 9.75385 14.0584 9.971Z" stroke="black" stroke-width="1.5" stroke-linecap="round"/>
</svg>
