<svg width="24" height="24" viewBox="0 0 24 24" fill="none" xmlns="http://www.w3.org/2000/svg">
<path fill-rule="evenodd" clip-rule="evenodd" d="M9.26346 4.32687L8.82445 3.02637L6.27194 3.573L5.25631 3.89072C4.35258 4.17343 3.56854 4.74869 3.02765 5.52592C2.893 5.7194 2.77461 5.9237 2.6737 6.13674L2.07744 7.3955L1.50996 8.90563C0.852776 10.6545 0.516113 12.5075 0.516113 14.3757V14.7761C0.516113 15.8927 0.598079 17.0077 0.761349 18.1122L6.6136 20.9733L7.9141 19.0225L6.0934 17.8521L6.3535 17.3319L7.45252 17.8525C8.36252 18.2835 9.32916 18.5831 10.3234 18.7422C11.4836 18.9278 12.6665 18.9198 13.824 18.7185L15.0668 18.5023L18.058 17.592L18.4482 18.1122L16.3674 19.0225L18.058 20.9733L23.3255 17.8521L23.3966 16.5154C23.4547 15.4236 23.4129 14.3288 23.2717 13.2447C23.1608 12.3932 22.9889 11.5509 22.7574 10.724L22.5234 9.88843L21.5794 7.55606C21.4019 7.11737 21.1886 6.69398 20.9419 6.29015L20.6745 5.85259C20.4912 5.55271 20.2726 5.2759 20.0234 5.02809C19.5592 4.56644 18.9977 4.21435 18.38 3.99755L17.505 3.69047C17.4398 3.66758 17.373 3.6495 17.3051 3.63637L14.831 3.15751L14.6648 4.32687H9.26346ZM8.30425 15.2511C9.59709 15.2511 10.6452 14.203 10.6452 12.9102C10.6452 11.6173 9.59709 10.5693 8.30425 10.5693C7.01141 10.5693 5.96335 11.6173 5.96335 12.9102C5.96335 14.203 7.01141 15.2511 8.30425 15.2511ZM16.1072 15.2511C17.4001 15.2511 18.4482 14.203 18.4482 12.9102C18.4482 11.6173 17.4001 10.5693 16.1072 10.5693C14.8144 10.5693 13.7664 11.6173 13.7664 12.9102C13.7664 14.203 14.8144 15.2511 16.1072 15.2511Z" fill="black"/>
</svg>
