<svg width="24" height="24" viewBox="0 0 24 24" fill="none" xmlns="http://www.w3.org/2000/svg">
<path d="M11.9119 6.99914C10.8075 7.01842 9.89659 6.13875 9.87731 5.03435C9.85803 3.92995 10.7377 3.01903 11.8421 2.99975C12.9465 2.98047 13.8574 3.86014 13.8767 4.96454C13.896 6.06894 13.0163 6.97986 11.9119 6.99914Z" fill="black"/>
<path d="M12.0341 13.9981C10.9297 14.0174 10.0188 13.1377 9.99948 12.0333C9.9802 10.9289 10.8599 10.018 11.9643 9.99868C13.0687 9.97941 13.9796 10.8591 13.9989 11.9635C14.0181 13.0679 13.1385 13.9788 12.0341 13.9981Z" fill="black"/>
<path d="M12.1562 20.997C11.0518 21.0163 10.1409 20.1366 10.1216 19.0322C10.1024 17.9278 10.982 17.0169 12.0864 16.9976C13.1908 16.9783 14.1018 17.858 14.121 18.9624C14.1403 20.0668 13.2606 20.9777 12.1562 20.997Z" fill="black"/>
</svg>
