<svg width="24" height="24" viewBox="0 0 24 24" fill="none" xmlns="http://www.w3.org/2000/svg">
<path d="M11.0002 2.00012C6.94518 2.00743 4.82174 2.10698 3.46471 3.46401C2.00024 4.92848 2.00024 7.2855 2.00024 11.9995C2.00024 16.7136 2.00024 19.0706 3.46471 20.5351C4.92918 21.9995 7.2862 21.9995 12.0002 21.9995C16.7143 21.9995 19.0713 21.9995 20.5358 20.5351C21.8928 19.178 21.9924 17.0546 21.9997 12.9995" stroke="black" stroke-width="1.5" stroke-linecap="round"/>
<path d="M13 11L22 2M22 2H16.6562M22 2V7.34375M21 3L12 12M12 12H16M12 12V8" stroke="black" stroke-width="1.5" stroke-linecap="round" stroke-linejoin="round"/>
</svg>
