<svg width="24" height="24" viewBox="0 0 24 24" fill="none" xmlns="http://www.w3.org/2000/svg">
<path opacity="0.5" d="M3.46447 20.5355C4.92893 22 7.28595 22 12 22C16.714 22 19.0711 22 20.5355 20.5355C22 19.0711 22 16.714 22 12C22 7.28595 22 4.92893 20.5355 3.46447C19.0711 2 16.714 2 12 2C7.28595 2 4.92893 2 3.46447 3.46447C2 4.92893 2 7.28595 2 12C2 16.714 2 19.0711 3.46447 20.5355Z" fill="black"/>
<path d="M13.024 14.5591C13.5166 14.362 13.763 14.2635 13.9562 14.094C14.0055 14.0509 14.0518 14.0045 14.095 13.9552C14.2645 13.762 14.363 13.5157 14.5601 13.023C15.484 10.7132 15.946 9.55832 15.4977 8.89867C15.3914 8.74226 15.2565 8.60736 15.1001 8.50108C14.4405 8.05282 13.2856 8.51478 10.9758 9.43869C10.4831 9.63576 10.2368 9.73429 10.0435 9.90376C9.99429 9.94695 9.94792 9.99331 9.90474 10.0426C9.73527 10.2358 9.63673 10.4821 9.43966 10.9748C8.51575 13.2846 8.0538 14.4395 8.50206 15.0991C8.60834 15.2555 8.74324 15.3904 8.89964 15.4967C9.5593 15.945 10.7142 15.483 13.024 14.5591Z" fill="black"/>
</svg>
