<svg width="24" height="24" viewBox="0 0 24 24" fill="none" xmlns="http://www.w3.org/2000/svg">
<g opacity="0.5">
<path d="M2.7832 12.75C2.86114 13.7077 3.08522 14.6495 3.4541 15.54C3.91896 16.6622 4.60009 17.6821 5.45898 18.541C6.31788 19.3999 7.33777 20.081 8.45996 20.5459C8.70504 20.6474 8.95499 20.7356 9.20703 20.8154C8.93611 20.3814 8.69123 19.8887 8.47559 19.3496C8.08009 18.3609 7.77239 17.2042 7.56445 15.9492C7.39489 14.9258 7.29372 13.8458 7.26172 12.75H2.7832Z" fill="black"/>
<path fill-rule="evenodd" clip-rule="evenodd" d="M8.7627 12.75C8.79424 13.7668 8.88823 14.7642 9.04395 15.7041C9.23805 16.8756 9.5208 17.9245 9.86816 18.793C10.2178 19.6669 10.6135 20.3084 11.0088 20.7178C11.4012 21.1242 11.7387 21.25 12 21.25C12.2613 21.25 12.5988 21.1242 12.9912 20.7178C13.3865 20.3084 13.7822 19.6669 14.1318 18.793C14.4792 17.9245 14.762 16.8756 14.9561 15.7041C15.1118 14.7642 15.2058 13.7668 15.2373 12.75H8.7627ZM16.7383 12.75C16.7063 13.8458 16.6051 14.9258 16.4355 15.9492C16.2276 17.2042 15.9199 18.3609 15.5244 19.3496C15.3087 19.8889 15.063 20.3813 14.792 20.8154C15.0443 20.7355 15.2947 20.6475 15.54 20.5459C16.6622 20.081 17.6821 19.3999 18.541 18.541C19.3999 17.6821 20.081 16.6622 20.5459 15.54C20.9148 14.6495 21.1389 13.7077 21.2168 12.75H16.7383ZM14.792 3.18359C15.0632 3.61794 15.3086 4.11083 15.5244 4.65039C15.9199 5.63914 16.2276 6.79579 16.4355 8.05078C16.6051 9.07424 16.7063 10.1542 16.7383 11.25H21.2168C21.1389 10.2923 20.9148 9.35053 20.5459 8.45996C20.081 7.33777 19.3999 6.31788 18.541 5.45898C17.6821 4.60009 16.6622 3.91896 15.54 3.4541C15.2946 3.35243 15.0444 3.26354 14.792 3.18359ZM12 2.75C11.7387 2.75 11.4012 2.87582 11.0088 3.28223C10.6135 3.69156 10.2178 4.33306 9.86816 5.20703C9.5208 6.07545 9.23805 7.12438 9.04395 8.2959C8.88823 9.23576 8.79424 10.2332 8.7627 11.25H15.2373C15.2058 10.2332 15.1118 9.23576 14.9561 8.2959C14.762 7.12438 14.4792 6.07545 14.1318 5.20703C13.7822 4.33306 13.3865 3.69156 12.9912 3.28223C12.5988 2.87582 12.2613 2.75 12 2.75ZM9.20703 3.18359C8.95489 3.26347 8.70513 3.35255 8.45996 3.4541C7.33777 3.91896 6.31788 4.60009 5.45898 5.45898C4.60009 6.31788 3.91896 7.33777 3.4541 8.45996C3.08522 9.35053 2.86114 10.2923 2.7832 11.25H7.26172C7.29372 10.1542 7.39489 9.07424 7.56445 8.05078C7.77239 6.79579 8.08009 5.63914 8.47559 4.65039C8.69134 4.11101 8.93593 3.61783 9.20703 3.18359Z" fill="black"/>
</g>
<path d="M16 12C16 13.3132 15.8965 14.6136 15.6955 15.8268C15.4945 17.0401 15.1999 18.1425 14.8284 19.0711C14.457 19.9997 14.016 20.7362 13.5307 21.2388C13.0454 21.7413 12.5253 22 12 22M16 12C16 10.6868 15.8965 9.38642 15.6955 8.17317C15.4945 6.95991 15.1999 5.85752 14.8284 4.92893C14.457 4.00035 14.016 3.26375 13.5307 2.76121C13.0454 2.25866 12.5253 2 12 2M16 12L8 12M16 12H22M12 22C11.4747 22 10.9546 21.7413 10.4693 21.2388C9.98396 20.7362 9.54301 19.9997 9.17157 19.0711C8.80014 18.1425 8.5055 17.0401 8.30448 15.8268C8.10346 14.6136 8 13.3132 8 12M12 22C13.3132 22 14.6136 21.7413 15.8268 21.2388C17.0401 20.7362 18.1425 19.9997 19.0711 19.0711C19.9997 18.1425 20.7362 17.0401 21.2388 15.8268C21.7413 14.6136 22 13.3132 22 12M12 22C10.6868 22 9.38642 21.7413 8.17317 21.2388C6.95991 20.7362 5.85752 19.9997 4.92893 19.0711C4.00035 18.1425 3.26375 17.0401 2.7612 15.8268C2.25866 14.6136 2 13.3132 2 12M8 12C8 10.6868 8.10346 9.38642 8.30448 8.17316C8.5055 6.95991 8.80014 5.85752 9.17157 4.92893C9.54301 4.00035 9.98396 3.26375 10.4693 2.7612C10.9546 2.25866 11.4747 2 12 2M8 12L2 12M12 2C10.6868 2 9.38642 2.25866 8.17317 2.7612C6.95991 3.26375 5.85752 4.00035 4.92893 4.92893C4.00035 5.85752 3.26375 6.95991 2.76121 8.17316C2.25866 9.38642 2 10.6868 2 12M12 2C13.3132 2 14.6136 2.25866 15.8268 2.76121C17.0401 3.26375 18.1425 4.00035 19.0711 4.92893C19.9997 5.85752 20.7362 6.95991 21.2388 8.17317C21.7413 9.38642 22 10.6868 22 12" stroke="black" stroke-width="1.5"/>
</svg>
