<svg width="24" height="24" viewBox="0 0 24 24" fill="none" xmlns="http://www.w3.org/2000/svg">
<path d="M9.85614 15.9621C9.72877 16.2169 9.8396 16.5264 10.0997 16.6424L19.5014 20.835C20.9972 21.5021 22.5488 20.0209 21.8079 18.6331L18.6558 12.7294C18.4107 12.2702 18.4107 11.7298 18.6558 11.2706L21.8079 5.36689C22.5488 3.97914 20.9972 2.49789 19.5014 3.16496L15.9771 4.73662C15.5542 4.9252 15.2099 5.25466 15.0028 5.6688L9.85614 15.9621Z" fill="black"/>
<path opacity="0.5" d="M8.46574 15.3914C8.34609 15.6307 8.05925 15.7334 7.81489 15.6244L2.99232 13.4738C1.66857 12.8835 1.66857 11.1191 2.99232 10.5287L11.8901 6.5608C12.3188 6.36962 12.7508 6.82121 12.5409 7.24106L8.46574 15.3914Z" fill="black"/>
</svg>
