<svg width="24" height="24" viewBox="0 0 24 24" fill="none" xmlns="http://www.w3.org/2000/svg">
<path d="M8.0374 14.1427C7.78266 14.2701 7.47314 14.1593 7.35714 13.8991L3.16447 4.49746C2.49741 3.00163 3.97865 1.45006 5.36641 2.19099L11.2701 5.34302C11.7293 5.58818 12.2697 5.58817 12.7289 5.34302L18.6326 2.19099C20.0204 1.45006 21.5016 3.00163 20.8346 4.49746L19.2629 8.02178C19.0743 8.44465 18.7448 8.78899 18.3307 8.99606L8.0374 14.1427Z" fill="black"/>
<path opacity="0.5" d="M8.60901 15.5342C8.3697 15.6538 8.267 15.9407 8.37597 16.185L10.5266 21.0076C11.1169 22.3314 12.8813 22.3314 13.4717 21.0076L17.4396 12.1099C17.6308 11.6812 17.1792 11.2491 16.7593 11.459L8.60901 15.5342Z" fill="black"/>
</svg>
