<svg width="24" height="24" viewBox="0 0 24 24" fill="none" xmlns="http://www.w3.org/2000/svg">
<g opacity="0.5">
<path d="M3 8.70938V16.8377C3 17.8813 3 18.4031 3.28314 18.7959C3.56627 19.1888 4.06129 19.3538 5.05132 19.6838L6.21609 20.072C7.58318 20.5277 8.26674 20.7556 8.95493 20.6634C8.96999 20.6614 8.98501 20.6593 9 20.6569V6.65705C8.88712 6.67391 8.77331 6.68433 8.6591 6.68823C8.11989 6.70665 7.58626 6.52877 6.51901 6.17302C5.12109 5.70705 4.42213 5.47406 3.89029 5.71066C3.70147 5.79466 3.53204 5.91678 3.39264 6.06935C3 6.49907 3 7.23584 3 8.70938Z" fill="black"/>
<path d="M21 15.2907V7.16229C21 6.11872 21 5.59692 20.7169 5.20409C20.4337 4.81126 19.9387 4.64625 18.9487 4.31624L17.7839 3.92799C16.4168 3.47229 15.7333 3.24444 15.0451 3.3366C15.03 3.33861 15.015 3.34078 15 3.34309V17.343C15.1129 17.3261 15.2267 17.3157 15.3409 17.3118C15.8801 17.2934 16.4137 17.4713 17.481 17.827C18.8789 18.293 19.5779 18.526 20.1097 18.2894C20.2985 18.2054 20.468 18.0833 20.6074 17.9307C21 17.501 21 16.7642 21 15.2907Z" fill="black"/>
</g>
<path d="M9.24685 6.61018C9.16522 6.62948 9.08286 6.64533 9 6.65771V20.6576C9.66964 20.5542 10.2689 20.1548 11.4416 19.3729L12.824 18.4513C13.7601 17.8273 14.2281 17.5153 14.7532 17.3912C14.8348 17.3719 14.9171 17.356 15 17.3436V3.34375C14.3304 3.4471 13.7311 3.84659 12.5583 4.62844L11.176 5.55003C10.2399 6.17405 9.77191 6.48607 9.24685 6.61018Z" fill="black"/>
<path d="M17.481 17.8277C17.5684 17.8568 17.653 17.885 17.735 17.9123L17.481 17.8277Z" fill="black"/>
</svg>
