<svg width="24" height="24" viewBox="0 0 24 24" fill="none" xmlns="http://www.w3.org/2000/svg">
<path opacity="0.6" d="M19.7165 20.3624C21.143 19.5846 22 18.5873 22 17.5C22 16.3475 21.0372 15.2961 19.4537 14.5C17.6226 13.5794 14.9617 13 12 13C9.03833 13 6.37738 13.5794 4.54631 14.5C2.96285 15.2961 2 16.3475 2 17.5C2 18.6525 2.96285 19.7039 4.54631 20.5C6.37738 21.4206 9.03833 22 12 22C15.1066 22 17.8823 21.3625 19.7165 20.3624Z" fill="black"/>
<path fill-rule="evenodd" clip-rule="evenodd" d="M9.25 4C9.25 2.48122 10.4812 1.25 12 1.25C13.5188 1.25 14.75 2.48122 14.75 4C14.75 5.51878 13.5188 6.75 12 6.75C10.4812 6.75 9.25 5.51878 9.25 4Z" fill="black"/>
<path d="M8.22309 11.5751L6.04779 10.85C5.42206 10.6414 5 10.0558 5 9.39624C5 8.42066 5.89953 7.69347 6.85345 7.89788L8.75102 8.3045C8.85654 8.32711 8.9093 8.33842 8.96161 8.34924C10.966 8.76384 13.034 8.76384 15.0384 8.34924C15.0907 8.33842 15.1435 8.32711 15.249 8.3045L17.1465 7.89788C18.1005 7.69347 19 8.42066 19 9.39624C19 10.0558 18.5779 10.6414 17.9522 10.85L15.7769 11.5751C15.514 11.6627 15.3826 11.7065 15.2837 11.7675C14.9471 11.9753 14.7646 12.362 14.8182 12.7539C14.834 12.869 14.8837 12.9984 14.9832 13.257L16.23 16.4986C16.6011 17.4636 15.8888 18.5007 14.8549 18.5007C14.3263 18.5007 13.8381 18.2174 13.5758 17.7584L12 15.0007L10.4242 17.7584C10.1619 18.2174 9.67373 18.5007 9.14506 18.5007C8.11118 18.5007 7.39889 17.4636 7.77003 16.4986L9.01682 13.257C9.11629 12.9984 9.16603 12.869 9.18177 12.7539C9.23536 12.362 9.05287 11.9753 8.71625 11.7675C8.61741 11.7065 8.48597 11.6627 8.22309 11.5751Z" fill="black"/>
</svg>
