<svg width="24" height="24" viewBox="0 0 24 24" fill="none" xmlns="http://www.w3.org/2000/svg">
<path d="M21.0124 4.04883L13.0607 12.0005L21.0124 19.9522C22 18.4558 22 16.1345 22 12.0005C22 7.8665 22 5.54517 21.0124 4.04883Z" fill="black"/>
<path d="M12 13.0612L4.04834 21.0128C5.54468 22.0005 7.86601 22.0005 12 22.0005C16.134 22.0005 18.4554 22.0005 19.9517 21.0128L12 13.0612Z" fill="black"/>
<path opacity="0.5" d="M3.46447 3.46447C2 4.92893 2 7.28596 2 12C2 16.134 2 18.4553 2.98767 19.9517L19.9517 2.98766C18.4553 2 16.134 2 12 2C7.28595 2 4.92893 2 3.46447 3.46447Z" fill="black"/>
</svg>
