<svg width="24" height="24" viewBox="0 0 24 24" fill="none" xmlns="http://www.w3.org/2000/svg">
<path d="M21.3226 3.78516L15.1069 10.4151L21.2865 15.2705C22 14.1669 22 12.533 22 9.49925C22 6.51748 22 4.88795 21.3226 3.78516Z" fill="black"/>
<path d="M15.2673 19.2006L13.932 16.5295C13.089 14.8432 12.6675 14 12 14C11.3325 14 10.911 14.8432 10.068 16.5295L8.73273 19.2006C8.22086 20.2245 7.96493 20.7365 8.00387 21.0588C8.06013 21.5245 8.41041 21.9006 8.87082 21.9897C9.18949 22.0514 9.71822 21.8324 10.7757 21.3943C11.1669 21.2322 11.3625 21.1512 11.5629 21.1097C11.8513 21.0501 12.1487 21.0501 12.4371 21.1097C12.6375 21.1512 12.8331 21.2322 13.2243 21.3943C14.2818 21.8324 14.8105 22.0514 15.1292 21.9897C15.5896 21.9006 15.9399 21.5245 15.9961 21.0588C16.0351 20.7365 15.7791 20.2245 15.2673 19.2006Z" fill="black"/>
<path opacity="0.5" d="M2 9.49938C2 9.51263 2 9.52585 2 9.53904C2.00001 12.7999 2.00368 14.4351 2.90796 15.537C3.07418 15.7395 3.25989 15.9252 3.46243 16.0914C3.64344 16.24 3.83883 16.3642 4.05346 16.4681C5.15025 16.9992 6.74919 16.9991 9.49726 16.9991H9.49975H14.4998L15.8427 16.9965C16.6828 16.9907 17.3922 16.9732 18 16.9202C18.9436 16.8379 19.6422 16.6702 20.2042 16.3279L13.5476 11.0977L2.96107 3.39844C2.94315 3.41937 2.92545 3.4405 2.90796 3.46181C2 4.56816 2 6.2119 2 9.49938Z" fill="black"/>
<path d="M14.5 2H9.49997C6.8838 2 5.3086 2 4.2168 2.45759L13.9056 9.50403L20.2716 2.71372C19.168 2 17.534 2 14.5 2Z" fill="black"/>
</svg>
