<svg width="24" height="24" viewBox="0 0 24 24" fill="none" xmlns="http://www.w3.org/2000/svg">
<circle cx="12" cy="12" r="3" stroke="black" stroke-width="1.5"/>
<path d="M3.66125 10.6392C4.1338 10.9361 4.43785 11.4419 4.43785 11.9999C4.43784 12.558 4.13379 13.0638 3.66125 13.3607C3.33969 13.5627 3.13252 13.7242 2.98511 13.9163C2.6622 14.3372 2.51969 14.869 2.58893 15.3949C2.64085 15.7893 2.87382 16.1928 3.33977 16.9999C3.80571 17.8069 4.03868 18.2104 4.35429 18.4526C4.77511 18.7755 5.30697 18.918 5.83287 18.8488C6.07291 18.8172 6.31631 18.7185 6.65199 18.5411C7.14547 18.2803 7.73562 18.2699 8.21898 18.549C8.7023 18.8281 8.9883 19.3443 9.00916 19.902C9.02335 20.2815 9.05961 20.5417 9.15227 20.7654C9.35526 21.2554 9.74461 21.6448 10.2347 21.8478C10.6022 22 11.0681 22 12 22C12.9319 22 13.3979 22 13.7654 21.8478C14.2555 21.6448 14.6448 21.2554 14.8478 20.7654C14.9404 20.5417 14.9767 20.2815 14.9909 19.9021C15.0118 19.3443 15.2978 18.8281 15.7811 18.549C16.2645 18.27 16.8545 18.2804 17.348 18.5412C17.6837 18.7186 17.9271 18.8173 18.1672 18.8489C18.6931 18.9182 19.2249 18.7756 19.6458 18.4527C19.9614 18.2106 20.1943 17.807 20.6603 17C20.8677 16.6407 21.029 16.3614 21.1487 16.1272M20.3388 13.3608C19.8662 13.0639 19.5622 12.5581 19.5622 12.0001C19.5621 11.442 19.8662 10.9361 20.3388 10.6392C20.6603 10.4372 20.8674 10.2757 21.0148 10.0836C21.3377 9.66278 21.4802 9.13092 21.411 8.60502C21.3591 8.2106 21.1261 7.80708 20.6602 7.00005C20.1942 6.19301 19.9613 5.7895 19.6456 5.54732C19.2248 5.22441 18.693 5.0819 18.1671 5.15113C17.927 5.18274 17.6836 5.2814 17.3479 5.45883C16.8544 5.71964 16.2643 5.73004 15.781 5.45096C15.2977 5.1719 15.0118 4.6557 14.9909 4.09803C14.9767 3.71852 14.9405 3.45835 14.8478 3.23463C14.6448 2.74458 14.2555 2.35523 13.7654 2.15224C13.3979 2 12.9319 2 12 2C11.0681 2 10.6022 2 10.2347 2.15224C9.74461 2.35523 9.35526 2.74458 9.15227 3.23463C9.05961 3.45833 9.02335 3.71848 9.00916 4.09794C8.9883 4.65566 8.70228 5.17191 8.21894 5.45096C7.7356 5.73002 7.14551 5.71959 6.65208 5.4588C6.31636 5.28136 6.07293 5.18269 5.83288 5.15108C5.30698 5.08185 4.77512 5.22436 4.3543 5.54727C4.03869 5.78945 3.80572 6.19297 3.33978 7C3.13234 7.35929 2.97108 7.63859 2.85141 7.87273" stroke="black" stroke-width="1.5" stroke-linecap="round"/>
</svg>
