<svg width="24" height="24" viewBox="0 0 24 24" fill="none" xmlns="http://www.w3.org/2000/svg">
<path fill-rule="evenodd" clip-rule="evenodd" d="M6.97747 1.32673C7.31469 1.56726 7.39307 2.03562 7.15253 2.37284L6.76646 2.91409C7.39228 3.38836 7.53099 4.27761 7.07201 4.92108L6.66139 5.49675C6.42085 5.83396 5.95249 5.91234 5.61528 5.67181C5.27806 5.43127 5.19968 4.96291 5.44022 4.62569L5.82629 4.08444C5.20047 3.61018 5.06176 2.72092 5.52074 2.07745L5.93136 1.50179C6.17189 1.16457 6.64025 1.08619 6.97747 1.32673ZM10.9775 1.32673C11.3147 1.56726 11.3931 2.03562 11.1525 2.37284L10.7665 2.91409C11.3923 3.38836 11.531 4.27761 11.072 4.92108L10.6614 5.49675C10.4209 5.83396 9.95249 5.91234 9.61528 5.67181C9.27806 5.43127 9.19968 4.96291 9.44022 4.62569L9.82629 4.08444C9.20047 3.61018 9.06176 2.72092 9.52074 2.07745L9.93136 1.50179C10.1719 1.16457 10.6403 1.08619 10.9775 1.32673ZM14.9775 1.32673C15.3147 1.56726 15.3931 2.03562 15.1525 2.37284L14.7665 2.91409C15.3923 3.38836 15.531 4.27761 15.072 4.92108L14.6614 5.49675C14.4209 5.83396 13.9525 5.91234 13.6153 5.67181C13.2781 5.43127 13.1997 4.96291 13.4402 4.62569L13.8263 4.08444C13.2005 3.61018 13.0618 2.72092 13.5207 2.07745L13.9314 1.50179C14.1719 1.16457 14.6403 1.08619 14.9775 1.32673ZM7.22162 6.2499H12.7786C13.7344 6.24987 14.5288 6.24985 15.1551 6.33612C15.8147 6.42698 16.4085 6.62729 16.8705 7.12115C17.1804 7.45242 17.3546 7.83406 17.4499 8.24991H18.0001C20.6235 8.24991 22.7501 10.3766 22.7501 12.9999C22.7501 15.6233 20.6235 17.7499 18.0001 17.7499H17.0306C17.0208 17.8756 17.0107 17.9982 17.0001 18.1178V18.7499H16.9363C16.899 19.0695 16.8555 19.3638 16.8018 19.6335C16.6334 20.4788 16.347 21.1849 15.7554 21.7383C15.1638 22.2918 14.4403 22.5306 13.5856 22.6424C12.7636 22.7499 11.7251 22.7499 10.4395 22.7499H9.5607C8.27511 22.7499 7.23667 22.7499 6.41463 22.6424C5.55998 22.5306 4.83643 22.2918 4.24483 21.7383C3.65324 21.1849 3.36682 20.4788 3.19842 19.6335C3.03645 18.8204 2.96739 17.7843 2.88189 16.5015L2.53259 11.262C2.46898 10.3083 2.41611 9.51568 2.46053 8.88498C2.50731 8.22078 2.66768 7.61501 3.12971 7.12115C3.59174 6.62729 4.18551 6.42698 4.84512 6.33612C5.47147 6.24985 6.26586 6.24987 7.22162 6.2499ZM17.1351 16.2499H18.0001C19.795 16.2499 21.2501 14.7948 21.2501 12.9999C21.2501 11.205 19.795 9.74991 18.0001 9.74991H17.551C17.5386 10.1984 17.505 10.7025 17.4676 11.262L17.1351 16.2499ZM15.5636 17.2499H4.43662C4.41664 16.9716 4.39659 16.6721 4.37506 16.3491L4.03286 11.2161C3.96476 10.1946 3.92052 9.50582 3.95683 8.99036C3.99161 8.49654 4.09431 8.2857 4.22508 8.14593C4.35585 8.00615 4.55939 7.88964 5.0498 7.82209C5.5617 7.75158 6.25191 7.74991 7.27566 7.74991H12.7246C13.7483 7.74991 14.4385 7.75158 14.9504 7.82209C15.4408 7.88964 15.6444 8.00615 15.7751 8.14593C15.9059 8.2857 16.0086 8.49654 16.0434 8.99036C16.0797 9.50582 16.0355 10.1946 15.9674 11.2161L15.6252 16.3491C15.6036 16.6721 15.5836 16.9716 15.5636 17.2499ZM4.57489 18.7499H15.4253C15.3977 18.9639 15.3667 19.1598 15.3307 19.3404C15.1944 20.0249 15.004 20.3872 14.7306 20.643C14.4572 20.8988 14.083 21.0646 13.391 21.1551C12.6776 21.2484 11.7376 21.2499 10.3868 21.2499H9.61343C8.26259 21.2499 7.32259 21.2484 6.60918 21.1551C5.91718 21.0646 5.54302 20.8988 5.26961 20.643C4.9962 20.3872 4.80586 20.0249 4.66951 19.3404C4.63353 19.1598 4.60256 18.9639 4.57489 18.7499Z" fill="black"/>
</svg>
